<svg width="43" height="48" viewBox="0 0 43 48" fill="none" xmlns="http://www.w3.org/2000/svg">
<path d="M12.6286 19.8344H16.8166C21.4557 19.8344 23.7752 18.0382 23.7752 14.4459C23.7752 10.8535 21.4557 9.05732 16.8166 9.05732H12.6286V19.8344ZM12.6286 43.2229H0V0H22.8195C34.2292 0 36.0494 6.53503 38.9273 9.05732C38.9273 11.9427 36.9837 9.85987 36.9837 14.4459C36.9837 19.0318 35.5232 22.586 32.6023 25.1083C29.7244 27.6306 25.5578 28.8917 20.1026 28.8917H12.6286V43.2229Z" fill="#71EFCE"/>
<path d="M28.8598 20.3026L22.8193 17.317C24.8328 18.3122 22.8193 6.56848 28.8598 8.95703C32.0015 10.1993 29.5309 19.5064 28.8598 20.3026Z" fill="#53CDAD"/>
<path d="M17.9978 24.6115H22.1859C26.8249 24.6115 29.1445 22.8153 29.1445 19.2229C29.1445 15.6306 26.8249 13.8344 22.1859 13.8344H17.9978V24.6115ZM17.9978 48H5.36926V4.77707H25.4719C30.9271 4.77707 35.0936 6.03821 37.9716 8.56051C40.8925 11.0828 42.3529 14.6369 42.3529 19.2229C42.3529 23.8089 40.8925 27.3631 37.9716 29.8853C35.0936 32.4076 30.9271 33.6688 25.4719 33.6688H17.9978V48Z" fill="#132E38"/>
<path d="M5.36929 4.77707L0 0V42.9936L5.36929 47.7707V4.77707Z" fill="#53CDAD"/>
</svg>
