<svg width="471" height="467" viewBox="0 0 471 467" fill="none" xmlns="http://www.w3.org/2000/svg">
<path d="M470.463 4.57764e-05H463.193V7.27008H470.463V4.57764e-05Z" fill="#9696A5"/>
<path d="M193.293 91.7843H186.023V99.0543H193.293V91.7843Z" fill="#2A353A"/>
<path d="M285.077 91.7843H277.807V99.0543H285.077V91.7843Z" fill="#2A353A"/>
<path d="M377.77 91.7843H370.5V99.0543H377.77V91.7843Z" fill="#2A353A"/>
<path d="M470.463 91.7843H463.193V99.0543H470.463V91.7843Z" fill="#2A353A"/>
<path d="M285.077 183.568H277.807V190.839H285.077V183.568Z" fill="#2A353A"/>
<path d="M377.77 183.568H370.5V190.839H377.77V183.568Z" fill="#9696A5"/>
<path d="M470.463 183.568H463.193V190.839H470.463V183.568Z" fill="#2A353A"/>
<path d="M193.293 183.568H186.023V190.839H193.293V183.568Z" fill="#2A353A"/>
<path d="M285.077 275.353H277.807V282.623H285.077V275.353Z" fill="#2A353A"/>
<path d="M470.463 275.353H463.193V282.623H470.463V275.353Z" fill="#2A353A"/>
<path d="M100.6 367.137H93.3297V374.407H100.6V367.137Z" fill="#2A353A"/>
<path d="M193.293 367.137H186.023V374.407H193.293V367.137Z" fill="#2A353A"/>
<path d="M285.077 367.137H277.807V374.407H285.077V367.137Z" fill="#2A353A"/>
<path d="M377.77 367.137H370.5V374.407H377.77V367.137Z" fill="#2A353A"/>
<path d="M470.463 367.137H463.193V374.407H470.463V367.137Z" fill="#2A353A"/>
<path d="M7.90679 458.921H0.636749V466.191H7.90679V458.921Z" fill="#9696A5"/>
<path d="M193.293 458.921H186.023V466.191H193.293V458.921Z" fill="#2A353A"/>
<path d="M285.077 458.921H277.807V466.191H285.077V458.921Z" fill="#9696A5"/>
<path d="M377.77 458.921H370.5V466.191H377.77V458.921Z" fill="#2A353A"/>
<path d="M470.463 458.921H463.193V466.191H470.463V458.921Z" fill="#2A353A"/>
</svg>
