<svg width="24" height="31" viewBox="0 0 24 31" fill="none" xmlns="http://www.w3.org/2000/svg">
<path d="M7.15619 12.6329H9.52941C12.1582 12.6329 13.4726 11.4888 13.4726 9.20081C13.4726 6.91278 12.1582 5.76876 9.52941 5.76876H7.15619V12.6329ZM7.15619 27.5294H0V0H12.931C19.3966 0 20.428 4.16227 22.0588 5.76876C22.0588 7.60649 20.9574 6.27992 20.9574 9.20081C20.9574 12.1217 20.1298 14.3854 18.4746 15.9919C16.8438 17.5984 14.4828 18.4016 11.3915 18.4016H7.15619V27.5294Z" fill="#71EFCE"/>
<path d="M16.354 12.9311L12.931 11.0295C14.072 11.6633 12.931 4.1836 16.354 5.70491C18.1342 6.49616 16.7343 12.424 16.354 12.9311Z" fill="#53CDAD"/>
<path d="M10.1988 15.6755H12.572C15.2008 15.6755 16.5152 14.5314 16.5152 12.2434C16.5152 9.95538 15.2008 8.81136 12.572 8.81136H10.1988V15.6755ZM10.1988 30.572H3.0426V3.0426H14.4341C17.5254 3.0426 19.8864 3.84585 21.5172 5.45234C23.1724 7.05883 24 9.32252 24 12.2434C24 15.1643 23.1724 17.428 21.5172 19.0345C19.8864 20.641 17.5254 21.4442 14.4341 21.4442H10.1988V30.572Z" fill="white"/>
<path d="M3.0426 3.0426L0 0V27.3834L3.0426 30.426V3.0426Z" fill="#53CDAD"/>
</svg>
