<svg fill="none" viewBox="0 0 1584 555" xmlns="http://www.w3.org/2000/svg">
<path d="m595.63 108.96-141.27-1.384-229.99 212.68 3.986 9.864 131.51-6.171 239.74-205.12-3.985-9.865z" fill="url(#dl)"/>
<path d="m458.35 117.44-3.985-9.865 141.27 1.384 3.986 9.865-133.42 7.128-7.845-8.512z" fill="url(#ck)"/>
<path d="m599.62 118.83-141.27-1.384-229.99 212.68 140.47-1.404 230.79-209.89z" fill="url(#bz)"/>
<path d="m363.19 323.96-110.56-0.947c-1.959-0.017-3.533-1.618-3.517-3.576 9e-3 -0.979 0.42-1.91 1.138-2.574l59.857-55.356c2.653-2.453 6.141-3.802 9.753-3.771l111.24 0.951c1.959 0.017 3.533 1.618 3.517 3.576-9e-3 0.986-0.427 1.923-1.154 2.588l-60.584 55.394c-2.646 2.419-6.11 3.747-9.693 3.715zm-36.206-69.711 111.41 0.955c3.585 0.031 7.048-1.297 9.694-3.716l63.525-58.081c0.728-0.665 1.145-1.602 1.153-2.587 0.018-1.959-1.556-3.561-3.515-3.577l-112.13-0.959c-3.614-0.031-7.101 1.317-9.755 3.771l-62.759 58.044c-0.718 0.663-1.13 1.594-1.138 2.573-0.017 1.957 1.557 3.559 3.515 3.577zm77.259-71.45 112.29 0.963c3.585 0.03 7.049-1.297 9.695-3.717l55.02-50.309c0.728-0.665 1.145-1.601 1.153-2.585 0.018-1.959-1.555-3.562-3.514-3.578l-112.86-1.016c-3.616-0.032-7.106 1.316-9.759 3.772l-54.406 50.319c-0.718 0.664-1.129 1.596-1.138 2.574-0.016 1.958 1.558 3.559 3.517 3.577z" clip-rule="evenodd" fill="url(#bo)" fill-rule="evenodd"/>
<path d="m382.48 311.47-18.149-0.42-14.065 12.797-5.222-0.044 14.148-12.872-27.266-0.282-14.367 13.076-5.226-0.046 14.454-13.15-30.34-1.058-15.197 13.825-5.224-0.043 15.278-13.899-32.142-0.73 3.746-3.461 32.201 0.729 20.229-18.397-32.529-0.738 3.739-3.462 32.594 0.739 10.71-9.739-32.765-0.747 3.744-3.459 32.826 0.744 14.101-12.819 5.219 0.045-14.181 12.894 30.339 1.058 14.926-13.569 5.224 0.042-15.008 13.645 27.263 0.283 15.233-13.85 5.219 0.044-15.313 13.925 17.934 0.416-3.785 3.461-17.949-0.417-10.714 9.745 18.005 0.414-3.78 3.459-18.027-0.417-20.232 18.398 18.134 0.42-3.785 3.46zm53.947-65.994 17.782 0.412 3.785-3.46-17.764-0.412 10.711-9.74 17.709 0.411 3.785-3.461-17.689-0.411 22.217-20.207 17.574 0.408 3.782-3.459-17.554-0.405 19.778-17.986-5.22-0.044-19.697 17.91-27.262-0.283 19.471-17.705-5.221-0.044-19.39 17.629-30.343-1.057 18.647-16.954-5.221-0.048-18.564 16.884-34.032-0.775-3.738 3.463 33.965 0.769-22.219 20.207-33.601-0.763-3.744 3.459 33.545 0.765-10.712 9.743-33.372-0.761-3.739 3.462 33.309 0.755-11.782 10.72 5.219 0.044 11.702-10.644 30.339 1.058-10.96 9.971 5.224 0.042 10.878-9.895 27.263 0.283-10.652 9.693 5.22 0.045 10.571-9.619zm79.084-71.927 17.381 0.402 3.781-3.459-17.358-0.403 18.725-17.03 17.261 0.402 3.782-3.46-17.238-0.399 11.551-10.507 17.18 0.395 3.783-3.456-17.162-0.399 13.344-12.138-5.217-0.047-13.266 12.066-27.261-0.281 13.049-11.87-5.217-0.046-12.972 11.797-30.344-1.06 12.251-11.142-5.217-0.046-12.173 11.068-35.266-0.802-3.739 3.462 35.202 0.802-11.552 10.509-35.016-0.798-3.743 3.459 34.957 0.795-18.725 17.027-34.651-0.783-3.739 3.457 34.587 0.787-12.323 11.21 5.224 0.043 12.238-11.134 30.342 1.057-11.494 10.458 5.217 0.047 11.418-10.385 27.261 0.282-11.188 10.182 5.22 0.045 11.107-10.107zm0.344-34.977-11.554 10.509-30.348-1.058 11.556-10.51 30.346 1.059zm-34.083 30.999 18.727-17.034-30.345-1.055-18.726 17.029 30.344 1.06zm54.934-20.088 11.551-10.508-27.261-0.284-11.556 10.51 27.266 0.282zm-3.806 3.458-18.723 17.031-27.263-0.282 18.724-17.033 27.262 0.284zm-115.7 75.353 22.218-20.206-30.338-1.059-22.22 20.207 30.34 1.058zm-3.805 3.461-10.709 9.743-30.341-1.061 10.712-9.74 30.338 1.058zm58.426-23.266-22.218 20.207-27.264-0.282 22.217-20.207 27.265 0.282zm-36.73 33.411 10.709-9.743-27.262-0.284-10.712 9.744 27.265 0.283zm-69.76 33.571-10.712 9.744-30.339-1.058 10.713-9.745 30.338 1.059zm-34.747 31.6 20.234-18.4-30.34-1.058-20.232 18.399 30.338 1.059zm56.44-21.455 10.712-9.744-27.264-0.282-10.709 9.743 27.261 0.283zm-3.802 3.457-20.232 18.402-27.263-0.287 20.231-18.398 27.264 0.283z" clip-rule="evenodd" fill="url(#bd)" fill-rule="evenodd"/>
<path d="m428.27 110.46-141.27-1.384-229.99 212.68 3.9856 9.864 131.51-6.171 239.74-205.12-3.985-9.865z" fill="url(#as)"/>
<path d="m290.99 118.94-3.985-9.865 141.27 1.384 3.986 9.865-133.42 7.128-7.845-8.512z" fill="url(#ah)"/>
<path d="m432.26 120.33-141.27-1.384-229.99 212.68 140.47-1.404 230.79-209.89z" fill="url(#w)"/>
<path d="m195.83 325.46-110.56-0.947c-1.9588-0.017-3.5331-1.618-3.5166-3.576 0.0087-0.979 0.4201-1.91 1.138-2.574l59.857-55.356c2.653-2.453 6.141-3.802 9.753-3.771l111.24 0.951c1.959 0.017 3.533 1.618 3.517 3.576-9e-3 0.986-0.427 1.923-1.154 2.588l-60.584 55.394c-2.646 2.419-6.11 3.747-9.693 3.715zm-36.206-69.711 111.41 0.955c3.585 0.031 7.048-1.296 9.694-3.716l63.525-58.081c0.728-0.665 1.145-1.602 1.153-2.587 0.018-1.959-1.556-3.561-3.515-3.577l-112.13-0.959c-3.614-0.031-7.101 1.317-9.754 3.771l-62.76 58.044c-0.718 0.663-1.13 1.594-1.138 2.573-0.017 1.957 1.558 3.559 3.515 3.577zm77.259-71.45 112.29 0.963c3.585 0.03 7.049-1.297 9.695-3.717l55.02-50.309c0.728-0.665 1.145-1.601 1.153-2.585 0.018-1.959-1.555-3.562-3.514-3.578l-112.86-1.016c-3.616-0.032-7.106 1.316-9.759 3.772l-54.406 50.319c-0.718 0.664-1.129 1.596-1.137 2.574-0.017 1.958 1.557 3.559 3.516 3.577z" clip-rule="evenodd" fill="url(#l)" fill-rule="evenodd"/>
<path d="m215.12 312.97-18.149-0.421-14.065 12.797-5.222-0.043 14.148-12.873-27.266-0.282-14.367 13.076-5.226-0.046 14.454-13.15-30.34-1.058-15.197 13.825-5.224-0.043 15.278-13.899-32.142-0.73 3.7463-3.461 32.201 0.729 20.229-18.397-32.529-0.738 3.739-3.462 32.594 0.739 10.71-9.739-32.765-0.747 3.744-3.459 32.826 0.744 14.101-12.819 5.219 0.045-14.181 12.894 30.339 1.058 14.926-13.569 5.224 0.043-15.008 13.644 27.263 0.283 15.233-13.85 5.219 0.044-15.313 13.925 17.934 0.416-3.785 3.461-17.949-0.417-10.714 9.745 18.005 0.414-3.78 3.459-18.027-0.417-20.232 18.399 18.134 0.419-3.785 3.461zm53.947-65.995 17.782 0.412 3.785-3.46-17.764-0.412 10.711-9.74 17.709 0.411 3.785-3.461-17.689-0.411 22.217-20.207 17.574 0.408 3.782-3.459-17.554-0.405 19.778-17.986-5.22-0.044-19.697 17.91-27.262-0.283 19.471-17.705-5.221-0.044-19.39 17.629-30.343-1.057 18.647-16.954-5.221-0.048-18.564 16.884-34.032-0.775-3.738 3.463 33.965 0.769-22.219 20.207-33.601-0.763-3.744 3.459 33.545 0.765-10.712 9.743-33.372-0.761-3.739 3.462 33.309 0.755-11.782 10.72 5.219 0.044 11.702-10.644 30.339 1.058-10.96 9.971 5.224 0.042 10.878-9.895 27.263 0.283-10.652 9.693 5.22 0.045 10.571-9.619zm79.084-71.927 17.381 0.402 3.781-3.459-17.358-0.403 18.725-17.03 17.261 0.402 3.782-3.46-17.238-0.399 11.551-10.507 17.18 0.395 3.783-3.456-17.162-0.399 13.344-12.138-5.217-0.047-13.266 12.066-27.261-0.281 13.049-11.87-5.217-0.046-12.972 11.797-30.344-1.06 12.251-11.142-5.217-0.046-12.173 11.068-35.266-0.802-3.739 3.462 35.202 0.802-11.552 10.509-35.016-0.798-3.743 3.459 34.957 0.795-18.724 17.027-34.652-0.783-3.739 3.457 34.587 0.787-12.323 11.21 5.225 0.043 12.237-11.134 30.342 1.057-11.494 10.458 5.217 0.047 11.418-10.385 27.261 0.282-11.188 10.182 5.22 0.045 11.107-10.107zm0.344-34.977-11.554 10.509-30.348-1.058 11.556-10.51 30.346 1.059zm-34.083 30.999 18.727-17.033-30.345-1.056-18.725 17.029 30.343 1.06zm54.934-20.088 11.552-10.508-27.262-0.284-11.556 10.51 27.266 0.282zm-3.806 3.458-18.723 17.031-27.263-0.282 18.724-17.033 27.262 0.284zm-115.7 75.353 22.218-20.206-30.338-1.058-22.22 20.206 30.34 1.058zm-3.805 3.462-10.709 9.742-30.341-1.061 10.712-9.74 30.338 1.059zm58.426-23.267-22.217 20.207-27.265-0.282 22.217-20.207 27.265 0.282zm-36.73 33.411 10.709-9.743-27.262-0.284-10.712 9.744 27.265 0.283zm-69.76 33.571-10.712 9.744-30.339-1.058 10.713-9.745 30.338 1.059zm-34.747 31.6 20.234-18.4-30.34-1.058-20.232 18.399 30.338 1.059zm56.44-21.455 10.712-9.744-27.264-0.282-10.709 9.743 27.261 0.283zm-3.802 3.457-20.232 18.402-27.263-0.287 20.231-18.398 27.264 0.283z" clip-rule="evenodd" fill="url(#a)" fill-rule="evenodd"/>
<path d="m493.28 251.84c-7.737-6.451-11.812-12.302-12.223-17.554-0.617-7.877 8.579-28.492 11.594-30.893 2.009-1.601 7.782-2.793 17.318-3.577l-16.689 52.024z" fill="url(#da)"/>
<path d="m501.92 270.57c-5.64-2.971-10.346-7.261-14.118-12.869-5.659-8.413 12.393-60.099 16.959-64.476 3.044-2.917 11.671-4.644 25.882-5.181l-28.723 82.526z" fill="url(#ct)"/>
<path d="m581.26 304.52c2.753 4.807 5.355 10.242 7.806 16.307 3.675 9.097 15.803 3.456 15.558-9.245-0.164-8.468-1.845-16.362-5.043-23.683l-18.321 16.621z" fill="url(#cs)"/>
<path d="m599.58 287.9c1.437 3.289 2.567 6.693 3.391 10.213-6.942 4.775-11.115 10.491-12.521 17.149l-0.042 0.202c-0.393 1.946-0.802 3.826-1.227 5.64-0.04-0.091-0.079-0.183-0.116-0.276-2.383-5.896-4.908-11.198-7.577-15.905l-0.229-0.402 18.321-16.621z" fill="url(#cr)"/>
<path d="m659.96 200.08s2.139 25.287-30.946 25.634c-12.982 0.143-17.069-22.392-4.381-25.556 7.281-0.896 12.974 1.054 18.746-8.349 6.84 1.633 16.581 8.271 16.581 8.271z" fill="url(#cq)"/>
<path d="m643.37 191.81c-5.773 9.403-11.466 7.453-18.747 8.349-6.593 1.644-8.656 8.519-7.296 14.724 15.653-1.317 26.722-7.905 33.209-19.763l0.223-0.414c-2.471-1.236-5.094-2.348-7.389-2.896z" fill="url(#cp)"/>
<path d="m649.68 187.27s-0.724-18.626 2.391-19.892c3.143-1.274 5.187 4.955 5.187 4.955s3.333-5.916 5.986-5.597c2.623 0.326 7.957 0.466 8.854 7.379 0.897 6.914-3.952 14.616-9.396 17.107-6.862 0.24-13.022-3.952-13.022-3.952z" fill="url(#co)"/>
<path d="m665.36 190.92s0.153 9.824-5.322 15.998c-15.893-1.214-20.5-10.969-20.5-10.969s5.138-9.367 8.239-11.672c10.56-1.255 17.583 6.643 17.583 6.643z" fill="url(#cn)"/>
<path d="m506.19 205.05c-5.073 29.94-8.381 51.599-9.924 64.977-2.314 20.068 22.139 51.458 69.86 44.912s60.225-68.987 61.73-110.77c-15.11-3.154-55.665-2.86-121.67 0.881z" fill="url(#cm)"/>
<path d="m514.54 248.6c6.943-0.746 11.766-8.796 10.773-18.023-0.964-9.227-7.385-16.1-14.328-15.385-6.943 0.746-11.766 8.826-10.772 18.053 0.963 9.197 7.385 16.1 14.327 15.355z" fill="url(#cl)"/>
<path d="m506.45 247.7c-0.681-13.379 1.366-21.623 6.141-24.733 7.163-4.665 15.256 0.695 23.989 18.198 5.822 11.669-4.222 13.848-30.13 6.535z" fill="#042635" opacity=".2"/>
<path d="m499.45 247.7c-0.681-13.379 1.366-21.623 6.141-24.733 7.163-4.665 15.256 0.695 23.989 18.198 5.822 11.67-4.222 13.848-30.13 6.535z" fill="url(#cj)"/>
<path d="m556.59 290.52 14.556-12.569c0.792-0.684 1.759-1.134 2.792-1.301 13.985-2.255 23.275-4.178 27.872-5.768 0.131-0.045 0.272-0.095 0.423-0.149 1.537-0.551 3.244 0.117 4 1.563l3.564 6.82-10.212 8.78-30.39 10.702-12.605-8.078z" clip-rule="evenodd" fill-rule="evenodd" stroke="#fff" stroke-width="2.0804"/>
<path d="m611.02 278.68 0.745-0.357c-9.41 18.998-23.855 33.631-45.637 36.619-47.721 6.546-72.174-24.844-69.86-44.912l0.087-0.746c0.207-1.76 0.443-3.658 0.709-5.692 38.335 27.495 75.947 32.699 112.84 15.613l1.118-0.525z" fill="url(#ci)"/>
<path d="m572.01 213.54 13.2 19.959c0.188 0.285 0.524 0.438 0.863 0.392l18.693-2.536c0.319-0.043 0.59-0.255 0.708-0.554l8.57-21.563-42.034 4.302z" clip-rule="evenodd" fill-rule="evenodd" stroke="#fff" stroke-width="2.0804"/>
<path d="m594.75 232.94c1.066 14.395 0.15 27.724-2.747 39.987" stroke="#fff" stroke-width="2.0804"/>
<path d="m584.09 97.158c2.952-5.4953 6.346-8.1045 10.18-7.8276 5.752 0.4155 9.062 9.8686 1.974 15.117-4.725 3.5-8.777 1.07-12.154-7.2895z" fill="url(#ch)"/>
<path d="m588.3 97.169c0.997-1.6293 2.064-2.5116 3.199-2.6468 1.703-0.2028 3.157 2.7889 1.361 5.5719-1.198 1.856-2.718 0.881-4.56-2.9251z" fill="#042635"/>
<path d="m627.78 197.41c-0.692-23.544-3.737-43.836-9.136-60.877-8.099-25.562-25.715-41.501-43.463-46.442-17.748-4.9407-38.212-7.2855-56.304 7.7089-18.093 14.995-9.566 48.066-7.263 60.767 1.536 8.468 0.756 21.704-2.341 39.71 9.167 8.237 27.195 13.789 54.084 16.655s48.363-2.974 64.423-17.522z" fill="url(#cg)"/>
<path d="m511.47 119.58c-0.669 13.989 1.876 29.455 7.635 46.397l0.175 0.514c4.76 13.87 7.26 27.602 7.502 41.197-7.595-2.602-13.433-5.737-17.514-9.405l0.183-1.075c2.944-17.458 3.663-30.337 2.158-38.635l-0.094-0.514c-1.594-8.565-5.613-25.451-3.152-40.233l0.868 0.486c0.73 0.41 1.477 0.832 2.239 1.268z" fill="#fff" opacity=".6"/>
<path d="m597.9 174.23c0.286-1.749-0.901-3.399-2.651-3.684-1.75-0.286-3.399 0.901-3.685 2.651l-1.379 8.459c-0.286 1.75 0.901 3.399 2.651 3.685 1.749 0.285 3.399-0.902 3.684-2.651l1.38-8.46z" fill="url(#cf)"/>
<path d="m592.62 172.76c0.286-1.75-0.901-3.399-2.651-3.685-1.749-0.285-3.399 0.902-3.684 2.652l-1.527 9.358c-0.285 1.75 0.902 3.399 2.651 3.685 1.75 0.285 3.4-0.902 3.685-2.651l1.526-9.359z" fill="url(#ce)"/>
<path d="m597.26 178.09c-4.035-1.502-9.217-0.544-12.077 0.377l1.083-6.742c0.068-0.358 0.179-0.697 0.348-0.988l10.94 1.42c0.316 0.615 0.468 1.317 0.346 2.063l-0.64 3.87z" fill="#042635" opacity=".2"/>
<path d="m575.9 176.39c-4.62-6.97 5.877-13.909 15.712-10.961 8.897-0.124 16.584 4.649 13.718 10.158-2.423 4.663-6.163 0.972-12.982 0.397-7.239-0.617-12.868 5.827-16.448 0.406z" fill="url(#cd)"/>
<path d="m591.04 169.79c4.232 0.932 8.155-0.548 8.762-3.305s-2.331-5.747-6.563-6.68c-4.231-0.932-8.154 0.548-8.762 3.305-0.607 2.757 2.331 5.747 6.563 6.68z" fill="#042635"/>
<path d="m555.1 161.58c10.301-0.901 17.753-11.905 16.645-24.577-1.109-12.672-10.359-22.214-20.66-21.313s-17.753 11.905-16.645 24.577c1.109 12.672 10.359 22.214 20.66 21.313z" fill="#fff"/>
<path d="m610.58 150.58c7.274-1.283 11.75-10.381 9.997-20.322-1.753-9.942-9.071-16.961-16.345-15.678s-11.75 10.381-9.997 20.322 9.071 16.96 16.345 15.678z" fill="#fff"/>
<path d="m613.26 147.4c3.118-0.054 5.578-3.957 5.495-8.716s-2.678-8.573-5.796-8.519c-3.118 0.055-5.579 3.957-5.496 8.716 0.083 4.76 2.678 8.574 5.797 8.519z" fill="#042635"/>
<path d="m610.33 139.44c0.821-0.015 1.47-0.958 1.45-2.106-0.02-1.149-0.702-2.069-1.522-2.054-0.821 0.014-1.47 0.957-1.45 2.106 0.02 1.148 0.702 2.068 1.522 2.054z" fill="#fff"/>
<path d="m614.46 140.37c0.657-0.011 1.177-0.686 1.163-1.506-0.014-0.821-0.558-1.477-1.215-1.465-0.656 0.011-1.177 0.686-1.162 1.506 0.014 0.821 0.558 1.477 1.214 1.465z" fill="#fff"/>
<path d="m561.48 153.64c4.906-0.43 8.424-6.013 7.859-12.472s-5-11.347-9.905-10.918c-4.905 0.43-8.424 6.013-7.859 12.472s5 11.347 9.905 10.918z" fill="#042635"/>
<path d="m557.61 140.93c0.981-0.086 1.683-1.216 1.569-2.524-0.115-1.308-1.003-2.299-1.984-2.213-0.981 0.085-1.683 1.215-1.569 2.524 0.115 1.308 1.003 2.299 1.984 2.213z" fill="#fff"/>
<path d="m562.22 138.78c0.736-0.064 1.263-0.912 1.177-1.893s-0.752-1.724-1.488-1.66c-0.736 0.065-1.263 0.912-1.177 1.893s0.752 1.725 1.488 1.66z" fill="#fff"/>
<path d="m515.8 124.75c-5.839 0.126-10.973-2.266-15.403-7.177-6.645-7.365-3.412-19.612 8.77-20.341 8.122-0.4863 13.903 2.118 17.343 7.8131l-10.71 19.705z" fill="url(#cc)"/>
<path d="m518.39 113c-0.975 1.063-3.71 2.592-7.838 0.501-4.127-2.091-4.076-7.499 0.351-9.612 4.427-2.112 6.932 1.607 7.928 4.072 0.995 2.465 0.533 3.975-0.441 5.039z" fill="#042635"/>
<path d="m553.19 106.85c-1.538-0.527-3.655-2.394-7.346-0.902-3.691 1.491-4.488 3.412-6.992 3.301s-1.667-4.629 3.338-6.651 9.325-1.154 11.935 0.833c2.609 1.987 0.602 3.946-0.935 3.419z" fill="#042635"/>
<path d="m595.35 110.04c1.306-0.897 3.771-3.366 6.67-3.064s4.825 0.861 4.973-0.812-2.511-2.778-6.05-3.283c-3.538-0.504-7.341 1.469-8.653 4.157-1.312 2.687 1.753 3.898 3.06 3.002z" fill="#042635"/>
<path d="m506.14 199.8c-20.27-16.87-31.577-41.82-27.928-67.79 5.913-42.074 48.87-70.802 95.935-64.187 47.066 6.6146 80.44 46.07 74.527 88.144-2.112 15.021-8.957 28.369-19.02 38.983" stroke="#fff" stroke-width="4.7552"/>
<path d="m636.95 195.11c2.215 3.889 0.827 8.808-3.058 10.999-27.936 15.81-60.691 16.536-85.67 13.698-12.622-1.414-23.525-3.786-31.307-5.816-3.893-1.004-7.005-1.921-9.189-2.612-1.08-0.344-1.931-0.608-2.503-0.808-0.3-0.09-0.528-0.171-0.687-0.241-0.091-0.037-0.138-0.043-0.185-0.05-0.044-0.03-0.044-0.03-0.067-0.033l-0.024-4e-3 2.727-7.612-2.727 7.612c-4.206-1.503-6.389-6.132-4.885-10.338 1.503-4.206 6.132-6.389 10.338-4.886l127.24 0.091zm-127.24-0.091c0.206 0.077 0.434 0.157 0.663 0.238 0.481 0.163 1.218 0.387 2.184 0.691 1.955 0.611 4.812 1.468 8.401 2.405 7.23 1.856 17.387 4.076 29.06 5.405 23.611 2.67 52.327 1.639 75.931-11.706 3.888-2.214 8.807-0.827 10.998 3.058" clip-rule="evenodd" fill="#2B4246" fill-rule="evenodd"/>
<path d="m506.98 202.63s71.385 25.591 122.95-3.56" stroke="url(#cb)" stroke-dasharray="1.43 1.43" stroke-linejoin="round" stroke-width="16.168"/>
<path d="m637.15 202.7c1.165-2.309 1.182-5.164-0.206-7.592-0.131-0.258-0.29-0.497-0.452-0.711-0.077 0.037-0.178 0.071-0.282 0.128-0.316 0.196-0.631 0.392-0.944 0.564-4.899 2.913-9.755 5.351-14.579 7.386l-22.088-0.343 22.088 0.343c-26.413 11.126-51.583 10.158-73.529 7.602-12.969-1.511-24.282-3.869-32.309-5.862-4.017-0.972-7.203-1.876-9.346-2.514-1.084-0.32-1.912-0.58-2.44-0.751-0.276-0.086-0.484-0.14-0.599-0.18-0.07-0.01-0.114-0.04-0.138-0.043l-0.023-4e-3 31.147 0.464-31.147-0.464-2.506-1.816c-0.164 0.313-0.308 0.653-0.428 0.996-1.504 4.206 0.679 8.835 4.885 10.338l2.727-7.612c-2.727 7.612-2.727 7.612-2.727 7.612l0.024 4e-3c0.023 3e-3 0.023 3e-3 0.067 0.033 0.047 7e-3 0.094 0.013 0.185 0.05 0.158 0.07 0.387 0.151 0.687 0.241 0.572 0.2 1.423 0.464 2.503 0.808 2.184 0.691 5.296 1.608 9.189 2.612 7.782 2.03 18.685 4.402 31.307 5.816 24.979 2.838 57.734 2.112 85.67-13.698 1.457-0.803 2.564-2.016 3.264-3.407z" clip-rule="evenodd" fill="#042635" fill-rule="evenodd" opacity=".7"/>
<path d="m513.29 110.15c2.909-1.224 4.27-4.586 3.043-7.472-1.224-2.909-4.586-4.2699-7.472-3.0428-7.837 3.3168-13.557 11.9-16.935 19.709-1.78 4.119-3.105 8.423-3.815 12.453-0.697 3.935-0.893 8.061-0.044 11.59 0.723 3.055 3.793 4.951 6.875 4.208 3.055-0.724 4.951-3.794 4.208-6.876-0.313-1.364-0.362-3.748 0.206-6.934 0.554-3.091 1.592-6.547 3.047-9.896 3.061-7.084 7.235-12.188 10.887-13.739zm-15.446 53.867c3.179 0.446 6.133-1.779 6.579-4.958 0.447-3.178-1.779-6.132-4.957-6.579-3.179-0.447-6.133 1.779-6.58 4.958-0.446 3.178 1.78 6.132 4.958 6.579z" clip-rule="evenodd" fill="#fff" fill-rule="evenodd"/>
<path d="m529.74 309.01c-4.414 4.507-7.548 8.983-9.402 13.428-2.782 6.666-6.038 13.136-13.704 13.099s-9.528-10.682-4.008-22.626 8.939-13.407 12.115-14.649 9.273-0.627 11.989 3.3c1.811 2.618 2.814 5.101 3.01 7.448z" fill="url(#ca)"/>
<path d="m501.46 322.16-0.046 0.244c-0.955 5.025 0.831 11.695 6.831 13.044-0.515 0.065-1.052 0.097-1.613 0.094-7.566-0.037-9.479-10.405-4.222-22.157-0.181 3.393-0.498 6.318-0.95 8.775z" fill="#fff" opacity=".6"/>
<path d="m514.74 298.26c3.175-1.242 9.272-0.627 11.989 3.3 1.811 2.618 2.814 5.101 3.009 7.448-4.336 4.428-7.437 8.826-9.303 13.194l-0.391 0.93c-2.015 4.747-4.341 9.282-8.414 11.303 0.065-7.288 5.831-20.264 5.426-25.447-0.239-3.058-2.091-6.089-5.555-9.093 1.148-0.804 2.206-1.231 3.239-1.635z" fill="url(#by)"/>
<path d="m763.77 356.9c7.343-10.886 4.471-25.663-6.415-33.006s-25.664-4.471-33.007 6.416c-7.342 10.886-4.47 25.663 6.416 33.006s25.664 4.47 33.006-6.416z" fill="url(#bx)"/>
<mask id="el" x="730" y="193" width="148" height="191" mask-type="alpha" maskUnits="userSpaceOnUse">
<path d="m733.93 354.41c-5.484-6.243-4.87-15.749 1.372-21.234 6.243-5.484 15.749-4.87 21.234 1.372 10.377 11.812 20.356 17.776 30.025 18.757 9.609 0.976 20.316-2.834 32.442-12.274 16.255-12.655 25.649-36.356 27.874-66.279 0.933-12.535 0.513-25.485-1.03-37.211l-0.127-0.94c-1.301-9.453-3.26-17.263-5.04-21.105l-0.058-0.125c-3.553-7.512-0.344-16.481 7.168-20.034 7.511-3.553 16.481-0.344 20.034 7.168 7.123 15.06 11.184 45.933 9.062 74.478-1.266 17.024-4.601 33.059-10.224 47.243-6.613 16.686-16.257 30.493-29.174 40.549-36.253 28.223-72.924 24.501-103.56-10.365z" fill="#fff"/>
</mask>
<g mask="url(#el)">
<path d="m733.93 354.41c-5.484-6.243-4.87-15.749 1.372-21.234 6.243-5.484 15.749-4.87 21.234 1.372 10.377 11.812 20.356 17.776 30.025 18.757 9.609 0.976 20.316-2.834 32.442-12.274 16.255-12.655 25.649-36.356 27.874-66.279 0.933-12.535 0.513-25.485-1.03-37.211l-0.127-0.94c-1.301-9.453-3.26-17.263-5.04-21.105l-0.058-0.125c-3.553-7.512-0.344-16.481 7.168-20.034 7.511-3.553 16.481-0.344 20.034 7.168 7.123 15.06 11.184 45.933 9.062 74.478-1.266 17.024-4.601 33.059-10.224 47.243-6.613 16.686-16.257 30.493-29.174 40.549-36.253 28.223-72.924 24.501-103.56-10.365z" fill="url(#bw)"/>
<path d="m729.6 333.19c35.827 36.444 68.708 43.015 98.641 19.712 44.9-34.954 36.137-122.49 25.977-143.96" stroke="url(#bv)" stroke-dasharray="3.64 3.64" stroke-linejoin="round" stroke-width="38.413"/>
</g>
<path d="m779.53 149.51 19.094 4.805c-3.881 15.423 2.24 31.823 15.646 40.865 17.435 11.76 41.102 7.16 52.861-10.275 11.643-17.261 7.25-40.629-9.756-52.505l-0.519-0.357 11.01-16.323c26.45 17.841 33.429 53.745 15.589 80.195-17.841 26.45-53.745 33.429-80.195 15.588-20.132-13.579-29.432-38.092-23.903-61.29l0.173-0.703z" fill="url(#bu)"/>
<path d="m869.59 215.24c5.736-8.504 3.492-20.049-5.013-25.786-8.505-5.736-20.049-3.492-25.786 5.013-5.736 8.504-3.492 20.049 5.012 25.786 8.505 5.736 20.05 3.492 25.787-5.013z" fill="url(#bt)"/>
<g filter="url(#eq)">
<path d="m306.78 265.93c10.008 2.682 20.295-3.257 22.976-13.265 2.682-10.008-3.257-20.295-13.265-22.977s-20.296 3.257-22.977 13.266c-2.682 10.008 3.257 20.295 13.266 22.976z" fill="url(#bs)"/>
</g>
<mask id="ek" x="276" y="226" width="202" height="129" mask-type="alpha" maskUnits="userSpaceOnUse">
<path d="m319.23 348.75-43.004-80.711 66.189-41.736 135.51 43.507-89.539 84.251-69.157-5.311z" fill="#fff"/>
</mask>
<g mask="url(#ek)">
<path d="m319.23 348.75-43.004-80.711 66.189-41.736 135.51 43.507-89.539 84.251-69.157-5.311z" fill="url(#br)"/>
<path d="m342.41 226.31 124.79 83.526 25.154-43.349-135.19-47.756-14.751 7.579z" fill="url(#bq)" opacity=".3"/>
<g filter="url(#ep)">
<path d="m356.05 347.61-45.648-69.734c-2.489-3.803-1.538-8.891 2.157-11.537 3.769-2.7 8.962-2.151 12.083 1.278l67.256 73.877 12.81-13.927-68.665-68.147c-2.477-2.458-2.492-6.457-0.034-8.934 0.188-0.189 0.388-0.367 0.599-0.531 3.287-2.564 7.928-2.443 11.077 0.288l78.731 68.284-37.202 32.982-33.164-3.899z" fill="url(#bp)"/>
</g>
<g filter="url(#eo)">
<path d="m347.69 250.25 78.732 68.283-33.663 29.844-31.843-3.744-45.649-69.735c-2.073-3.167-1.759-7.227 0.54-10.024 3.141-0.733 6.549 0.232 8.841 2.749l67.256 73.877 3.807-4.14 1.053 1.157 12.809-13.927-68.665-68.147c-2.228-2.211-2.463-5.671-0.698-8.146 2.593-0.535 5.371 0.123 7.48 1.953z" fill="url(#bn)"/>
</g>
<path d="m379.08 299-79.5 13 6.5 14h84.5l59.5-65.5-30.5-9.5-6 22-34.5 26z" fill="url(#bm)" opacity=".4"/>
</g>
<path d="m889.84 336.8c0 10.182-4.758 18.436-10.628 18.436s-28.63 3.687-28.63-11.061c0-15.834 22.76-25.811 28.63-25.811s10.628 8.254 10.628 18.436z" fill="#1B7395"/>
<g filter="url(#en)">
<ellipse cx="879.21" cy="336.8" rx="10.628" ry="18.436" fill="url(#bl)"/>
</g>
<path d="m1583.7 225v285s-702.2-154.76-704.48-154.76c-5.87 0-10.628-8.254-10.628-18.436s4.758-18.436 10.628-18.436 704.48-93.369 704.48-93.369z" fill="url(#bk)"/>
<path d="m843.25 538.73c9.926 0 17.969-16.383 17.969-36.593 0-20.209-8.043-36.629-17.969-36.629-9.923 0-17.966 16.42-17.966 36.629 0 20.21 8.043 36.593 17.966 36.593z" fill="url(#bj)"/>
<path d="m841.08 538.73c9.923 0 17.966-16.383 17.966-36.593 0-20.209-8.043-36.629-17.966-36.629-9.926 0-17.969 16.42-17.969 36.629 0 20.21 8.043 36.593 17.969 36.593z" fill="url(#bi)"/>
<mask id="dz" x="823" y="465" width="37" height="74" mask-type="alpha" maskUnits="userSpaceOnUse">
<path d="m841.08 538.73c9.923 0 17.966-16.383 17.966-36.593 0-20.209-8.043-36.629-17.966-36.629-9.926 0-17.969 16.42-17.969 36.629 0 20.21 8.043 36.593 17.969 36.593z" fill="#fff"/>
</mask>
<g mask="url(#dz)" stroke="#9EAED1" stroke-width=".55724">
<path d="m818.33 500.69h44.869"/>
<path d="m824.76 463.39 42.325 18.687"/>
<path d="m867.09 520.52-41.002 20.656"/>
<path d="m863.2 490.54-44.869-9.288"/>
<path d="m863.2 511.2-43.766 10.625"/>
</g>
<path d="m820.45 553.36c18.378 0 33.275-23.219 33.275-51.898 0-28.68-14.897-51.898-33.275-51.898-18.374 0-33.275 23.218-33.275 51.898 0 28.679 14.901 51.898 33.275 51.898z" fill="url(#bh)"/>
<path d="m777.86 449.57h42.589v103.8h-42.589v-103.8z" fill="url(#bg)"/>
<path d="m780.52 553.36c18.377 0 33.274-23.219 33.274-51.898 0-28.68-14.897-51.898-33.274-51.898-18.378 0-33.275 23.218-33.275 51.898 0 28.679 14.897 51.898 33.275 51.898z" fill="url(#bf)"/>
<mask id="ds" x="747" y="449" width="67" height="105" mask-type="alpha" maskUnits="userSpaceOnUse">
<path d="m780.52 553.36c18.377 0 33.274-23.219 33.274-51.898 0-28.68-14.897-51.898-33.274-51.898-18.378 0-33.275 23.218-33.275 51.898 0 28.679 14.897 51.898 33.275 51.898z" fill="#fff"/>
</mask>
<g mask="url(#ds)">
<path d="m779.86 549.39c16.539 0 29.946-20.878 29.946-46.586 0-25.745-13.407-46.585-29.946-46.585s-29.946 20.84-29.946 46.585c0 25.708 13.407 46.586 29.946 46.586z" fill="url(#be)"/>
<path d="m779.86 534.75c10.658 0 19.299-13.411 19.299-29.98 0-16.532-8.641-29.943-19.299-29.943s-19.299 13.411-19.299 29.943c0 16.569 8.641 29.98 19.299 29.98z" fill="#09172C"/>
</g>
<path d="m800.01 449.57 11.093 6.018c0.698 0.371 1.144 1.114 1.163 1.895l0.171 7.355c0.015 0.595 0.297 1.189 0.769 1.598l8.384 7.281c0.743 0.632 0.977 1.709 0.576 2.6l-3.477 7.765c-0.301 0.668-0.249 1.449 0.145 2.08l5.687 9.102c0.45 0.743 0.45 1.634 0 2.377l-5.732 9.176c-0.367 0.595-0.438 1.338-0.189 1.969l3.741 9.882c0.304 0.78 0.119 1.709-0.476 2.303l-7.37 7.69c-0.342 0.372-0.557 0.818-0.609 1.301l-1.119 10.736c-0.081 0.78-0.568 1.486-1.281 1.82l-8.652 3.975c-0.383 0.186-0.703 0.446-0.933 0.817l-3.964 6.056" stroke="#0A172A" stroke-opacity=".57042" stroke-width=".55724"/>
<path d="m811.99 449.57 11.09 6.018c0.702 0.371 1.144 1.114 1.162 1.895l0.175 7.355c0.015 0.595 0.293 1.189 0.769 1.598l8.381 7.281c0.743 0.632 0.977 1.709 0.576 2.6l-3.474 7.765c-0.304 0.668-0.249 1.449 0.145 2.08l5.684 9.102c0.449 0.743 0.449 1.634 0 2.377l-5.732 9.176c-0.368 0.595-0.439 1.338-0.19 1.969l3.741 9.882c0.305 0.78 0.119 1.709-0.475 2.303l-7.371 7.69c-0.341 0.372-0.557 0.818-0.609 1.301l-1.126 10.81c-0.078 0.743-0.52 1.412-1.177 1.746l-9.689 5.127c-0.345 0.185-0.635 0.446-0.843 0.78l-3.113 4.941" stroke="#0A172A" stroke-opacity=".57042" stroke-width=".55724"/>
<path d="m822.64 449.57 11.089 6.018c0.702 0.371 1.144 1.114 1.163 1.895l0.174 7.355c0.015 0.595 0.294 1.189 0.769 1.598l8.385 7.281c0.739 0.632 0.973 1.709 0.572 2.6l-3.473 7.765c-0.305 0.668-0.249 1.449 0.145 2.08l5.683 9.102c0.45 0.743 0.454 1.634 4e-3 2.377l-5.732 9.176c-0.368 0.595-0.438 1.338-0.193 1.969l3.741 9.882c0.308 0.78 0.122 1.709-0.476 2.303l-7.366 7.69c-0.346 0.372-0.561 0.818-0.61 1.301l-1.14 10.922c-0.071 0.668-0.453 1.3-1.04 1.671l-7.687 4.755c-0.148 0.112-0.286 0.223-0.408 0.335l-5.677 5.721" stroke="#0A172A" stroke-opacity=".57042" stroke-width=".55724"/>
<path d="m746.18 487.76c2.593-2.712 6.843-2.861 9.637-0.446l0.241 0.223 7.973 7.652c3.529 3.381 8.187 5.313 13.065 5.461h6.085c3.856 0 6.988 3.121 6.988 6.985 0 3.752-2.976 6.835-6.702 6.984h-5.851c-8.459 0-16.602-3.195-22.806-8.916l-0.449-0.446-7.973-7.616c-2.786-2.674-2.879-7.095-0.208-9.881z" fill="url(#bc)"/>
<path d="m755.82 488.65 0.241 0.223 7.972 7.653c3.53 3.381 8.188 5.312 13.066 5.461h6.085c3.756 0 6.821 2.935 6.981 6.687h-8.965c-7.931 0-15.606-2.861-21.632-8.025l-13.452-11.479 0.067-0.074c2.593-2.712 6.843-2.898 9.637-0.446z" fill="#94D8C4"/>
<path d="m381.9 478.84 15.47 11.516-12.568 16.866c-4.952 6.65-12.679 10.625-20.941 10.811l-0.539 0.037-33.784 0.148-0.089-19.318 33.784-0.148c2.288 0 4.447-1.04 5.888-2.824l0.212-0.26 12.567-16.828z" fill="url(#bb)"/>
<path d="m381.9 485.49 10.146-1.783-12.568 16.866c-4.956 6.613-12.679 10.625-20.941 10.811h-0.539l-33.784 0.185 3.904-6.018 33.784-0.148c2.289 0 4.447-1.041 5.889-2.787l0.211-0.297 13.898-16.829z" fill="#94D8C4"/>
<path d="m303.69 453.47c0-0.482 0.156-0.965 0.446-1.337l34.144-45.545c0.531-0.706 1.423-1.041 2.281-0.818l100.27 22.922c1.014 0.223 1.731 1.114 1.731 2.154v43.54c0 1.226-1 2.229-2.233 2.229l-134.42-0.335c-1.229 0-2.221-1.003-2.221-2.229v-20.581z" fill="url(#ba)"/>
<path d="m312.86 440.5 30.251 15.454 16.818-4.643-0.725 25.113-50.208-0.149c-2.934 0-5.308-2.377-5.308-5.312v-16.457c0-1.152 0.371-2.266 1.062-3.195l8.11-10.811z" clip-rule="evenodd" fill="#101E34" fill-rule="evenodd" opacity=".2164"/>
<path d="m342.52 406.21 95.898 21.918c2.422 0.558 4.139 2.712 4.139 5.201v12.668h-89.286l-32.075-16.643 15.878-21.138c1.259-1.709 3.395-2.489 5.446-2.006z" fill="url(#az)"/>
<path d="m419.92 285.7c-0.958 0.037-1.478-1.115-0.851-1.821l23.2-26.822c0.186-0.222 0.439-0.334 0.717-0.371l152.34-17.576c0.118-0.014 0.241-7e-3 0.36 0.019l100.65 21.755c0.227 0.037 0.435 0.148 0.591 0.334l18.181 19.95c0.646 0.705 0.149 1.857-0.814 1.857l-294.38 2.675z" fill="url(#ay)"/>
<mask id="dr" x="418" y="239" width="298" height="47" mask-type="alpha" maskUnits="userSpaceOnUse">
<path d="m419.92 285.7c-0.958 0.037-1.478-1.115-0.851-1.821l23.2-26.822c0.186-0.222 0.439-0.334 0.717-0.371l152.34-17.576c0.119-0.014 0.242-7e-3 0.361 0.019l100.65 21.755c0.227 0.037 0.435 0.148 0.591 0.334l18.181 19.95c0.646 0.705 0.149 1.857-0.814 1.857l-294.38 2.675z" fill="#fff"/>
</mask>
<g mask="url(#dr)">
<path d="m590.01 223.29 104.72 9.807 22.049 49.933-104.77 0.929-22.007-60.669z" fill="url(#ax)" opacity=".30008"/>
<path d="m424.4 256.28 180.43 6.019-14.816-39.011-165.62 32.992z" clip-rule="evenodd" fill="url(#aw)" fill-rule="evenodd" opacity=".37523"/>
</g>
<path d="m288.63 385.3c0 0.669 0.327 1.337 0.88 1.746l59.172 45.1c0.39 0.297 0.866 0.445 1.353 0.445l269.86 0.112c0.725 0 1.405 0.334 1.821 0.929l49.684 70.398c0.419 0.594 1.099 0.929 1.824 0.929h114.64c0.49 0 0.969-0.149 1.356-0.446l86.48-66.349c0.55-0.446 0.873-1.078 0.873-1.783v-87.711c0-0.854-0.486-1.597-1.255-2.006l-134.77-65.457c-0.197-0.112-0.405-0.149-0.62-0.186l-124.54-20.024c-0.175-0.037-0.353-0.037-0.532-0.037l-190.47 15.546c-0.308 0.037-39.118 37.91-39.39 38.059l-95.203 6.986c-0.721 0.409-1.17 1.152-1.17 1.969v61.78z" fill="url(#av)"/>
<mask id="dq" x="288" y="260" width="589" height="245" mask-type="alpha" maskUnits="userSpaceOnUse">
<path d="m288.63 385.3c0 0.669 0.327 1.337 0.88 1.746l59.172 45.1c0.39 0.297 0.866 0.445 1.353 0.445l269.86 0.112c0.725 0 1.405 0.334 1.821 0.929l49.684 70.398c0.419 0.594 1.099 0.929 1.824 0.929h114.64c0.49 0 0.969-0.149 1.356-0.446l86.48-66.349c0.55-0.446 0.873-1.078 0.873-1.783v-87.711c0-0.854-0.486-1.597-1.255-2.006l-134.77-65.457c-0.197-0.112-0.405-0.149-0.62-0.186l-124.54-20.024c-0.175-0.037-0.353-0.037-0.532-0.037l-190.46 15.455c-0.309 0.037-39.126 38.001-39.398 38.15l-95.203 6.986c-0.721 0.409-1.17 1.152-1.17 1.969v61.78z" fill="#fff"/>
</mask>
<g mask="url(#dq)">
<path d="m400.52 278.08 122.47 63.933 68.511 79.872h-113.77l-50.91-89.754-142.19-10.883 115.88-43.168z" clip-rule="evenodd" fill="url(#au)" fill-rule="evenodd" opacity=".37523"/>
<path d="m371.88 328.87-3.942 70.807c-0.018 0.297 0.093 0.594 0.301 0.817l35.46 37.521" stroke="#1E889E" stroke-linecap="round" stroke-width="1.3931"/>
<path d="m759.23 348.41c0-1.226 1-2.229 2.229-2.229h118.89v91.834h-121.12v-89.605z" fill="url(#at)" opacity=".52641"/>
<path d="m638.22 344.77-23.947 55.39v43.168" stroke="#1E889E" stroke-linecap="round" stroke-width="1.3931"/>
<path d="m550.6 262.41-66.869 73.891c-0.327 0.371-0.528 0.817-0.569 1.3l-8.7 103.09" stroke="#1E889E" stroke-linecap="round" stroke-width="1.3931"/>
<path d="m279.18 355.5 335.1 44.654h145.51" stroke="#1E889E" stroke-linecap="round" stroke-width="1.3931"/>
<path d="m462.58 292.94c1.754-1.858 1.869-4.607 0.257-6.13-1.613-1.486-4.343-1.189-6.097 0.706-1.757 1.858-1.868 4.607-0.256 6.13 1.612 1.486 4.343 1.189 6.096-0.706z" fill="#fff"/>
<path d="m578.82 289.07c1.754-1.857 1.869-4.606 0.256-6.129-1.612-1.486-4.342-1.189-6.096 0.705-1.757 1.858-1.868 4.607-0.256 6.13 1.612 1.486 4.343 1.189 6.096-0.706z" fill="#fff"/>
<path d="m579.82 319.07c1.754-1.857 1.869-4.606 0.256-6.129-1.612-1.486-4.342-1.189-6.096 0.705-1.757 1.858-1.868 4.607-0.256 6.13 1.612 1.486 4.343 1.189 6.096-0.706z" fill="#fff"/>
<path d="m447.76 312.71c2.002-2.155 2.103-5.313 0.223-7.059-1.884-1.783-5.034-1.449-7.04 0.706-2.002 2.155-2.103 5.312-0.223 7.058 1.884 1.784 5.034 1.449 7.04-0.705z" fill="#fff"/>
<path d="m279.17 321.25 359.04 23.609-23.947-84.237" stroke="#1E889E" stroke-linecap="round" stroke-width="1.3931"/>
<path d="m768.54 426.05c0-1.486 1.192-2.675 2.66-2.675 1.471 0 2.663 1.189 2.663 2.675v11.962h-5.323v-11.962z" fill="url(#ar)"/>
<path d="m776.53 426.05c0-1.486 1.189-2.675 2.66-2.675s2.664 1.189 2.664 2.675v11.962h-5.324v-11.962z" fill="url(#aq)"/>
<path d="m857.72 426.05c0-1.486 1.192-2.675 2.66-2.675 1.471 0 2.664 1.189 2.664 2.675v11.962h-5.324v-11.962z" fill="url(#ap)"/>
<path d="m865.7 426.05c0-1.486 1.192-2.675 2.663-2.675s2.66 1.189 2.66 2.675v11.962h-5.323v-11.962z" fill="url(#ao)"/>
<path d="m759.23 438.01-81.394 74.411 115.78-0.074 94.46-74.337h-128.85z" fill="url(#an)" opacity=".52641"/>
<path d="m284.64 387.79 289.95 52.232" stroke="#1E889E" stroke-linecap="round" stroke-width="1.3931"/>
<path d="m284.64 387.79 192.01 35.292h137.58l0.279-22.104 23.716-57.452 23.123 79.556h7.76c3.629 0 7.028 1.746 9.116 4.718l36.288 51.638 2.422 36.184-408.91-84.924-23.382-42.908z" fill="url(#am)" opacity=".3"/>
<path d="m614.86 260.96 70.128 244.89 74.243-67.835v-90.514l-110.06-81.425-34.314-5.116z" clip-rule="evenodd" fill="url(#al)" fill-rule="evenodd" opacity=".5"/>
<path d="m799.16 392.1c19.702 15.627 36.954 15.627 51.755 0" stroke="#fff" stroke-linecap="round" stroke-width="8"/>
</g>
<path d="m715.32 505.11c-0.211 0.223-0.241 0.52-0.066 0.743l2.492 3.307c0.42 0.557 1.074 0.891 1.769 0.891l49.854 0.26c0.572 0 1.122-0.223 1.538-0.631l34.91-32.766c1.159-1.115 1.389-2.861 0.553-4.198l-2.184-3.529c-0.509-0.818-1.404-1.338-2.37-1.338h-44.669c-0.698 0-1.367 0.26-1.883 0.743l-39.944 36.518z" fill="url(#ak)"/>
<mask id="dp" x="715" y="467" width="92" height="44" mask-type="alpha" maskUnits="userSpaceOnUse">
<path d="m715.32 505.11c-0.211 0.223-0.241 0.52-0.066 0.743l2.492 3.307c0.42 0.557 1.074 0.891 1.769 0.891l49.854 0.26c0.572 0 1.122-0.223 1.538-0.631l34.91-32.766c1.159-1.115 1.389-2.861 0.553-4.198l-2.184-3.529c-0.509-0.818-1.404-1.338-2.37-1.338h-44.669c-0.698 0-1.367 0.26-1.883 0.743l-39.944 36.518z" fill="#fff"/>
</mask>
<g mask="url(#dp)">
<path d="m717.3 512.42 41.5-37.187c0.917-0.817 2.102-1.3 3.336-1.3l40.259-0.074c2.451-0.038 4.617 1.56 5.338 3.9l0.587 1.932-34.449 35.924-56.571-3.195z" fill="url(#aj)" opacity=".3"/>
<path d="m725.28 520.41 41.504-37.187c0.914-0.817 2.095-1.3 3.321-1.3l16.339-0.074c0.505-0.037 0.754 0.594 0.379 0.966l-42.243 39.007-19.3-1.412z" fill="url(#ai)"/>
</g>
<path d="m679.42 463.31 28.876-16.792c0.491-0.297 1.122-0.185 1.46 0.298l4.194 5.758c0.32 0.409 0.279 1.04-0.104 1.412l-20.815 21.286-13.611-11.962z" fill="#092E3B"/>
<path d="m679.42 461.98 28.876-16.792c0.491-0.297 1.122-0.149 1.46 0.297l4.128 5.647c0.349 0.483 0.263 1.152-0.194 1.523l-25.982 21.287-8.288-11.962z" fill="url(#ag)"/>
<path d="m667.27 444.48 30.229-14.228c0.516-0.26 1.133-0.074 1.426 0.446l3.674 6.055c0.283 0.483 0.182 1.077-0.238 1.449l-22.553 18.909-12.538-12.631z" fill="#092E3B"/>
<path d="m667.27 443.14 30.229-14.228c0.516-0.223 1.133-0.038 1.426 0.445l3.622 5.981c0.305 0.521 0.164 1.152-0.327 1.486l-27.736 18.947-7.214-12.631z" fill="url(#af)"/>
<path d="m441.34 334.37c0.65 0.037 1.114 0.631 0.999 1.3l-1.047 5.981c-0.101 0.557-0.617 0.966-1.193 0.892l-24.857-2.118c-0.579-0.037-1.021-0.52-1.021-1.114v-6.13c0-0.632 0.561-1.152 1.211-1.114l25.908 2.303z" fill="url(#ae)"/>
<mask id="do" x="414" y="332" width="29" height="11" mask-type="alpha" maskUnits="userSpaceOnUse">
<path d="m441.34 334.37c0.65 0.037 1.114 0.631 0.999 1.3l-1.047 5.981c-0.101 0.557-0.617 0.966-1.193 0.892l-24.857-2.118c-0.579-0.037-1.021-0.52-1.021-1.114v-6.13c0-0.632 0.561-1.152 1.211-1.114l25.908 2.303z" fill="#fff"/>
</mask>
<g mask="url(#do)">
<path d="m443.89 333.14-1.434 8.173-26.897-2.303v-8.359l28.331 2.489z" fill="url(#ad)"/>
</g>
<path d="m547.86 337.74c0.651 0.015 1.137 0.63 1.044 1.265l-0.838 6.014c-0.081 0.56-0.583 0.987-1.161 0.932l-24.915-1.248c-0.581-0.017-1.04-0.485-1.06-1.079l-0.213-6.088c-0.023-0.669 0.519-1.208 1.171-1.156l25.972 1.36z" fill="url(#ac)"/>
<mask id="dn" x="520" y="336" width="29" height="10" mask-type="alpha" maskUnits="userSpaceOnUse">
<path d="m547.86 337.74c0.651 0.015 1.137 0.63 1.044 1.265l-0.838 6.014c-0.081 0.56-0.583 0.987-1.161 0.932l-24.915-1.248c-0.581-0.017-1.04-0.485-1.06-1.079l-0.213-6.088c-0.023-0.669 0.519-1.208 1.171-1.156l25.972 1.36z" fill="#fff"/>
</mask>
<g mask="url(#dn)">
<path d="m550.36 336.42-1.148 8.218-25.935-1.287c-0.579-0.054-1.037-0.522-1.057-1.079l-0.256-7.351 28.396 1.499z" fill="url(#ab)"/>
</g>
<path d="m204.62 482.07h467.6l-33.082-49.372h-397.68l-36.845 49.372z" fill="url(#aa)"/>
<path d="m237.63 435.64h61.182l-32.15 46.437h-61.798l32.766-46.437z" clip-rule="evenodd" fill="#101E34" fill-rule="evenodd"/>
<path d="m442.45 553.81v-103.83h53.239c18.378 0 33.275 23.256 33.275 51.936 0 28.382-14.604 51.452-32.725 51.898h-53.789z" fill="url(#z)"/>
<path d="m465.93 449.98 11.089 6.056c0.703 0.371 1.145 1.114 1.163 1.894l0.175 7.319c0.015 0.631 0.293 1.226 0.769 1.634l8.381 7.282c0.743 0.631 0.977 1.709 0.576 2.6l-3.474 7.765c-0.305 0.668-0.249 1.448 0.145 2.08l5.684 9.102c0.449 0.743 0.453 1.634 0 2.377l-5.729 9.176c-0.367 0.594-0.438 1.337-0.193 1.969l3.741 9.882c0.308 0.78 0.123 1.709-0.475 2.303l-7.367 7.69c-0.346 0.334-0.561 0.817-0.609 1.3l-1.122 10.737c-0.082 0.78-0.569 1.486-1.282 1.82l-8.652 3.975c-0.379 0.186-0.702 0.446-0.929 0.817l-3.967 6.056" stroke="#0A172A" stroke-opacity=".57042" stroke-width=".55724"/>
<path d="m481.9 449.98 11.093 6.056c0.698 0.371 1.144 1.114 1.163 1.894l0.171 7.319c0.014 0.631 0.297 1.226 0.769 1.634l8.384 7.282c0.743 0.631 0.977 1.709 0.576 2.6l-3.477 7.765c-0.301 0.668-0.249 1.448 0.145 2.08l5.684 9.102c0.453 0.743 0.453 1.634 3e-3 2.377l-5.732 9.176c-0.368 0.594-0.438 1.337-0.189 1.969l3.741 9.882c0.304 0.78 0.119 1.709-0.48 2.303l-7.366 7.69c-0.342 0.334-0.558 0.817-0.61 1.3l-1.129 10.811c-0.078 0.743-0.516 1.412-1.174 1.746l-9.688 5.126c-0.346 0.186-0.636 0.446-0.844 0.781l-3.117 4.941" stroke="#0A172A" stroke-opacity=".57042" stroke-width=".55724"/>
<path d="m495.21 449.98 11.09 6.056c0.702 0.371 1.144 1.114 1.162 1.894l0.175 7.319c0.015 0.631 0.293 1.226 0.769 1.634l8.385 7.282c0.743 0.631 0.977 1.709 0.575 2.6l-3.477 7.765c-0.301 0.668-0.249 1.448 0.145 2.08l5.684 9.102c0.453 0.743 0.453 1.634 4e-3 2.377l-5.733 9.176c-0.367 0.594-0.438 1.337-0.193 1.969l3.745 9.882c0.305 0.78 0.119 1.709-0.479 2.303l-7.367 7.69c-0.345 0.334-0.557 0.817-0.609 1.3l-1.141 10.922c-0.07 0.669-0.453 1.3-1.04 1.672l-7.686 4.755c-0.149 0.112-0.286 0.223-0.405 0.334l-5.68 5.722" stroke="#0A172A" stroke-opacity=".57042" stroke-width=".55724"/>
<path d="m442.45 553.81c18.378 0 33.275-23.256 33.275-51.898 0-28.68-14.897-51.936-33.275-51.936-9.562 0-30.214 17.684-30.214 17.684s-3.061 20.506-3.061 34.252c0 13.559 4.499 34.103 4.499 34.103s19.099 17.795 28.776 17.795z" fill="url(#y)"/>
<path d="m261.43 553.81v-103.83h53.239c18.378 0 33.275 23.256 33.275 51.936 0 28.382-14.604 51.452-32.725 51.898h-53.789z" fill="url(#x)"/>
<path d="m284.92 449.98 11.09 6.056c0.702 0.371 1.144 1.114 1.162 1.894l0.175 7.319c0.015 0.631 0.294 1.226 0.769 1.634l8.381 7.282c0.743 0.631 0.977 1.709 0.576 2.6l-3.474 7.765c-0.304 0.668-0.249 1.448 0.145 2.08l5.684 9.102c0.45 0.743 0.453 1.634 0 2.377l-5.728 9.176c-0.368 0.594-0.439 1.337-0.194 1.969l3.741 9.882c0.309 0.78 0.123 1.709-0.475 2.303l-7.367 7.69c-0.345 0.334-0.561 0.817-0.609 1.3l-1.122 10.737c-0.082 0.78-0.568 1.486-1.282 1.82l-8.652 3.975c-0.379 0.186-0.702 0.446-0.929 0.817l-3.967 6.056" stroke="#0A172A" stroke-opacity=".57042" stroke-width=".55724"/>
<path d="m300.89 449.98 11.093 6.056c0.698 0.371 1.144 1.114 1.163 1.894l0.171 7.319c0.015 0.631 0.297 1.226 0.769 1.634l8.384 7.282c0.743 0.631 0.977 1.709 0.576 2.6l-3.477 7.765c-0.301 0.668-0.249 1.448 0.145 2.08l5.684 9.102c0.453 0.743 0.453 1.634 4e-3 2.377l-5.733 9.176c-0.367 0.594-0.438 1.337-0.189 1.969l3.741 9.882c0.304 0.78 0.119 1.709-0.476 2.303l-7.37 7.69c-0.342 0.334-0.557 0.817-0.609 1.3l-1.13 10.811c-0.074 0.743-0.516 1.412-1.174 1.746l-9.688 5.126c-0.346 0.186-0.636 0.446-0.844 0.781l-3.116 4.941" stroke="#0A172A" stroke-opacity=".57042" stroke-width=".55724"/>
<path d="m314.2 449.98 11.089 6.056c0.702 0.371 1.144 1.114 1.166 1.894l0.171 7.319c0.015 0.631 0.294 1.226 0.769 1.634l8.385 7.282c0.743 0.631 0.977 1.709 0.576 2.6l-3.477 7.765c-0.301 0.668-0.249 1.448 0.144 2.08l5.684 9.102c0.454 0.743 0.454 1.634 4e-3 2.377l-5.732 9.176c-0.368 0.594-0.438 1.337-0.193 1.969l3.744 9.882c0.305 0.78 0.119 1.709-0.479 2.303l-7.367 7.69c-0.345 0.334-0.557 0.817-0.609 1.3l-1.14 10.922c-0.071 0.669-0.454 1.301-1.041 1.672l-7.686 4.755c-0.148 0.112-0.286 0.223-0.405 0.334l-5.68 5.722" stroke="#0A172A" stroke-opacity=".57042" stroke-width=".55724"/>
<path d="m261.43 553.81c18.378 0 33.275-23.256 33.275-51.898 0-28.68-14.897-51.936-33.275-51.936-9.562 0-30.214 17.684-30.214 17.684s-3.061 20.506-3.061 34.252c0 13.559 4.499 34.103 4.499 34.103s19.098 17.795 28.776 17.795z" fill="url(#v)"/>
<mask id="dm" x="228" y="449" width="67" height="105" mask-type="alpha" maskUnits="userSpaceOnUse">
<path d="m261.43 553.81c18.378 0 33.275-23.256 33.275-51.898 0-28.68-14.897-51.936-33.275-51.936-9.562 0-30.214 17.684-30.214 17.684s-3.061 20.506-3.061 34.252c0 13.559 4.499 34.103 4.499 34.103s19.098 17.795 28.776 17.795z" fill="#fff"/>
</mask>
<g mask="url(#dm)">
<path d="m258.1 552.47c18.011 0 32.61-22.624 32.61-50.56 0-27.937-14.599-50.598-32.61-50.598-9.372 0-29.608 17.2-29.608 17.2s-3.002 19.987-3.002 33.398c0 13.225 4.41 33.211 4.41 33.211s18.72 17.349 28.2 17.349z" fill="url(#u)"/>
<mask id="ej" x="225" y="451" width="66" height="102" mask-type="alpha" maskUnits="userSpaceOnUse">
<path d="m258.1 552.47c18.011 0 32.61-22.624 32.61-50.56 0-27.937-14.599-50.598-32.61-50.598-9.372 0-29.608 17.2-29.608 17.2s-3.002 19.987-3.002 33.398c0 13.225 4.41 33.211 4.41 33.211s18.72 17.349 28.2 17.349z" fill="#fff"/>
</mask>
<g mask="url(#ej)" stroke="#9EAED1" stroke-width=".55724">
<path d="m295.81 501.91h-44.87"/>
<path d="m289.38 464.65-42.324 18.649"/>
<path d="m247.05 521.75 41.002 20.655"/>
<path d="m274.99 450.79-33.216 20.06"/>
<path d="m250.94 491.77 44.87-9.288"/>
<path d="m250.94 512.42 43.766 10.625"/>
<path d="m241.78 532.08 33.215 21.733"/>
</g>
</g>
<path d="m240.13 539.17c11.026 0 19.964-16.978 19.964-37.93 0-20.953-8.938-37.93-19.964-37.93s-19.964 16.977-19.964 37.93c0 20.952 8.938 37.93 19.964 37.93z" fill="url(#t)"/>
<path d="m238.14 537.84c9.923 0 17.969-16.383 17.969-36.592 0-20.21-8.046-36.593-17.969-36.593s-17.969 16.383-17.969 36.593c0 20.209 8.046 36.592 17.969 36.592z" fill="url(#s)"/>
<mask id="ei" x="220" y="464" width="37" height="74" mask-type="alpha" maskUnits="userSpaceOnUse">
<path d="m238.14 537.84c9.923 0 17.969-16.383 17.969-36.592 0-20.21-8.046-36.593-17.969-36.593s-17.969 16.383-17.969 36.593c0 20.209 8.046 36.592 17.969 36.592z" fill="#fff"/>
</mask>
<g mask="url(#ei)">
<path d="m241.78 487.13-23.843-15.38" opacity=".38897" stroke="#CFDEFF" stroke-width=".55724"/>
<path d="m243.96 515.92-22.456 13.745" opacity=".38897" stroke="#CFDEFF" stroke-width=".55724"/>
<path d="m247.57 523.05-16.387 17.274" opacity=".38897" stroke="#CFDEFF" stroke-width=".55724"/>
<path d="m246.24 480.22-16.387-19.392" opacity=".38897" stroke="#CFDEFF" stroke-width=".55724"/>
<path d="m241.78 494.93-27.368-5.758" opacity=".38897" stroke="#CFDEFF" stroke-width=".55724"/>
<path d="m240.84 508.23-25.678 8.284" opacity=".38897" stroke="#CFDEFF" stroke-width=".55724"/>
<path d="m238.14 501.91h-23.731" opacity=".38897" stroke="#CFDEFF" stroke-width=".55724"/>
<path d="m249.45 525.87c6.617 0 11.981-11.033 11.981-24.63s-5.364-24.63-11.981-24.63c-6.612 0-11.977 11.033-11.977 24.63s5.365 24.63 11.977 24.63z" fill="url(#r)"/>
<path d="m253.44 521.86c5.145 0 9.317-8.916 9.317-19.949 0-11.034-4.172-19.987-9.317-19.987-5.146 0-9.317 8.953-9.317 19.987 0 11.033 4.171 19.949 9.317 19.949z" fill="#09172C"/>
</g>
<path d="m347.62 553.81v-103.83h53.24c18.377 0 33.274 23.256 33.274 51.936 0 28.382-14.603 51.452-32.725 51.898h-53.789z" fill="url(#q)"/>
<path d="m371.1 449.98 11.09 6.056c0.702 0.371 1.144 1.114 1.162 1.894l0.175 7.319c0.015 0.631 0.293 1.226 0.769 1.634l8.381 7.282c0.743 0.631 0.977 1.709 0.576 2.6l-3.474 7.765c-0.304 0.668-0.249 1.448 0.145 2.08l5.684 9.102c0.449 0.743 0.453 1.634 0 2.377l-5.728 9.176c-0.368 0.594-0.439 1.337-0.194 1.969l3.741 9.882c0.309 0.78 0.123 1.709-0.475 2.303l-7.367 7.69c-0.345 0.334-0.561 0.817-0.609 1.3l-1.122 10.737c-0.082 0.78-0.569 1.486-1.282 1.82l-8.652 3.975c-0.379 0.186-0.702 0.446-0.929 0.817l-3.967 6.056" stroke="#0A172A" stroke-opacity=".57042" stroke-width=".55724"/>
<path d="m387.08 449.98 11.092 6.056c0.699 0.371 1.145 1.114 1.163 1.894l0.171 7.319c0.015 0.631 0.297 1.226 0.769 1.634l8.385 7.282c0.743 0.631 0.977 1.709 0.576 2.6l-3.478 7.765c-0.301 0.668-0.248 1.448 0.145 2.08l5.684 9.102c0.453 0.743 0.453 1.634 4e-3 2.377l-5.732 9.176c-0.368 0.594-0.439 1.337-0.19 1.969l3.741 9.882c0.305 0.78 0.119 1.709-0.475 2.303l-7.371 7.69c-0.342 0.334-0.557 0.817-0.609 1.3l-1.129 10.811c-0.075 0.743-0.517 1.412-1.174 1.746l-9.689 5.126c-0.345 0.186-0.635 0.446-0.843 0.781l-3.117 4.941" stroke="#0A172A" stroke-opacity=".57042" stroke-width=".55724"/>
<path d="m400.39 449.98 11.089 6.056c0.702 0.371 1.144 1.114 1.166 1.894l0.171 7.319c0.015 0.631 0.294 1.226 0.769 1.634l8.385 7.282c0.743 0.631 0.977 1.709 0.576 2.6l-3.478 7.765c-0.3 0.668-0.248 1.448 0.145 2.08l5.684 9.102c0.453 0.743 0.453 1.634 4e-3 2.377l-5.732 9.176c-0.368 0.594-0.439 1.337-0.193 1.969l3.744 9.882c0.305 0.78 0.119 1.709-0.479 2.303l-7.367 7.69c-0.345 0.334-0.557 0.817-0.609 1.3l-1.14 10.922c-0.071 0.669-0.454 1.301-1.041 1.672l-7.686 4.755c-0.149 0.112-0.286 0.223-0.405 0.334l-5.68 5.722" stroke="#0A172A" stroke-opacity=".57042" stroke-width=".55724"/>
<path d="m347.62 553.81c18.378 0 33.275-23.256 33.275-51.898 0-28.68-14.897-51.936-33.275-51.936-9.562 0-30.213 17.684-30.213 17.684s-3.062 20.506-3.062 34.252c0 13.559 4.499 34.103 4.499 34.103s19.099 17.795 28.776 17.795z" fill="url(#p)"/>
<mask id="eh" x="314" y="449" width="67" height="105" mask-type="alpha" maskUnits="userSpaceOnUse">
<path d="m347.62 553.81c18.378 0 33.275-23.256 33.275-51.898 0-28.68-14.897-51.936-33.275-51.936-9.562 0-30.213 17.684-30.213 17.684s-3.062 20.506-3.062 34.252c0 13.559 4.499 34.103 4.499 34.103s19.099 17.795 28.776 17.795z" fill="#fff"/>
</mask>
<g mask="url(#eh)">
<path d="m344.29 552.47c18.011 0 32.61-22.624 32.61-50.56 0-27.937-14.599-50.598-32.61-50.598-9.372 0-29.608 17.2-29.608 17.2s-3.001 19.987-3.001 33.398c0 13.225 4.409 33.211 4.409 33.211s18.72 17.349 28.2 17.349z" fill="url(#o)"/>
<mask id="eg" x="311" y="451" width="66" height="102" mask-type="alpha" maskUnits="userSpaceOnUse">
<path d="m344.29 552.47c18.011 0 32.61-22.624 32.61-50.56 0-27.937-14.599-50.598-32.61-50.598-9.372 0-29.608 17.2-29.608 17.2s-3.001 19.987-3.001 33.398c0 13.225 4.409 33.211 4.409 33.211s18.72 17.349 28.2 17.349z" fill="#fff"/>
</mask>
<g mask="url(#eg)" stroke="#9EAED1" stroke-width=".55724">
<path d="m382 501.91h-44.869"/>
<path d="m375.56 464.65-42.324 18.649"/>
<path d="m333.24 521.75 41.002 20.655"/>
<path d="m361.18 450.79-33.216 20.06"/>
<path d="m337.13 491.77 44.869-9.288"/>
<path d="m337.13 512.42 43.766 10.625"/>
<path d="m327.96 532.08 33.215 21.733"/>
</g>
</g>
<path d="m326.32 539.17c11.026 0 19.964-16.978 19.964-37.93 0-20.953-8.938-37.93-19.964-37.93s-19.964 16.977-19.964 37.93c0 20.952 8.938 37.93 19.964 37.93z" fill="url(#n)"/>
<path d="m324.33 537.84c9.923 0 17.969-16.383 17.969-36.592 0-20.21-8.046-36.593-17.969-36.593s-17.969 16.383-17.969 36.593c0 20.209 8.046 36.592 17.969 36.592z" fill="url(#m)"/>
<mask id="ef" x="306" y="464" width="37" height="74" mask-type="alpha" maskUnits="userSpaceOnUse">
<path d="m324.33 537.84c9.923 0 17.969-16.383 17.969-36.592 0-20.21-8.046-36.593-17.969-36.593s-17.969 16.383-17.969 36.593c0 20.209 8.046 36.592 17.969 36.592z" fill="#fff"/>
</mask>
<g mask="url(#ef)">
<path d="m327.96 487.13-23.843-15.38" opacity=".38897" stroke="#CFDEFF" stroke-width=".55724"/>
<path d="m330.14 515.92-22.457 13.745" opacity=".38897" stroke="#CFDEFF" stroke-width=".55724"/>
<path d="m333.76 523.05-16.386 17.274" opacity=".38897" stroke="#CFDEFF" stroke-width=".55724"/>
<path d="m332.43 480.22-16.387-19.392" opacity=".38897" stroke="#CFDEFF" stroke-width=".55724"/>
<path d="m327.96 494.93-27.369-5.758" opacity=".38897" stroke="#CFDEFF" stroke-width=".55724"/>
<path d="m327.02 508.23-25.678 8.284" opacity=".38897" stroke="#CFDEFF" stroke-width=".55724"/>
<path d="m324.33 501.91h-23.732" opacity=".38897" stroke="#CFDEFF" stroke-width=".55724"/>
<path d="m335.64 525.87c6.617 0 11.981-11.033 11.981-24.63s-5.364-24.63-11.981-24.63c-6.612 0-11.977 11.033-11.977 24.63s5.365 24.63 11.977 24.63z" fill="url(#k)"/>
<path d="m339.63 521.86c5.146 0 9.318-8.916 9.318-19.949 0-11.034-4.172-19.987-9.318-19.987-5.145 0-9.317 8.953-9.317 19.987 0 11.033 4.172 19.949 9.317 19.949z" fill="#09172C"/>
</g>
<mask id="ee" x="409" y="449" width="67" height="105" mask-type="alpha" maskUnits="userSpaceOnUse">
<path d="m442.45 553.81c18.378 0 33.275-23.256 33.275-51.898 0-28.68-14.897-51.936-33.275-51.936-9.562 0-30.214 17.684-30.214 17.684s-3.061 20.506-3.061 34.252c0 13.559 4.499 34.103 4.499 34.103s19.099 17.795 28.776 17.795z" fill="#fff"/>
</mask>
<g mask="url(#ee)">
<path d="m439.12 552.47c18.01 0 32.61-22.624 32.61-50.561 0-27.936-14.6-50.597-32.61-50.597-9.373 0-29.608 17.2-29.608 17.2s-3.002 19.986-3.002 33.397c0 13.226 4.41 33.212 4.41 33.212s18.716 17.349 28.2 17.349z" fill="url(#j)"/>
<mask id="ed" x="406" y="451" width="66" height="102" mask-type="alpha" maskUnits="userSpaceOnUse">
<path d="m439.12 552.47c18.01 0 32.61-22.624 32.61-50.561 0-27.936-14.6-50.597-32.61-50.597-9.373 0-29.608 17.2-29.608 17.2s-3.002 19.986-3.002 33.397c0 13.226 4.41 33.212 4.41 33.212s18.716 17.349 28.2 17.349z" fill="#fff"/>
</mask>
<g mask="url(#ed)" stroke="#9EAED1" stroke-width=".55724">
<path d="m476.83 501.91h-44.869"/>
<path d="m470.39 464.65-42.328 18.65"/>
<path d="m428.06 521.75 41.005 20.656"/>
<path d="m456.01 450.79-33.216 20.06"/>
<path d="m431.96 491.77 44.869-9.288"/>
<path d="m431.96 512.42 43.766 10.625"/>
<path d="m422.79 532.08 33.216 21.732"/>
</g>
</g>
<path d="m421.15 539.17c11.026 0 19.964-16.978 19.964-37.93 0-20.953-8.938-37.93-19.964-37.93s-19.964 16.977-19.964 37.93c0 20.952 8.938 37.93 19.964 37.93z" fill="url(#i)"/>
<path d="m419.15 537.84c9.923 0 17.97-16.383 17.97-36.592 0-20.21-8.047-36.593-17.97-36.593-9.922 0-17.969 16.383-17.969 36.593 0 20.209 8.047 36.592 17.969 36.592z" fill="url(#h)"/>
<mask id="ec" x="401" y="464" width="37" height="74" mask-type="alpha" maskUnits="userSpaceOnUse">
<path d="m419.15 537.84c9.923 0 17.97-16.383 17.97-36.592 0-20.21-8.047-36.593-17.97-36.593-9.922 0-17.969 16.383-17.969 36.593 0 20.209 8.047 36.592 17.969 36.592z" fill="#fff"/>
</mask>
<g mask="url(#ec)">
<path d="m422.79 487.13-23.843-15.38" opacity=".38897" stroke="#CFDEFF" stroke-width=".55724"/>
<path d="m424.97 515.92-22.457 13.745" opacity=".38897" stroke="#CFDEFF" stroke-width=".55724"/>
<path d="m428.59 523.05-16.386 17.274" opacity=".38897" stroke="#CFDEFF" stroke-width=".55724"/>
<path d="m427.26 480.22-16.386-19.392" opacity=".38897" stroke="#CFDEFF" stroke-width=".55724"/>
<path d="m422.79 494.93-27.368-5.758" opacity=".38897" stroke="#CFDEFF" stroke-width=".55724"/>
<path d="m421.85 508.23-25.678 8.284" opacity=".38897" stroke="#CFDEFF" stroke-width=".55724"/>
<path d="m419.16 501.91h-23.731" opacity=".38897" stroke="#CFDEFF" stroke-width=".55724"/>
<path d="m430.47 525.87c6.616 0 11.981-11.033 11.981-24.63s-5.365-24.63-11.981-24.63-11.977 11.033-11.977 24.63 5.361 24.63 11.977 24.63z" fill="url(#g)"/>
<path d="m433.13 521.86c5.146 0 9.317-8.916 9.317-19.949 0-11.034-4.171-19.987-9.317-19.987-5.145 0-9.317 8.953-9.317 19.987 0 11.033 4.172 19.949 9.317 19.949z" fill="#09172C"/>
</g>
<path d="m522.3 553.81v-103.83h53.243c18.374 0 33.274 23.256 33.274 51.936 0 28.382-14.603 51.452-32.725 51.898h-53.792z" fill="url(#f)"/>
<path d="m545.79 449.98 11.089 6.056c0.702 0.371 1.144 1.114 1.163 1.894l0.174 7.319c0.015 0.631 0.294 1.226 0.769 1.634l8.381 7.282c0.743 0.631 0.977 1.709 0.576 2.6l-3.473 7.765c-0.305 0.668-0.249 1.448 0.145 2.08l5.683 9.102c0.45 0.743 0.45 1.634 0 2.377l-5.732 9.176c-0.368 0.594-0.438 1.337-0.189 1.969l3.741 9.882c0.304 0.78 0.119 1.709-0.476 2.303l-7.37 7.69c-0.342 0.334-0.558 0.817-0.61 1.3l-1.118 10.737c-0.081 0.78-0.568 1.486-1.281 1.82l-8.653 3.975c-0.378 0.186-0.702 0.446-0.932 0.817l-3.964 6.056" stroke="#0A172A" stroke-opacity=".57042" stroke-width=".55724"/>
<path d="m561.76 449.98 11.089 6.056c0.702 0.371 1.144 1.114 1.163 1.894l0.174 7.319c0.015 0.631 0.294 1.226 0.769 1.634l8.385 7.282c0.739 0.631 0.973 1.709 0.572 2.6l-3.474 7.765c-0.3 0.668-0.248 1.448 0.145 2.08l5.684 9.102c0.453 0.743 0.453 1.634 4e-3 2.377l-5.732 9.176c-0.368 0.594-0.439 1.337-0.193 1.969l3.741 9.882c0.308 0.78 0.122 1.709-0.476 2.303l-7.367 7.69c-0.345 0.334-0.557 0.817-0.609 1.3l-1.129 10.811c-0.078 0.743-0.517 1.412-1.174 1.746l-9.693 5.126c-0.341 0.186-0.631 0.446-0.839 0.781l-3.117 4.941" stroke="#0A172A" stroke-opacity=".57042" stroke-width=".55724"/>
<path d="m575.08 449.98 11.089 6.056c0.702 0.371 1.144 1.114 1.162 1.894l0.175 7.319c0.015 0.631 0.294 1.226 0.769 1.634l8.381 7.282c0.743 0.631 0.977 1.709 0.576 2.6l-3.474 7.765c-0.304 0.668-0.249 1.448 0.145 2.08l5.684 9.102c0.45 0.743 0.453 1.634 0 2.377l-5.728 9.176c-0.368 0.594-0.439 1.337-0.193 1.969l3.74 9.882c0.309 0.78 0.123 1.709-0.475 2.303l-7.367 7.69c-0.345 0.334-0.561 0.817-0.613 1.3l-1.137 10.922c-0.07 0.669-0.457 1.3-1.04 1.672l-7.686 4.755c-0.149 0.112-0.286 0.223-0.409 0.334l-5.676 5.722" stroke="#0A172A" stroke-opacity=".57042" stroke-width=".55724"/>
<path d="m522.3 553.81c18.378 0 33.275-23.256 33.275-51.898 0-28.68-14.897-51.936-33.275-51.936-9.562 0-30.21 17.684-30.21 17.684s-3.065 20.506-3.065 34.252c0 13.559 4.499 34.103 4.499 34.103s19.099 17.795 28.776 17.795z" fill="url(#e)"/>
<mask id="eb" x="489" y="449" width="67" height="105" mask-type="alpha" maskUnits="userSpaceOnUse">
<path d="m522.3 553.81c18.378 0 33.275-23.256 33.275-51.898 0-28.68-14.897-51.936-33.275-51.936-9.562 0-30.21 17.684-30.21 17.684s-3.065 20.506-3.065 34.252c0 13.559 4.499 34.103 4.499 34.103s19.099 17.795 28.776 17.795z" fill="#fff"/>
</mask>
<g mask="url(#eb)">
<path d="m518.98 552.47c18.006 0 32.606-22.624 32.606-50.561 0-27.936-14.6-50.597-32.606-50.597-9.373 0-29.608 17.2-29.608 17.2s-3.002 19.986-3.002 33.397c0 13.226 4.406 33.212 4.406 33.212s18.72 17.349 28.204 17.349z" fill="url(#d)"/>
<mask id="ea" x="486" y="451" width="66" height="102" mask-type="alpha" maskUnits="userSpaceOnUse">
<path d="m518.98 552.47c18.006 0 32.606-22.624 32.606-50.561 0-27.936-14.6-50.597-32.606-50.597-9.373 0-29.608 17.2-29.608 17.2s-3.002 19.986-3.002 33.397c0 13.226 4.406 33.212 4.406 33.212s18.72 17.349 28.204 17.349z" fill="#fff"/>
</mask>
<g mask="url(#ea)" stroke="#9EAED1" stroke-width=".55724">
<path d="m556.68 501.91h-44.87"/>
<path d="m550.25 464.65-42.329 18.65"/>
<path d="m507.92 521.75 41.006 20.656"/>
<path d="m535.86 450.79-33.216 20.06"/>
<path d="m511.81 491.77 44.87-9.288"/>
<path d="m511.81 512.42 43.766 10.625"/>
<path d="m502.65 532.08 33.215 21.732"/>
</g>
</g>
<path d="m501.01 539.17c11.026 0 19.964-16.978 19.964-37.93 0-20.953-8.938-37.93-19.964-37.93s-19.968 16.977-19.968 37.93c0 20.952 8.942 37.93 19.968 37.93z" fill="url(#c)"/>
<path d="m499.01 537.84c9.927 0 17.97-16.383 17.97-36.592 0-20.21-8.043-36.593-17.97-36.593-9.922 0-17.969 16.383-17.969 36.593 0 20.209 8.047 36.592 17.969 36.592z" fill="url(#b)"/>
<mask id="dy" x="481" y="464" width="36" height="74" mask-type="alpha" maskUnits="userSpaceOnUse">
<path d="m499.01 537.84c9.927 0 17.97-16.383 17.97-36.592 0-20.21-8.043-36.593-17.97-36.593-9.922 0-17.969 16.383-17.969 36.593 0 20.209 8.047 36.592 17.969 36.592z" fill="#fff"/>
</mask>
<g mask="url(#dy)">
<path d="m502.65 487.13-23.846-15.38" opacity=".38897" stroke="#CFDEFF" stroke-width=".55724"/>
<path d="m504.83 515.92-22.453 13.745" opacity=".38897" stroke="#CFDEFF" stroke-width=".55724"/>
<path d="m508.45 523.05-16.387 17.274" opacity=".38897" stroke="#CFDEFF" stroke-width=".55724"/>
<path d="m507.12 480.22-16.391-19.392" opacity=".38897" stroke="#CFDEFF" stroke-width=".55724"/>
<path d="m502.65 494.93-27.372-5.758" opacity=".38897" stroke="#CFDEFF" stroke-width=".55724"/>
<path d="m501.71 508.23-25.678 8.284" opacity=".38897" stroke="#CFDEFF" stroke-width=".55724"/>
<path d="m499.01 501.91h-23.731" opacity=".38897" stroke="#CFDEFF" stroke-width=".55724"/>
<path d="m510.33 525.87c6.617 0 11.977-11.033 11.977-24.63s-5.36-24.63-11.977-24.63c-6.616 0-11.981 11.033-11.981 24.63s5.365 24.63 11.981 24.63z" fill="url(#dk)"/>
<path d="m512.99 521.86c5.145 0 9.317-8.916 9.317-19.949 0-11.034-4.172-19.987-9.317-19.987s-9.317 8.953-9.317 19.987c0 11.033 4.172 19.949 9.317 19.949z" fill="#09172C"/>
</g>
<path d="m600.83 553.81v-103.83h53.24c18.378 0 33.274 23.256 33.274 51.936 0 28.382-14.599 51.452-32.725 51.898h-53.789z" fill="url(#dj)"/>
<path d="m624.32 449.98 11.093 6.056c0.699 0.371 1.144 1.114 1.163 1.894l0.171 7.319c0.015 0.631 0.297 1.226 0.769 1.634l8.385 7.282c0.743 0.631 0.977 1.709 0.575 2.6l-3.477 7.765c-0.301 0.668-0.249 1.448 0.145 2.08l5.684 9.102c0.453 0.743 0.453 1.634 4e-3 2.377l-5.733 9.176c-0.367 0.594-0.438 1.337-0.189 1.969l3.741 9.882c0.305 0.78 0.119 1.709-0.476 2.303l-7.37 7.69c-0.342 0.334-0.557 0.817-0.609 1.3l-1.122 10.737c-0.078 0.78-0.569 1.486-1.282 1.82l-8.648 3.975c-0.383 0.186-0.702 0.446-0.933 0.817l-3.967 6.056" stroke="#0A172A" stroke-opacity=".57042" stroke-width=".55724"/>
<path d="m640.3 449.98 11.089 6.056c0.702 0.371 1.144 1.114 1.163 1.894l0.174 7.319c0.015 0.631 0.294 1.226 0.769 1.634l8.381 7.282c0.743 0.631 0.977 1.709 0.576 2.6l-3.473 7.765c-0.305 0.668-0.249 1.448 0.144 2.08l5.684 9.102c0.45 0.743 0.45 1.634 0 2.377l-5.728 9.176c-0.368 0.594-0.442 1.337-0.193 1.969l3.741 9.882c0.308 0.78 0.122 1.709-0.476 2.303l-7.37 7.69c-0.342 0.334-0.558 0.817-0.61 1.3l-1.125 10.811c-0.078 0.743-0.52 1.412-1.174 1.746l-9.693 5.126c-0.341 0.186-0.635 0.446-0.843 0.781l-3.113 4.941" stroke="#0A172A" stroke-opacity=".57042" stroke-width=".55724"/>
<path d="m653.61 449.98 11.089 6.056c0.698 0.371 1.144 1.114 1.163 1.894l0.174 7.319c0.015 0.631 0.294 1.226 0.769 1.634l8.381 7.282c0.743 0.631 0.977 1.709 0.576 2.6l-3.473 7.765c-0.305 0.668-0.249 1.448 0.141 2.08l5.687 9.102c0.45 0.743 0.45 1.634 0 2.377l-5.732 9.176c-0.368 0.594-0.438 1.337-0.189 1.969l3.741 9.882c0.304 0.78 0.118 1.709-0.476 2.303l-7.37 7.69c-0.342 0.334-0.558 0.817-0.61 1.3l-1.136 10.922c-0.071 0.669-0.457 1.3-1.041 1.672l-7.69 4.755c-0.144 0.112-0.282 0.223-0.405 0.334l-5.676 5.722" stroke="#0A172A" stroke-opacity=".57042" stroke-width=".55724"/>
<path d="m600.83 553.81c18.378 0 33.275-23.256 33.275-51.898 0-28.68-14.897-51.936-33.275-51.936-9.562 0-30.21 17.684-30.21 17.684s-3.065 20.506-3.065 34.252c0 13.559 4.499 34.103 4.499 34.103s19.102 17.795 28.776 17.795z" fill="url(#di)"/>
<mask id="dx" x="567" y="449" width="68" height="105" mask-type="alpha" maskUnits="userSpaceOnUse">
<path d="m600.83 553.81c18.378 0 33.275-23.256 33.275-51.898 0-28.68-14.897-51.936-33.275-51.936-9.562 0-30.21 17.684-30.21 17.684s-3.065 20.506-3.065 34.252c0 13.559 4.499 34.103 4.499 34.103s19.102 17.795 28.776 17.795z" fill="#fff"/>
</mask>
<g mask="url(#dx)">
<path d="m597.51 552.47c18.01 0 32.61-22.624 32.61-50.561 0-27.936-14.6-50.597-32.61-50.597-9.369 0-29.608 17.2-29.608 17.2s-3.002 19.986-3.002 33.397c0 13.226 4.41 33.212 4.41 33.212s18.719 17.349 28.2 17.349z" fill="url(#dh)"/>
<mask id="dw" x="564" y="451" width="67" height="102" mask-type="alpha" maskUnits="userSpaceOnUse">
<path d="m597.51 552.47c18.01 0 32.61-22.624 32.61-50.561 0-27.936-14.6-50.597-32.61-50.597-9.369 0-29.608 17.2-29.608 17.2s-3.002 19.986-3.002 33.397c0 13.226 4.41 33.212 4.41 33.212s18.719 17.349 28.2 17.349z" fill="#fff"/>
</mask>
<g mask="url(#dw)" stroke="#9EAED1" stroke-width=".55724">
<path d="m635.21 501.91h-44.869"/>
<path d="m628.78 464.65-42.325 18.65"/>
<path d="m586.45 521.75 41.002 20.656"/>
<path d="m614.39 450.79-33.216 20.06"/>
<path d="m590.34 491.77 44.869-9.288"/>
<path d="m590.34 512.42 43.766 10.625"/>
<path d="m581.18 532.08 33.22 21.732"/>
</g>
</g>
<path d="m579.54 539.17c11.026 0 19.965-16.978 19.965-37.93 0-20.953-8.939-37.93-19.965-37.93s-19.964 16.977-19.964 37.93c0 20.952 8.938 37.93 19.964 37.93z" fill="url(#dg)"/>
<path d="m577.54 537.84c9.926 0 17.969-16.383 17.969-36.592 0-20.21-8.043-36.593-17.969-36.593-9.923 0-17.966 16.383-17.966 36.593 0 20.209 8.043 36.592 17.966 36.592z" fill="url(#df)"/>
<mask id="dv" x="559" y="464" width="37" height="74" mask-type="alpha" maskUnits="userSpaceOnUse">
<path d="m577.54 537.84c9.926 0 17.969-16.383 17.969-36.592 0-20.21-8.043-36.593-17.969-36.593-9.923 0-17.966 16.383-17.966 36.593 0 20.209 8.043 36.592 17.966 36.592z" fill="#fff"/>
</mask>
<g mask="url(#dv)">
<path d="m581.18 487.13-23.846-15.38" opacity=".38897" stroke="#CFDEFF" stroke-width=".55724"/>
<path d="m583.36 515.92-22.453 13.745" opacity=".38897" stroke="#CFDEFF" stroke-width=".55724"/>
<path d="m586.98 523.05-16.387 17.274" opacity=".38897" stroke="#CFDEFF" stroke-width=".55724"/>
<path d="m585.65 480.22-16.39-19.392" opacity=".38897" stroke="#CFDEFF" stroke-width=".55724"/>
<path d="m581.18 494.93-27.368-5.758" opacity=".38897" stroke="#CFDEFF" stroke-width=".55724"/>
<path d="m580.24 508.23-25.681 8.284" opacity=".38897" stroke="#CFDEFF" stroke-width=".55724"/>
<path d="m577.54 501.91h-23.731" opacity=".38897" stroke="#CFDEFF" stroke-width=".55724"/>
<path d="m588.86 525.87c6.616 0 11.977-11.033 11.977-24.63s-5.361-24.63-11.977-24.63-11.981 11.033-11.981 24.63 5.365 24.63 11.981 24.63z" fill="url(#de)"/>
<path d="m592.85 521.86c5.145 0 9.317-8.916 9.317-19.949 0-11.034-4.172-19.987-9.317-19.987-5.146 0-9.318 8.953-9.318 19.987 0 11.033 4.172 19.949 9.318 19.949z" fill="#09172C"/>
</g>
<path d="m234.14 434.71c2.095-2.935 5.472-4.681 9.072-4.681h418.44c3.6 0 6.981 1.746 9.072 4.681l35.337 49.446c0.528 0.743 0 1.783-0.906 1.783h-51.835c-0.357 0-0.695-0.186-0.903-0.483l-33.197-46.325c-0.208-0.26-0.546-0.446-0.906-0.446h-378.35c-0.357 0-0.691 0.186-0.899 0.446l-33.665 46.325c-0.212 0.297-0.546 0.483-0.903 0.483h-4.781c-0.906 0-1.434-1.04-0.906-1.783l35.336-49.446z" fill="url(#dd)"/>
<mask id="du" x="198" y="430" width="509" height="56" mask-type="alpha" maskUnits="userSpaceOnUse">
<path d="m234.14 434.71c2.095-2.935 5.472-4.681 9.072-4.681h418.44c3.6 0 6.981 1.746 9.072 4.681l35.337 49.446c0.528 0.743 0 1.783-0.906 1.783h-51.835c-0.357 0-0.695-0.186-0.903-0.483l-33.197-46.325c-0.208-0.26-0.546-0.446-0.906-0.446h-378.35c-0.357 0-0.691 0.186-0.899 0.446l-33.665 46.325c-0.212 0.297-0.546 0.483-0.903 0.483h-4.781c-0.906 0-1.434-1.04-0.906-1.783l35.336-49.446z" fill="#fff"/>
</mask>
<g mask="url(#du)">
<path d="m194.41 439.65c0.264-3.195 2.92-5.61 6.108-5.61h418.46c1.977 0 3.834 0.929 4.982 2.526l31.038 43.317 55.086 0.408v9.288l-521.86 24.296 6.189-74.225z" fill="url(#dc)" opacity=".57634"/>
</g>
<path d="m782.84 344.8c0 10.182-4.758 18.436-10.628 18.436-5.869 0-28.63 3.687-28.63-11.061 0-15.834 22.761-25.811 28.63-25.811 5.87 0 10.628 8.254 10.628 18.436z" fill="#1B7395"/>
<g filter="url(#em)">
<ellipse cx="772.21" cy="344.8" rx="10.628" ry="18.436" fill="url(#db)"/>
</g>
<path d="m1476.7 233v285s-702.2-154.76-704.48-154.76c-5.869 0-10.628-8.254-10.628-18.436s4.759-18.436 10.628-18.436c5.87 0 704.48-93.369 704.48-93.369z" fill="url(#cz)"/>
<path d="m724.56 454.55c13.131 0 23.776-10.645 23.776-23.776s-10.645-23.776-23.776-23.776c-13.13 0-23.775 10.645-23.775 23.776s10.645 23.776 23.775 23.776z" fill="url(#cy)"/>
<mask id="dt" x="706" y="417" width="207" height="108" mask-type="alpha" maskUnits="userSpaceOnUse">
<path d="m709.94 428.41c2.109-8.038 10.333-12.845 18.371-10.737 8.038 2.109 12.844 10.333 10.736 18.371-3.989 15.208-3.354 26.816 1.24 35.381 4.564 8.511 13.71 15.258 28.317 20.032 19.581 6.4 44.483 0.934 70.535-13.954 10.914-6.237 21.414-13.826 30.273-21.662l0.709-0.631c7.109-6.365 12.488-12.356 14.678-15.98l0.071-0.118c4.241-7.146 13.471-9.502 20.617-5.261s9.501 13.471 5.261 20.617c-8.502 14.327-31.826 34.958-56.678 49.161-14.821 8.47-29.98 14.671-44.884 17.942-17.531 3.848-34.37 3.574-49.93-1.512-43.67-14.273-61.091-46.755-49.316-91.649z" fill="#fff"/>
</mask>
<g mask="url(#dt)">
<path d="m709.94 428.41c2.109-8.038 10.333-12.845 18.371-10.737 8.038 2.109 12.844 10.333 10.736 18.371-3.989 15.208-3.354 26.816 1.24 35.381 4.564 8.511 13.71 15.258 28.317 20.032 19.581 6.4 44.483 0.934 70.535-13.954 10.914-6.237 21.414-13.826 30.273-21.662l0.709-0.631c7.109-6.365 12.488-12.356 14.678-15.98l0.071-0.118c4.241-7.146 13.471-9.502 20.617-5.261s9.501 13.471 5.261 20.617c-8.502 14.327-31.826 34.958-56.678 49.161-14.821 8.47-29.98 14.671-44.884 17.942-17.531 3.848-34.37 3.574-49.93-1.512-43.67-14.273-61.091-46.755-49.316-91.649z" fill="url(#cx)"/>
<path d="m725.11 412.96c-10.179 50.082 2.76 81.015 38.817 92.8 54.087 17.678 121.75-38.534 133.88-58.968" stroke="url(#cw)" stroke-dasharray="3.64 3.64" stroke-linejoin="round" stroke-width="38.413"/>
</g>
<path d="m905.31 351.64 6.694 18.517c-14.957 5.407-25.13 19.652-25.13 35.823 0 21.03 17.049 38.078 38.079 38.078 20.819 0 37.737-16.709 38.073-37.449l5e-3 -0.629h19.689c0 31.904-25.863 57.767-57.767 57.767-31.905 0-57.768-25.863-57.768-57.767 0-24.283 15.122-45.702 37.446-54.089l0.679-0.251z" fill="url(#cv)"/>
<path d="m901.18 463.06c10.259 0 18.575-8.316 18.575-18.575 0-10.258-8.316-18.575-18.575-18.575-10.258 0-18.575 8.317-18.575 18.575 0 10.259 8.317 18.575 18.575 18.575z" fill="url(#cu)"/>
<defs>
<filter id="eq" x="270.09" y="209.29" width="83.105" height="83.105" color-interpolation-filters="sRGB" filterUnits="userSpaceOnUse">
<feFlood flood-opacity="0" result="BackgroundImageFix"/>
<feColorMatrix in="SourceAlpha" values="0 0 0 0 0 0 0 0 0 0 0 0 0 0 0 0 0 0 127 0"/>
<feOffset dy="3.03833"/>
<feGaussianBlur stdDeviation="11.3937"/>
<feColorMatrix values="0 0 0 0 0 0 0 0 0 0.52 0 0 0 0 1 0 0 0 1 0"/>
<feBlend in2="BackgroundImageFix" result="effect1_dropShadow"/>
<feBlend in="SourceGraphic" in2="effect1_dropShadow" result="shape"/>
</filter>
<filter id="ep" x="286.23" y="228.36" width="162.98" height="148.97" color-interpolation-filters="sRGB" filterUnits="userSpaceOnUse">
<feFlood flood-opacity="0" result="BackgroundImageFix"/>
<feColorMatrix in="SourceAlpha" values="0 0 0 0 0 0 0 0 0 0 0 0 0 0 0 0 0 0 127 0"/>
<feOffset dy="3.03833"/>
<feGaussianBlur stdDeviation="11.3937"/>
<feColorMatrix values="0 0 0 0 0 0 0 0 0 0.52 0 0 0 0 1 0 0 0 1 0"/>
<feBlend in2="BackgroundImageFix" result="effect1_dropShadow"/>
<feBlend in="SourceGraphic" in2="effect1_dropShadow" result="shape"/>
</filter>
<filter id="eo" x="291.09" y="228.36" width="158.12" height="145.84" color-interpolation-filters="sRGB" filterUnits="userSpaceOnUse">
<feFlood flood-opacity="0" result="BackgroundImageFix"/>
<feColorMatrix in="SourceAlpha" values="0 0 0 0 0 0 0 0 0 0 0 0 0 0 0 0 0 0 127 0"/>
<feOffset dy="3.03833"/>
<feGaussianBlur stdDeviation="11.3937"/>
<feColorMatrix values="0 0 0 0 0 0 0 0 0 1 0 0 0 0 0.22 0 0 0 1 0"/>
<feBlend in2="BackgroundImageFix" result="effect1_dropShadow"/>
<feBlend in="SourceGraphic" in2="effect1_dropShadow" result="shape"/>
</filter>
<filter id="en" x="855.14" y="304.92" width="48.151" height="63.767" color-interpolation-filters="sRGB" filterUnits="userSpaceOnUse">
<feFlood flood-opacity="0" result="BackgroundImageFix"/>
<feColorMatrix in="SourceAlpha" values="0 0 0 0 0 0 0 0 0 0 0 0 0 0 0 0 0 0 127 0"/>
<feOffset/>
<feGaussianBlur stdDeviation="6.72374"/>
<feColorMatrix values="0 0 0 0 1 0 0 0 0 1 0 0 0 0 1 0 0 0 0.96 0"/>
<feBlend in2="BackgroundImageFix" result="effect1_dropShadow"/>
<feBlend in="SourceGraphic" in2="effect1_dropShadow" result="shape"/>
</filter>
<filter id="em" x="748.14" y="312.92" width="48.151" height="63.767" color-interpolation-filters="sRGB" filterUnits="userSpaceOnUse">
<feFlood flood-opacity="0" result="BackgroundImageFix"/>
<feColorMatrix in="SourceAlpha" values="0 0 0 0 0 0 0 0 0 0 0 0 0 0 0 0 0 0 127 0"/>
<feOffset/>
<feGaussianBlur stdDeviation="6.72374"/>
<feColorMatrix values="0 0 0 0 1 0 0 0 0 1 0 0 0 0 1 0 0 0 0.96 0"/>
<feBlend in2="BackgroundImageFix" result="effect1_dropShadow"/>
<feBlend in="SourceGraphic" in2="effect1_dropShadow" result="shape"/>
</filter>
<linearGradient id="dl" x1="857.46" x2="845.98" y1="49.771" y2="23.862" gradientUnits="userSpaceOnUse">
<stop stop-color="#0D565D" offset="0"/>
<stop stop-color="#0D484F" offset="1"/>
</linearGradient>
<linearGradient id="ck" x1="666.7" x2="659.24" y1="66.918" y2="50.508" gradientUnits="userSpaceOnUse">
<stop stop-color="#0D565D" offset="0"/>
<stop stop-color="#0D484F" offset="1"/>
</linearGradient>
<linearGradient id="bz" x1="353.02" x2="381.35" y1="258.47" y2="159.28" gradientUnits="userSpaceOnUse">
<stop stop-color="#48E9EC" offset="0"/>
<stop stop-color="#26C9C7" offset="1"/>
</linearGradient>
<linearGradient id="bo" x1="397.28" x2="407.8" y1="245.84" y2="156.55" gradientUnits="userSpaceOnUse">
<stop stop-color="#074058" offset="0"/>
<stop stop-color="#001431" offset="1"/>
</linearGradient>
<linearGradient id="bd" x1="337.49" x2="472.91" y1="267.44" y2="82.505" gradientUnits="userSpaceOnUse">
<stop stop-color="#61D0A6" offset="0"/>
<stop stop-color="#34A2E0" offset="1"/>
</linearGradient>
<linearGradient id="as" x1="690.1" x2="678.62" y1="51.27" y2="25.361" gradientUnits="userSpaceOnUse">
<stop stop-color="#0D565D" offset="0"/>
<stop stop-color="#0D484F" offset="1"/>
</linearGradient>
<linearGradient id="ah" x1="499.33" x2="491.88" y1="68.417" y2="52.007" gradientUnits="userSpaceOnUse">
<stop stop-color="#0D565D" offset="0"/>
<stop stop-color="#0D484F" offset="1"/>
</linearGradient>
<linearGradient id="w" x1="185.66" x2="213.99" y1="259.97" y2="160.78" gradientUnits="userSpaceOnUse">
<stop stop-color="#48E9EC" offset="0"/>
<stop stop-color="#26C9C7" offset="1"/>
</linearGradient>
<linearGradient id="l" x1="229.92" x2="240.43" y1="247.34" y2="158.05" gradientUnits="userSpaceOnUse">
<stop stop-color="#074058" offset="0"/>
<stop stop-color="#001431" offset="1"/>
</linearGradient>
<linearGradient id="a" x1="170.13" x2="305.55" y1="268.93" y2="84.004" gradientUnits="userSpaceOnUse">
<stop stop-color="#61D0A6" offset="0"/>
<stop stop-color="#34A2E0" offset="1"/>
</linearGradient>
<linearGradient id="da" x1="514.9" x2="506.11" y1="87.097" y2="219.52" gradientUnits="userSpaceOnUse">
<stop stop-color="#77CEFF" offset="0"/>
<stop stop-color="#20B0FF" offset=".85422"/>
<stop stop-color="#1070A5" offset="1"/>
</linearGradient>
<linearGradient id="ct" x1="453.98" x2="523.98" y1="312.92" y2="280.91" gradientUnits="userSpaceOnUse">
<stop stop-color="#77CEFF" offset="0"/>
<stop stop-color="#20B0FF" offset=".85422"/>
<stop stop-color="#1070A5" offset="1"/>
</linearGradient>
<linearGradient id="cs" x1="592.45" x2="599.41" y1="313.66" y2="301.25" gradientUnits="userSpaceOnUse">
<stop stop-color="#5CDEAC" offset="0"/>
<stop stop-color="#123635" offset="1"/>
</linearGradient>
<linearGradient id="cr" x1="584.46" x2="601.82" y1="340.29" y2="299.08" gradientUnits="userSpaceOnUse">
<stop stop-color="#5CDEAC" offset="0"/>
<stop stop-color="#123635" offset="1"/>
</linearGradient>
<linearGradient id="cq" x1="607.95" x2="648.77" y1="218.05" y2="202.76" gradientUnits="userSpaceOnUse">
<stop stop-color="#10AACC" offset="0"/>
<stop stop-color="#4EF4FF" offset="1"/>
</linearGradient>
<linearGradient id="cp" x1="628.47" x2="637.97" y1="205.07" y2="202.27" gradientUnits="userSpaceOnUse">
<stop stop-color="#042635" stop-opacity=".26" offset="0"/>
<stop stop-color="#042635" stop-opacity="0" offset="1"/>
</linearGradient>
<linearGradient id="co" x1="650.14" x2="684.52" y1="176.74" y2="210.53" gradientUnits="userSpaceOnUse">
<stop stop-color="#DEBE6A" offset="0"/>
<stop stop-color="#FFF1E3" offset="1"/>
</linearGradient>
<linearGradient id="cn" x1="671.6" x2="653.68" y1="210.29" y2="188.16" gradientUnits="userSpaceOnUse">
<stop stop-color="#5CDEAC" offset="0"/>
<stop stop-color="#123635" offset="1"/>
</linearGradient>
<linearGradient id="cm" x1="596.5" x2="562.17" y1="213.94" y2="314.74" gradientUnits="userSpaceOnUse">
<stop stop-color="#10AACC" offset="0"/>
<stop stop-color="#12E2EF" offset="1"/>
</linearGradient>
<linearGradient id="cl" x1="505.79" x2="516.17" y1="239.45" y2="242.45" gradientUnits="userSpaceOnUse">
<stop stop-color="#2B4246" offset="0"/>
<stop stop-color="#284F56" offset="1"/>
</linearGradient>
<linearGradient id="cj" x1="539.11" x2="508.45" y1="242.28" y2="233.25" gradientUnits="userSpaceOnUse">
<stop stop-color="#10AACC" offset="0"/>
<stop stop-color="#4EF4FF" offset="1"/>
</linearGradient>
<linearGradient id="ci" x1="601.37" x2="509.76" y1="272.08" y2="251.96" gradientUnits="userSpaceOnUse">
<stop stop-color="#19D8CC" offset="0"/>
<stop stop-color="#78FAF7" offset=".40884"/>
<stop stop-color="#92F8FF" offset="1"/>
</linearGradient>
<linearGradient id="ch" x1="587.84" x2="590.14" y1="104.41" y2="91.83" gradientUnits="userSpaceOnUse">
<stop stop-color="#83F9FB" offset="0"/>
<stop stop-color="#92F8FF" offset="1"/>
</linearGradient>
<linearGradient id="cg" x1="611.98" x2="481.47" y1="171.12" y2="108.76" gradientUnits="userSpaceOnUse">
<stop stop-color="#19D8CC" offset="0"/>
<stop stop-color="#78FAF7" offset=".40884"/>
<stop stop-color="#92F8FF" offset="1"/>
</linearGradient>
<linearGradient id="cf" x1="595" x2="591.84" y1="178.67" y2="180.58" gradientUnits="userSpaceOnUse">
<stop stop-color="#EBEBEB" offset="0"/>
<stop stop-color="#fff" offset="1"/>
</linearGradient>
<linearGradient id="ce" x1="589.52" x2="585.44" y1="177.68" y2="179.73" gradientUnits="userSpaceOnUse">
<stop stop-color="#EBEBEB" offset="0"/>
<stop stop-color="#fff" offset="1"/>
</linearGradient>
<linearGradient id="cd" x1="577.86" x2="601.71" y1="167.46" y2="176.58" gradientUnits="userSpaceOnUse">
<stop stop-color="#DEBE6A" offset="0"/>
<stop stop-color="#E4C3A4" offset="1"/>
</linearGradient>
<linearGradient id="cc" x1="530.09" x2="504.32" y1="108.93" y2="120.6" gradientUnits="userSpaceOnUse">
<stop stop-color="#83F9FB" offset="0"/>
<stop stop-color="#92F8FF" offset="1"/>
</linearGradient>
<linearGradient id="cb" x1="633.4" x2="507.09" y1="211.16" y2="218.17" gradientUnits="userSpaceOnUse">
<stop stop-color="#448F9F" offset="0"/>
<stop stop-color="#37FCB5" offset="1"/>
</linearGradient>
<linearGradient id="ca" x1="501.21" x2="519.06" y1="325.03" y2="304.76" gradientUnits="userSpaceOnUse">
<stop stop-color="#5CDEAC" offset="0"/>
<stop stop-color="#123635" offset="1"/>
</linearGradient>
<linearGradient id="by" x1="509.57" x2="528.52" y1="356.07" y2="308.33" gradientUnits="userSpaceOnUse">
<stop stop-color="#5CDEAC" offset="0"/>
<stop stop-color="#123635" offset="1"/>
</linearGradient>
<linearGradient id="bx" x1="715.61" x2="738.68" y1="343.27" y2="358.83" gradientUnits="userSpaceOnUse">
<stop stop-color="#163357" offset="0"/>
<stop stop-color="#09172C" offset="1"/>
</linearGradient>
<linearGradient id="bw" x1="530.37" x2="867.09" y1="793.31" y2="415.96" gradientUnits="userSpaceOnUse">
<stop stop-color="#5DF1D7" offset="0"/>
<stop stop-color="#07515D" offset="1"/>
</linearGradient>
<linearGradient id="bv" x1="858.2" x2="841.7" y1="202.67" y2="380.54" gradientUnits="userSpaceOnUse">
<stop stop-color="#448F9F" offset="0"/>
<stop stop-color="#37FCB5" offset="1"/>
</linearGradient>
<linearGradient id="bu" x1="687.87" x2="886.23" y1="218.64" y2="352.38" gradientUnits="userSpaceOnUse">
<stop stop-color="#5DF1D7" offset="0"/>
<stop stop-color="#17B1C9" offset="1"/>
</linearGradient>
<linearGradient id="bt" x1="869.75" x2="850.69" y1="198.2" y2="170.61" gradientUnits="userSpaceOnUse">
<stop stop-color="#CEFFDD" offset="0"/>
<stop stop-color="#B2FFF9" offset="1"/>
</linearGradient>
<linearGradient id="bs" x1="300.06" x2="290.93" y1="227.02" y2="267.74" gradientUnits="userSpaceOnUse">
<stop stop-color="#77FFB6" offset="0"/>
<stop stop-color="#BCFFCB" offset="1"/>
</linearGradient>
<linearGradient id="br" x1="211.97" x2="199.8" y1="232.73" y2="298.64" gradientUnits="userSpaceOnUse">
<stop stop-color="#30C1A8" offset="0"/>
<stop stop-color="#128698" offset="1"/>
</linearGradient>
<linearGradient id="bq" x1="-9.374" x2="251.1" y1="162.16" y2="357.55" gradientUnits="userSpaceOnUse">
<stop stop-color="#5DF1D7" offset="0"/>
<stop stop-color="#07515D" offset="1"/>
</linearGradient>
<linearGradient id="bp" x1="323.34" x2="299.67" y1="247.11" y2="347.56" gradientUnits="userSpaceOnUse">
<stop stop-color="#77FFB6" offset="0"/>
<stop stop-color="#BCFFCB" offset="1"/>
</linearGradient>
<linearGradient id="bn" x1="326.95" x2="304.3" y1="247.89" y2="343.84" gradientUnits="userSpaceOnUse">
<stop stop-color="#77FFB6" offset="0"/>
<stop stop-color="#BCFFCB" offset="1"/>
</linearGradient>
<linearGradient id="bm" x1="384.92" x2="362.94" y1="283.98" y2="317.73" gradientUnits="userSpaceOnUse">
<stop stop-color="#074058" offset="0"/>
<stop stop-color="#001431" offset="1"/>
</linearGradient>
<linearGradient id="bl" x1="864.43" x2="876.62" y1="315.96" y2="338.92" gradientUnits="userSpaceOnUse">
<stop stop-color="#ECFFF8" offset="0"/>
<stop stop-color="#E7FFFE" offset="1"/>
</linearGradient>
<linearGradient id="bk" x1="886.15" x2="1583.7" y1="344.94" y2="336.48" gradientUnits="userSpaceOnUse">
<stop stop-color="#ECFFF8" stop-opacity=".41" offset="0"/>
<stop stop-color="#E7FFFE" stop-opacity="0" offset="1"/>
</linearGradient>
<linearGradient id="bj" x1="833.71" x2="836.1" y1="437.35" y2="603.23" gradientUnits="userSpaceOnUse">
<stop stop-color="#5DF1D7" offset="0"/>
<stop stop-color="#17B1C9" offset="1"/>
</linearGradient>
<linearGradient id="bi" x1="817.42" x2="860.4" y1="472.79" y2="497.08" gradientUnits="userSpaceOnUse">
<stop stop-color="#33B7D5" offset="0"/>
<stop stop-color="#123635" offset="1"/>
</linearGradient>
<linearGradient id="bh" x1="854.94" x2="832.83" y1="641.82" y2="435.69" gradientUnits="userSpaceOnUse">
<stop stop-color="#33B7D5" offset="0"/>
<stop stop-color="#123635" offset="1"/>
</linearGradient>
<linearGradient id="bg" x1="808.19" x2="774.75" y1="641.82" y2="442.28" gradientUnits="userSpaceOnUse">
<stop stop-color="#33B7D5" offset="0"/>
<stop stop-color="#123635" offset="1"/>
</linearGradient>
<linearGradient id="bf" x1="750.36" x2="752.96" y1="409.6" y2="644.92" gradientUnits="userSpaceOnUse">
<stop stop-color="#5DF1D7" offset="0"/>
<stop stop-color="#17B1C9" offset="1"/>
</linearGradient>
<radialGradient id="be" cx="0" cy="0" r="1" gradientTransform="translate(804.72 476.31) rotate(-21.903) scale(44.684 53.514)" gradientUnits="userSpaceOnUse">
<stop stop-color="#172A47" offset="0"/>
<stop stop-color="#0E213B" offset=".73376"/>
<stop stop-color="#09172C" stop-opacity=".070886" offset="1"/>
</radialGradient>
<linearGradient id="bc" x1="727.18" x2="729.16" y1="498.8" y2="517.02" gradientUnits="userSpaceOnUse">
<stop stop-color="#005763" offset="0"/>
<stop stop-color="#97F5FF" offset="1"/>
</linearGradient>
<linearGradient id="bb" x1="304.22" x2="306.3" y1="497.02" y2="517.94" gradientUnits="userSpaceOnUse">
<stop stop-color="#005763" offset="0"/>
<stop stop-color="#97F5FF" offset="1"/>
</linearGradient>
<linearGradient id="ba" x1="219.55" x2="220.2" y1="416.66" y2="451.1" gradientUnits="userSpaceOnUse">
<stop stop-color="#5DF1D7" offset="0"/>
<stop stop-color="#128698" offset="1"/>
</linearGradient>
<linearGradient id="az" x1="209.6" x2="209.6" y1="372.04" y2="471.04" gradientUnits="userSpaceOnUse">
<stop stop-color="#5DF1D7" offset="0"/>
<stop stop-color="#0E5F6B" offset="1"/>
</linearGradient>
<linearGradient id="ay" x1="186.67" x2="186.68" y1="260.88" y2="263.4" gradientUnits="userSpaceOnUse">
<stop stop-color="#5DF1D7" offset="0"/>
<stop stop-color="#128698" offset="1"/>
</linearGradient>
<linearGradient id="ax" x1="572.58" x2="577.26" y1="223" y2="292.64" gradientUnits="userSpaceOnUse">
<stop stop-color="#5DF1D7" offset="0"/>
<stop stop-color="#07515D" offset="1"/>
</linearGradient>
<linearGradient id="aw" x1="474.52" x2="474.53" y1="242.51" y2="243.72" gradientUnits="userSpaceOnUse">
<stop stop-color="#fff" offset="0"/>
<stop stop-color="#fff" stop-opacity=".18226" offset="1"/>
</linearGradient>
<linearGradient id="av" x1="54.193" x2="28.402" y1="261" y2="432.12" gradientUnits="userSpaceOnUse">
<stop stop-color="#5DF1D7" offset="0"/>
<stop stop-color="#128698" offset="1"/>
</linearGradient>
<linearGradient id="au" x1="411.97" x2="567.66" y1="358.28" y2="335" gradientUnits="userSpaceOnUse">
<stop stop-color="#fff" offset="0"/>
<stop stop-color="#fff" stop-opacity=".18226" offset="1"/>
</linearGradient>
<linearGradient id="at" x1="880.58" x2="769.02" y1="359" y2="480.1" gradientUnits="userSpaceOnUse">
<stop stop-color="#169D86" offset="0"/>
<stop stop-color="#07515D" offset="1"/>
</linearGradient>
<linearGradient id="ar" x1="771.1" x2="765.49" y1="417.77" y2="423.02" gradientUnits="userSpaceOnUse">
<stop stop-color="#D8E7FF" offset="0"/>
<stop stop-color="#C6D6FF" offset="1"/>
</linearGradient>
<linearGradient id="aq" x1="779.08" x2="773.48" y1="417.77" y2="423.02" gradientUnits="userSpaceOnUse">
<stop stop-color="#D8E7FF" offset="0"/>
<stop stop-color="#C6D6FF" offset="1"/>
</linearGradient>
<linearGradient id="ap" x1="860.28" x2="854.67" y1="417.77" y2="423.02" gradientUnits="userSpaceOnUse">
<stop stop-color="#D8E7FF" offset="0"/>
<stop stop-color="#C6D6FF" offset="1"/>
</linearGradient>
<linearGradient id="ao" x1="868.26" x2="862.65" y1="417.77" y2="423.02" gradientUnits="userSpaceOnUse">
<stop stop-color="#D8E7FF" offset="0"/>
<stop stop-color="#C6D6FF" offset="1"/>
</linearGradient>
<linearGradient id="an" x1="277.3" x2="294.34" y1="464.82" y2="513.61" gradientUnits="userSpaceOnUse">
<stop stop-color="#5DF1D7" offset="0"/>
<stop stop-color="#06424C" offset="1"/>
</linearGradient>
<linearGradient id="am" x1="-707.88" x2="127.71" y1="462.2" y2="810.52" gradientUnits="userSpaceOnUse">
<stop stop-color="#5DF1D7" offset="0"/>
<stop stop-color="#07515D" offset="1"/>
</linearGradient>
<linearGradient id="al" x1="705.58" x2="742.32" y1="304.5" y2="389.62" gradientUnits="userSpaceOnUse">
<stop stop-color="#fff" offset="0"/>
<stop stop-color="#fff" stop-opacity=".18226" offset="1"/>
</linearGradient>
<linearGradient id="ak" x1="730.86" x2="730.86" y1="467.84" y2="492.7" gradientUnits="userSpaceOnUse">
<stop stop-color="#163357" offset="0"/>
<stop stop-color="#09172C" offset="1"/>
</linearGradient>
<linearGradient id="aj" x1="689.34" x2="691.42" y1="488.04" y2="505.7" gradientUnits="userSpaceOnUse">
<stop stop-color="#5DF1D7" offset="0"/>
<stop stop-color="#021F24" offset="1"/>
</linearGradient>
<linearGradient id="ai" x1="653.88" x2="658.6" y1="491.36" y2="527.43" gradientUnits="userSpaceOnUse">
<stop stop-color="#33B7D5" offset="0"/>
<stop stop-color="#123635" offset="1"/>
</linearGradient>
<linearGradient id="ag" x1="732.31" x2="768.56" y1="482.2" y2="433.92" gradientUnits="userSpaceOnUse">
<stop stop-color="#005763" offset="0"/>
<stop stop-color="#97F5FF" offset="1"/>
</linearGradient>
<linearGradient id="af" x1="717.33" x2="755.72" y1="462.86" y2="420.04" gradientUnits="userSpaceOnUse">
<stop stop-color="#005763" offset="0"/>
<stop stop-color="#97F5FF" offset="1"/>
</linearGradient>
<linearGradient id="ae" x1="300.2" x2="1125.9" y1="558.9" y2="311.29" gradientUnits="userSpaceOnUse">
<stop stop-color="#0A172A" offset="0"/>
<stop stop-color="#259EB1" offset="1"/>
</linearGradient>
<linearGradient id="ad" x1="454.78" x2="454.83" y1="338.48" y2="334.62" gradientUnits="userSpaceOnUse">
<stop stop-color="#33B7D5" offset="0"/>
<stop stop-color="#123635" offset="1"/>
</linearGradient>
<linearGradient id="ac" x1="414.6" x2="1231.1" y1="565.73" y2="289.48" gradientUnits="userSpaceOnUse">
<stop stop-color="#0A172A" offset="0"/>
<stop stop-color="#259EB1" offset="1"/>
</linearGradient>
<linearGradient id="ab" x1="561.43" x2="561.35" y1="341.39" y2="337.53" gradientUnits="userSpaceOnUse">
<stop stop-color="#33B7D5" offset="0"/>
<stop stop-color="#123635" offset="1"/>
</linearGradient>
<linearGradient id="aa" x1="284.79" x2="284.79" y1="432.7" y2="461.6" gradientUnits="userSpaceOnUse">
<stop stop-color="#163357" offset="0"/>
<stop stop-color="#09172C" offset="1"/>
</linearGradient>
<linearGradient id="z" x1="536.62" x2="523.56" y1="565.07" y2="435.85" gradientUnits="userSpaceOnUse">
<stop stop-color="#33B7D5" offset="0"/>
<stop stop-color="#123635" offset="1"/>
</linearGradient>
<linearGradient id="y" x1="412.3" x2="414.91" y1="410.04" y2="645.37" gradientUnits="userSpaceOnUse">
<stop stop-color="#5DF1D7" offset="0"/>
<stop stop-color="#17B1C9" offset="1"/>
</linearGradient>
<linearGradient id="x" x1="355.61" x2="342.55" y1="565.07" y2="435.85" gradientUnits="userSpaceOnUse">
<stop stop-color="#33B7D5" offset="0"/>
<stop stop-color="#123635" offset="1"/>
</linearGradient>
<linearGradient id="v" x1="231.29" x2="233.89" y1="410.04" y2="645.37" gradientUnits="userSpaceOnUse">
<stop stop-color="#5DF1D7" offset="0"/>
<stop stop-color="#17B1C9" offset="1"/>
</linearGradient>
<linearGradient id="u" x1="184" x2="281.39" y1="461.38" y2="533.66" gradientUnits="userSpaceOnUse">
<stop stop-color="#33B7D5" offset="0"/>
<stop stop-color="#123635" offset="1"/>
</linearGradient>
<linearGradient id="t" x1="227.94" x2="230.26" y1="434.11" y2="606.06" gradientUnits="userSpaceOnUse">
<stop stop-color="#5DF1D7" offset="0"/>
<stop stop-color="#17B1C9" offset="1"/>
</linearGradient>
<linearGradient id="s" x1="206.77" x2="240.9" y1="533.9" y2="533.9" gradientUnits="userSpaceOnUse">
<stop stop-color="#33B7D5" offset="0"/>
<stop stop-color="#123635" offset="1"/>
</linearGradient>
<linearGradient id="r" x1="242.91" x2="253.55" y1="580.89" y2="580.65" gradientUnits="userSpaceOnUse">
<stop stop-color="#33B7D5" offset="0"/>
<stop stop-color="#123635" offset="1"/>
</linearGradient>
<linearGradient id="q" x1="441.79" x2="428.74" y1="565.07" y2="435.85" gradientUnits="userSpaceOnUse">
<stop stop-color="#33B7D5" offset="0"/>
<stop stop-color="#123635" offset="1"/>
</linearGradient>
<linearGradient id="p" x1="317.48" x2="320.08" y1="410.04" y2="645.37" gradientUnits="userSpaceOnUse">
<stop stop-color="#5DF1D7" offset="0"/>
<stop stop-color="#17B1C9" offset="1"/>
</linearGradient>
<linearGradient id="o" x1="270.19" x2="367.58" y1="461.38" y2="533.66" gradientUnits="userSpaceOnUse">
<stop stop-color="#33B7D5" offset="0"/>
<stop stop-color="#123635" offset="1"/>
</linearGradient>
<linearGradient id="n" x1="314.12" x2="316.44" y1="434.11" y2="606.06" gradientUnits="userSpaceOnUse">
<stop stop-color="#5DF1D7" offset="0"/>
<stop stop-color="#17B1C9" offset="1"/>
</linearGradient>
<linearGradient id="m" x1="292.95" x2="327.09" y1="533.9" y2="533.9" gradientUnits="userSpaceOnUse">
<stop stop-color="#33B7D5" offset="0"/>
<stop stop-color="#123635" offset="1"/>
</linearGradient>
<linearGradient id="k" x1="329.1" x2="339.74" y1="580.89" y2="580.65" gradientUnits="userSpaceOnUse">
<stop stop-color="#33B7D5" offset="0"/>
<stop stop-color="#123635" offset="1"/>
</linearGradient>
<linearGradient id="j" x1="365.02" x2="462.41" y1="461.38" y2="533.66" gradientUnits="userSpaceOnUse">
<stop stop-color="#33B7D5" offset="0"/>
<stop stop-color="#123635" offset="1"/>
</linearGradient>
<linearGradient id="i" x1="408.95" x2="411.27" y1="434.11" y2="606.06" gradientUnits="userSpaceOnUse">
<stop stop-color="#5DF1D7" offset="0"/>
<stop stop-color="#17B1C9" offset="1"/>
</linearGradient>
<linearGradient id="h" x1="387.78" x2="421.92" y1="533.9" y2="533.9" gradientUnits="userSpaceOnUse">
<stop stop-color="#33B7D5" offset="0"/>
<stop stop-color="#123635" offset="1"/>
</linearGradient>
<linearGradient id="g" x1="423.93" x2="434.57" y1="580.89" y2="580.65" gradientUnits="userSpaceOnUse">
<stop stop-color="#33B7D5" offset="0"/>
<stop stop-color="#123635" offset="1"/>
</linearGradient>
<linearGradient id="f" x1="616.49" x2="603.42" y1="565.07" y2="435.85" gradientUnits="userSpaceOnUse">
<stop stop-color="#33B7D5" offset="0"/>
<stop stop-color="#123635" offset="1"/>
</linearGradient>
<linearGradient id="e" x1="492.16" x2="494.76" y1="410.04" y2="645.37" gradientUnits="userSpaceOnUse">
<stop stop-color="#5DF1D7" offset="0"/>
<stop stop-color="#17B1C9" offset="1"/>
</linearGradient>
<linearGradient id="d" x1="444.88" x2="542.27" y1="461.38" y2="533.66" gradientUnits="userSpaceOnUse">
<stop stop-color="#33B7D5" offset="0"/>
<stop stop-color="#123635" offset="1"/>
</linearGradient>
<linearGradient id="c" x1="488.81" x2="491.12" y1="434.11" y2="606.06" gradientUnits="userSpaceOnUse">
<stop stop-color="#5DF1D7" offset="0"/>
<stop stop-color="#17B1C9" offset="1"/>
</linearGradient>
<linearGradient id="b" x1="467.64" x2="501.78" y1="533.9" y2="533.9" gradientUnits="userSpaceOnUse">
<stop stop-color="#33B7D5" offset="0"/>
<stop stop-color="#123635" offset="1"/>
</linearGradient>
<linearGradient id="dk" x1="503.78" x2="514.42" y1="580.89" y2="580.65" gradientUnits="userSpaceOnUse">
<stop stop-color="#33B7D5" offset="0"/>
<stop stop-color="#123635" offset="1"/>
</linearGradient>
<linearGradient id="dj" x1="695.01" x2="681.95" y1="565.07" y2="435.85" gradientUnits="userSpaceOnUse">
<stop stop-color="#33B7D5" offset="0"/>
<stop stop-color="#123635" offset="1"/>
</linearGradient>
<linearGradient id="di" x1="570.69" x2="573.29" y1="410.04" y2="645.37" gradientUnits="userSpaceOnUse">
<stop stop-color="#5DF1D7" offset="0"/>
<stop stop-color="#17B1C9" offset="1"/>
</linearGradient>
<linearGradient id="dh" x1="523.4" x2="620.8" y1="461.38" y2="533.66" gradientUnits="userSpaceOnUse">
<stop stop-color="#33B7D5" offset="0"/>
<stop stop-color="#123635" offset="1"/>
</linearGradient>
<linearGradient id="dg" x1="567.34" x2="569.66" y1="434.11" y2="606.06" gradientUnits="userSpaceOnUse">
<stop stop-color="#5DF1D7" offset="0"/>
<stop stop-color="#17B1C9" offset="1"/>
</linearGradient>
<linearGradient id="df" x1="546.17" x2="580.31" y1="533.9" y2="533.9" gradientUnits="userSpaceOnUse">
<stop stop-color="#33B7D5" offset="0"/>
<stop stop-color="#123635" offset="1"/>
</linearGradient>
<linearGradient id="de" x1="582.31" x2="592.95" y1="580.89" y2="580.65" gradientUnits="userSpaceOnUse">
<stop stop-color="#33B7D5" offset="0"/>
<stop stop-color="#123635" offset="1"/>
</linearGradient>
<linearGradient id="dd" x1="-110.95" x2="-110.95" y1="457.38" y2="458.92" gradientUnits="userSpaceOnUse">
<stop stop-color="#5DF1D7" offset="0"/>
<stop stop-color="#17B1C9" offset="1"/>
</linearGradient>
<linearGradient id="dc" x1="-1912.2" x2="11410" y1="753.54" y2="-3340.7" gradientUnits="userSpaceOnUse">
<stop stop-color="#0A172A" offset="0"/>
<stop stop-color="#259EB1" offset="1"/>
</linearGradient>
<linearGradient id="db" x1="757.43" x2="769.62" y1="323.96" y2="346.92" gradientUnits="userSpaceOnUse">
<stop stop-color="#ECFFF8" offset="0"/>
<stop stop-color="#E7FFFE" offset="1"/>
</linearGradient>
<linearGradient id="cz" x1="779.15" x2="1476.7" y1="352.94" y2="344.48" gradientUnits="userSpaceOnUse">
<stop stop-color="#ECFFF8" stop-opacity=".41" offset="0"/>
<stop stop-color="#E7FFFE" stop-opacity="0" offset="1"/>
</linearGradient>
<linearGradient id="cy" x1="708.93" x2="708.93" y1="406.99" y2="434.83" gradientUnits="userSpaceOnUse">
<stop stop-color="#163357" offset="0"/>
<stop stop-color="#09172C" offset="1"/>
</linearGradient>
<linearGradient id="cx" x1="232.25" x2="733.38" y1="505.08" y2="573.22" gradientUnits="userSpaceOnUse">
<stop stop-color="#5DF1D7" offset="0"/>
<stop stop-color="#07515D" offset="1"/>
</linearGradient>
<linearGradient id="cw" x1="905.23" x2="748.54" y1="446.58" y2="532.37" gradientUnits="userSpaceOnUse">
<stop stop-color="#448F9F" offset="0"/>
<stop stop-color="#37FCB5" offset="1"/>
</linearGradient>
<linearGradient id="cv" x1="796.74" x2="796.79" y1="314.31" y2="553.54" gradientUnits="userSpaceOnUse">
<stop stop-color="#5DF1D7" offset="0"/>
<stop stop-color="#17B1C9" offset="1"/>
</linearGradient>
<linearGradient id="cu" x1="915.4" x2="927.6" y1="453.66" y2="422.43" gradientUnits="userSpaceOnUse">
<stop stop-color="#CEFFDD" offset="0"/>
<stop stop-color="#B2FFF9" offset="1"/>
</linearGradient>
</defs>
</svg>