<svg fill="none" viewBox="0 0 1584 555" xmlns="http://www.w3.org/2000/svg"><path d="m595.63 108.96-141.27-1.384-229.99 212.68 3.986 9.864 131.51-6.171 239.74-205.12-3.985-9.865z" fill="url(#a)"/><path d="m458.35 117.44-3.985-9.865 141.27 1.384 3.986 9.865-133.42 7.128-7.845-8.512z" fill="url(#b)"/><path d="m599.62 118.83-141.27-1.384-229.99 212.68 140.47-1.404 230.79-209.89z" fill="url(#c)"/><path d="m363.19 323.96-110.56-.947a3.547 3.547 0 0 1-2.379-6.15l59.857-55.356a14.187 14.187 0 0 1 9.753-3.771l111.24.951a3.547 3.547 0 0 1 2.363 6.164l-60.584 55.394a14.18 14.18 0 0 1-9.693 3.715zm-36.206-69.711 111.41.955a14.185 14.185 0 0 0 9.694-3.716l63.525-58.081a3.542 3.542 0 0 0 1.153-2.587 3.544 3.544 0 0 0-3.515-3.577l-112.13-.959a14.186 14.186 0 0 0-9.755 3.771l-62.759 58.044a3.548 3.548 0 0 0 2.377 6.15zm77.259-71.45 112.29.963a14.188 14.188 0 0 0 9.695-3.717l55.02-50.309a3.544 3.544 0 0 0-2.361-6.163l-112.86-1.016a14.177 14.177 0 0 0-9.759 3.772l-54.406 50.319a3.549 3.549 0 0 0 2.379 6.151z" clip-rule="evenodd" fill="url(#d)" fill-rule="evenodd"/><path d="m382.48 311.47-18.149-.42-14.065 12.797-5.222-.044 14.148-12.872-27.266-.282-14.367 13.076-5.226-.046 14.454-13.15-30.34-1.058-15.197 13.825-5.224-.043 15.278-13.899-32.142-.73 3.746-3.461 32.201.729 20.229-18.397-32.529-.738 3.739-3.462 32.594.739 10.71-9.739-32.765-.747 3.744-3.459 32.826.744 14.101-12.819 5.219.045-14.181 12.894 30.339 1.058 14.926-13.569 5.224.042-15.008 13.645 27.263.283 15.233-13.85 5.219.044-15.313 13.925 17.934.416-3.785 3.461-17.949-.417-10.714 9.745 18.005.414-3.78 3.459-18.027-.417-20.232 18.398 18.134.42-3.785 3.46zm53.947-65.994 17.782.412 3.785-3.46-17.764-.412 10.711-9.74 17.709.411 3.785-3.461-17.689-.411 22.217-20.207 17.574.408 3.782-3.459-17.554-.405 19.778-17.986-5.22-.044-19.697 17.91-27.262-.283 19.471-17.705-5.221-.044-19.39 17.629-30.343-1.057 18.647-16.954-5.221-.048-18.564 16.884-34.032-.775-3.738 3.463 33.965.769-22.219 20.207-33.601-.763-3.744 3.459 33.545.765-10.712 9.743-33.372-.761-3.739 3.462 33.309.755-11.782 10.72 5.219.044 11.702-10.644 30.339 1.058-10.96 9.971 5.224.042 10.878-9.895 27.263.283-10.652 9.693 5.22.045 10.571-9.619zm79.084-71.927 17.381.402 3.781-3.459-17.358-.403 18.725-17.03 17.261.402 3.782-3.46-17.238-.399 11.551-10.507 17.18.395 3.783-3.456-17.162-.399 13.344-12.138-5.217-.047-13.266 12.066-27.261-.281 13.049-11.87-5.217-.046-12.972 11.797-30.344-1.06 12.251-11.142-5.217-.046-12.173 11.068-35.266-.802-3.739 3.462 35.202.802-11.552 10.509-35.016-.798-3.743 3.459 34.957.795-18.725 17.027-34.651-.783-3.739 3.457 34.587.787-12.323 11.21 5.224.043 12.238-11.134 30.342 1.057-11.494 10.458 5.217.047 11.418-10.385 27.261.282-11.188 10.182 5.22.045 11.107-10.107zm.344-34.977-11.554 10.509-30.348-1.058 11.556-10.51 30.346 1.059zm-34.083 30.999 18.727-17.034-30.345-1.055-18.726 17.029 30.344 1.06zm54.934-20.088 11.551-10.508-27.261-.284-11.556 10.51 27.266.282zm-3.806 3.458-18.723 17.031-27.263-.282 18.724-17.033 27.262.284zm-115.7 75.353 22.218-20.206-30.338-1.059-22.22 20.207 30.34 1.058zm-3.805 3.461-10.709 9.743-30.341-1.061 10.712-9.74 30.338 1.058zm58.426-23.266-22.218 20.207-27.264-.282 22.217-20.207 27.265.282zm-36.73 33.411 10.709-9.743-27.262-.284-10.712 9.744 27.265.283zm-69.76 33.571-10.712 9.744-30.339-1.058 10.713-9.745 30.338 1.059zm-34.747 31.6 20.234-18.4-30.34-1.058-20.232 18.399 30.338 1.059zm56.44-21.455 10.712-9.744-27.264-.282-10.709 9.743 27.261.283zm-3.802 3.457-20.232 18.402-27.263-.287 20.231-18.398 27.264.283z" clip-rule="evenodd" fill="url(#e)" fill-rule="evenodd"/><path d="M428.27 110.46 287 109.076 57.01 321.756l3.986 9.864 131.51-6.171 239.74-205.12-3.985-9.865z" fill="url(#f)"/><path d="m290.99 118.94-3.985-9.865 141.27 1.384 3.986 9.865-133.42 7.128-7.845-8.512z" fill="url(#g)"/><path d="m432.26 120.33-141.27-1.384L61 331.626l140.47-1.404 230.79-209.89z" fill="url(#h)"/><path d="m195.83 325.46-110.56-.947a3.547 3.547 0 0 1-2.379-6.15l59.857-55.356a14.187 14.187 0 0 1 9.753-3.771l111.24.951a3.547 3.547 0 0 1 2.363 6.164l-60.584 55.394a14.18 14.18 0 0 1-9.693 3.715zm-36.206-69.711 111.41.955a14.18 14.18 0 0 0 9.694-3.716l63.525-58.081a3.542 3.542 0 0 0 1.153-2.587 3.544 3.544 0 0 0-3.515-3.577l-112.13-.959a14.182 14.182 0 0 0-9.754 3.771l-62.76 58.044a3.549 3.549 0 0 0 2.377 6.15zm77.259-71.45 112.29.963a14.188 14.188 0 0 0 9.695-3.717l55.02-50.309a3.544 3.544 0 0 0-2.361-6.163l-112.86-1.016a14.177 14.177 0 0 0-9.759 3.772l-54.406 50.319a3.547 3.547 0 0 0 2.379 6.151z" clip-rule="evenodd" fill="url(#i)" fill-rule="evenodd"/><path d="m215.12 312.97-18.149-.421-14.065 12.797-5.222-.043 14.148-12.873-27.266-.282-14.367 13.076-5.226-.046 14.454-13.15-30.34-1.058-15.197 13.825-5.224-.043 15.278-13.899-32.142-.73 3.746-3.461 32.201.729 20.23-18.397-32.53-.738 3.74-3.462 32.593.739 10.71-9.739-32.765-.747 3.744-3.459 32.826.744 14.101-12.819 5.22.045-14.182 12.894 30.34 1.058 14.925-13.569 5.224.043-15.008 13.644 27.263.283 15.233-13.85 5.22.044-15.314 13.925 17.934.416-3.785 3.461-17.949-.417-10.714 9.745 18.005.414-3.78 3.459-18.027-.417-20.232 18.399 18.134.419-3.785 3.461zm53.947-65.995 17.782.412 3.785-3.46-17.764-.412 10.711-9.74 17.709.411 3.785-3.461-17.689-.411 22.217-20.207 17.574.408 3.782-3.459-17.554-.405 19.778-17.986-5.22-.044-19.697 17.91-27.262-.283 19.471-17.705-5.221-.044-19.39 17.629-30.343-1.057 18.647-16.954-5.221-.048-18.564 16.884-34.032-.775-3.738 3.463 33.965.769-22.219 20.207-33.601-.763-3.744 3.459 33.545.765-10.712 9.743-33.372-.761-3.739 3.462 33.309.755-11.782 10.72 5.219.044 11.702-10.644 30.339 1.058-10.96 9.971 5.224.042 10.878-9.895 27.263.283-10.652 9.693 5.22.045 10.571-9.619zm79.084-71.927 17.381.402 3.781-3.459-17.358-.403 18.725-17.03 17.261.402 3.782-3.46-17.238-.399 11.551-10.507 17.18.395 3.783-3.456-17.162-.399 13.344-12.138-5.217-.047-13.266 12.066-27.261-.281 13.049-11.87-5.217-.046-12.972 11.797-30.344-1.06 12.251-11.142-5.217-.046-12.173 11.068-35.266-.802-3.739 3.462 35.202.802-11.552 10.509-35.016-.798-3.743 3.459 34.957.795-18.724 17.027-34.652-.783-3.739 3.457 34.587.787-12.323 11.21 5.225.043 12.237-11.134 30.342 1.057-11.494 10.458 5.217.047 11.418-10.385 27.261.282-11.188 10.182 5.22.045 11.107-10.107zm.344-34.977-11.554 10.509-30.348-1.058 11.556-10.51 30.346 1.059zm-34.083 30.999 18.727-17.033-30.345-1.056-18.725 17.029 30.343 1.06zm54.934-20.088 11.552-10.508-27.262-.284-11.556 10.51 27.266.282zm-3.806 3.458-18.723 17.031-27.263-.282 18.724-17.033 27.262.284zm-115.7 75.353 22.218-20.206-30.338-1.058-22.22 20.206 30.34 1.058zm-3.805 3.462-10.709 9.742-30.341-1.061 10.712-9.74 30.338 1.059zm58.426-23.267-22.217 20.207-27.265-.282 22.217-20.207 27.265.282zm-36.73 33.411 10.709-9.743-27.262-.284-10.712 9.744 27.265.283zm-69.76 33.571-10.712 9.744-30.339-1.058 10.713-9.745 30.338 1.059zm-34.747 31.6 20.234-18.4-30.34-1.058-20.232 18.399 30.338 1.059zm56.44-21.455 10.712-9.744-27.264-.282-10.709 9.743 27.261.283zm-3.802 3.457-20.232 18.402-27.263-.287 20.231-18.398 27.264.283z" clip-rule="evenodd" fill="url(#j)" fill-rule="evenodd"/><path d="M493.28 251.84c-7.737-6.451-11.812-12.302-12.223-17.554-.617-7.877 8.579-28.492 11.594-30.893 2.009-1.601 7.782-2.793 17.318-3.577L493.28 251.84z" fill="url(#k)"/><path d="M501.92 270.57c-5.64-2.971-10.346-7.261-14.118-12.869-5.659-8.413 12.393-60.099 16.959-64.476 3.044-2.917 11.671-4.644 25.882-5.181L501.92 270.57z" fill="url(#l)"/><path d="M581.26 304.52c2.753 4.807 5.355 10.242 7.806 16.307 3.675 9.097 15.803 3.456 15.558-9.245-.164-8.468-1.845-16.362-5.043-23.683L581.26 304.52z" fill="url(#m)"/><path d="M599.58 287.9a59.095 59.095 0 0 1 3.391 10.213c-6.942 4.775-11.115 10.491-12.521 17.149l-.042.202a187.14 187.14 0 0 1-1.227 5.64 8.44 8.44 0 0 1-.116-.276c-2.383-5.896-4.908-11.198-7.577-15.905l-.229-.402L599.58 287.9z" fill="url(#n)"/><path d="M659.96 200.08s2.139 25.287-30.946 25.634c-12.982.143-17.069-22.392-4.381-25.556 7.281-.896 12.974 1.054 18.746-8.349 6.84 1.633 16.581 8.271 16.581 8.271z" fill="url(#o)"/><path d="M643.37 191.81c-5.773 9.403-11.466 7.453-18.747 8.349-6.593 1.644-8.656 8.519-7.296 14.724 15.653-1.317 26.722-7.905 33.209-19.763l.223-.414c-2.471-1.236-5.094-2.348-7.389-2.896z" fill="url(#p)"/><path d="M649.68 187.27s-.724-18.626 2.391-19.892c3.143-1.274 5.187 4.955 5.187 4.955s3.333-5.916 5.986-5.597c2.623.326 7.957.466 8.854 7.379.897 6.914-3.952 14.616-9.396 17.107-6.862.24-13.022-3.952-13.022-3.952z" fill="url(#q)"/><path d="M665.36 190.92s.153 9.824-5.322 15.998c-15.893-1.214-20.5-10.969-20.5-10.969s5.138-9.367 8.239-11.672c10.56-1.255 17.583 6.643 17.583 6.643z" fill="url(#r)"/><path d="M506.19 205.05c-5.073 29.94-8.381 51.599-9.924 64.977-2.314 20.068 22.139 51.458 69.86 44.912s60.225-68.987 61.73-110.77c-15.11-3.154-55.665-2.86-121.67.881z" fill="url(#s)"/><path d="M514.54 248.6c6.943-.746 11.766-8.796 10.773-18.023-.964-9.227-7.385-16.1-14.328-15.385-6.943.746-11.766 8.826-10.772 18.053.963 9.197 7.385 16.1 14.327 15.355z" fill="url(#t)"/><path d="M506.45 247.7c-.681-13.379 1.366-21.623 6.141-24.733 7.163-4.665 15.256.695 23.989 18.198 5.822 11.669-4.222 13.848-30.13 6.535z" fill="#042635" opacity=".2"/><path d="M499.45 247.7c-.681-13.379 1.366-21.623 6.141-24.733 7.163-4.665 15.256.695 23.989 18.198 5.822 11.67-4.222 13.848-30.13 6.535z" fill="url(#u)"/><path d="m556.59 290.52 14.556-12.569a5.651 5.651 0 0 1 2.792-1.301c13.985-2.255 23.275-4.178 27.872-5.768.131-.045.272-.095.423-.149a3.269 3.269 0 0 1 4 1.563l3.564 6.82-10.212 8.78-30.39 10.702-12.605-8.078z" clip-rule="evenodd" stroke="#fff" stroke-width="2.08"/><path d="m611.02 278.68.745-.357c-9.41 18.998-23.855 33.631-45.637 36.619-47.721 6.546-72.174-24.844-69.86-44.912l.087-.746c.207-1.76.443-3.658.709-5.692 38.335 27.495 75.947 32.699 112.84 15.613l1.118-.525z" fill="url(#v)"/><path d="m572.01 213.54 13.2 19.959a.891.891 0 0 0 .863.392l18.693-2.536a.889.889 0 0 0 .708-.554l8.57-21.563-42.034 4.302z" clip-rule="evenodd" stroke="#fff" stroke-width="2.08"/><path d="M594.75 232.94c1.066 14.395.15 27.724-2.747 39.987" stroke="#fff" stroke-width="2.08"/><path d="M584.09 97.158c2.952-5.495 6.346-8.104 10.18-7.828 5.752.416 9.062 9.869 1.974 15.117-4.725 3.5-8.777 1.07-12.154-7.29z" fill="url(#w)"/><path d="M588.3 97.169c.997-1.63 2.064-2.512 3.199-2.647 1.703-.203 3.157 2.79 1.361 5.572-1.198 1.856-2.718.881-4.56-2.925z" fill="#042635"/><path d="M627.78 197.41c-.692-23.544-3.737-43.836-9.136-60.877-8.099-25.562-25.715-41.501-43.463-46.442-17.748-4.94-38.212-7.286-56.304 7.709-18.093 14.995-9.566 48.066-7.263 60.767 1.536 8.468.756 21.704-2.341 39.71 9.167 8.237 27.195 13.789 54.084 16.655s48.363-2.974 64.423-17.522z" fill="url(#x)"/><path d="M511.47 119.58c-.669 13.989 1.876 29.455 7.635 46.397l.175.514c4.76 13.87 7.26 27.602 7.502 41.197-7.595-2.602-13.433-5.737-17.514-9.405l.183-1.075c2.944-17.458 3.663-30.337 2.158-38.635l-.094-.514c-1.594-8.565-5.613-25.451-3.152-40.233l.868.486c.73.41 1.477.832 2.239 1.268z" fill="#fff" opacity=".6"/><path d="M597.9 174.23a3.21 3.21 0 1 0-6.336-1.033l-1.379 8.459a3.21 3.21 0 1 0 6.335 1.034l1.38-8.46z" fill="url(#y)"/><path d="M592.62 172.76a3.21 3.21 0 1 0-6.335-1.033l-1.527 9.358a3.21 3.21 0 0 0 6.336 1.034l1.526-9.359z" fill="url(#z)"/><path d="M597.26 178.09c-4.035-1.502-9.217-.544-12.077.377l1.083-6.742c.068-.358.179-.697.348-.988l10.94 1.42c.316.615.468 1.317.346 2.063l-.64 3.87z" fill="#042635" opacity=".2"/><path d="M575.9 176.39c-4.62-6.97 5.877-13.909 15.712-10.961 8.897-.124 16.584 4.649 13.718 10.158-2.423 4.663-6.163.972-12.982.397-7.239-.617-12.868 5.827-16.448.406z" fill="url(#A)"/><path d="M591.04 169.79c4.232.932 8.155-.548 8.762-3.305s-2.331-5.747-6.563-6.68c-4.231-.932-8.154.548-8.762 3.305-.607 2.757 2.331 5.747 6.563 6.68z" fill="#042635"/><path d="M555.1 161.58c10.301-.901 17.753-11.905 16.645-24.577-1.109-12.672-10.359-22.214-20.66-21.313s-17.753 11.905-16.645 24.577c1.109 12.672 10.359 22.214 20.66 21.313zm55.48-11c7.274-1.283 11.75-10.381 9.997-20.322-1.753-9.942-9.071-16.961-16.345-15.678s-11.75 10.381-9.997 20.322 9.071 16.96 16.345 15.678z" fill="#fff"/><path d="M613.26 147.4c3.118-.054 5.578-3.957 5.495-8.716s-2.678-8.573-5.796-8.519c-3.118.055-5.579 3.957-5.496 8.716.083 4.76 2.678 8.574 5.797 8.519z" fill="#042635"/><path d="M610.33 139.44c.821-.015 1.47-.958 1.45-2.106-.02-1.149-.702-2.069-1.522-2.054-.821.014-1.47.957-1.45 2.106.02 1.148.702 2.068 1.522 2.054zm4.13.93c.657-.011 1.177-.686 1.163-1.506-.014-.821-.558-1.477-1.215-1.465-.656.011-1.177.686-1.162 1.506.014.821.558 1.477 1.214 1.465z" fill="#fff"/><path d="M561.48 153.64c4.906-.43 8.424-6.013 7.859-12.472s-5-11.347-9.905-10.918c-4.905.43-8.424 6.013-7.859 12.472s5 11.347 9.905 10.918z" fill="#042635"/><path d="M557.61 140.93c.981-.086 1.683-1.216 1.569-2.524-.115-1.308-1.003-2.299-1.984-2.213-.981.085-1.683 1.215-1.569 2.524.115 1.308 1.003 2.299 1.984 2.213zm4.61-2.15c.736-.064 1.263-.912 1.177-1.893s-.752-1.724-1.488-1.66c-.736.065-1.263.912-1.177 1.893s.752 1.725 1.488 1.66z" fill="#fff"/><path d="M515.8 124.75c-5.839.126-10.973-2.266-15.403-7.177-6.645-7.365-3.412-19.612 8.77-20.341 8.122-.486 13.903 2.118 17.343 7.813L515.8 124.75z" fill="url(#B)"/><path d="M518.39 113c-.975 1.063-3.71 2.592-7.838.501-4.127-2.091-4.076-7.499.351-9.612 4.427-2.112 6.932 1.607 7.928 4.072.995 2.465.533 3.975-.441 5.039zm34.8-6.15c-1.538-.527-3.655-2.394-7.346-.902-3.691 1.491-4.488 3.412-6.992 3.301s-1.667-4.629 3.338-6.651 9.325-1.154 11.935.833c2.609 1.987.602 3.946-.935 3.419zm42.16 3.19c1.306-.897 3.771-3.366 6.67-3.064s4.825.861 4.973-.812-2.511-2.778-6.05-3.283c-3.538-.504-7.341 1.469-8.653 4.157-1.312 2.687 1.753 3.898 3.06 3.002z" fill="#042635"/><path d="M506.14 199.8c-20.27-16.87-31.577-41.82-27.928-67.79 5.913-42.074 48.87-70.802 95.935-64.187 47.066 6.615 80.44 46.07 74.527 88.144-2.112 15.021-8.957 28.369-19.02 38.983" stroke="#fff" stroke-width="4.755"/><path d="M636.95 195.11c2.215 3.889.827 8.808-3.058 10.999-27.936 15.81-60.691 16.536-85.67 13.698a224.457 224.457 0 0 1-31.307-5.816 179.687 179.687 0 0 1-9.189-2.612c-1.08-.344-1.931-.608-2.503-.808-.3-.09-.528-.171-.687-.241-.091-.037-.138-.043-.185-.05-.044-.03-.044-.03-.067-.033l-.024-.004 2.727-7.612-2.727 7.612c-4.206-1.503-6.389-6.132-4.885-10.338 1.503-4.206 6.132-6.389 10.338-4.886l127.24.091zm-127.24-.091c.206.077.434.157.663.238.481.163 1.218.387 2.184.691 1.955.611 4.812 1.468 8.401 2.405 7.23 1.856 17.387 4.076 29.06 5.405 23.611 2.67 52.327 1.639 75.931-11.706 3.888-2.214 8.807-.827 10.998 3.058" clip-rule="evenodd" fill="#2B4246" fill-rule="evenodd"/><path d="M506.98 202.63s71.385 25.591 122.95-3.56" stroke="url(#C)" stroke-dasharray="1.43 1.43" stroke-linejoin="round" stroke-width="16.168"/><path d="M637.15 202.7a8.02 8.02 0 0 0-.206-7.592 4.762 4.762 0 0 0-.452-.711c-.077.037-.178.071-.282.128-.316.196-.631.392-.944.564a118.905 118.905 0 0 1-14.579 7.386l-22.088-.343 22.088.343c-26.413 11.126-51.583 10.158-73.529 7.602a262.06 262.06 0 0 1-32.309-5.862 186.016 186.016 0 0 1-9.346-2.514 99.79 99.79 0 0 1-2.44-.751c-.276-.086-.484-.14-.599-.18-.07-.01-.114-.04-.138-.043l-.023-.004 31.147.464-31.147-.464-2.506-1.816a7.504 7.504 0 0 0-.428.996c-1.504 4.206.679 8.835 4.885 10.338l2.727-7.612-2.727 7.612.024.004c.023.003.023.003.067.033.047.007.094.013.185.05.158.07.387.151.687.241.572.2 1.423.464 2.503.808 2.184.691 5.296 1.608 9.189 2.612a224.457 224.457 0 0 0 31.307 5.816c24.979 2.838 57.734 2.112 85.67-13.698a7.96 7.96 0 0 0 3.264-3.407z" clip-rule="evenodd" fill="#042635" fill-rule="evenodd" opacity=".7"/><path d="M513.29 110.15c2.909-1.224 4.27-4.586 3.043-7.472-1.224-2.909-4.586-4.27-7.472-3.043-7.837 3.317-13.557 11.9-16.935 19.71-1.78 4.118-3.105 8.422-3.815 12.452-.697 3.935-.893 8.061-.044 11.59a5.682 5.682 0 0 0 6.875 4.208 5.684 5.684 0 0 0 4.208-6.876c-.313-1.364-.362-3.748.206-6.934.554-3.09 1.592-6.547 3.047-9.896 3.061-7.084 7.235-12.188 10.887-13.739zm-15.446 53.867a5.834 5.834 0 0 0 6.579-4.958 5.835 5.835 0 0 0-4.957-6.579 5.835 5.835 0 0 0-6.58 4.958 5.836 5.836 0 0 0 4.958 6.579z" clip-rule="evenodd" fill="#fff" fill-rule="evenodd"/><path d="M529.74 309.01c-4.414 4.507-7.548 8.983-9.402 13.428-2.782 6.666-6.038 13.136-13.704 13.099s-9.528-10.682-4.008-22.626 8.939-13.407 12.115-14.649 9.273-.627 11.989 3.3c1.811 2.618 2.814 5.101 3.01 7.448z" fill="url(#D)"/><path d="m501.46 322.16-.046.244c-.955 5.025.831 11.695 6.831 13.044-.515.065-1.052.097-1.613.094-7.566-.037-9.479-10.405-4.222-22.157-.181 3.393-.498 6.318-.95 8.775z" fill="#fff" opacity=".6"/><path d="M514.74 298.26c3.175-1.242 9.272-.627 11.989 3.3 1.811 2.618 2.814 5.101 3.009 7.448-4.336 4.428-7.437 8.826-9.303 13.194l-.391.93c-2.015 4.747-4.341 9.282-8.414 11.303.065-7.288 5.831-20.264 5.426-25.447-.239-3.058-2.091-6.089-5.555-9.093 1.148-.804 2.206-1.231 3.239-1.635z" fill="url(#E)"/><path d="M763.77 356.9c7.343-10.886 4.471-25.663-6.415-33.006s-25.664-4.471-33.007 6.416c-7.342 10.886-4.47 25.663 6.416 33.006s25.664 4.47 33.006-6.416z" fill="url(#F)"/><mask id="G" x="730" y="193" width="148" height="191" mask-type="alpha" maskUnits="userSpaceOnUse"><path d="M733.93 354.41c-5.484-6.243-4.87-15.749 1.372-21.234 6.243-5.484 15.749-4.87 21.234 1.372 10.377 11.812 20.356 17.776 30.025 18.757 9.609.976 20.316-2.834 32.442-12.274 16.255-12.655 25.649-36.356 27.874-66.279.933-12.535.513-25.485-1.03-37.211l-.127-.94c-1.301-9.453-3.26-17.263-5.04-21.105l-.058-.125c-3.553-7.512-.344-16.481 7.168-20.034 7.511-3.553 16.481-.344 20.034 7.168 7.123 15.06 11.184 45.933 9.062 74.478-1.266 17.024-4.601 33.059-10.224 47.243-6.613 16.686-16.257 30.493-29.174 40.549-36.253 28.223-72.924 24.501-103.56-10.365z" fill="#fff"/></mask><g mask="url(#G)"><path d="M733.93 354.41c-5.484-6.243-4.87-15.749 1.372-21.234 6.243-5.484 15.749-4.87 21.234 1.372 10.377 11.812 20.356 17.776 30.025 18.757 9.609.976 20.316-2.834 32.442-12.274 16.255-12.655 25.649-36.356 27.874-66.279.933-12.535.513-25.485-1.03-37.211l-.127-.94c-1.301-9.453-3.26-17.263-5.04-21.105l-.058-.125c-3.553-7.512-.344-16.481 7.168-20.034 7.511-3.553 16.481-.344 20.034 7.168 7.123 15.06 11.184 45.933 9.062 74.478-1.266 17.024-4.601 33.059-10.224 47.243-6.613 16.686-16.257 30.493-29.174 40.549-36.253 28.223-72.924 24.501-103.56-10.365z" fill="url(#H)"/><path d="M729.6 333.19c35.827 36.444 68.708 43.015 98.641 19.712 44.9-34.954 36.137-122.49 25.977-143.96" stroke="url(#I)" stroke-dasharray="3.64 3.64" stroke-linejoin="round" stroke-width="38.413"/></g><path d="m779.53 149.51 19.094 4.805c-3.881 15.423 2.24 31.823 15.646 40.865 17.435 11.76 41.102 7.16 52.861-10.275 11.643-17.261 7.25-40.629-9.756-52.505l-.519-.357 11.01-16.323c26.45 17.841 33.429 53.745 15.589 80.195-17.841 26.45-53.745 33.429-80.195 15.588-20.132-13.579-29.432-38.092-23.903-61.29l.173-.703z" fill="url(#J)"/><path d="M869.59 215.24c5.736-8.504 3.492-20.049-5.013-25.786-8.505-5.736-20.049-3.492-25.786 5.013-5.736 8.504-3.492 20.049 5.012 25.786 8.505 5.736 20.05 3.492 25.787-5.013z" fill="url(#K)"/><g filter="url(#L)"><path d="M306.78 265.93c10.008 2.682 20.295-3.257 22.976-13.265 2.682-10.008-3.257-20.295-13.265-22.977s-20.296 3.257-22.977 13.266c-2.682 10.008 3.257 20.295 13.266 22.976z" fill="url(#M)"/></g><mask id="N" x="276" y="226" width="202" height="129" mask-type="alpha" maskUnits="userSpaceOnUse"><path d="m319.23 348.75-43.004-80.711 66.189-41.736 135.51 43.507-89.539 84.251-69.157-5.311z" fill="#fff"/></mask><g mask="url(#N)"><path d="m319.23 348.75-43.004-80.711 66.189-41.736 135.51 43.507-89.539 84.251-69.157-5.311z" fill="url(#O)"/><path d="m342.41 226.31 124.79 83.526 25.154-43.349-135.19-47.756-14.751 7.579z" fill="url(#P)" opacity=".3"/><g filter="url(#Q)"><path d="m356.05 347.61-45.648-69.734a8.478 8.478 0 0 1 2.157-11.537 9.14 9.14 0 0 1 12.083 1.278l67.256 73.877 12.81-13.927-68.665-68.147a6.317 6.317 0 0 1 .565-9.465 8.72 8.72 0 0 1 11.077.288l78.731 68.284-37.202 32.982-33.164-3.899z" fill="url(#R)"/></g><g filter="url(#S)"><path d="m347.69 250.25 78.732 68.283-33.663 29.844-31.843-3.744-45.649-69.735a8.481 8.481 0 0 1 .54-10.024 9.143 9.143 0 0 1 8.841 2.749l67.256 73.877 3.807-4.14 1.053 1.157 12.809-13.927-68.665-68.147a6.319 6.319 0 0 1-.698-8.146 8.715 8.715 0 0 1 7.48 1.953z" fill="url(#T)"/></g><path d="m379.08 299-79.5 13 6.5 14h84.5l59.5-65.5-30.5-9.5-6 22-34.5 26z" fill="url(#U)" opacity=".4"/></g><path d="M889.84 336.8c0 10.182-4.758 18.436-10.628 18.436s-28.63 3.687-28.63-11.061c0-15.834 22.76-25.811 28.63-25.811s10.628 8.254 10.628 18.436z" fill="#1B7395"/><g filter="url(#V)"><ellipse cx="879.21" cy="336.8" rx="10.628" ry="18.436" fill="url(#W)"/></g><path d="M1583.7 225v285S881.5 355.24 879.22 355.24c-5.87 0-10.628-8.254-10.628-18.436s4.758-18.436 10.628-18.436 704.48-93.369 704.48-93.369z" fill="url(#X)"/><path d="M843.25 538.73c9.926 0 17.969-16.383 17.969-36.593 0-20.209-8.043-36.629-17.969-36.629-9.923 0-17.966 16.42-17.966 36.629 0 20.21 8.043 36.593 17.966 36.593z" fill="url(#Y)"/><path d="M841.08 538.73c9.923 0 17.966-16.383 17.966-36.593 0-20.209-8.043-36.629-17.966-36.629-9.926 0-17.969 16.42-17.969 36.629 0 20.21 8.043 36.593 17.969 36.593z" fill="url(#Z)"/><mask id="aa" x="823" y="465" width="37" height="74" mask-type="alpha" maskUnits="userSpaceOnUse"><path d="M841.08 538.73c9.923 0 17.966-16.383 17.966-36.593 0-20.209-8.043-36.629-17.966-36.629-9.926 0-17.969 16.42-17.969 36.629 0 20.21 8.043 36.593 17.969 36.593z" fill="#fff"/></mask><g mask="url(#aa)" stroke="#9EAED1" stroke-width=".557"><path d="M818.33 500.69h44.869m-38.439-37.3 42.325 18.687m.005 38.443-41.002 20.656M863.2 490.54l-44.869-9.288M863.2 511.2l-43.766 10.625"/></g><path d="M820.45 553.36c18.378 0 33.275-23.219 33.275-51.898 0-28.68-14.897-51.898-33.275-51.898-18.374 0-33.275 23.218-33.275 51.898 0 28.679 14.901 51.898 33.275 51.898z" fill="url(#ab)"/><path d="M777.86 449.57h42.589v103.8H777.86v-103.8z" fill="url(#ac)"/><path d="M780.52 553.36c18.377 0 33.274-23.219 33.274-51.898 0-28.68-14.897-51.898-33.274-51.898-18.378 0-33.275 23.218-33.275 51.898 0 28.679 14.897 51.898 33.275 51.898z" fill="url(#ad)"/><mask id="ae" x="747" y="449" width="67" height="105" mask-type="alpha" maskUnits="userSpaceOnUse"><path d="M780.52 553.36c18.377 0 33.274-23.219 33.274-51.898 0-28.68-14.897-51.898-33.274-51.898-18.378 0-33.275 23.218-33.275 51.898 0 28.679 14.897 51.898 33.275 51.898z" fill="#fff"/></mask><g mask="url(#ae)"><path d="M779.86 549.39c16.539 0 29.946-20.878 29.946-46.586 0-25.745-13.407-46.585-29.946-46.585s-29.946 20.84-29.946 46.585c0 25.708 13.407 46.586 29.946 46.586z" fill="url(#af)"/><path d="M779.86 534.75c10.658 0 19.299-13.411 19.299-29.98 0-16.532-8.641-29.943-19.299-29.943s-19.299 13.411-19.299 29.943c0 16.569 8.641 29.98 19.299 29.98z" fill="#09172C"/></g><path d="m800.01 449.57 11.093 6.018a2.226 2.226 0 0 1 1.163 1.895l.171 7.355a2.22 2.22 0 0 0 .769 1.598l8.384 7.281c.743.632.977 1.709.576 2.6l-3.477 7.765a2.213 2.213 0 0 0 .145 2.08l5.687 9.102c.45.743.45 1.634 0 2.377l-5.732 9.176a2.23 2.23 0 0 0-.189 1.969l3.741 9.882a2.18 2.18 0 0 1-.476 2.303l-7.37 7.69a2.279 2.279 0 0 0-.609 1.301l-1.119 10.736a2.28 2.28 0 0 1-1.281 1.82l-8.652 3.975a2.181 2.181 0 0 0-.933.817l-3.964 6.056" stroke="#0A172A" stroke-opacity=".57" stroke-width=".557"/><path d="m811.99 449.57 11.09 6.018a2.215 2.215 0 0 1 1.162 1.895l.175 7.355c.015.595.293 1.189.769 1.598l8.381 7.281c.743.632.977 1.709.576 2.6l-3.474 7.765a2.205 2.205 0 0 0 .145 2.08l5.684 9.102a2.266 2.266 0 0 1 0 2.377l-5.732 9.176a2.228 2.228 0 0 0-.19 1.969l3.741 9.882a2.18 2.18 0 0 1-.475 2.303l-7.371 7.69a2.285 2.285 0 0 0-.609 1.301l-1.126 10.81a2.218 2.218 0 0 1-1.177 1.746l-9.689 5.127a2.21 2.21 0 0 0-.843.78l-3.113 4.941" stroke="#0A172A" stroke-opacity=".57" stroke-width=".557"/><path d="m822.64 449.57 11.089 6.018a2.218 2.218 0 0 1 1.163 1.895l.174 7.355a2.21 2.21 0 0 0 .769 1.598l8.385 7.281a2.24 2.24 0 0 1 .572 2.6l-3.473 7.765a2.202 2.202 0 0 0 .145 2.08l5.683 9.102c.45.743.454 1.634.004 2.377l-5.732 9.176a2.241 2.241 0 0 0-.193 1.969l3.741 9.882c.308.78.122 1.709-.476 2.303l-7.366 7.69a2.237 2.237 0 0 0-.61 1.301l-1.14 10.922a2.282 2.282 0 0 1-1.04 1.671l-7.687 4.755a5.629 5.629 0 0 0-.408.335l-5.677 5.721" stroke="#0A172A" stroke-opacity=".57" stroke-width=".557"/><path d="M746.18 487.76c2.593-2.712 6.843-2.861 9.637-.446l.241.223 7.973 7.652a19.736 19.736 0 0 0 13.065 5.461h6.085a6.985 6.985 0 0 1 6.988 6.985c0 3.752-2.976 6.835-6.702 6.984h-5.851a33.656 33.656 0 0 1-22.806-8.916l-.449-.446-7.973-7.616a6.989 6.989 0 0 1-.208-9.881z" fill="url(#ag)"/><path d="m755.82 488.65.241.223 7.972 7.653a19.746 19.746 0 0 0 13.066 5.461h6.085a6.968 6.968 0 0 1 6.981 6.687H781.2c-7.931 0-15.606-2.861-21.632-8.025l-13.452-11.479.067-.074c2.593-2.712 6.843-2.898 9.637-.446z" fill="#94D8C4"/><path d="m381.9 478.84 15.47 11.516-12.568 16.866a26.855 26.855 0 0 1-20.941 10.811l-.539.037-33.784.148-.089-19.318 33.784-.148a7.568 7.568 0 0 0 5.888-2.824l.212-.26L381.9 478.84z" fill="url(#ah)"/><path d="m381.9 485.49 10.146-1.783-12.568 16.866c-4.956 6.613-12.679 10.625-20.941 10.811h-.539l-33.784.185 3.904-6.018 33.784-.148a7.655 7.655 0 0 0 5.889-2.787l.211-.297L381.9 485.49z" fill="#94D8C4"/><path d="M303.69 453.47c0-.482.156-.965.446-1.337l34.144-45.545a2.172 2.172 0 0 1 2.281-.818l100.27 22.922a2.199 2.199 0 0 1 1.731 2.154v43.54c0 1.226-1 2.229-2.233 2.229l-134.42-.335a2.227 2.227 0 0 1-2.221-2.229V453.47z" fill="url(#ai)"/><path d="m312.86 440.5 30.251 15.454 16.818-4.643-.725 25.113-50.208-.149a5.308 5.308 0 0 1-5.308-5.312v-16.457a5.34 5.34 0 0 1 1.062-3.195l8.11-10.811z" clip-rule="evenodd" fill="#101E34" fill-rule="evenodd" opacity=".216"/><path d="m342.52 406.21 95.898 21.918a5.335 5.335 0 0 1 4.139 5.201v12.668h-89.286l-32.075-16.643 15.878-21.138a5.254 5.254 0 0 1 5.446-2.006z" fill="url(#aj)"/><path d="M419.92 285.7c-.958.037-1.478-1.115-.851-1.821l23.2-26.822a1.09 1.09 0 0 1 .717-.371l152.34-17.576c.118-.014.241-.007.36.019l100.65 21.755a.964.964 0 0 1 .591.334l18.181 19.95c.646.705.149 1.857-.814 1.857l-294.38 2.675z" fill="url(#ak)"/><mask id="al" x="418" y="239" width="298" height="47" mask-type="alpha" maskUnits="userSpaceOnUse"><path d="M419.92 285.7c-.958.037-1.478-1.115-.851-1.821l23.2-26.822a1.09 1.09 0 0 1 .717-.371l152.34-17.576c.119-.014.242-.007.361.019l100.65 21.755a.964.964 0 0 1 .591.334l18.181 19.95c.646.705.149 1.857-.814 1.857l-294.38 2.675z" fill="#fff"/></mask><g mask="url(#al)"><path d="m590.01 223.29 104.72 9.807 22.049 49.933-104.77.929-22.007-60.669z" fill="url(#am)" opacity=".3"/><path d="m424.4 256.28 180.43 6.019-14.816-39.011-165.62 32.992z" clip-rule="evenodd" fill="url(#an)" fill-rule="evenodd" opacity=".375"/></g><path d="M288.63 385.3a2.2 2.2 0 0 0 .88 1.746l59.172 45.1c.39.297.866.445 1.353.445l269.86.112c.725 0 1.405.334 1.821.929L671.4 504.03a2.216 2.216 0 0 0 1.824.929h114.64c.49 0 .969-.149 1.356-.446l86.48-66.349c.55-.446.873-1.078.873-1.783V348.67c0-.854-.486-1.597-1.255-2.006l-134.77-65.457c-.197-.112-.405-.149-.62-.186l-124.54-20.024c-.175-.037-.353-.037-.532-.037l-190.47 15.546c-.308.037-39.118 37.91-39.39 38.059l-95.203 6.986a2.266 2.266 0 0 0-1.17 1.969v61.78z" fill="url(#ao)"/><mask id="ap" x="288" y="260" width="589" height="245" mask-type="alpha" maskUnits="userSpaceOnUse"><path d="M288.63 385.3a2.2 2.2 0 0 0 .88 1.746l59.172 45.1c.39.297.866.445 1.353.445l269.86.112c.725 0 1.405.334 1.821.929L671.4 504.03a2.216 2.216 0 0 0 1.824.929h114.64c.49 0 .969-.149 1.356-.446l86.48-66.349c.55-.446.873-1.078.873-1.783V348.67c0-.854-.486-1.597-1.255-2.006l-134.77-65.457c-.197-.112-.405-.149-.62-.186l-124.54-20.024c-.175-.037-.353-.037-.532-.037l-190.46 15.455c-.309.037-39.126 38.001-39.398 38.15l-95.203 6.986a2.266 2.266 0 0 0-1.17 1.969v61.78z" fill="#fff"/></mask><g mask="url(#ap)"><path d="m400.52 278.08 122.47 63.933 68.511 79.872h-113.77l-50.91-89.754-142.19-10.883 115.88-43.168z" clip-rule="evenodd" fill="url(#aq)" fill-rule="evenodd" opacity=".375"/><path d="m371.88 328.87-3.942 70.807c-.018.297.093.594.301.817l35.46 37.521" stroke="#1E889E" stroke-linecap="round" stroke-width="1.393"/><path d="M759.23 348.41c0-1.226 1-2.229 2.229-2.229h118.89v91.834h-121.12V348.41z" fill="url(#ar)" opacity=".526"/><path d="m638.22 344.77-23.947 55.39v43.168M550.6 262.41l-66.869 73.891a2.245 2.245 0 0 0-.569 1.3l-8.7 103.09" stroke="#1E889E" stroke-linecap="round" stroke-width="1.393"/><path d="m279.18 355.5 335.1 44.654h145.51" stroke="#1E889E" stroke-linecap="round" stroke-width="1.393"/><path d="M462.58 292.94c1.754-1.858 1.869-4.607.257-6.13-1.613-1.486-4.343-1.189-6.097.706-1.757 1.858-1.868 4.607-.256 6.13 1.612 1.486 4.343 1.189 6.096-.706zm116.24-3.87c1.754-1.857 1.869-4.606.256-6.129-1.612-1.486-4.342-1.189-6.096.705-1.757 1.858-1.868 4.607-.256 6.13 1.612 1.486 4.343 1.189 6.096-.706zm1 30c1.754-1.857 1.869-4.606.256-6.129-1.612-1.486-4.342-1.189-6.096.705-1.757 1.858-1.868 4.607-.256 6.13 1.612 1.486 4.343 1.189 6.096-.706zm-132.06-6.36c2.002-2.155 2.103-5.313.223-7.059-1.884-1.783-5.034-1.449-7.04.706-2.002 2.155-2.103 5.312-.223 7.058 1.884 1.784 5.034 1.449 7.04-.705z" fill="#fff"/><path d="m279.17 321.25 359.04 23.609-23.947-84.237" stroke="#1E889E" stroke-linecap="round" stroke-width="1.393"/><path d="M768.54 426.05a2.663 2.663 0 0 1 2.66-2.675 2.663 2.663 0 0 1 2.663 2.675v11.962h-5.323V426.05z" fill="url(#as)"/><path d="M776.53 426.05a2.66 2.66 0 1 1 5.324 0v11.962h-5.324V426.05z" fill="url(#at)"/><path d="M857.72 426.05a2.663 2.663 0 1 1 5.324 0v11.962h-5.324V426.05z" fill="url(#au)"/><path d="M865.7 426.05a2.66 2.66 0 1 1 5.323 0v11.962H865.7V426.05z" fill="url(#av)"/><path d="m759.23 438.01-81.394 74.411 115.78-.074 94.46-74.337h-128.85z" fill="url(#aw)" opacity=".526"/><path d="m284.64 387.79 289.95 52.232" stroke="#1E889E" stroke-linecap="round" stroke-width="1.393"/><path d="m284.64 387.79 192.01 35.292h137.58l.279-22.104 23.716-57.452 23.123 79.556h7.76c3.629 0 7.028 1.746 9.116 4.718l36.288 51.638 2.422 36.184-408.91-84.924-23.382-42.908z" fill="url(#ax)" opacity=".3"/><path d="m614.86 260.96 70.128 244.89 74.243-67.835v-90.514l-110.06-81.425-34.314-5.116z" clip-rule="evenodd" fill="url(#ay)" fill-rule="evenodd" opacity=".5"/><path d="M799.16 392.1c19.702 15.627 36.954 15.627 51.755 0" stroke="#fff" stroke-linecap="round" stroke-width="8"/></g><path d="M715.32 505.11c-.211.223-.241.52-.066.743l2.492 3.307c.42.557 1.074.891 1.769.891l49.854.26c.572 0 1.122-.223 1.538-.631l34.91-32.766c1.159-1.115 1.389-2.861.553-4.198l-2.184-3.529a2.81 2.81 0 0 0-2.37-1.338h-44.669c-.698 0-1.367.26-1.883.743L715.32 505.11z" fill="url(#az)"/><mask id="aA" x="715" y="467" width="92" height="44" mask-type="alpha" maskUnits="userSpaceOnUse"><path d="M715.32 505.11c-.211.223-.241.52-.066.743l2.492 3.307c.42.557 1.074.891 1.769.891l49.854.26c.572 0 1.122-.223 1.538-.631l34.91-32.766c1.159-1.115 1.389-2.861.553-4.198l-2.184-3.529a2.81 2.81 0 0 0-2.37-1.338h-44.669c-.698 0-1.367.26-1.883.743L715.32 505.11z" fill="#fff"/></mask><g mask="url(#aA)"><path d="m717.3 512.42 41.5-37.187c.917-.817 2.102-1.3 3.336-1.3l40.259-.074c2.451-.038 4.617 1.56 5.338 3.9l.587 1.932-34.449 35.924-56.571-3.195z" fill="url(#aB)" opacity=".3"/><path d="m725.28 520.41 41.504-37.187c.914-.817 2.095-1.3 3.321-1.3l16.339-.074c.505-.037.754.594.379.966l-42.243 39.007-19.3-1.412z" fill="url(#aC)"/></g><path d="m679.42 463.31 28.876-16.792a1.08 1.08 0 0 1 1.46.298l4.194 5.758c.32.409.279 1.04-.104 1.412l-20.815 21.286-13.611-11.962z" fill="#092E3B"/><path d="m679.42 461.98 28.876-16.792c.491-.297 1.122-.149 1.46.297l4.128 5.647a1.118 1.118 0 0 1-.194 1.523l-25.982 21.287-8.288-11.962z" fill="url(#aD)"/><path d="m667.27 444.48 30.229-14.228a1.07 1.07 0 0 1 1.426.446l3.674 6.055a1.143 1.143 0 0 1-.238 1.449l-22.553 18.909-12.538-12.631z" fill="#092E3B"/><path d="m667.27 443.14 30.229-14.228a1.143 1.143 0 0 1 1.426.445l3.622 5.981a1.097 1.097 0 0 1-.327 1.486l-27.736 18.947-7.214-12.631z" fill="url(#aE)"/><path d="M441.34 334.37c.65.037 1.114.631.999 1.3l-1.047 5.981c-.101.557-.617.966-1.193.892l-24.857-2.118a1.098 1.098 0 0 1-1.021-1.114v-6.13c0-.632.561-1.152 1.211-1.114l25.908 2.303z" fill="url(#aF)"/><mask id="aG" x="414" y="332" width="29" height="11" mask-type="alpha" maskUnits="userSpaceOnUse"><path d="M441.34 334.37c.65.037 1.114.631.999 1.3l-1.047 5.981c-.101.557-.617.966-1.193.892l-24.857-2.118a1.098 1.098 0 0 1-1.021-1.114v-6.13c0-.632.561-1.152 1.211-1.114l25.908 2.303z" fill="#fff"/></mask><g mask="url(#aG)"><path d="m443.89 333.14-1.434 8.173-26.897-2.303v-8.359l28.331 2.489z" fill="url(#aH)"/></g><path d="M547.86 337.74c.651.015 1.137.63 1.044 1.265l-.838 6.014c-.081.56-.583.987-1.161.932l-24.915-1.248a1.099 1.099 0 0 1-1.06-1.079l-.213-6.088c-.023-.669.519-1.208 1.171-1.156l25.972 1.36z" fill="url(#aI)"/><mask id="aJ" x="520" y="336" width="29" height="10" mask-type="alpha" maskUnits="userSpaceOnUse"><path d="M547.86 337.74c.651.015 1.137.63 1.044 1.265l-.838 6.014c-.081.56-.583.987-1.161.932l-24.915-1.248a1.099 1.099 0 0 1-1.06-1.079l-.213-6.088c-.023-.669.519-1.208 1.171-1.156l25.972 1.36z" fill="#fff"/></mask><g mask="url(#aJ)"><path d="m550.36 336.42-1.148 8.218-25.935-1.287c-.579-.054-1.037-.522-1.057-1.079l-.256-7.351 28.396 1.499z" fill="url(#aK)"/></g><path d="M204.62 482.07h467.6l-33.082-49.372h-397.68l-36.845 49.372z" fill="url(#aL)"/><path d="M237.63 435.64h61.182l-32.15 46.437h-61.798l32.766-46.437z" clip-rule="evenodd" fill="#101E34" fill-rule="evenodd"/><path d="M442.45 553.81V449.98h53.239c18.378 0 33.275 23.256 33.275 51.936 0 28.382-14.604 51.452-32.725 51.898H442.45z" fill="url(#aM)"/><path d="m465.93 449.98 11.089 6.056a2.214 2.214 0 0 1 1.163 1.894l.175 7.319c.015.631.293 1.226.769 1.634l8.381 7.282c.743.631.977 1.709.576 2.6l-3.474 7.765a2.202 2.202 0 0 0 .145 2.08l5.684 9.102a2.257 2.257 0 0 1 0 2.377l-5.729 9.176a2.244 2.244 0 0 0-.193 1.969l3.741 9.882c.308.78.123 1.709-.475 2.303l-7.367 7.69a2.125 2.125 0 0 0-.609 1.3l-1.122 10.737a2.283 2.283 0 0 1-1.282 1.82l-8.652 3.975c-.379.186-.702.446-.929.817l-3.967 6.056" stroke="#0A172A" stroke-opacity=".57" stroke-width=".557"/><path d="m481.9 449.98 11.093 6.056a2.226 2.226 0 0 1 1.163 1.894l.171 7.319a2.23 2.23 0 0 0 .769 1.634l8.384 7.282c.743.631.977 1.709.576 2.6l-3.477 7.765a2.213 2.213 0 0 0 .145 2.08l5.684 9.102c.453.743.453 1.634.003 2.377l-5.732 9.176a2.227 2.227 0 0 0-.189 1.969l3.741 9.882c.304.78.119 1.709-.48 2.303l-7.366 7.69a2.17 2.17 0 0 0-.61 1.3l-1.129 10.811c-.078.743-.516 1.412-1.174 1.746l-9.688 5.126a2.208 2.208 0 0 0-.844.781l-3.117 4.941" stroke="#0A172A" stroke-opacity=".57" stroke-width=".557"/><path d="m495.21 449.98 11.09 6.056a2.215 2.215 0 0 1 1.162 1.894l.175 7.319c.015.631.293 1.226.769 1.634l8.385 7.282c.743.631.977 1.709.575 2.6l-3.477 7.765a2.213 2.213 0 0 0 .145 2.08l5.684 9.102c.453.743.453 1.634.004 2.377l-5.733 9.176a2.244 2.244 0 0 0-.193 1.969l3.745 9.882c.305.78.119 1.709-.479 2.303l-7.367 7.69c-.345.334-.557.817-.609 1.3l-1.141 10.922a2.28 2.28 0 0 1-1.04 1.672l-7.686 4.755a5.013 5.013 0 0 0-.405.334l-5.68 5.722" stroke="#0A172A" stroke-opacity=".57" stroke-width=".557"/><path d="M442.45 553.81c18.378 0 33.275-23.256 33.275-51.898 0-28.68-14.897-51.936-33.275-51.936-9.562 0-30.214 17.684-30.214 17.684s-3.061 20.506-3.061 34.252c0 13.559 4.499 34.103 4.499 34.103s19.099 17.795 28.776 17.795z" fill="url(#aN)"/><path d="M261.43 553.81V449.98h53.239c18.378 0 33.275 23.256 33.275 51.936 0 28.382-14.604 51.452-32.725 51.898H261.43z" fill="url(#aO)"/><path d="m284.92 449.98 11.09 6.056a2.215 2.215 0 0 1 1.162 1.894l.175 7.319c.015.631.294 1.226.769 1.634l8.381 7.282c.743.631.977 1.709.576 2.6l-3.474 7.765a2.205 2.205 0 0 0 .145 2.08l5.684 9.102c.45.743.453 1.634 0 2.377l-5.728 9.176a2.24 2.24 0 0 0-.194 1.969l3.741 9.882c.309.78.123 1.709-.475 2.303l-7.367 7.69a2.13 2.13 0 0 0-.609 1.3l-1.122 10.737a2.28 2.28 0 0 1-1.282 1.82l-8.652 3.975c-.379.186-.702.446-.929.817l-3.967 6.056" stroke="#0A172A" stroke-opacity=".57" stroke-width=".557"/><path d="m300.89 449.98 11.093 6.056a2.226 2.226 0 0 1 1.163 1.894l.171 7.319c.015.631.297 1.226.769 1.634l8.384 7.282c.743.631.977 1.709.576 2.6l-3.477 7.765a2.213 2.213 0 0 0 .145 2.08l5.684 9.102c.453.743.453 1.634.004 2.377l-5.733 9.176a2.23 2.23 0 0 0-.189 1.969l3.741 9.882a2.18 2.18 0 0 1-.476 2.303l-7.37 7.69c-.342.334-.557.817-.609 1.3l-1.13 10.811a2.204 2.204 0 0 1-1.174 1.746l-9.688 5.126a2.208 2.208 0 0 0-.844.781l-3.116 4.941" stroke="#0A172A" stroke-opacity=".57" stroke-width=".557"/><path d="m314.2 449.98 11.089 6.056a2.227 2.227 0 0 1 1.166 1.894l.171 7.319c.015.631.294 1.226.769 1.634l8.385 7.282c.743.631.977 1.709.576 2.6l-3.477 7.765a2.216 2.216 0 0 0 .144 2.08l5.684 9.102c.454.743.454 1.634.004 2.377l-5.732 9.176a2.24 2.24 0 0 0-.193 1.969l3.744 9.882c.305.78.119 1.709-.479 2.303l-7.367 7.69c-.345.334-.557.817-.609 1.3l-1.14 10.922a2.283 2.283 0 0 1-1.041 1.672l-7.686 4.755a5.194 5.194 0 0 0-.405.334l-5.68 5.722" stroke="#0A172A" stroke-opacity=".57" stroke-width=".557"/><path d="M261.43 553.81c18.378 0 33.275-23.256 33.275-51.898 0-28.68-14.897-51.936-33.275-51.936-9.562 0-30.214 17.684-30.214 17.684s-3.061 20.506-3.061 34.252c0 13.559 4.499 34.103 4.499 34.103s19.098 17.795 28.776 17.795z" fill="url(#aP)"/><mask id="aQ" x="228" y="449" width="67" height="105" mask-type="alpha" maskUnits="userSpaceOnUse"><path d="M261.43 553.81c18.378 0 33.275-23.256 33.275-51.898 0-28.68-14.897-51.936-33.275-51.936-9.562 0-30.214 17.684-30.214 17.684s-3.061 20.506-3.061 34.252c0 13.559 4.499 34.103 4.499 34.103s19.098 17.795 28.776 17.795z" fill="#fff"/></mask><g mask="url(#aQ)"><path d="M258.1 552.47c18.011 0 32.61-22.624 32.61-50.56 0-27.937-14.599-50.598-32.61-50.598-9.372 0-29.608 17.2-29.608 17.2s-3.002 19.987-3.002 33.398c0 13.225 4.41 33.211 4.41 33.211s18.72 17.349 28.2 17.349z" fill="url(#aR)"/><mask id="aS" x="225" y="451" width="66" height="102" mask-type="alpha" maskUnits="userSpaceOnUse"><path d="M258.1 552.47c18.011 0 32.61-22.624 32.61-50.56 0-27.937-14.599-50.598-32.61-50.598-9.372 0-29.608 17.2-29.608 17.2s-3.002 19.987-3.002 33.398c0 13.225 4.41 33.211 4.41 33.211s18.72 17.349 28.2 17.349z" fill="#fff"/></mask><g mask="url(#aS)" stroke="#9EAED1" stroke-width=".557"><path d="M295.81 501.91h-44.87m38.44-37.26-42.324 18.649m-.006 38.451 41.002 20.655M274.99 450.79l-33.216 20.06m9.166 20.92 44.87-9.288m-44.87 29.938 43.766 10.625m-52.926 9.035 33.215 21.733"/></g></g><path d="M240.13 539.17c11.026 0 19.964-16.978 19.964-37.93 0-20.953-8.938-37.93-19.964-37.93s-19.964 16.977-19.964 37.93c0 20.952 8.938 37.93 19.964 37.93z" fill="url(#aT)"/><path d="M238.14 537.84c9.923 0 17.969-16.383 17.969-36.592 0-20.21-8.046-36.593-17.969-36.593s-17.969 16.383-17.969 36.593c0 20.209 8.046 36.592 17.969 36.592z" fill="url(#aU)"/><mask id="aV" x="220" y="464" width="37" height="74" mask-type="alpha" maskUnits="userSpaceOnUse"><path d="M238.14 537.84c9.923 0 17.969-16.383 17.969-36.592 0-20.21-8.046-36.593-17.969-36.593s-17.969 16.383-17.969 36.593c0 20.209 8.046 36.592 17.969 36.592z" fill="#fff"/></mask><g mask="url(#aV)"><path d="m241.78 487.13-23.843-15.38m26.023 44.17-22.456 13.745m26.066-6.615-16.387 17.274m15.057-60.104-16.387-19.392m11.927 34.102-27.368-5.758m26.428 19.058-25.678 8.284m22.978-14.604h-23.731" opacity=".389" stroke="#CFDEFF" stroke-width=".557"/><path d="M249.45 525.87c6.617 0 11.981-11.033 11.981-24.63s-5.364-24.63-11.981-24.63c-6.612 0-11.977 11.033-11.977 24.63s5.365 24.63 11.977 24.63z" fill="url(#aW)"/><path d="M253.44 521.86c5.145 0 9.317-8.916 9.317-19.949 0-11.034-4.172-19.987-9.317-19.987-5.146 0-9.317 8.953-9.317 19.987 0 11.033 4.171 19.949 9.317 19.949z" fill="#09172C"/></g><path d="M347.62 553.81V449.98h53.24c18.377 0 33.274 23.256 33.274 51.936 0 28.382-14.603 51.452-32.725 51.898H347.62z" fill="url(#aX)"/><path d="m371.1 449.98 11.09 6.056a2.215 2.215 0 0 1 1.162 1.894l.175 7.319c.015.631.293 1.226.769 1.634l8.381 7.282c.743.631.977 1.709.576 2.6l-3.474 7.765a2.205 2.205 0 0 0 .145 2.08l5.684 9.102a2.257 2.257 0 0 1 0 2.377l-5.728 9.176a2.24 2.24 0 0 0-.194 1.969l3.741 9.882c.309.78.123 1.709-.475 2.303l-7.367 7.69a2.13 2.13 0 0 0-.609 1.3l-1.122 10.737a2.283 2.283 0 0 1-1.282 1.82l-8.652 3.975c-.379.186-.702.446-.929.817l-3.967 6.056" stroke="#0A172A" stroke-opacity=".57" stroke-width=".557"/><path d="m387.08 449.98 11.092 6.056a2.222 2.222 0 0 1 1.163 1.894l.171 7.319c.015.631.297 1.226.769 1.634l8.385 7.282c.743.631.977 1.709.576 2.6l-3.478 7.765a2.216 2.216 0 0 0 .145 2.08l5.684 9.102c.453.743.453 1.634.004 2.377l-5.732 9.176a2.227 2.227 0 0 0-.19 1.969l3.741 9.882a2.18 2.18 0 0 1-.475 2.303l-7.371 7.69c-.342.334-.557.817-.609 1.3l-1.129 10.811a2.208 2.208 0 0 1-1.174 1.746l-9.689 5.126a2.213 2.213 0 0 0-.843.781l-3.117 4.941" stroke="#0A172A" stroke-opacity=".57" stroke-width=".557"/><path d="m400.39 449.98 11.089 6.056a2.227 2.227 0 0 1 1.166 1.894l.171 7.319c.015.631.294 1.226.769 1.634l8.385 7.282c.743.631.977 1.709.576 2.6l-3.478 7.765c-.3.668-.248 1.448.145 2.08l5.684 9.102c.453.743.453 1.634.004 2.377l-5.732 9.176a2.237 2.237 0 0 0-.193 1.969l3.744 9.882c.305.78.119 1.709-.479 2.303l-7.367 7.69c-.345.334-.557.817-.609 1.3l-1.14 10.922a2.283 2.283 0 0 1-1.041 1.672l-7.686 4.755a5.013 5.013 0 0 0-.405.334l-5.68 5.722" stroke="#0A172A" stroke-opacity=".57" stroke-width=".557"/><path d="M347.62 553.81c18.378 0 33.275-23.256 33.275-51.898 0-28.68-14.897-51.936-33.275-51.936-9.562 0-30.213 17.684-30.213 17.684s-3.062 20.506-3.062 34.252c0 13.559 4.499 34.103 4.499 34.103s19.099 17.795 28.776 17.795z" fill="url(#aY)"/><mask id="aZ" x="314" y="449" width="67" height="105" mask-type="alpha" maskUnits="userSpaceOnUse"><path d="M347.62 553.81c18.378 0 33.275-23.256 33.275-51.898 0-28.68-14.897-51.936-33.275-51.936-9.562 0-30.213 17.684-30.213 17.684s-3.062 20.506-3.062 34.252c0 13.559 4.499 34.103 4.499 34.103s19.099 17.795 28.776 17.795z" fill="#fff"/></mask><g mask="url(#aZ)"><path d="M344.29 552.47c18.011 0 32.61-22.624 32.61-50.56 0-27.937-14.599-50.598-32.61-50.598-9.372 0-29.608 17.2-29.608 17.2s-3.001 19.987-3.001 33.398c0 13.225 4.409 33.211 4.409 33.211s18.72 17.349 28.2 17.349z" fill="url(#ba)"/><mask id="bb" x="311" y="451" width="66" height="102" mask-type="alpha" maskUnits="userSpaceOnUse"><path d="M344.29 552.47c18.011 0 32.61-22.624 32.61-50.56 0-27.937-14.599-50.598-32.61-50.598-9.372 0-29.608 17.2-29.608 17.2s-3.001 19.987-3.001 33.398c0 13.225 4.409 33.211 4.409 33.211s18.72 17.349 28.2 17.349z" fill="#fff"/></mask><g mask="url(#bb)" stroke="#9EAED1" stroke-width=".557"><path d="M382 501.91h-44.869m38.429-37.26-42.324 18.649m.004 38.451 41.002 20.655M361.18 450.79l-33.216 20.06m9.166 20.92 44.869-9.288M337.13 512.42l43.766 10.625m-52.936 9.035 33.215 21.733"/></g></g><path d="M326.32 539.17c11.026 0 19.964-16.978 19.964-37.93 0-20.953-8.938-37.93-19.964-37.93s-19.964 16.977-19.964 37.93c0 20.952 8.938 37.93 19.964 37.93z" fill="url(#bc)"/><path d="M324.33 537.84c9.923 0 17.969-16.383 17.969-36.592 0-20.21-8.046-36.593-17.969-36.593s-17.969 16.383-17.969 36.593c0 20.209 8.046 36.592 17.969 36.592z" fill="url(#bd)"/><mask id="be" x="306" y="464" width="37" height="74" mask-type="alpha" maskUnits="userSpaceOnUse"><path d="M324.33 537.84c9.923 0 17.969-16.383 17.969-36.592 0-20.21-8.046-36.593-17.969-36.593s-17.969 16.383-17.969 36.593c0 20.209 8.046 36.592 17.969 36.592z" fill="#fff"/></mask><g mask="url(#be)"><path d="m327.96 487.13-23.843-15.38m26.023 44.17-22.457 13.745m26.077-6.615-16.386 17.274m15.056-60.104-16.387-19.392m11.917 34.102-27.369-5.758m26.429 19.058-25.678 8.284m22.988-14.604h-23.732" opacity=".389" stroke="#CFDEFF" stroke-width=".557"/><path d="M335.64 525.87c6.617 0 11.981-11.033 11.981-24.63s-5.364-24.63-11.981-24.63c-6.612 0-11.977 11.033-11.977 24.63s5.365 24.63 11.977 24.63z" fill="url(#bf)"/><path d="M339.63 521.86c5.146 0 9.318-8.916 9.318-19.949 0-11.034-4.172-19.987-9.318-19.987-5.145 0-9.317 8.953-9.317 19.987 0 11.033 4.172 19.949 9.317 19.949z" fill="#09172C"/></g><mask id="bg" x="409" y="449" width="67" height="105" mask-type="alpha" maskUnits="userSpaceOnUse"><path d="M442.45 553.81c18.378 0 33.275-23.256 33.275-51.898 0-28.68-14.897-51.936-33.275-51.936-9.562 0-30.214 17.684-30.214 17.684s-3.061 20.506-3.061 34.252c0 13.559 4.499 34.103 4.499 34.103s19.099 17.795 28.776 17.795z" fill="#fff"/></mask><g mask="url(#bg)"><path d="M439.12 552.47c18.01 0 32.61-22.624 32.61-50.561 0-27.936-14.6-50.597-32.61-50.597-9.373 0-29.608 17.2-29.608 17.2s-3.002 19.986-3.002 33.397c0 13.226 4.41 33.212 4.41 33.212s18.716 17.349 28.2 17.349z" fill="url(#bh)"/><mask id="bi" x="406" y="451" width="66" height="102" mask-type="alpha" maskUnits="userSpaceOnUse"><path d="M439.12 552.47c18.01 0 32.61-22.624 32.61-50.561 0-27.936-14.6-50.597-32.61-50.597-9.373 0-29.608 17.2-29.608 17.2s-3.002 19.986-3.002 33.397c0 13.226 4.41 33.212 4.41 33.212s18.716 17.349 28.2 17.349z" fill="#fff"/></mask><g mask="url(#bi)" stroke="#9EAED1" stroke-width=".557"><path d="M476.83 501.91h-44.869m38.429-37.26-42.328 18.65m-.002 38.45 41.005 20.656M456.01 450.79l-33.216 20.06m9.166 20.92 44.869-9.288M431.96 512.42l43.766 10.625m-52.936 9.035 33.216 21.732"/></g></g><path d="M421.15 539.17c11.026 0 19.964-16.978 19.964-37.93 0-20.953-8.938-37.93-19.964-37.93s-19.964 16.977-19.964 37.93c0 20.952 8.938 37.93 19.964 37.93z" fill="url(#bj)"/><path d="M419.15 537.84c9.923 0 17.97-16.383 17.97-36.592 0-20.21-8.047-36.593-17.97-36.593-9.922 0-17.969 16.383-17.969 36.593 0 20.209 8.047 36.592 17.969 36.592z" fill="url(#bk)"/><mask id="bl" x="401" y="464" width="37" height="74" mask-type="alpha" maskUnits="userSpaceOnUse"><path d="M419.15 537.84c9.923 0 17.97-16.383 17.97-36.592 0-20.21-8.047-36.593-17.97-36.593-9.922 0-17.969 16.383-17.969 36.593 0 20.209 8.047 36.592 17.969 36.592z" fill="#fff"/></mask><g mask="url(#bl)"><path d="m422.79 487.13-23.843-15.38m26.023 44.17-22.457 13.745m26.077-6.615-16.386 17.274m15.056-60.104-16.386-19.392m11.916 34.102-27.368-5.758m26.428 19.058-25.678 8.284m22.988-14.604h-23.731" opacity=".389" stroke="#CFDEFF" stroke-width=".557"/><path d="M430.47 525.87c6.616 0 11.981-11.033 11.981-24.63s-5.365-24.63-11.981-24.63-11.977 11.033-11.977 24.63 5.361 24.63 11.977 24.63z" fill="url(#bm)"/><path d="M433.13 521.86c5.146 0 9.317-8.916 9.317-19.949 0-11.034-4.171-19.987-9.317-19.987-5.145 0-9.317 8.953-9.317 19.987 0 11.033 4.172 19.949 9.317 19.949z" fill="#09172C"/></g><path d="M522.3 553.81V449.98h53.243c18.374 0 33.274 23.256 33.274 51.936 0 28.382-14.603 51.452-32.725 51.898H522.3z" fill="url(#bn)"/><path d="m545.79 449.98 11.089 6.056a2.218 2.218 0 0 1 1.163 1.894l.174 7.319c.015.631.294 1.226.769 1.634l8.381 7.282c.743.631.977 1.709.576 2.6l-3.473 7.765a2.202 2.202 0 0 0 .145 2.08l5.683 9.102c.45.743.45 1.634 0 2.377l-5.732 9.176a2.227 2.227 0 0 0-.189 1.969l3.741 9.882a2.18 2.18 0 0 1-.476 2.303l-7.37 7.69a2.17 2.17 0 0 0-.61 1.3l-1.118 10.737a2.28 2.28 0 0 1-1.281 1.82l-8.653 3.975a2.208 2.208 0 0 0-.932.817l-3.964 6.056" stroke="#0A172A" stroke-opacity=".57" stroke-width=".557"/><path d="m561.76 449.98 11.089 6.056a2.218 2.218 0 0 1 1.163 1.894l.174 7.319c.015.631.294 1.226.769 1.634l8.385 7.282a2.24 2.24 0 0 1 .572 2.6l-3.474 7.765c-.3.668-.248 1.448.145 2.08l5.684 9.102c.453.743.453 1.634.004 2.377l-5.732 9.176a2.237 2.237 0 0 0-.193 1.969l3.741 9.882c.308.78.122 1.709-.476 2.303l-7.367 7.69c-.345.334-.557.817-.609 1.3l-1.129 10.811c-.078.743-.517 1.412-1.174 1.746l-9.693 5.126a2.23 2.23 0 0 0-.839.781l-3.117 4.941" stroke="#0A172A" stroke-opacity=".57" stroke-width=".557"/><path d="m575.08 449.98 11.089 6.056a2.215 2.215 0 0 1 1.162 1.894l.175 7.319c.015.631.294 1.226.769 1.634l8.381 7.282c.743.631.977 1.709.576 2.6l-3.474 7.765a2.205 2.205 0 0 0 .145 2.08l5.684 9.102c.45.743.453 1.634 0 2.377l-5.728 9.176a2.237 2.237 0 0 0-.193 1.969l3.74 9.882c.309.78.123 1.709-.475 2.303l-7.367 7.69a2.157 2.157 0 0 0-.613 1.3l-1.137 10.922c-.07.669-.457 1.3-1.04 1.672l-7.686 4.755a5.929 5.929 0 0 0-.409.334l-5.676 5.722" stroke="#0A172A" stroke-opacity=".57" stroke-width=".557"/><path d="M522.3 553.81c18.378 0 33.275-23.256 33.275-51.898 0-28.68-14.897-51.936-33.275-51.936-9.562 0-30.21 17.684-30.21 17.684s-3.065 20.506-3.065 34.252c0 13.559 4.499 34.103 4.499 34.103s19.099 17.795 28.776 17.795z" fill="url(#bo)"/><mask id="bp" x="489" y="449" width="67" height="105" mask-type="alpha" maskUnits="userSpaceOnUse"><path d="M522.3 553.81c18.378 0 33.275-23.256 33.275-51.898 0-28.68-14.897-51.936-33.275-51.936-9.562 0-30.21 17.684-30.21 17.684s-3.065 20.506-3.065 34.252c0 13.559 4.499 34.103 4.499 34.103s19.099 17.795 28.776 17.795z" fill="#fff"/></mask><g mask="url(#bp)"><path d="M518.98 552.47c18.006 0 32.606-22.624 32.606-50.561 0-27.936-14.6-50.597-32.606-50.597-9.373 0-29.608 17.2-29.608 17.2s-3.002 19.986-3.002 33.397c0 13.226 4.406 33.212 4.406 33.212s18.72 17.349 28.204 17.349z" fill="url(#bq)"/><mask id="br" x="486" y="451" width="66" height="102" mask-type="alpha" maskUnits="userSpaceOnUse"><path d="M518.98 552.47c18.006 0 32.606-22.624 32.606-50.561 0-27.936-14.6-50.597-32.606-50.597-9.373 0-29.608 17.2-29.608 17.2s-3.002 19.986-3.002 33.397c0 13.226 4.406 33.212 4.406 33.212s18.72 17.349 28.204 17.349z" fill="#fff"/></mask><g mask="url(#br)" stroke="#9EAED1" stroke-width=".557"><path d="M556.68 501.91h-44.87m38.44-37.26-42.329 18.65m-.001 38.45 41.006 20.656M535.86 450.79l-33.216 20.06m9.166 20.92 44.87-9.288m-44.87 29.938 43.766 10.625m-52.926 9.035 33.215 21.732"/></g></g><path d="M501.01 539.17c11.026 0 19.964-16.978 19.964-37.93 0-20.953-8.938-37.93-19.964-37.93s-19.968 16.977-19.968 37.93c0 20.952 8.942 37.93 19.968 37.93z" fill="url(#bs)"/><path d="M499.01 537.84c9.927 0 17.97-16.383 17.97-36.592 0-20.21-8.043-36.593-17.97-36.593-9.922 0-17.969 16.383-17.969 36.593 0 20.209 8.047 36.592 17.969 36.592z" fill="url(#bt)"/><mask id="bu" x="481" y="464" width="36" height="74" mask-type="alpha" maskUnits="userSpaceOnUse"><path d="M499.01 537.84c9.927 0 17.97-16.383 17.97-36.592 0-20.21-8.043-36.593-17.97-36.593-9.922 0-17.969 16.383-17.969 36.593 0 20.209 8.047 36.592 17.969 36.592z" fill="#fff"/></mask><g mask="url(#bu)"><path d="m502.65 487.13-23.846-15.38m26.026 44.17-22.453 13.745m26.073-6.615-16.387 17.274m15.057-60.104-16.391-19.392m11.921 34.102-27.372-5.758m26.432 19.058-25.678 8.284m22.978-14.604h-23.731" opacity=".389" stroke="#CFDEFF" stroke-width=".557"/><path d="M510.33 525.87c6.617 0 11.977-11.033 11.977-24.63s-5.36-24.63-11.977-24.63c-6.616 0-11.981 11.033-11.981 24.63s5.365 24.63 11.981 24.63z" fill="url(#bv)"/><path d="M512.99 521.86c5.145 0 9.317-8.916 9.317-19.949 0-11.034-4.172-19.987-9.317-19.987s-9.317 8.953-9.317 19.987c0 11.033 4.172 19.949 9.317 19.949z" fill="#09172C"/></g><path d="M600.83 553.81V449.98h53.24c18.378 0 33.274 23.256 33.274 51.936 0 28.382-14.599 51.452-32.725 51.898H600.83z" fill="url(#bw)"/><path d="m624.32 449.98 11.093 6.056a2.224 2.224 0 0 1 1.163 1.894l.171 7.319c.015.631.297 1.226.769 1.634l8.385 7.282c.743.631.977 1.709.575 2.6l-3.477 7.765a2.213 2.213 0 0 0 .145 2.08l5.684 9.102c.453.743.453 1.634.004 2.377l-5.733 9.176a2.23 2.23 0 0 0-.189 1.969l3.741 9.882c.305.78.119 1.709-.476 2.303l-7.37 7.69c-.342.334-.557.817-.609 1.3l-1.122 10.737a2.274 2.274 0 0 1-1.282 1.82l-8.648 3.975a2.187 2.187 0 0 0-.933.817l-3.967 6.056" stroke="#0A172A" stroke-opacity=".57" stroke-width=".557"/><path d="m640.3 449.98 11.089 6.056a2.218 2.218 0 0 1 1.163 1.894l.174 7.319c.015.631.294 1.226.769 1.634l8.381 7.282c.743.631.977 1.709.576 2.6l-3.473 7.765a2.205 2.205 0 0 0 .144 2.08l5.684 9.102c.45.743.45 1.634 0 2.377l-5.728 9.176a2.228 2.228 0 0 0-.193 1.969l3.741 9.882c.308.78.122 1.709-.476 2.303l-7.37 7.69a2.17 2.17 0 0 0-.61 1.3l-1.125 10.811c-.078.743-.52 1.412-1.174 1.746l-9.693 5.126a2.242 2.242 0 0 0-.843.781l-3.113 4.941" stroke="#0A172A" stroke-opacity=".57" stroke-width=".557"/><path d="m653.61 449.98 11.089 6.056a2.226 2.226 0 0 1 1.163 1.894l.174 7.319c.015.631.294 1.226.769 1.634l8.381 7.282c.743.631.977 1.709.576 2.6l-3.473 7.765a2.212 2.212 0 0 0 .141 2.08l5.687 9.102c.45.743.45 1.634 0 2.377l-5.732 9.176a2.227 2.227 0 0 0-.189 1.969l3.741 9.882c.304.78.118 1.709-.476 2.303l-7.37 7.69a2.17 2.17 0 0 0-.61 1.3l-1.136 10.922a2.294 2.294 0 0 1-1.041 1.672l-7.69 4.755a7.295 7.295 0 0 0-.405.334l-5.676 5.722" stroke="#0A172A" stroke-opacity=".57" stroke-width=".557"/><path d="M600.83 553.81c18.378 0 33.275-23.256 33.275-51.898 0-28.68-14.897-51.936-33.275-51.936-9.562 0-30.21 17.684-30.21 17.684s-3.065 20.506-3.065 34.252c0 13.559 4.499 34.103 4.499 34.103s19.102 17.795 28.776 17.795z" fill="url(#bx)"/><mask id="by" x="567" y="449" width="68" height="105" mask-type="alpha" maskUnits="userSpaceOnUse"><path d="M600.83 553.81c18.378 0 33.275-23.256 33.275-51.898 0-28.68-14.897-51.936-33.275-51.936-9.562 0-30.21 17.684-30.21 17.684s-3.065 20.506-3.065 34.252c0 13.559 4.499 34.103 4.499 34.103s19.102 17.795 28.776 17.795z" fill="#fff"/></mask><g mask="url(#by)"><path d="M597.51 552.47c18.01 0 32.61-22.624 32.61-50.561 0-27.936-14.6-50.597-32.61-50.597-9.369 0-29.608 17.2-29.608 17.2s-3.002 19.986-3.002 33.397c0 13.226 4.41 33.212 4.41 33.212s18.719 17.349 28.2 17.349z" fill="url(#bz)"/><mask id="bA" x="564" y="451" width="67" height="102" mask-type="alpha" maskUnits="userSpaceOnUse"><path d="M597.51 552.47c18.01 0 32.61-22.624 32.61-50.561 0-27.936-14.6-50.597-32.61-50.597-9.369 0-29.608 17.2-29.608 17.2s-3.002 19.986-3.002 33.397c0 13.226 4.41 33.212 4.41 33.212s18.719 17.349 28.2 17.349z" fill="#fff"/></mask><g mask="url(#bA)" stroke="#9EAED1" stroke-width=".557"><path d="M635.21 501.91h-44.869m38.439-37.26-42.325 18.65m-.005 38.45 41.002 20.656M614.39 450.79l-33.216 20.06m9.166 20.92 44.869-9.288M590.34 512.42l43.766 10.625m-52.926 9.035 33.22 21.732"/></g></g><path d="M579.54 539.17c11.026 0 19.965-16.978 19.965-37.93 0-20.953-8.939-37.93-19.965-37.93s-19.964 16.977-19.964 37.93c0 20.952 8.938 37.93 19.964 37.93z" fill="url(#bB)"/><path d="M577.54 537.84c9.926 0 17.969-16.383 17.969-36.592 0-20.21-8.043-36.593-17.969-36.593-9.923 0-17.966 16.383-17.966 36.593 0 20.209 8.043 36.592 17.966 36.592z" fill="url(#bC)"/><mask id="bD" x="559" y="464" width="37" height="74" mask-type="alpha" maskUnits="userSpaceOnUse"><path d="M577.54 537.84c9.926 0 17.969-16.383 17.969-36.592 0-20.21-8.043-36.593-17.969-36.593-9.923 0-17.966 16.383-17.966 36.593 0 20.209 8.043 36.592 17.966 36.592z" fill="#fff"/></mask><g mask="url(#bD)"><path d="m581.18 487.13-23.846-15.38m26.026 44.17-22.453 13.745m26.073-6.615-16.387 17.274m15.057-60.104-16.39-19.392m11.92 34.102-27.368-5.758m26.428 19.058-25.681 8.284m22.981-14.604h-23.731" opacity=".389" stroke="#CFDEFF" stroke-width=".557"/><path d="M588.86 525.87c6.616 0 11.977-11.033 11.977-24.63s-5.361-24.63-11.977-24.63-11.981 11.033-11.981 24.63 5.365 24.63 11.981 24.63z" fill="url(#bE)"/><path d="M592.85 521.86c5.145 0 9.317-8.916 9.317-19.949 0-11.034-4.172-19.987-9.317-19.987-5.146 0-9.318 8.953-9.318 19.987 0 11.033 4.172 19.949 9.318 19.949z" fill="#09172C"/></g><path d="M234.14 434.71a11.15 11.15 0 0 1 9.072-4.681h418.44c3.6 0 6.981 1.746 9.072 4.681l35.337 49.446c.528.743 0 1.783-.906 1.783H653.32c-.357 0-.695-.186-.903-.483l-33.197-46.325a1.188 1.188 0 0 0-.906-.446h-378.35c-.357 0-.691.186-.899.446L205.4 485.456a1.12 1.12 0 0 1-.903.483h-4.781c-.906 0-1.434-1.04-.906-1.783l35.336-49.446z" fill="url(#bF)"/><mask id="bG" x="198" y="430" width="509" height="56" mask-type="alpha" maskUnits="userSpaceOnUse"><path d="M234.14 434.71a11.15 11.15 0 0 1 9.072-4.681h418.44c3.6 0 6.981 1.746 9.072 4.681l35.337 49.446c.528.743 0 1.783-.906 1.783H653.32c-.357 0-.695-.186-.903-.483l-33.197-46.325a1.188 1.188 0 0 0-.906-.446h-378.35c-.357 0-.691.186-.899.446L205.4 485.456a1.12 1.12 0 0 1-.903.483h-4.781c-.906 0-1.434-1.04-.906-1.783l35.336-49.446z" fill="#fff"/></mask><g mask="url(#bG)"><path d="M194.41 439.65a6.106 6.106 0 0 1 6.108-5.61h418.46c1.977 0 3.834.929 4.982 2.526l31.038 43.317 55.086.408v9.288l-521.86 24.296 6.189-74.225z" fill="url(#bH)" opacity=".576"/></g><path d="M782.84 344.8c0 10.182-4.758 18.436-10.628 18.436-5.869 0-28.63 3.687-28.63-11.061 0-15.834 22.761-25.811 28.63-25.811 5.87 0 10.628 8.254 10.628 18.436z" fill="#1B7395"/><g filter="url(#bI)"><ellipse cx="772.21" cy="344.8" rx="10.628" ry="18.436" fill="url(#bJ)"/></g><path d="M1476.7 233v285S774.5 363.24 772.22 363.24c-5.869 0-10.628-8.254-10.628-18.436s4.759-18.436 10.628-18.436c5.87 0 704.48-93.369 704.48-93.369z" fill="url(#bK)"/><path d="M724.56 454.55c13.131 0 23.776-10.645 23.776-23.776s-10.645-23.776-23.776-23.776c-13.13 0-23.775 10.645-23.775 23.776s10.645 23.776 23.775 23.776z" fill="url(#bL)"/><mask id="bM" x="706" y="417" width="207" height="108" mask-type="alpha" maskUnits="userSpaceOnUse"><path d="M709.94 428.41c2.109-8.038 10.333-12.845 18.371-10.737 8.038 2.109 12.844 10.333 10.736 18.371-3.989 15.208-3.354 26.816 1.24 35.381 4.564 8.511 13.71 15.258 28.317 20.032 19.581 6.4 44.483.934 70.535-13.954 10.914-6.237 21.414-13.826 30.273-21.662l.709-.631c7.109-6.365 12.488-12.356 14.678-15.98l.071-.118c4.241-7.146 13.471-9.502 20.617-5.261s9.501 13.471 5.261 20.617c-8.502 14.327-31.826 34.958-56.678 49.161-14.821 8.47-29.98 14.671-44.884 17.942-17.531 3.848-34.37 3.574-49.93-1.512-43.67-14.273-61.091-46.755-49.316-91.649z" fill="#fff"/></mask><g mask="url(#bM)"><path d="M709.94 428.41c2.109-8.038 10.333-12.845 18.371-10.737 8.038 2.109 12.844 10.333 10.736 18.371-3.989 15.208-3.354 26.816 1.24 35.381 4.564 8.511 13.71 15.258 28.317 20.032 19.581 6.4 44.483.934 70.535-13.954 10.914-6.237 21.414-13.826 30.273-21.662l.709-.631c7.109-6.365 12.488-12.356 14.678-15.98l.071-.118c4.241-7.146 13.471-9.502 20.617-5.261s9.501 13.471 5.261 20.617c-8.502 14.327-31.826 34.958-56.678 49.161-14.821 8.47-29.98 14.671-44.884 17.942-17.531 3.848-34.37 3.574-49.93-1.512-43.67-14.273-61.091-46.755-49.316-91.649z" fill="url(#bN)"/><path d="M725.11 412.96c-10.179 50.082 2.76 81.015 38.817 92.8 54.087 17.678 121.75-38.534 133.88-58.968" stroke="url(#bO)" stroke-dasharray="3.64 3.64" stroke-linejoin="round" stroke-width="38.413"/></g><path d="m905.31 351.64 6.694 18.517c-14.957 5.407-25.13 19.652-25.13 35.823 0 21.03 17.049 38.078 38.079 38.078 20.819 0 37.737-16.709 38.073-37.449l.005-.629h19.689c0 31.904-25.863 57.767-57.767 57.767-31.905 0-57.768-25.863-57.768-57.767 0-24.283 15.122-45.702 37.446-54.089l.679-.251z" fill="url(#bP)"/><path d="M901.18 463.06c10.259 0 18.575-8.316 18.575-18.575 0-10.258-8.316-18.575-18.575-18.575-10.258 0-18.575 8.317-18.575 18.575 0 10.259 8.317 18.575 18.575 18.575z" fill="url(#bQ)"/><defs><linearGradient id="a" x1="857.46" x2="845.98" y1="49.771" y2="23.862" gradientUnits="userSpaceOnUse"><stop stop-color="#0D565D" offset="0"/><stop stop-color="#0D484F" offset="1"/></linearGradient><linearGradient id="b" x1="666.7" x2="659.24" y1="66.918" y2="50.508" gradientUnits="userSpaceOnUse"><stop stop-color="#0D565D" offset="0"/><stop stop-color="#0D484F" offset="1"/></linearGradient><linearGradient id="c" x1="353.02" x2="381.35" y1="258.47" y2="159.28" gradientUnits="userSpaceOnUse"><stop stop-color="#48E9EC" offset="0"/><stop stop-color="#26C9C7" offset="1"/></linearGradient><linearGradient id="d" x1="397.28" x2="407.8" y1="245.84" y2="156.55" gradientUnits="userSpaceOnUse"><stop stop-color="#074058" offset="0"/><stop stop-color="#001431" offset="1"/></linearGradient><linearGradient id="e" x1="337.49" x2="472.91" y1="267.44" y2="82.505" gradientUnits="userSpaceOnUse"><stop stop-color="#61D0A6" offset="0"/><stop stop-color="#34A2E0" offset="1"/></linearGradient><linearGradient id="f" x1="690.1" x2="678.62" y1="51.27" y2="25.361" gradientUnits="userSpaceOnUse"><stop stop-color="#0D565D" offset="0"/><stop stop-color="#0D484F" offset="1"/></linearGradient><linearGradient id="g" x1="499.33" x2="491.88" y1="68.417" y2="52.007" gradientUnits="userSpaceOnUse"><stop stop-color="#0D565D" offset="0"/><stop stop-color="#0D484F" offset="1"/></linearGradient><linearGradient id="h" x1="185.66" x2="213.99" y1="259.97" y2="160.78" gradientUnits="userSpaceOnUse"><stop stop-color="#48E9EC" offset="0"/><stop stop-color="#26C9C7" offset="1"/></linearGradient><linearGradient id="i" x1="229.92" x2="240.43" y1="247.34" y2="158.05" gradientUnits="userSpaceOnUse"><stop stop-color="#074058" offset="0"/><stop stop-color="#001431" offset="1"/></linearGradient><linearGradient id="j" x1="170.13" x2="305.55" y1="268.93" y2="84.004" gradientUnits="userSpaceOnUse"><stop stop-color="#61D0A6" offset="0"/><stop stop-color="#34A2E0" offset="1"/></linearGradient><linearGradient id="k" x1="514.9" x2="506.11" y1="87.097" y2="219.52" gradientUnits="userSpaceOnUse"><stop stop-color="#77CEFF" offset="0"/><stop stop-color="#20B0FF" offset=".854"/><stop stop-color="#1070A5" offset="1"/></linearGradient><linearGradient id="l" x1="453.98" x2="523.98" y1="312.92" y2="280.91" gradientUnits="userSpaceOnUse"><stop stop-color="#77CEFF" offset="0"/><stop stop-color="#20B0FF" offset=".854"/><stop stop-color="#1070A5" offset="1"/></linearGradient><linearGradient id="m" x1="592.45" x2="599.41" y1="313.66" y2="301.25" gradientUnits="userSpaceOnUse"><stop stop-color="#5CDEAC" offset="0"/><stop stop-color="#123635" offset="1"/></linearGradient><linearGradient id="n" x1="584.46" x2="601.82" y1="340.29" y2="299.08" gradientUnits="userSpaceOnUse"><stop stop-color="#5CDEAC" offset="0"/><stop stop-color="#123635" offset="1"/></linearGradient><linearGradient id="o" x1="607.95" x2="648.77" y1="218.05" y2="202.76" gradientUnits="userSpaceOnUse"><stop stop-color="#10AACC" offset="0"/><stop stop-color="#4EF4FF" offset="1"/></linearGradient><linearGradient id="p" x1="628.47" x2="637.97" y1="205.07" y2="202.27" gradientUnits="userSpaceOnUse"><stop stop-color="#042635" stop-opacity=".26" offset="0"/><stop stop-color="#042635" stop-opacity="0" offset="1"/></linearGradient><linearGradient id="q" x1="650.14" x2="684.52" y1="176.74" y2="210.53" gradientUnits="userSpaceOnUse"><stop stop-color="#DEBE6A" offset="0"/><stop stop-color="#FFF1E3" offset="1"/></linearGradient><linearGradient id="r" x1="671.6" x2="653.68" y1="210.29" y2="188.16" gradientUnits="userSpaceOnUse"><stop stop-color="#5CDEAC" offset="0"/><stop stop-color="#123635" offset="1"/></linearGradient><linearGradient id="s" x1="596.5" x2="562.17" y1="213.94" y2="314.74" gradientUnits="userSpaceOnUse"><stop stop-color="#10AACC" offset="0"/><stop stop-color="#12E2EF" offset="1"/></linearGradient><linearGradient id="t" x1="505.79" x2="516.17" y1="239.45" y2="242.45" gradientUnits="userSpaceOnUse"><stop stop-color="#2B4246" offset="0"/><stop stop-color="#284F56" offset="1"/></linearGradient><linearGradient id="u" x1="539.11" x2="508.45" y1="242.28" y2="233.25" gradientUnits="userSpaceOnUse"><stop stop-color="#10AACC" offset="0"/><stop stop-color="#4EF4FF" offset="1"/></linearGradient><linearGradient id="v" x1="601.37" x2="509.76" y1="272.08" y2="251.96" gradientUnits="userSpaceOnUse"><stop stop-color="#19D8CC" offset="0"/><stop stop-color="#78FAF7" offset=".409"/><stop stop-color="#92F8FF" offset="1"/></linearGradient><linearGradient id="w" x1="587.84" x2="590.14" y1="104.41" y2="91.83" gradientUnits="userSpaceOnUse"><stop stop-color="#83F9FB" offset="0"/><stop stop-color="#92F8FF" offset="1"/></linearGradient><linearGradient id="x" x1="611.98" x2="481.47" y1="171.12" y2="108.76" gradientUnits="userSpaceOnUse"><stop stop-color="#19D8CC" offset="0"/><stop stop-color="#78FAF7" offset=".409"/><stop stop-color="#92F8FF" offset="1"/></linearGradient><linearGradient id="y" x1="595" x2="591.84" y1="178.67" y2="180.58" gradientUnits="userSpaceOnUse"><stop stop-color="#EBEBEB" offset="0"/><stop stop-color="#fff" offset="1"/></linearGradient><linearGradient id="z" x1="589.52" x2="585.44" y1="177.68" y2="179.73" gradientUnits="userSpaceOnUse"><stop stop-color="#EBEBEB" offset="0"/><stop stop-color="#fff" offset="1"/></linearGradient><linearGradient id="A" x1="577.86" x2="601.71" y1="167.46" y2="176.58" gradientUnits="userSpaceOnUse"><stop stop-color="#DEBE6A" offset="0"/><stop stop-color="#E4C3A4" offset="1"/></linearGradient><linearGradient id="B" x1="530.09" x2="504.32" y1="108.93" y2="120.6" gradientUnits="userSpaceOnUse"><stop stop-color="#83F9FB" offset="0"/><stop stop-color="#92F8FF" offset="1"/></linearGradient><linearGradient id="C" x1="633.4" x2="507.09" y1="211.16" y2="218.17" gradientUnits="userSpaceOnUse"><stop stop-color="#448F9F" offset="0"/><stop stop-color="#37FCB5" offset="1"/></linearGradient><linearGradient id="D" x1="501.21" x2="519.06" y1="325.03" y2="304.76" gradientUnits="userSpaceOnUse"><stop stop-color="#5CDEAC" offset="0"/><stop stop-color="#123635" offset="1"/></linearGradient><linearGradient id="E" x1="509.57" x2="528.52" y1="356.07" y2="308.33" gradientUnits="userSpaceOnUse"><stop stop-color="#5CDEAC" offset="0"/><stop stop-color="#123635" offset="1"/></linearGradient><linearGradient id="F" x1="715.61" x2="738.68" y1="343.27" y2="358.83" gradientUnits="userSpaceOnUse"><stop stop-color="#163357" offset="0"/><stop stop-color="#09172C" offset="1"/></linearGradient><linearGradient id="H" x1="530.37" x2="867.09" y1="793.31" y2="415.96" gradientUnits="userSpaceOnUse"><stop stop-color="#5DF1D7" offset="0"/><stop stop-color="#07515D" offset="1"/></linearGradient><linearGradient id="I" x1="858.2" x2="841.7" y1="202.67" y2="380.54" gradientUnits="userSpaceOnUse"><stop stop-color="#448F9F" offset="0"/><stop stop-color="#37FCB5" offset="1"/></linearGradient><linearGradient id="J" x1="687.87" x2="886.23" y1="218.64" y2="352.38" gradientUnits="userSpaceOnUse"><stop stop-color="#5DF1D7" offset="0"/><stop stop-color="#17B1C9" offset="1"/></linearGradient><linearGradient id="K" x1="869.75" x2="850.69" y1="198.2" y2="170.61" gradientUnits="userSpaceOnUse"><stop stop-color="#CEFFDD" offset="0"/><stop stop-color="#B2FFF9" offset="1"/></linearGradient><linearGradient id="M" x1="300.06" x2="290.93" y1="227.02" y2="267.74" gradientUnits="userSpaceOnUse"><stop stop-color="#77FFB6" offset="0"/><stop stop-color="#BCFFCB" offset="1"/></linearGradient><linearGradient id="O" x1="211.97" x2="199.8" y1="232.73" y2="298.64" gradientUnits="userSpaceOnUse"><stop stop-color="#30C1A8" offset="0"/><stop stop-color="#128698" offset="1"/></linearGradient><linearGradient id="P" x1="-9.374" x2="251.1" y1="162.16" y2="357.55" gradientUnits="userSpaceOnUse"><stop stop-color="#5DF1D7" offset="0"/><stop stop-color="#07515D" offset="1"/></linearGradient><linearGradient id="R" x1="323.34" x2="299.67" y1="247.11" y2="347.56" gradientUnits="userSpaceOnUse"><stop stop-color="#77FFB6" offset="0"/><stop stop-color="#BCFFCB" offset="1"/></linearGradient><linearGradient id="T" x1="326.95" x2="304.3" y1="247.89" y2="343.84" gradientUnits="userSpaceOnUse"><stop stop-color="#77FFB6" offset="0"/><stop stop-color="#BCFFCB" offset="1"/></linearGradient><linearGradient id="U" x1="384.92" x2="362.94" y1="283.98" y2="317.73" gradientUnits="userSpaceOnUse"><stop stop-color="#074058" offset="0"/><stop stop-color="#001431" offset="1"/></linearGradient><linearGradient id="W" x1="864.43" x2="876.62" y1="315.96" y2="338.92" gradientUnits="userSpaceOnUse"><stop stop-color="#ECFFF8" offset="0"/><stop stop-color="#E7FFFE" offset="1"/></linearGradient><linearGradient id="X" x1="886.15" x2="1583.7" y1="344.94" y2="336.48" gradientUnits="userSpaceOnUse"><stop stop-color="#ECFFF8" stop-opacity=".41" offset="0"/><stop stop-color="#E7FFFE" stop-opacity="0" offset="1"/></linearGradient><linearGradient id="Y" x1="833.71" x2="836.1" y1="437.35" y2="603.23" gradientUnits="userSpaceOnUse"><stop stop-color="#5DF1D7" offset="0"/><stop stop-color="#17B1C9" offset="1"/></linearGradient><linearGradient id="Z" x1="817.42" x2="860.4" y1="472.79" y2="497.08" gradientUnits="userSpaceOnUse"><stop stop-color="#33B7D5" offset="0"/><stop stop-color="#123635" offset="1"/></linearGradient><linearGradient id="ab" x1="854.94" x2="832.83" y1="641.82" y2="435.69" gradientUnits="userSpaceOnUse"><stop stop-color="#33B7D5" offset="0"/><stop stop-color="#123635" offset="1"/></linearGradient><linearGradient id="ac" x1="808.19" x2="774.75" y1="641.82" y2="442.28" gradientUnits="userSpaceOnUse"><stop stop-color="#33B7D5" offset="0"/><stop stop-color="#123635" offset="1"/></linearGradient><linearGradient id="ad" x1="750.36" x2="752.96" y1="409.6" y2="644.92" gradientUnits="userSpaceOnUse"><stop stop-color="#5DF1D7" offset="0"/><stop stop-color="#17B1C9" offset="1"/></linearGradient><linearGradient id="ag" x1="727.18" x2="729.16" y1="498.8" y2="517.02" gradientUnits="userSpaceOnUse"><stop stop-color="#005763" offset="0"/><stop stop-color="#97F5FF" offset="1"/></linearGradient><linearGradient id="ah" x1="304.22" x2="306.3" y1="497.02" y2="517.94" gradientUnits="userSpaceOnUse"><stop stop-color="#005763" offset="0"/><stop stop-color="#97F5FF" offset="1"/></linearGradient><linearGradient id="ai" x1="219.55" x2="220.2" y1="416.66" y2="451.1" gradientUnits="userSpaceOnUse"><stop stop-color="#5DF1D7" offset="0"/><stop stop-color="#128698" offset="1"/></linearGradient><linearGradient id="aj" x1="209.6" x2="209.6" y1="372.04" y2="471.04" gradientUnits="userSpaceOnUse"><stop stop-color="#5DF1D7" offset="0"/><stop stop-color="#0E5F6B" offset="1"/></linearGradient><linearGradient id="ak" x1="186.67" x2="186.68" y1="260.88" y2="263.4" gradientUnits="userSpaceOnUse"><stop stop-color="#5DF1D7" offset="0"/><stop stop-color="#128698" offset="1"/></linearGradient><linearGradient id="am" x1="572.58" x2="577.26" y1="223" y2="292.64" gradientUnits="userSpaceOnUse"><stop stop-color="#5DF1D7" offset="0"/><stop stop-color="#07515D" offset="1"/></linearGradient><linearGradient id="an" x1="474.52" x2="474.53" y1="242.51" y2="243.72" gradientUnits="userSpaceOnUse"><stop stop-color="#fff" offset="0"/><stop stop-color="#fff" stop-opacity=".182" offset="1"/></linearGradient><linearGradient id="ao" x1="54.193" x2="28.402" y1="261" y2="432.12" gradientUnits="userSpaceOnUse"><stop stop-color="#5DF1D7" offset="0"/><stop stop-color="#128698" offset="1"/></linearGradient><linearGradient id="aq" x1="411.97" x2="567.66" y1="358.28" y2="335" gradientUnits="userSpaceOnUse"><stop stop-color="#fff" offset="0"/><stop stop-color="#fff" stop-opacity=".182" offset="1"/></linearGradient><linearGradient id="ar" x1="880.58" x2="769.02" y1="359" y2="480.1" gradientUnits="userSpaceOnUse"><stop stop-color="#169D86" offset="0"/><stop stop-color="#07515D" offset="1"/></linearGradient><linearGradient id="as" x1="771.1" x2="765.49" y1="417.77" y2="423.02" gradientUnits="userSpaceOnUse"><stop stop-color="#D8E7FF" offset="0"/><stop stop-color="#C6D6FF" offset="1"/></linearGradient><linearGradient id="at" x1="779.08" x2="773.48" y1="417.77" y2="423.02" gradientUnits="userSpaceOnUse"><stop stop-color="#D8E7FF" offset="0"/><stop stop-color="#C6D6FF" offset="1"/></linearGradient><linearGradient id="au" x1="860.28" x2="854.67" y1="417.77" y2="423.02" gradientUnits="userSpaceOnUse"><stop stop-color="#D8E7FF" offset="0"/><stop stop-color="#C6D6FF" offset="1"/></linearGradient><linearGradient id="av" x1="868.26" x2="862.65" y1="417.77" y2="423.02" gradientUnits="userSpaceOnUse"><stop stop-color="#D8E7FF" offset="0"/><stop stop-color="#C6D6FF" offset="1"/></linearGradient><linearGradient id="aw" x1="277.3" x2="294.34" y1="464.82" y2="513.61" gradientUnits="userSpaceOnUse"><stop stop-color="#5DF1D7" offset="0"/><stop stop-color="#06424C" offset="1"/></linearGradient><linearGradient id="ax" x1="-707.88" x2="127.71" y1="462.2" y2="810.52" gradientUnits="userSpaceOnUse"><stop stop-color="#5DF1D7" offset="0"/><stop stop-color="#07515D" offset="1"/></linearGradient><linearGradient id="ay" x1="705.58" x2="742.32" y1="304.5" y2="389.62" gradientUnits="userSpaceOnUse"><stop stop-color="#fff" offset="0"/><stop stop-color="#fff" stop-opacity=".182" offset="1"/></linearGradient><linearGradient id="az" x1="730.86" x2="730.86" y1="467.84" y2="492.7" gradientUnits="userSpaceOnUse"><stop stop-color="#163357" offset="0"/><stop stop-color="#09172C" offset="1"/></linearGradient><linearGradient id="aB" x1="689.34" x2="691.42" y1="488.04" y2="505.7" gradientUnits="userSpaceOnUse"><stop stop-color="#5DF1D7" offset="0"/><stop stop-color="#021F24" offset="1"/></linearGradient><linearGradient id="aC" x1="653.88" x2="658.6" y1="491.36" y2="527.43" gradientUnits="userSpaceOnUse"><stop stop-color="#33B7D5" offset="0"/><stop stop-color="#123635" offset="1"/></linearGradient><linearGradient id="aD" x1="732.31" x2="768.56" y1="482.2" y2="433.92" gradientUnits="userSpaceOnUse"><stop stop-color="#005763" offset="0"/><stop stop-color="#97F5FF" offset="1"/></linearGradient><linearGradient id="aE" x1="717.33" x2="755.72" y1="462.86" y2="420.04" gradientUnits="userSpaceOnUse"><stop stop-color="#005763" offset="0"/><stop stop-color="#97F5FF" offset="1"/></linearGradient><linearGradient id="aF" x1="300.2" x2="1125.9" y1="558.9" y2="311.29" gradientUnits="userSpaceOnUse"><stop stop-color="#0A172A" offset="0"/><stop stop-color="#259EB1" offset="1"/></linearGradient><linearGradient id="aH" x1="454.78" x2="454.83" y1="338.48" y2="334.62" gradientUnits="userSpaceOnUse"><stop stop-color="#33B7D5" offset="0"/><stop stop-color="#123635" offset="1"/></linearGradient><linearGradient id="aI" x1="414.6" x2="1231.1" y1="565.73" y2="289.48" gradientUnits="userSpaceOnUse"><stop stop-color="#0A172A" offset="0"/><stop stop-color="#259EB1" offset="1"/></linearGradient><linearGradient id="aK" x1="561.43" x2="561.35" y1="341.39" y2="337.53" gradientUnits="userSpaceOnUse"><stop stop-color="#33B7D5" offset="0"/><stop stop-color="#123635" offset="1"/></linearGradient><linearGradient id="aL" x1="284.79" x2="284.79" y1="432.7" y2="461.6" gradientUnits="userSpaceOnUse"><stop stop-color="#163357" offset="0"/><stop stop-color="#09172C" offset="1"/></linearGradient><linearGradient id="aM" x1="536.62" x2="523.56" y1="565.07" y2="435.85" gradientUnits="userSpaceOnUse"><stop stop-color="#33B7D5" offset="0"/><stop stop-color="#123635" offset="1"/></linearGradient><linearGradient id="aN" x1="412.3" x2="414.91" y1="410.04" y2="645.37" gradientUnits="userSpaceOnUse"><stop stop-color="#5DF1D7" offset="0"/><stop stop-color="#17B1C9" offset="1"/></linearGradient><linearGradient id="aO" x1="355.61" x2="342.55" y1="565.07" y2="435.85" gradientUnits="userSpaceOnUse"><stop stop-color="#33B7D5" offset="0"/><stop stop-color="#123635" offset="1"/></linearGradient><linearGradient id="aP" x1="231.29" x2="233.89" y1="410.04" y2="645.37" gradientUnits="userSpaceOnUse"><stop stop-color="#5DF1D7" offset="0"/><stop stop-color="#17B1C9" offset="1"/></linearGradient><linearGradient id="aR" x1="184" x2="281.39" y1="461.38" y2="533.66" gradientUnits="userSpaceOnUse"><stop stop-color="#33B7D5" offset="0"/><stop stop-color="#123635" offset="1"/></linearGradient><linearGradient id="aT" x1="227.94" x2="230.26" y1="434.11" y2="606.06" gradientUnits="userSpaceOnUse"><stop stop-color="#5DF1D7" offset="0"/><stop stop-color="#17B1C9" offset="1"/></linearGradient><linearGradient id="aU" x1="206.77" x2="240.9" y1="533.9" y2="533.9" gradientUnits="userSpaceOnUse"><stop stop-color="#33B7D5" offset="0"/><stop stop-color="#123635" offset="1"/></linearGradient><linearGradient id="aW" x1="242.91" x2="253.55" y1="580.89" y2="580.65" gradientUnits="userSpaceOnUse"><stop stop-color="#33B7D5" offset="0"/><stop stop-color="#123635" offset="1"/></linearGradient><linearGradient id="aX" x1="441.79" x2="428.74" y1="565.07" y2="435.85" gradientUnits="userSpaceOnUse"><stop stop-color="#33B7D5" offset="0"/><stop stop-color="#123635" offset="1"/></linearGradient><linearGradient id="aY" x1="317.48" x2="320.08" y1="410.04" y2="645.37" gradientUnits="userSpaceOnUse"><stop stop-color="#5DF1D7" offset="0"/><stop stop-color="#17B1C9" offset="1"/></linearGradient><linearGradient id="ba" x1="270.19" x2="367.58" y1="461.38" y2="533.66" gradientUnits="userSpaceOnUse"><stop stop-color="#33B7D5" offset="0"/><stop stop-color="#123635" offset="1"/></linearGradient><linearGradient id="bc" x1="314.12" x2="316.44" y1="434.11" y2="606.06" gradientUnits="userSpaceOnUse"><stop stop-color="#5DF1D7" offset="0"/><stop stop-color="#17B1C9" offset="1"/></linearGradient><linearGradient id="bd" x1="292.95" x2="327.09" y1="533.9" y2="533.9" gradientUnits="userSpaceOnUse"><stop stop-color="#33B7D5" offset="0"/><stop stop-color="#123635" offset="1"/></linearGradient><linearGradient id="bf" x1="329.1" x2="339.74" y1="580.89" y2="580.65" gradientUnits="userSpaceOnUse"><stop stop-color="#33B7D5" offset="0"/><stop stop-color="#123635" offset="1"/></linearGradient><linearGradient id="bh" x1="365.02" x2="462.41" y1="461.38" y2="533.66" gradientUnits="userSpaceOnUse"><stop stop-color="#33B7D5" offset="0"/><stop stop-color="#123635" offset="1"/></linearGradient><linearGradient id="bj" x1="408.95" x2="411.27" y1="434.11" y2="606.06" gradientUnits="userSpaceOnUse"><stop stop-color="#5DF1D7" offset="0"/><stop stop-color="#17B1C9" offset="1"/></linearGradient><linearGradient id="bk" x1="387.78" x2="421.92" y1="533.9" y2="533.9" gradientUnits="userSpaceOnUse"><stop stop-color="#33B7D5" offset="0"/><stop stop-color="#123635" offset="1"/></linearGradient><linearGradient id="bm" x1="423.93" x2="434.57" y1="580.89" y2="580.65" gradientUnits="userSpaceOnUse"><stop stop-color="#33B7D5" offset="0"/><stop stop-color="#123635" offset="1"/></linearGradient><linearGradient id="bn" x1="616.49" x2="603.42" y1="565.07" y2="435.85" gradientUnits="userSpaceOnUse"><stop stop-color="#33B7D5" offset="0"/><stop stop-color="#123635" offset="1"/></linearGradient><linearGradient id="bo" x1="492.16" x2="494.76" y1="410.04" y2="645.37" gradientUnits="userSpaceOnUse"><stop stop-color="#5DF1D7" offset="0"/><stop stop-color="#17B1C9" offset="1"/></linearGradient><linearGradient id="bq" x1="444.88" x2="542.27" y1="461.38" y2="533.66" gradientUnits="userSpaceOnUse"><stop stop-color="#33B7D5" offset="0"/><stop stop-color="#123635" offset="1"/></linearGradient><linearGradient id="bs" x1="488.81" x2="491.12" y1="434.11" y2="606.06" gradientUnits="userSpaceOnUse"><stop stop-color="#5DF1D7" offset="0"/><stop stop-color="#17B1C9" offset="1"/></linearGradient><linearGradient id="bt" x1="467.64" x2="501.78" y1="533.9" y2="533.9" gradientUnits="userSpaceOnUse"><stop stop-color="#33B7D5" offset="0"/><stop stop-color="#123635" offset="1"/></linearGradient><linearGradient id="bv" x1="503.78" x2="514.42" y1="580.89" y2="580.65" gradientUnits="userSpaceOnUse"><stop stop-color="#33B7D5" offset="0"/><stop stop-color="#123635" offset="1"/></linearGradient><linearGradient id="bw" x1="695.01" x2="681.95" y1="565.07" y2="435.85" gradientUnits="userSpaceOnUse"><stop stop-color="#33B7D5" offset="0"/><stop stop-color="#123635" offset="1"/></linearGradient><linearGradient id="bx" x1="570.69" x2="573.29" y1="410.04" y2="645.37" gradientUnits="userSpaceOnUse"><stop stop-color="#5DF1D7" offset="0"/><stop stop-color="#17B1C9" offset="1"/></linearGradient><linearGradient id="bz" x1="523.4" x2="620.8" y1="461.38" y2="533.66" gradientUnits="userSpaceOnUse"><stop stop-color="#33B7D5" offset="0"/><stop stop-color="#123635" offset="1"/></linearGradient><linearGradient id="bB" x1="567.34" x2="569.66" y1="434.11" y2="606.06" gradientUnits="userSpaceOnUse"><stop stop-color="#5DF1D7" offset="0"/><stop stop-color="#17B1C9" offset="1"/></linearGradient><linearGradient id="bC" x1="546.17" x2="580.31" y1="533.9" y2="533.9" gradientUnits="userSpaceOnUse"><stop stop-color="#33B7D5" offset="0"/><stop stop-color="#123635" offset="1"/></linearGradient><linearGradient id="bE" x1="582.31" x2="592.95" y1="580.89" y2="580.65" gradientUnits="userSpaceOnUse"><stop stop-color="#33B7D5" offset="0"/><stop stop-color="#123635" offset="1"/></linearGradient><linearGradient id="bF" x1="-110.95" x2="-110.95" y1="457.38" y2="458.92" gradientUnits="userSpaceOnUse"><stop stop-color="#5DF1D7" offset="0"/><stop stop-color="#17B1C9" offset="1"/></linearGradient><linearGradient id="bH" x1="-1912.2" x2="11410" y1="753.54" y2="-3340.7" gradientUnits="userSpaceOnUse"><stop stop-color="#0A172A" offset="0"/><stop stop-color="#259EB1" offset="1"/></linearGradient><linearGradient id="bJ" x1="757.43" x2="769.62" y1="323.96" y2="346.92" gradientUnits="userSpaceOnUse"><stop stop-color="#ECFFF8" offset="0"/><stop stop-color="#E7FFFE" offset="1"/></linearGradient><linearGradient id="bK" x1="779.15" x2="1476.7" y1="352.94" y2="344.48" gradientUnits="userSpaceOnUse"><stop stop-color="#ECFFF8" stop-opacity=".41" offset="0"/><stop stop-color="#E7FFFE" stop-opacity="0" offset="1"/></linearGradient><linearGradient id="bL" x1="708.93" x2="708.93" y1="406.99" y2="434.83" gradientUnits="userSpaceOnUse"><stop stop-color="#163357" offset="0"/><stop stop-color="#09172C" offset="1"/></linearGradient><linearGradient id="bN" x1="232.25" x2="733.38" y1="505.08" y2="573.22" gradientUnits="userSpaceOnUse"><stop stop-color="#5DF1D7" offset="0"/><stop stop-color="#07515D" offset="1"/></linearGradient><linearGradient id="bO" x1="905.23" x2="748.54" y1="446.58" y2="532.37" gradientUnits="userSpaceOnUse"><stop stop-color="#448F9F" offset="0"/><stop stop-color="#37FCB5" offset="1"/></linearGradient><linearGradient id="bP" x1="796.74" x2="796.79" y1="314.31" y2="553.54" gradientUnits="userSpaceOnUse"><stop stop-color="#5DF1D7" offset="0"/><stop stop-color="#17B1C9" offset="1"/></linearGradient><linearGradient id="bQ" x1="915.4" x2="927.6" y1="453.66" y2="422.43" gradientUnits="userSpaceOnUse"><stop stop-color="#CEFFDD" offset="0"/><stop stop-color="#B2FFF9" offset="1"/></linearGradient><filter id="L" x="270.09" y="209.29" width="83.105" height="83.105" color-interpolation-filters="sRGB" filterUnits="userSpaceOnUse"><feFlood flood-opacity="0" result="BackgroundImageFix"/><feColorMatrix in="SourceAlpha" values="0 0 0 0 0 0 0 0 0 0 0 0 0 0 0 0 0 0 127 0"/><feOffset dy="3.038"/><feGaussianBlur stdDeviation="11.394"/><feColorMatrix values="0 0 0 0 0 0 0 0 0 0.52 0 0 0 0 1 0 0 0 1 0"/><feBlend in2="BackgroundImageFix" result="effect1_dropShadow"/><feBlend in="SourceGraphic" in2="effect1_dropShadow" result="shape"/></filter><filter id="Q" x="286.23" y="228.36" width="162.98" height="148.97" color-interpolation-filters="sRGB" filterUnits="userSpaceOnUse"><feFlood flood-opacity="0" result="BackgroundImageFix"/><feColorMatrix in="SourceAlpha" values="0 0 0 0 0 0 0 0 0 0 0 0 0 0 0 0 0 0 127 0"/><feOffset dy="3.038"/><feGaussianBlur stdDeviation="11.394"/><feColorMatrix values="0 0 0 0 0 0 0 0 0 0.52 0 0 0 0 1 0 0 0 1 0"/><feBlend in2="BackgroundImageFix" result="effect1_dropShadow"/><feBlend in="SourceGraphic" in2="effect1_dropShadow" result="shape"/></filter><filter id="S" x="291.09" y="228.36" width="158.12" height="145.84" color-interpolation-filters="sRGB" filterUnits="userSpaceOnUse"><feFlood flood-opacity="0" result="BackgroundImageFix"/><feColorMatrix in="SourceAlpha" values="0 0 0 0 0 0 0 0 0 0 0 0 0 0 0 0 0 0 127 0"/><feOffset dy="3.038"/><feGaussianBlur stdDeviation="11.394"/><feColorMatrix values="0 0 0 0 0 0 0 0 0 1 0 0 0 0 0.22 0 0 0 1 0"/><feBlend in2="BackgroundImageFix" result="effect1_dropShadow"/><feBlend in="SourceGraphic" in2="effect1_dropShadow" result="shape"/></filter><filter id="V" x="855.14" y="304.92" width="48.151" height="63.767" color-interpolation-filters="sRGB" filterUnits="userSpaceOnUse"><feFlood flood-opacity="0" result="BackgroundImageFix"/><feColorMatrix in="SourceAlpha" values="0 0 0 0 0 0 0 0 0 0 0 0 0 0 0 0 0 0 127 0"/><feOffset/><feGaussianBlur stdDeviation="6.724"/><feColorMatrix values="0 0 0 0 1 0 0 0 0 1 0 0 0 0 1 0 0 0 0.96 0"/><feBlend in2="BackgroundImageFix" result="effect1_dropShadow"/><feBlend in="SourceGraphic" in2="effect1_dropShadow" result="shape"/></filter><filter id="bI" x="748.14" y="312.92" width="48.151" height="63.767" color-interpolation-filters="sRGB" filterUnits="userSpaceOnUse"><feFlood flood-opacity="0" result="BackgroundImageFix"/><feColorMatrix in="SourceAlpha" values="0 0 0 0 0 0 0 0 0 0 0 0 0 0 0 0 0 0 127 0"/><feOffset/><feGaussianBlur stdDeviation="6.724"/><feColorMatrix values="0 0 0 0 1 0 0 0 0 1 0 0 0 0 1 0 0 0 0.96 0"/><feBlend in2="BackgroundImageFix" result="effect1_dropShadow"/><feBlend in="SourceGraphic" in2="effect1_dropShadow" result="shape"/></filter><radialGradient id="af" cx="0" cy="0" r="1" gradientTransform="rotate(-21.903 1633.123 -1841.204) scale(44.684 53.514)" gradientUnits="userSpaceOnUse"><stop stop-color="#172A47" offset="0"/><stop stop-color="#0E213B" offset=".734"/><stop stop-color="#09172C" stop-opacity=".071" offset="1"/></radialGradient></defs></svg>
