<svg width="48" height="16" viewBox="0 0 48 16" fill="none" xmlns="http://www.w3.org/2000/svg">
<path d="M3.67931 6.49511H4.89949C6.25108 6.49511 6.92687 5.90692 6.92687 4.73054C6.92687 3.55417 6.25108 2.96598 4.89949 2.96598H3.67931V6.49511ZM3.67931 14.1541H0V0H6.64842C9.97262 0 10.5029 2.14001 11.3414 2.96598C11.3414 3.91083 10.7751 3.22878 10.7751 4.73054C10.7751 6.2323 10.3496 7.39617 9.49863 8.22214C8.66015 9.04811 7.44623 9.46109 5.85686 9.46109H3.67931V14.1541Z" fill="#71EFCE"/>
<path d="M8.40831 6.6484L6.64844 5.67071C7.23506 5.9966 6.64844 2.15093 8.40831 2.93311C9.32364 3.33992 8.60385 6.38768 8.40831 6.6484Z" fill="#53CDAD"/>
<path d="M5.24364 8.05944H6.46382C7.81541 8.05944 8.4912 7.47125 8.4912 6.29487C8.4912 5.1185 7.81541 4.53031 6.46382 4.53031H5.24364V8.05944ZM5.24364 15.7184H1.56433V1.56433H7.4212C9.01056 1.56433 10.2245 1.97731 11.063 2.80328C11.914 3.62925 12.3395 4.79311 12.3395 6.29487C12.3395 7.79664 11.914 8.9605 11.063 9.78647C10.2245 10.6124 9.01056 11.0254 7.4212 11.0254H5.24364V15.7184Z" fill="#132E38"/>
<path d="M1.56433 1.56433L0 0V14.079L1.56433 15.6433V1.56433Z" fill="#53CDAD"/>
<path d="M5.16234 7.9844H6.38252C7.73411 7.9844 8.4099 7.39621 8.4099 6.21983C8.4099 5.04346 7.73411 4.45527 6.38252 4.45527H5.16234V7.9844ZM5.16234 15.6434H1.48303V1.48929H7.3399C8.92926 1.48929 10.1432 1.90227 10.9817 2.72824C11.8327 3.55421 12.2582 4.71807 12.2582 6.21983C12.2582 7.72159 11.8327 8.88546 10.9817 9.71143C10.1432 10.5374 8.92926 10.9504 7.3399 10.9504H5.16234V15.6434Z" fill="#132E38"/>
<path d="M16.9086 6.01334V15.6434H13.5109V6.01334H16.9086ZM13.2856 2.31526C13.2856 2.05245 13.3357 1.80841 13.4358 1.58315C13.5359 1.34537 13.6736 1.13888 13.8488 0.963672C14.024 0.788467 14.2242 0.650806 14.4495 0.550689C14.6873 0.450571 14.9376 0.400513 15.2004 0.400513C15.4632 0.400513 15.7072 0.450571 15.9325 0.550689C16.1703 0.650806 16.3768 0.788467 16.552 0.963672C16.7272 1.13888 16.8648 1.34537 16.9649 1.58315C17.0651 1.80841 17.1151 2.05245 17.1151 2.31526C17.1151 2.57806 17.0651 2.82836 16.9649 3.06614C16.8648 3.2914 16.7272 3.49164 16.552 3.66684C16.3768 3.84205 16.1703 3.97971 15.9325 4.07982C15.7072 4.17994 15.4632 4.23 15.2004 4.23C14.9376 4.23 14.6873 4.17994 14.4495 4.07982C14.2242 3.97971 14.024 3.84205 13.8488 3.66684C13.6736 3.49164 13.5359 3.2914 13.4358 3.06614C13.3357 2.82836 13.2856 2.57806 13.2856 2.31526Z" fill="#132E38"/>
<path d="M22.4968 10.4248L18.5922 6.01334H23.0224L24.6744 8.00317L26.3639 6.01334H30.794L26.7956 10.4248L31.62 15.6434H27.1147L24.6556 12.79L22.1777 15.6434H17.6912L22.4968 10.4248Z" fill="#132E38"/>
<path d="M35.8097 6.01334V15.6434H32.412V6.01334H35.8097ZM32.1867 2.31526C32.1867 2.05245 32.2368 1.80841 32.3369 1.58315C32.437 1.34537 32.5747 1.13888 32.7499 0.963672C32.9251 0.788467 33.1253 0.650806 33.3506 0.550689C33.5883 0.450571 33.8386 0.400513 34.1014 0.400513C34.3642 0.400513 34.6083 0.450571 34.8335 0.550689C35.0713 0.650806 35.2778 0.788467 35.453 0.963672C35.6282 1.13888 35.7659 1.34537 35.866 1.58315C35.9661 1.80841 36.0162 2.05245 36.0162 2.31526C36.0162 2.57806 35.9661 2.82836 35.866 3.06614C35.7659 3.2914 35.6282 3.49164 35.453 3.66684C35.2778 3.84205 35.0713 3.97971 34.8335 4.07982C34.6083 4.17994 34.3642 4.23 34.1014 4.23C33.8386 4.23 33.5883 4.17994 33.3506 4.07982C33.1253 3.97971 32.9251 3.84205 32.7499 3.66684C32.5747 3.49164 32.437 3.2914 32.3369 3.06614C32.2368 2.82836 32.1867 2.57806 32.1867 2.31526Z" fill="#132E38"/>
<path d="M44.7956 9.42984C44.683 8.95429 44.4515 8.57259 44.101 8.28475C43.7506 7.99691 43.3251 7.853 42.8246 7.853C42.2989 7.853 41.8672 7.99066 41.5293 8.26598C41.2039 8.5413 40.9974 8.92926 40.9098 9.42984H44.7956ZM40.816 11.4009C40.816 12.8651 41.5043 13.5972 42.8809 13.5972C43.6192 13.5972 44.1761 13.2969 44.5516 12.6962H47.8367C47.1734 14.8988 45.5152 16 42.8621 16C42.0486 16 41.304 15.8812 40.6282 15.6434C39.9524 15.3931 39.3705 15.0427 38.8824 14.5921C38.4069 14.1416 38.0377 13.6035 37.7749 12.9778C37.5121 12.352 37.3807 11.6512 37.3807 10.8753C37.3807 10.0744 37.5058 9.35476 37.7561 8.71651C38.0064 8.06574 38.3631 7.5151 38.8261 7.06457C39.2892 6.61405 39.8461 6.26989 40.4968 6.03211C41.1601 5.78182 41.9047 5.65667 42.7307 5.65667C43.5441 5.65667 44.2763 5.78182 44.927 6.03211C45.5778 6.26989 46.1284 6.6203 46.579 7.08335C47.0295 7.54639 47.3736 8.11581 47.6114 8.7916C47.8492 9.45487 47.9681 10.2058 47.9681 11.0442V11.4009H40.816Z" fill="#132E38"/>
</svg>
