<svg width="46" height="67" viewBox="0 0 46 67" fill="none" xmlns="http://www.w3.org/2000/svg">
<path fill-rule="evenodd" clip-rule="evenodd" d="M16.9494 49.2151C15.3167 50.1884 14.841 52.3425 15.9633 53.8766C18.8728 57.8537 21.5985 61.0009 24.1404 63.3184C28.8268 67.591 32.8484 67.2579 34.8582 66.4609C36.868 65.6639 37.7222 63.4087 36.868 61.814C36.0137 60.2193 32.2211 56.1871 32.6146 53.9199C33.0081 51.6527 35.5902 54.237 37.362 56.0895C39.1337 57.942 41.0702 59.4666 43.8092 57.4365C46.5482 55.4064 44.8505 52.3033 43.0783 48.3803C42.088 46.1883 40.1447 43.4446 37.2484 40.1492C36.2245 38.9843 34.5123 38.7453 33.1802 39.5394L16.9494 49.2151Z" fill="url(#paint0_linear)"/>
<path opacity="0.1" fill-rule="evenodd" clip-rule="evenodd" d="M19.5488 53.6398L20.1884 53.1983C30.4287 46.1658 35.8215 44.2574 36.3668 47.4729L36.3822 47.574C36.805 50.7266 39.1102 54.1287 43.2979 57.7802C40.8254 59.272 39.0214 57.8246 37.3619 56.0894L36.9226 55.6337C35.191 53.8545 32.9765 51.834 32.6145 53.9199C32.3292 55.564 34.2453 58.1364 35.6458 60.0343C34.0678 59.0544 32.3156 58.3375 30.3893 57.8827L30.0475 57.8052C27.0357 57.1494 23.5362 55.7609 19.5488 53.6398Z" fill="#262626"/>
<path d="M36.9609 62.005C37.6534 63.5838 36.7891 65.6953 34.8583 66.4609C34.257 66.6994 33.4757 66.8963 32.5505 66.9408C32.385 66.4756 32.444 65.9114 32.7274 65.2481C33.3561 63.7764 35.1192 62.1127 36.9294 62.0065L36.9609 62.005ZM45.2236 54.1947L45.2295 54.2551C45.3421 55.4994 44.9832 56.5665 43.8093 57.4365C42.8115 58.1761 41.9202 58.4439 41.1046 58.396C40.9378 57.846 41.0044 57.2596 41.3036 56.6365C41.771 55.6629 43.5191 54.1173 45.2236 54.1947Z" fill="url(#paint1_linear)"/>
<path fill-rule="evenodd" clip-rule="evenodd" d="M32.9745 36.3167C33.9772 37.5095 35.7713 37.562 36.8839 36.4711C39.791 33.6205 41.9063 29.8565 43.2299 25.179C45.6505 16.6246 44.5778 10.9524 42.7888 9.56791C40.9999 8.18345 37.7184 8.38743 36.5909 11.1504C35.4635 13.9134 37.9117 22.0924 33.0079 27.1939C30.2686 30.0436 30.2575 33.0845 32.9745 36.3167Z" fill="url(#paint2_linear)"/>
<path d="M37.9291 9.43481C39.4058 8.39499 41.4905 8.56306 42.7889 9.56791C43.2439 9.92005 43.6526 10.5496 43.9692 11.4334C43.0153 12.106 41.4969 12.3232 40.1322 11.746C38.8814 11.2171 38.134 10.4561 37.8899 9.46326L37.9291 9.43481Z" fill="url(#paint3_linear)"/>
<path opacity="0.1" fill-rule="evenodd" clip-rule="evenodd" d="M36.3645 36.9627L36.3414 36.9842C35.8667 37.4171 35.3721 37.8271 34.8578 38.2143L34.5665 37.9545C30.3777 34.1504 29.8227 30.601 32.9015 27.3063L33.0079 27.1941C34.6878 25.4464 35.505 23.3375 35.8986 21.209C37.0103 27.6612 37.1657 32.9123 36.3645 36.9627Z" fill="#262626"/>
<path d="M33.0077 24.7632C35.581 26.5547 36.3995 31.0384 35.4633 38.2142C34.059 48.978 27.7872 27.4505 28.1039 27.4505C28.315 27.4505 29.9496 26.5547 33.0077 24.7632Z" fill="url(#paint4_linear)"/>
<path fill-rule="evenodd" clip-rule="evenodd" d="M8.38898 36.6723C7.17422 34.688 4.31849 34.8453 3.34593 36.9588C2.00491 39.873 1.16505 42.6829 0.82636 45.3885C0.0737678 51.4005 2.28476 56.1661 4.7801 57.6634C7.27544 59.1607 10.2309 58.2798 10.6947 55.7512C11.1585 53.2226 8.81627 47.4766 10.4306 44.3185C11.2313 42.7522 10.5508 40.2034 8.38898 36.6723Z" fill="url(#paint5_linear)"/>
<path d="M10.5424 56.3151L10.5058 56.4087C9.69011 58.4221 7.04599 59.0224 4.78099 57.6633C4.7129 57.6225 4.64501 57.5792 4.57739 57.5335C4.63383 56.4173 5.24271 55.6516 6.40364 55.2361C7.9523 54.6817 9.82696 55.3164 10.5424 56.3151Z" fill="url(#paint6_linear)"/>
<path d="M6.95412 30.9683C5.49097 31.4516 4.58461 33.1566 4.23505 36.0833C3.7107 40.4733 7.09435 45.3885 10.8194 45.3885C13.3028 45.3885 12.0144 40.5818 6.95412 30.9683Z" fill="url(#paint7_linear)"/>
<path fill-rule="evenodd" clip-rule="evenodd" d="M9.93858 30.5509C8.26827 30.6484 6.91725 31.9857 6.96969 33.658C7.1741 40.1768 9.32802 46.0046 13.4315 51.1416C20.4964 59.9861 33.5925 56.5479 36.2664 51.985C38.9403 47.4222 37.6754 41.0186 36.2664 37.8112C35.5823 36.2539 34.9541 34.3011 34.3818 31.9529C33.9935 30.3591 32.5469 29.2308 30.9093 29.3264L9.93858 30.5509Z" fill="url(#paint8_linear)"/>
<path fill-rule="evenodd" clip-rule="evenodd" d="M30.9095 29.3265C32.5471 29.2308 33.9937 30.3588 34.3821 31.9526C34.9272 34.1897 35.5232 36.068 36.1699 37.5873L36.2667 37.8112C37.6757 41.0186 38.9406 47.4222 36.2667 51.985C35.7807 52.8144 34.6793 52.9506 33.8682 52.4347C32.7405 51.7175 31.5875 50.7967 30.409 49.6724C25.8006 45.276 22.8225 39.8341 21.4747 33.3467C21.0902 31.4962 22.5125 29.8172 24.3994 29.707L30.9095 29.3265Z" fill="url(#paint9_linear)"/>
<path d="M12.4405 41.225C12.6568 41.0918 12.9327 41.172 13.0568 41.4041C13.8397 42.8686 14.6628 44.0659 15.5242 44.9966C15.6999 45.1864 15.699 45.4932 15.522 45.6817C15.3451 45.8702 15.0593 45.8692 14.8836 45.6794C13.9629 44.6847 13.0936 43.4201 12.2736 41.8862C12.1495 41.6541 12.2242 41.3581 12.4405 41.225Z" fill="url(#paint10_linear)"/>
<path fill-rule="evenodd" clip-rule="evenodd" d="M30.6753 38.7036L31.5767 38.2144L33.0078 40.9917L32.2804 41.4863L30.6753 38.7036Z" fill="url(#paint11_linear)"/>
<path fill-rule="evenodd" clip-rule="evenodd" d="M32.8303 38.794L33.799 38.2139L32.5058 35.8228L29.6213 36.9175L30.0912 37.8772L31.9445 37.1193L32.8303 38.794Z" fill="url(#paint12_linear)"/>
<path opacity="0.3" fill-rule="evenodd" clip-rule="evenodd" d="M37.8326 45.3887C37.8492 47.6591 37.4319 49.9966 36.2669 51.9848C34.6661 54.7163 29.3303 57.0448 23.7893 56.5764C24.712 55.5942 25.2842 54.2652 25.5062 52.5896L25.5321 52.3784C25.9884 48.3453 28.9109 46.0439 31.5907 46.0439C33.919 46.0439 36.0294 47.0573 37.7715 45.4464L37.8326 45.3887Z" fill="url(#paint13_linear)"/>
<path fill-rule="evenodd" clip-rule="evenodd" d="M8.39096 30.2808C7.9569 30.1471 7.55192 29.9262 7.22157 29.6145C4.78287 27.3137 3.30241 24.4951 2.78019 21.1587C1.94359 15.8141 3.12554 8.30159 10.4606 3.22179C17.7957 -1.85801 27.4567 0.695338 31.8513 6.75838C36.2459 12.8214 37.071 24.417 31.8513 28.5861C26.6316 32.7551 22.8131 33.054 19.5653 32.9045C17.4841 32.8088 13.7594 31.9342 8.39096 30.2808Z" fill="url(#paint14_linear)"/>
<path fill-rule="evenodd" clip-rule="evenodd" d="M13.4316 13.8933C13.7174 18.4546 12.8335 25.4423 12.0177 30.5978C11.9569 30.982 11.574 31.2244 11.1998 31.1182C10.3194 30.8656 9.38283 30.5864 8.39 30.2806C7.95595 30.1469 7.55192 29.9263 7.22157 29.6146C4.78287 27.3137 3.30241 24.4951 2.78019 21.1588L2.73335 20.8421C2.10824 16.3532 2.91911 10.4433 7.50454 5.71463C8.71216 4.46927 10.7373 4.69852 11.5274 6.24287C12.6099 8.35885 13.2447 10.909 13.4316 13.8933Z" fill="url(#paint15_linear)"/>
<path opacity="0.2" d="M28.6026 3.54545L28.5447 3.5579C25.5838 4.26255 22.8399 8.49018 19.5913 8.73052C15.9529 8.99971 14.0221 8.07931 11.5741 6.2236C10.2712 5.23598 8.83482 5.15029 7.26489 5.96652C8.16921 4.99751 9.22795 4.07531 10.4604 3.22179C16.3125 -0.831008 23.6451 -0.0251041 28.6026 3.54545Z" fill="url(#paint16_linear)"/>
<path d="M19.3024 6.07675C19.3239 6.34331 19.14 6.5781 18.8915 6.60118C18.6431 6.62426 18.4243 6.42689 18.4028 6.16034C18.1979 3.62132 17.7576 1.78088 17.1047 0.645753C17.4324 0.601955 17.7602 0.568954 18.0878 0.546387C18.7094 1.83593 19.1088 3.67783 19.3024 6.07675Z" fill="url(#paint17_linear)"/>
<path d="M26.7525 11.7461C28.9358 11.7461 31.3866 14.0497 32.3961 17.3603C33.1736 19.9101 33.283 24.9312 32.2983 28.1975C32.1547 28.3333 32.0058 28.4629 31.8516 28.5861C26.6319 32.7551 22.8134 33.054 19.5656 32.9045L19.3222 32.8903C17.4014 32.7556 14.2342 32.0302 9.82053 30.7142C8.48863 28.4688 7.61382 25.8527 7.19534 22.8662C6.46188 17.6319 8.32458 13.0999 11.6639 12.537C15.0032 11.974 17.6867 15.0932 20.6061 14.7051C23.5255 14.3171 24.5691 11.7461 26.7525 11.7461Z" fill="url(#paint18_linear)"/>
<path d="M2.8007 15.1348C2.4763 15.1931 2.02531 15.5844 1.44775 16.3086C0.581402 17.3949 1.43043 20.967 1.92589 21.8751C2.42135 22.7831 4.45443 22.2229 4.72217 21.7658C4.98992 21.3087 4.89203 17.5618 4.72217 16.7212C4.60894 16.1608 3.96845 15.632 2.8007 15.1348Z" fill="url(#paint19_linear)"/>
<path d="M1.28691 16.5791C1.36683 16.3996 1.56656 16.3231 1.76162 16.3468C2.46501 16.4405 2.96553 16.5653 3.26319 16.7212C3.77347 16.9885 3.74107 18.9415 3.74107 20.7185C3.74107 20.8153 3.73935 20.9071 3.73602 20.9944C3.70194 21.887 2.72542 22.68 2.07488 22.0677C2.01629 22.0126 1.96604 21.9487 1.92589 21.8751C1.466 21.0322 0.701491 17.8941 1.28691 16.5791Z" fill="url(#paint20_linear)"/>
<path d="M5.19121 25.2477C5.44055 25.2477 5.64268 25.0308 5.64268 24.7632C5.64268 24.4957 5.44055 24.2788 5.19121 24.2788C4.94188 24.2788 4.73975 24.4957 4.73975 24.7632C4.73975 25.0308 4.94188 25.2477 5.19121 25.2477Z" fill="white"/>
<path d="M6.54571 26.7008C6.79504 26.7008 6.99717 26.4839 6.99717 26.2164C6.99717 25.9488 6.79504 25.7319 6.54571 25.7319C6.29637 25.7319 6.09424 25.9488 6.09424 26.2164C6.09424 26.4839 6.29637 26.7008 6.54571 26.7008Z" fill="white"/>
<path d="M33.3963 26.7905C29.8306 29.2733 25.871 30.8218 21.5173 31.4358C14.9868 32.3569 8.23652 28.7248 7.03649 28.7248C5.83646 28.7248 5.61022 30.9176 7.03649 32.6117C8.46275 34.3057 16.4618 36.8385 23.7372 35.8681C31.0126 34.8977 34.4328 31.3977 34.7958 29.467C35.0378 28.1798 34.5713 27.2877 33.3963 26.7905Z" fill="url(#paint21_linear)"/>
<path d="M21.9871 31.3657L22.5696 35.994C22.0753 36.0351 21.5796 36.0613 21.0845 36.074L20.747 31.5238C21.0039 31.5012 21.2608 31.472 21.5173 31.4358C21.6744 31.4137 21.831 31.3903 21.9871 31.3657ZM18.2474 31.5541C18.6602 31.578 19.076 31.5889 19.4934 31.5845L19.5917 36.0724C19.0954 36.059 18.6021 36.0332 18.1141 35.9963L18.2474 31.5541ZM15.7834 31.2646C16.1891 31.3348 16.6012 31.3957 17.0182 31.445L16.6603 35.8526C16.1657 35.7924 15.6793 35.7217 15.2038 35.642L15.7834 31.2646ZM24.4554 30.8647L25.532 35.5636C25.0616 35.6614 24.572 35.7483 24.0629 35.8226L23.2301 31.1419C23.6423 31.0583 24.0507 30.9659 24.4554 30.8647ZM13.3248 30.7215C13.7207 30.8266 14.1278 30.9268 14.5444 31.0194L13.746 35.3632C13.2529 35.2571 12.7762 35.1421 12.3193 35.0203L13.3248 30.7215ZM26.8942 30.1327L28.4208 34.7529C27.9718 34.9156 27.4979 35.068 26.9984 35.2076L25.6859 30.5265C26.0926 30.4045 26.4953 30.2732 26.8942 30.1327ZM10.8977 29.9869C11.2811 30.1156 11.6851 30.246 12.1067 30.3741L10.9082 34.6031C10.4131 34.4411 9.95226 34.2725 9.53186 34.1008L10.8977 29.9869ZM29.2845 29.159L31.1393 33.4851C30.7339 33.725 30.2934 33.9575 29.8172 34.1786L28.1041 29.6735C28.5016 29.5116 28.895 29.3401 29.2845 29.159ZM7.00721 32.5765L8.47644 29.1306L9.69123 29.5676L8.20711 33.4776C7.66665 33.1793 7.26627 32.8846 7.03649 32.6117L7.00721 32.5765ZM31.5504 27.9718L33.4806 31.6697C33.161 32.0043 32.7828 32.3435 32.3441 32.6775L30.4091 28.604C30.7936 28.4029 31.1741 28.1922 31.5504 27.9718ZM7.03649 28.7248C7.08664 28.7248 7.14648 28.7311 7.2156 28.7432L6.16503 30.968C5.845 29.7661 6.20952 28.7248 7.03649 28.7248ZM33.3963 26.7905C34.5713 27.2877 35.0378 28.1798 34.7958 29.467C34.7431 29.7471 34.6261 30.0602 34.4423 30.3939L32.6725 27.2782C32.9155 27.1198 33.1568 26.9573 33.3963 26.7905Z" fill="url(#paint22_linear)"/>
<defs>
<linearGradient id="paint0_linear" x1="2.51747" y1="39.8906" x2="12.1571" y2="75.6992" gradientUnits="userSpaceOnUse">
<stop stop-color="#5DF1D7"/>
<stop offset="1" stop-color="#128698"/>
</linearGradient>
<linearGradient id="paint1_linear" x1="3.89345" y1="55.4577" x2="24.2578" y2="78.9799" gradientUnits="userSpaceOnUse">
<stop stop-color="#33B7D5"/>
<stop offset="1" stop-color="#123635"/>
</linearGradient>
<linearGradient id="paint2_linear" x1="25.953" y1="10.4852" x2="43.7124" y2="38.6343" gradientUnits="userSpaceOnUse">
<stop stop-color="#5DF1D7"/>
<stop offset="1" stop-color="#128698"/>
</linearGradient>
<linearGradient id="paint3_linear" x1="24.3123" y1="9.06295" x2="28.5203" y2="17.8588" gradientUnits="userSpaceOnUse">
<stop stop-color="#33B7D5"/>
<stop offset="1" stop-color="#123635"/>
</linearGradient>
<linearGradient id="paint4_linear" x1="29.753" y1="30.2796" x2="22.4892" y2="42.6571" gradientUnits="userSpaceOnUse">
<stop stop-color="#042635"/>
<stop offset="1" stop-color="#06565B"/>
</linearGradient>
<linearGradient id="paint5_linear" x1="-2.99802" y1="34.2083" x2="13.4633" y2="56.2294" gradientUnits="userSpaceOnUse">
<stop stop-color="#5DF1D7"/>
<stop offset="1" stop-color="#128698"/>
</linearGradient>
<linearGradient id="paint6_linear" x1="-8.74474" y1="55.3644" x2="-4.45359" y2="64.123" gradientUnits="userSpaceOnUse">
<stop stop-color="#33B7D5"/>
<stop offset="1" stop-color="#123635"/>
</linearGradient>
<linearGradient id="paint7_linear" x1="5.86735" y1="35.7996" x2="-0.00522021" y2="47.4008" gradientUnits="userSpaceOnUse">
<stop stop-color="#042635"/>
<stop offset="1" stop-color="#06565B"/>
</linearGradient>
<linearGradient id="paint8_linear" x1="-4.30473" y1="30.795" x2="4.64846" y2="65.1363" gradientUnits="userSpaceOnUse">
<stop stop-color="#5DF1D7"/>
<stop offset="1" stop-color="#128698"/>
</linearGradient>
<linearGradient id="paint9_linear" x1="11.0023" y1="24.8493" x2="24.3073" y2="51.5187" gradientUnits="userSpaceOnUse">
<stop stop-color="#5DF1D7"/>
<stop offset="1" stop-color="#128698"/>
</linearGradient>
<linearGradient id="paint10_linear" x1="13.4117" y1="39.3714" x2="10.6731" y2="44.589" gradientUnits="userSpaceOnUse">
<stop stop-color="#D8E7FF"/>
<stop offset="1" stop-color="#C6D6FF"/>
</linearGradient>
<linearGradient id="paint11_linear" x1="35.0832" y1="34.816" x2="35.4512" y2="35.3622" gradientUnits="userSpaceOnUse">
<stop stop-color="#BAFEFF"/>
<stop offset="1" stop-color="#A5FFFE"/>
</linearGradient>
<linearGradient id="paint12_linear" x1="41.6327" y1="35.2999" x2="42.1882" y2="35.7179" gradientUnits="userSpaceOnUse">
<stop stop-color="#BAFEFF"/>
<stop offset="1" stop-color="#A5FFFE"/>
</linearGradient>
<linearGradient id="paint13_linear" x1="26.8004" y1="49.1572" x2="24.4039" y2="59.9952" gradientUnits="userSpaceOnUse">
<stop stop-color="#042635"/>
<stop offset="1" stop-color="#06565B"/>
</linearGradient>
<linearGradient id="paint14_linear" x1="-9.45194" y1="2.43902" x2="2.07841" y2="42.3891" gradientUnits="userSpaceOnUse">
<stop stop-color="#5DF1D7"/>
<stop offset="1" stop-color="#128698"/>
</linearGradient>
<linearGradient id="paint15_linear" x1="-1.43932" y1="5.32688" x2="16.2002" y2="29.1558" gradientUnits="userSpaceOnUse">
<stop stop-color="#5DF1D7"/>
<stop offset="1" stop-color="#128698"/>
</linearGradient>
<linearGradient id="paint16_linear" x1="15.2481" y1="3.91737" x2="21.2296" y2="9.91848" gradientUnits="userSpaceOnUse">
<stop stop-color="#042635"/>
<stop offset="1" stop-color="#001431"/>
</linearGradient>
<linearGradient id="paint17_linear" x1="18.1486" y1="0.115188" x2="19.6702" y2="1.73262" gradientUnits="userSpaceOnUse">
<stop stop-color="#042635"/>
<stop offset="1" stop-color="#001431"/>
</linearGradient>
<linearGradient id="paint18_linear" x1="12.605" y1="18.8446" x2="8.01529" y2="39.2236" gradientUnits="userSpaceOnUse">
<stop stop-color="#042635"/>
<stop offset="1" stop-color="#06565B"/>
</linearGradient>
<linearGradient id="paint19_linear" x1="2.77716" y1="14.6203" x2="5.13724" y2="16.3466" gradientUnits="userSpaceOnUse">
<stop stop-color="#042635"/>
<stop offset="1" stop-color="#001431"/>
</linearGradient>
<linearGradient id="paint20_linear" x1="0.102748" y1="16.6688" x2="3.82734" y2="22.27" gradientUnits="userSpaceOnUse">
<stop stop-color="#5DF1D7"/>
<stop offset="1" stop-color="#128698"/>
</linearGradient>
<linearGradient id="paint21_linear" x1="-58.2899" y1="27.7132" x2="-50.4977" y2="55.5257" gradientUnits="userSpaceOnUse">
<stop stop-color="#33B7D5"/>
<stop offset="1" stop-color="#123635"/>
</linearGradient>
<linearGradient id="paint22_linear" x1="11.7572" y1="31.451" x2="-11.1438" y2="24.8662" gradientUnits="userSpaceOnUse">
<stop stop-color="#28674F"/>
<stop offset="1" stop-color="#123635"/>
</linearGradient>
</defs>
</svg>
