<svg width="414" height="98" viewBox="0 0 414 98" fill="none" xmlns="http://www.w3.org/2000/svg">
<path fill-rule="evenodd" clip-rule="evenodd" d="M31.5367 24.149C36.062 21.5363 38.3486 16.5352 37.7235 11.6572C40.3286 11.1119 43.0287 10.8252 45.7958 10.8252C67.4454 10.8252 84.9959 28.3757 84.9959 50.0253C84.9959 59.7104 81.4835 68.5751 75.6631 75.4153C71.7248 71.9316 65.8505 71.1741 61.0461 73.9479C56.0068 76.8574 53.7436 82.7287 55.1861 88.0935C52.1776 88.8331 49.0325 89.2254 45.7958 89.2254C24.1462 89.2254 6.5957 71.6749 6.5957 50.0253C6.5957 39.5731 10.6865 30.0763 17.3543 23.0487C21.2813 26.2154 26.906 26.8226 31.5367 24.149ZM58.2157 93.4976C54.2696 94.6229 50.103 95.2254 45.7958 95.2254C20.8325 95.2254 0.595703 74.9886 0.595703 50.0253C0.595703 37.6168 5.59577 26.3761 13.691 18.2081C11.212 12.4356 13.3893 5.59177 18.9643 2.373C24.64 -0.903829 31.8086 0.747609 35.5149 5.99956C38.8176 5.23135 42.2592 4.8252 45.7958 4.8252C70.7591 4.8252 90.9959 25.062 90.9959 50.0253C90.9959 61.7834 86.5062 72.4929 79.1477 80.533C81.2052 86.1623 78.9875 92.6241 73.6185 95.7239C68.4829 98.689 62.125 97.619 58.2157 93.4976ZM254.569 45.4137C254.774 45.6188 255.093 45.6188 255.298 45.4137L265.822 34.8037C266.027 34.5986 266.027 34.2696 265.822 34.0646L244.04 12.1102C243.835 11.9051 243.515 11.9051 243.31 12.1102L232.781 22.7202C232.576 22.9252 232.576 23.2543 232.781 23.4593L254.569 45.4137ZM310.833 22.7296L300.309 12.1243C300.104 11.9193 299.784 11.9193 299.579 12.1243L232.791 79.4562C232.586 79.6613 232.586 79.9903 232.791 80.1954L243.31 90.8054C243.515 91.0104 243.835 91.0104 244.04 90.8054L310.833 23.4639C311.033 23.2637 311.033 22.9346 310.833 22.7296ZM288.335 57.5015C288.54 57.2964 288.859 57.2964 289.064 57.5015L310.847 79.4654C311.052 79.6705 311.052 79.9995 310.847 80.2046L300.318 90.8146C300.113 91.0196 299.794 91.0196 299.589 90.8146L277.806 68.8506C277.601 68.6456 277.601 68.3166 277.806 68.1115L288.335 57.5015ZM412.274 28.6002C412.427 28.6002 412.57 28.5716 412.708 28.5143C412.847 28.4571 412.971 28.3713 413.076 28.2664C413.18 28.1615 413.266 28.0375 413.319 27.8992C413.376 27.7609 413.405 27.6083 413.405 27.4605V14.5043C413.405 14.3518 413.381 14.2087 413.319 14.0656C413.262 13.9226 413.18 13.8034 413.076 13.6985C412.971 13.5935 412.847 13.5077 412.708 13.4505C412.57 13.3933 412.427 13.3647 412.274 13.3647H363.497C363.344 13.3647 363.201 13.3933 363.063 13.4505C362.925 13.5077 362.801 13.5935 362.696 13.6985C362.591 13.8034 362.505 13.9273 362.453 14.0656C362.395 14.2039 362.367 14.3565 362.367 14.5043V88.4169C362.367 88.5695 362.391 88.7125 362.453 88.8508C362.51 88.9891 362.591 89.1131 362.696 89.218C362.801 89.3229 362.925 89.4087 363.063 89.4707C363.201 89.5279 363.344 89.5565 363.497 89.5565H412.274C412.427 89.5565 412.57 89.5232 412.708 89.4707C412.847 89.4135 412.971 89.3276 413.076 89.218C413.18 89.1131 413.266 88.9891 413.319 88.8508C413.371 88.7125 413.405 88.5599 413.405 88.4169V75.4655C413.405 75.3129 413.381 75.1698 413.319 75.0268C413.262 74.8837 413.18 74.7645 413.076 74.6596C412.971 74.5547 412.847 74.4688 412.708 74.4069C412.57 74.3449 412.427 74.321 412.274 74.321H379.376V59.0807H412.274C412.427 59.0807 412.57 59.0521 412.708 58.9949C412.847 58.9377 412.971 58.8518 413.076 58.7469C413.18 58.642 413.266 58.5181 413.319 58.3798C413.371 58.2415 413.405 58.0889 413.405 57.9363V44.9849C413.405 44.8323 413.381 44.6893 413.319 44.5462C413.262 44.4031 413.18 44.2839 413.076 44.179C412.971 44.0741 412.847 43.9883 412.708 43.9311C412.57 43.8738 412.427 43.8452 412.274 43.8452H379.376V28.6002H412.274ZM131.454 13.3595H180.236C180.537 13.3595 180.813 13.4692 181.028 13.6885C181.242 13.9079 181.362 14.194 181.362 14.4992V59.8386C181.362 60.1437 181.242 60.4299 181.033 60.6492C180.823 60.8638 180.532 60.983 180.232 60.983H165.487C165.335 60.983 165.192 60.9544 165.053 60.8972C164.915 60.84 164.791 60.7541 164.686 60.6492C164.581 60.5443 164.5 60.4203 164.443 60.282C164.386 60.1437 164.357 60.0007 164.357 59.8481V28.595H131.454C131.154 28.595 130.863 28.4806 130.653 28.2612C130.443 28.0419 130.324 27.751 130.324 27.4506V14.4944C130.324 14.3418 130.353 14.2035 130.41 14.0605C130.467 13.9174 130.553 13.7934 130.653 13.6933C130.758 13.5836 130.882 13.5026 131.02 13.4453C131.158 13.3881 131.301 13.3595 131.454 13.3595ZM146.823 43.8356H130.834C130.553 43.8356 130.319 44.0645 130.319 44.3553V89.0367C130.319 89.3275 130.548 89.5564 130.834 89.5564H146.819C147.1 89.5564 147.334 89.3275 147.334 89.0367V44.3553C147.338 44.0692 147.109 43.8356 146.823 43.8356ZM198.905 13.3556H214.889C215.176 13.3556 215.404 13.5941 215.404 13.8754V89.0373C215.404 89.3282 215.171 89.5571 214.889 89.5571H198.905C198.619 89.5571 198.39 89.3282 198.39 89.0373V13.8754C198.39 13.5845 198.624 13.3556 198.905 13.3556ZM344.823 13.3556H328.839C328.557 13.3556 328.324 13.5845 328.324 13.8754V89.0373C328.324 89.3282 328.552 89.5571 328.839 89.5571H344.823C345.104 89.5571 345.338 89.3282 345.338 89.0373V13.8754C345.338 13.5941 345.109 13.3556 344.823 13.3556Z" fill="white"/>
</svg>
