<svg width="197" height="256" fill="none" xmlns="http://www.w3.org/2000/svg"><path fill-rule="evenodd" clip-rule="evenodd" d="M73.138 186.111c-.615.017-1.111.476-1.137 1.047-.95 21.602-.119 37.543 2.497 47.822 3.985 15.658 12.697 17.515 20.342 15.19 7.645-2.324 14.121-18.919 19.043-20.661 4.922-1.743 9.813-.388 13.378 10.578 3.564 10.967 7.629 16.585 17.593 15.399 9.963-1.186 15.013-15.35 18.269-27.72 2.13-8.092 3.794-22.473 4.992-43.146.036-.636-.521-1.17-1.208-1.151l-93.769 2.642Z" fill="url(#a)"/><path opacity=".1" fill-rule="evenodd" clip-rule="evenodd" d="m128.804 184.543 39.376-1.11-.208 3.54c-1.168 19.124-2.755 32.605-4.76 40.441l-.359 1.356c-2.804 10.409-6.919 21.794-14.166 25.531 7.762-14.509 8.681-33.81-2.268-26.534-7.102 4.718-13.701 8.219-19.798 10.503-3.497-9.296-8.106-10.402-12.741-8.761-4.922 1.742-11.398 18.337-19.043 20.661a19.78 19.78 0 0 1-2.662.621c1.608-14.381 4.94-25.688 9.995-33.923l.312-.5 10.156-27.398 16.166-4.427Z" fill="#262626"/><path fill-rule="evenodd" clip-rule="evenodd" d="M96.543 120.493a1.222 1.222 0 0 0-1.21.314c-9.136 9.564-16.292 22.025-21.468 37.384-7.905 23.454-6.695 60.536 33.734 68.252 40.429 7.716 55.495-20.188 59.625-33.794 2.722-8.966 4.65-25.544 5.783-49.734.023-.496-.319-.95-.832-1.094l-75.632-21.328Z" fill="url(#b)"/><path fill-rule="evenodd" clip-rule="evenodd" d="m109.143 209.21 62.098-40.691-.157 1.553c-1.032 9.969-2.32 17.494-3.862 22.575a54.674 54.674 0 0 1-2.939 7.546c-5.734-1.566-11.253 2.638-23.739 7.123-10.577 3.799-20.828 4.485-30.755 2.057l-.646-.163Z" fill="url(#c)"/><path opacity=".23" fill-rule="evenodd" clip-rule="evenodd" d="m135.16 207.591.495.937c3.57 6.729 5.901 10.32 10.764 12.338-9.119 5.722-21.694 8.846-38.822 5.577-8.265-1.578-14.89-4.382-20.135-8.047 7.15-1.224 12.951-4.682 17.405-10.374l.331-.431c7.665-10.143 25.115-9.213 29.962 0Z" fill="url(#d)"/><path fill-rule="evenodd" clip-rule="evenodd" d="M172.14 137.87c18.055-7.826 26.067-33.734 18.055-57.041-8.012-23.308-44.042-30.086-62.855-24.189-18.812 5.898-27.37 15.139-32.071 31.956-4.7 16.818 3.224 39.194 20.749 48.159 17.526 8.964 38.067 8.942 56.122 1.115Z" fill="url(#e)"/><path opacity=".2" d="M127.343 56.64c11.535-3.616 29.544-2.466 43.597 4.337-15.244.298-22.419 9.944-33.393 9.111-6.694-.509-11.658-4.45-14.891-11.826a81.009 81.009 0 0 1 4.687-1.622Z" fill="url(#f)"/><path d="m151.238 55.239-.088.038c-6.532 2.782-10.584 6.669-12.23 11.658-.182.553-.813.864-1.408.695-.595-.17-.931-.755-.748-1.307 1.573-4.77 5.066-8.604 10.434-11.502a69.95 69.95 0 0 1 4.04.418Z" fill="url(#g)"/><path d="M109.15 65.696c2.202 2.381 4.839 5.858 8.67 9.328 6.709 6.08 16.609 6.547 25.368 3.558l.43-.15c8.864-3.152 19.707-5.533 27.559 1.73 7.852 7.262 5.973 26.729 0 38.794-3.664 7.4-10.313 15.516-19.946 24.348-12.019 1.165-24.21-.921-35.213-6.549-17.525-8.965-25.45-31.341-20.75-48.158 2.772-9.914 6.883-17.194 13.645-22.71l.237-.19Z" fill="url(#h)"/><path d="M180.643 111.397c.811 1.526 6.085 2.007 8.497 1.385 2.411-.622 1.588-1.267 2.658-4.799 1.07-3.532 2.903-11.276.512-13.326-.909-.78-1.311-1.965-2.28-2.437-1.581-.77-3.688-.578-4.662-.578-1.571 0-3.049 4.972-4.175 9.35-1.126 4.379-1.36 8.878-.55 10.405Z" fill="url(#i)"/><path fill-rule="evenodd" clip-rule="evenodd" d="M183.54 111.878c.811 1.526 3.891 1.526 6.302.904 2.412-.622 4.268-1.061 5.338-4.594 1.07-3.532 2.903-11.276.511-13.326-2.391-2.05-5.37-3.014-6.941-3.014-1.571 0-3.049 4.971-4.175 9.35-1.126 4.378-1.845 9.153-1.035 10.68Z" fill="url(#j)"/><path d="M171.355 128.277c.934 0 1.691-.703 1.691-1.57 0-.867-.757-1.57-1.691-1.57-.935 0-1.692.703-1.692 1.57 0 .867.757 1.57 1.692 1.57Zm5.055 1.13c.934 0 1.692-.703 1.692-1.57 0-.867-.758-1.571-1.692-1.571-.934 0-1.691.704-1.691 1.571s.757 1.57 1.691 1.57Zm5.094-1.13c.934 0 1.691-.703 1.691-1.57 0-.867-.757-1.57-1.691-1.57s-1.692.703-1.692 1.57c0 .867.758 1.57 1.692 1.57Z" fill="#fff"/><path d="M120.132 147.316c13.245 3.622 24.974 3.679 41.799 1.144 16.826-2.535 17.882-7.996 17.882-11.315 0-3.319-5.96-6.248-14.911-3.915s-25.65 3.464-39.952-.36c-14.302-3.823-23.046-12.953-27.114-16.48-4.069-3.527-8.276 4.303-3.898 12.307 4.379 8.003 12.95 14.997 26.194 18.619Z" fill="url(#k)"/><path d="M139.512 135.171a90.77 90.77 0 0 0 3.056.148l-.34 14.899a88.686 88.686 0 0 1-3.7-.055l.984-14.992Zm4.093.176c1.042.021 2.074.026 3.093.015l.431 14.704c-1.242.067-2.46.113-3.661.136l.137-14.855Zm-7.993-.518a85.92 85.92 0 0 0 3.011.279l-1.183 15.009a79.806 79.806 0 0 1-3.726-.271l1.898-15.017Zm15.257.396 1.107 14.477c-1.23.116-2.435.213-3.619.29l-.61-14.648a94.518 94.518 0 0 0 3.122-.119Zm-19.233-.936c.981.159 1.967.299 2.953.42l-2.155 15.003a77.604 77.604 0 0 1-3.736-.517l2.938-14.906Zm23.42.612 1.703 14.275c-1.218.152-2.409.288-3.578.408l-1.263-14.422a93 93 0 0 0 3.138-.261Zm4.202-.531 2.239 14.155c-1.205.179-2.384.345-3.538.497l-1.843-14.234c.816-.092 1.61-.195 2.38-.305l.762-.113Zm-31.512-.82c.956.21 1.92.399 2.888.57l-3.214 14.856a81.127 81.127 0 0 1-3.728-.764l4.054-14.662Zm35.685.037 2.739 14.106c-1.076.232-2.237.45-3.488.65l-2.372-14.144a60.154 60.154 0 0 0 3.121-.612Zm-39.467-.991a60.89 60.89 0 0 0 2.812.733l-4.349 14.583a93.661 93.661 0 0 1-2.295-.595 65.217 65.217 0 0 1-1.41-.404l5.242-14.317Zm43.63.072 3.135 13.806a41.36 41.36 0 0 1-3.4.957l-2.859-14.091.432-.11a27.165 27.165 0 0 1 2.692-.562Zm-47.288-1.284c.88.329 1.785.64 2.714.929l-5.553 14.209a55.175 55.175 0 0 1-3.628-1.31l6.467-13.828Zm48.364 1.14a20.683 20.683 0 0 1 3.28-.111l3.135 12.17c-.897.518-1.963 1.02-3.229 1.494l-3.186-13.553Zm-51.874-2.604c.844.389 1.713.763 2.61 1.118l-6.776 13.671a49.09 49.09 0 0 1-3.484-1.663l7.65-13.126Zm56.297 2.588c1.413.165 2.635.499 3.634.952l2.165 7.574c-.547.963-1.412 1.948-2.774 2.895l-3.025-11.421Zm-59.673-4.291c.808.444 1.643.876 2.508 1.294l-7.93 12.908a43.055 43.055 0 0 1-3.259-2.036l8.681-12.166Zm-3.198-1.896c.775.494 1.581.983 2.42 1.461l-8.889 11.899a37.873 37.873 0 0 1-2.95-2.399l9.419-10.961Zm67.893 7.944c1.101.818 1.699 1.83 1.699 2.88 0 .647-.041 1.374-.229 2.145l-1.47-5.025Zm-71.05-10.099c.742.54 1.521 1.083 2.336 1.622l-9.55 10.604a34.212 34.212 0 0 1-2.541-2.743l9.755-9.483Zm-3.053-2.359c.712.58 1.468 1.177 2.27 1.779l-9.757 9.078a31.372 31.372 0 0 1-2.055-3.035l9.542-7.822Zm-2.979-2.548c.68.605 1.421 1.251 2.224 1.923l-9.391 7.382a15.542 15.542 0 0 1-1.34-3.387l8.507-5.918Zm-8.81.767 5.82-3.455.576.513c.503.452 1.062.961 1.677 1.516l-8.03 5.369c-.243-1.429-.237-2.769-.043-3.943Zm.376-1.485c.863-2.464 2.69-3.718 4.588-2.618l-4.588 2.618Z" fill="url(#l)"/><path opacity=".507" fill-rule="evenodd" clip-rule="evenodd" d="m104.739 131.384 1.02.633c7.748 4.733 39.581 22.383 74.026 4.743.019.127.028.256.028.385l-.006.417c-.106 3.342-1.738 8.466-17.876 10.898l-1.816.266c-15.864 2.259-27.22 2.08-39.983-1.41-10.436-2.854-17.97-7.801-22.838-13.686 2.244-3.208 4.725-3.956 7.445-2.246Z" fill="#262626"/><path d="M165.152 183.755c11.211 0 20.299-8.436 20.299-18.842 0-10.405-9.088-18.841-20.299-18.841-11.21 0-20.298 8.436-20.298 18.841 0 10.406 9.088 18.842 20.298 18.842Z" fill="url(#m)"/><path fill-rule="evenodd" clip-rule="evenodd" d="m14.487 34.212 1.894 63.064L125.5 94.778l8.226-45.854L86.236 0 14.487 34.212Z" fill="url(#n)"/><path opacity=".366" fill-rule="evenodd" clip-rule="evenodd" d="m86.237 0 47.49 48.924-8.225 45.854-43.3.991L86.238 0Z" fill="#262626"/><path d="m120.299 136.01 11.085-51.155-49.496-26.69L0 80.296l3.37 57.749 28.51 10.136 88.419-12.17Z" fill="url(#o)"/><path opacity=".366" fill-rule="evenodd" clip-rule="evenodd" d="m81.888 58.166 49.495 26.69-11.084 51.154-38.412 5.287V58.166Z" fill="#262626"/><path fill-rule="evenodd" clip-rule="evenodd" d="m95.318 121.132-8.701 25.166c-14.395 1.961-32.198 2.603-53.407 1.926l-1.33-.044-28.512-10.136 91.95-16.912Z" fill="url(#p)"/><path d="M14.487 136.044c4.405 31.563 8.484 55.298 12.236 71.206h91.295l19.821-65.72-42.519-20.399-80.833 14.913Z" fill="url(#q)"/><path d="M21.53 198.408c7.474 0 13.533-5.624 13.533-12.561s-6.059-12.561-13.532-12.561c-7.474 0-13.533 5.624-13.533 12.561s6.059 12.561 13.533 12.561Z" fill="url(#r)"/><path d="M26.605 174.199c4.96 1.863 8.457 6.376 8.457 11.647s-3.498 9.784-8.457 11.648c-4.96-1.863-8.459-6.376-8.459-11.648 0-5.118 3.299-9.521 8.03-11.479l.43-.168Z" fill="url(#s)"/><path opacity=".366" fill-rule="evenodd" clip-rule="evenodd" d="m95.32 121.131 42.518 20.399-19.821 65.72-16.865-.001-5.833-86.118Z" fill="#262626"/><path fill-rule="evenodd" clip-rule="evenodd" d="M171.35 175.858c-5.056 8.02-12.059 15.525-36.193 28.45-15.959 8.546-28.244 10.223-36.853 5.032a1.34 1.34 0 0 0-.462-.17c-4.094-.709-6.666-3.068-7.718-7.078-1.049-3.995-.453-7.506 1.785-10.534.107-.145.178-.311.21-.484.747-3.994 4.49-7.033 11.231-9.119 10.334-3.198 30.821-11.033 39.002-17.042 8.18-6.009 17.007-12.238 24.938-9.779 7.93 2.46 9.116 12.705 4.06 20.724Z" fill="url(#t)"/><path opacity=".2" fill-rule="evenodd" clip-rule="evenodd" d="m171.353 175.86-.46.72c-5.031 7.754-12.322 15.192-35.733 27.729-16.09 8.616-28.445 10.25-37.065 4.903-4.239-.655-6.894-3.028-7.968-7.119a15.924 15.924 0 0 1-.134-.546c21.062-5.041 37.709-11.439 49.945-19.194 15.015-9.517 25.863-19.616 30.62-25.501 4.884 3.936 5.049 12.26.795 19.008Z" fill="#262626"/><path opacity=".2" fill-rule="evenodd" clip-rule="evenodd" d="M101.656 198.063c1.428 5.327 1 9.447-1.284 12.36a19.497 19.497 0 0 1-2.28-1.214c-4.239-.654-6.895-3.027-7.968-7.119-1.074-4.091-.424-7.676 1.95-10.753a7.81 7.81 0 0 1 .76-2.368c4.368.42 7.309 3.451 8.822 9.094Z" fill="#262626"/><path d="M92.074 191.339c3.549.218 5.964 2.722 7.246 7.51 1.242 4.643.895 8.032-1.042 10.166l-.186.196c-4.239-.655-6.895-3.027-7.968-7.119-1.038-3.955-.465-7.436 1.719-10.443l.231-.31Z" fill="url(#u)"/><defs><linearGradient id="a" x1="36.415" y1="187.731" x2="56.565" y2="279.697" gradientUnits="userSpaceOnUse"><stop stop-color="#5DF1D7"/><stop offset="1" stop-color="#128698"/></linearGradient><linearGradient id="b" x1="32.459" y1="126.688" x2="72.559" y2="257.887" gradientUnits="userSpaceOnUse"><stop stop-color="#5DF1D7"/><stop offset="1" stop-color="#128698"/></linearGradient><linearGradient id="c" x1="122.457" y1="182.682" x2="114.701" y2="223.949" gradientUnits="userSpaceOnUse"><stop stop-color="#042635"/><stop offset="1" stop-color="#06565B"/></linearGradient><linearGradient id="d" x1="100.103" y1="209.522" x2="96.597" y2="236.804" gradientUnits="userSpaceOnUse"><stop stop-color="#042635"/><stop offset="1" stop-color="#06565B"/></linearGradient><linearGradient id="e" x1="57.708" y1="59.924" x2="86.867" y2="171.051" gradientUnits="userSpaceOnUse"><stop stop-color="#5DF1D7"/><stop offset="1" stop-color="#128698"/></linearGradient><linearGradient id="f" x1="140.721" y1="61.133" x2="152.62" y2="74.361" gradientUnits="userSpaceOnUse"><stop stop-color="#042635"/><stop offset="1" stop-color="#001431"/></linearGradient><linearGradient id="g" x1="142.04" y1="56.695" x2="146.594" y2="67.391" gradientUnits="userSpaceOnUse"><stop stop-color="#042635"/><stop offset="1" stop-color="#001431"/></linearGradient><linearGradient id="h" x1="111.613" y1="91.802" x2="92.376" y2="165.533" gradientUnits="userSpaceOnUse"><stop stop-color="#042635"/><stop offset="1" stop-color="#06565B"/></linearGradient><linearGradient id="i" x1="183.018" y1="98.799" x2="174.987" y2="116.886" gradientUnits="userSpaceOnUse"><stop stop-color="#042635"/><stop offset="1" stop-color="#06565B"/></linearGradient><linearGradient id="j" x1="178.21" y1="93.117" x2="188.97" y2="116.662" gradientUnits="userSpaceOnUse"><stop stop-color="#5DF1D7"/><stop offset="1" stop-color="#128698"/></linearGradient><linearGradient id="k" x1="124.251" y1="130.417" x2="143.038" y2="150.136" gradientUnits="userSpaceOnUse"><stop stop-color="#042635"/><stop offset="1" stop-color="#001431"/></linearGradient><linearGradient id="l" x1="122.792" y1="133.026" x2="78.782" y2="105.358" gradientUnits="userSpaceOnUse"><stop stop-color="#2D8B67"/><stop offset="1" stop-color="#123635"/></linearGradient><linearGradient id="m" x1="153.558" y1="158.697" x2="144.4" y2="194.435" gradientUnits="userSpaceOnUse"><stop stop-color="#042635"/><stop offset="1" stop-color="#06565B"/></linearGradient><linearGradient id="n" x1="-40.438" y1="49.897" x2="64.861" y2="138.808" gradientUnits="userSpaceOnUse"><stop stop-color="#356FA8"/><stop offset="1" stop-color="#183C6F"/></linearGradient><linearGradient id="o" x1="-24.212" y1="161.938" x2="147.587" y2=".329" gradientUnits="userSpaceOnUse"><stop stop-color="#52EFFF"/><stop offset="1" stop-color="#F2FDFF"/></linearGradient><linearGradient id="p" x1="23.083" y1="130.296" x2="20.827" y2="157.755" gradientUnits="userSpaceOnUse"><stop stop-color="#042635"/><stop offset="1" stop-color="#06565B"/></linearGradient><linearGradient id="q" x1="-42.332" y1="165.305" x2="52.217" y2="258.594" gradientUnits="userSpaceOnUse"><stop stop-color="#356FA8"/><stop offset="1" stop-color="#183C6F"/></linearGradient><linearGradient id="r" x1="-22.631" y1="185.909" x2="35.389" y2="213.048" gradientUnits="userSpaceOnUse"><stop stop-color="#5DF1D7"/><stop offset="1" stop-color="#128698"/></linearGradient><linearGradient id="s" x1="21.773" y1="182.004" x2="13.953" y2="202.573" gradientUnits="userSpaceOnUse"><stop stop-color="#042635" stop-opacity="0"/><stop offset=".786" stop-color="#065258" stop-opacity=".922"/><stop offset="1" stop-color="#06565B"/></linearGradient><linearGradient id="t" x1="58.717" y1="158.018" x2="73.488" y2="232.086" gradientUnits="userSpaceOnUse"><stop stop-color="#5DF1D7"/><stop offset="1" stop-color="#128698"/></linearGradient><linearGradient id="u" x1="91.858" y1="197.327" x2="84.874" y2="212.084" gradientUnits="userSpaceOnUse"><stop stop-color="#042635"/><stop offset="1" stop-color="#06565B"/></linearGradient></defs></svg>
