<svg width="157" height="114" fill="none" xmlns="http://www.w3.org/2000/svg"><g clip-path="url(#a)"><path d="M90 79c.36 5.927 3.407 17.856 12.721 18.156 11.642.375 16.94-6.5 30.985-3.25 11.236 2.6 13.532 13.813 13.275 19.094" stroke="url(#b)" stroke-width="18.652"/><path d="M90 79c.36 5.927 3.407 17.856 12.721 18.156 11.642.375 16.94-6.5 30.985-3.25 11.236 2.6 13.532 13.813 13.275 19.094" stroke="url(#c)" stroke-width="18.652" stroke-dasharray="8.61 8.42"/><path d="M30.465 53.8c4.823 6.094 12.243 11.763 15.789 14.14.222.15.513.004.549-.268l2.194-16.567a.38.38 0 0 0-.17-.375c-4.066-2.54-12.565-8.052-15.634-10.798-3.902-3.492-9.948-5.839-10.99-1.825-1.041 4.014 1.95 7.72 8.262 15.694Z" fill="url(#d)"/><path opacity=".2" d="M33.008 39c-.153 4.288 1.81 13.203 10.832 24.72 1.146 1.462 2.157 2.538 3.049 3.28L49 50.517c-3.848-2.478-12.3-8.133-15.32-10.926a18.067 18.067 0 0 0-.672-.591Z" fill="#262626"/><path d="M27 36.041c-.472 2.613-2.838 4.18-4.852 4.959a4.972 4.972 0 0 1 .125-2.828c.597-1.771 2.424-2.34 4.727-2.13Z" fill="url(#e)"/><path d="M98.236 82.759c-1.083 1.565-4.002 2.579-6.737 3.171-2.083.452-3.81-1.367-3.451-3.416l1.524-8.703c.21-1.199 1.104-2.176 2.302-2.517l4.095-1.165c2.045-.582 4.097.872 4.03 2.947-.12 3.652-.568 7.957-1.763 9.683Z" fill="url(#f)"/><path d="M47.74 70c-2.392-1.534-6.082-7.713-1.706-20.153C50.41 37.406 48.994 58.099 47.74 70Z" fill="url(#g)"/><path d="M44.286 102.189c.965-6.964 4.093-15.317 5.682-18.968.084-.194.298-.277.477-.18 6.965 3.72 19.679 11.4 17.251 13.707-3.082 2.93-14.688 16.321-18.164 16.252-3.475-.07-6.491-1.814-5.246-10.811Z" fill="url(#h)"/><path opacity=".3" d="M48 88.24A80.706 80.706 0 0 1 50.125 83c6.885 3.567 20.037 11.272 17.571 13.562-.706.656-1.859 1.848-3.26 3.296A361.664 361.664 0 0 1 60.384 104C53.002 99.566 49.369 92.725 48 88.24Z" fill="url(#i)"/><path opacity=".3" d="M44.426 109c-.477-1.597-.588-3.885-.156-7.138.91-6.845 3.863-15.055 5.362-18.645.08-.19.282-.272.451-.177A131.91 131.91 0 0 1 55 85.921C49.972 92.98 46.175 103.188 44.426 109Z" fill="url(#j)"/><path d="M73.812 107.806c-6.527-4.751-10.473-13.067-11.791-17.068-.079-.238.075-.487.307-.51l23.126-2.226c.172-.017.331.1.382.28.888 3.1 3.155 8.447 4.889 11.117 2.52 3.88 6.102 8.838 3.184 11.713-2.99 2.944-11.607 2.874-20.097-3.306Z" fill="url(#k)"/><path opacity=".3" d="M89 96.162c-6.673 5.122-16.49 4.185-22.644 2.504-2.283-3.34-3.737-6.632-4.356-8.541L85.531 88c.6 2.091 2.042 5.502 3.469 8.162Z" fill="url(#l)"/><path opacity=".3" d="M85 113c-10.114-6.641-15.277-16.49-17.04-22l-5.96.556c1.129 3.603 5.054 11.987 11.723 16.693C77.65 111.022 81.607 112.502 85 113Z" fill="url(#m)"/><path d="M94.668 107c.542 1.711.5 3.292-.722 4.495-.694.684-1.701 1.199-2.946 1.505.22-2.159 1.054-4.982 3.668-6Z" fill="url(#n)"/><path d="M47.718 83.904c-3.508-8.666-.853-21.338.983-26.83a.355.355 0 0 1 .325-.245L92.622 55a.363.363 0 0 1 .378.375c-.154 8.587-1.054 26.36-3.513 31.827-3.121 6.938-10.625 11.06-19.058 10.785-8.433-.275-18.261-3.091-22.71-14.082Z" fill="url(#o)"/><path opacity=".2" d="M62.402 96.676c-5.085-11.462-3.384-27.337-1.81-34.122l.545-6.194L93 55c-.13 8.423-1.004 26.657-3.456 32.206C86.48 94.14 79.111 98.262 70.83 97.987c-2.74-.091-5.629-.46-8.428-1.31Z" fill="#262626"/><path opacity=".2" d="M76.369 58.128c-2.002 3.261-8.456-16.375-14.647-8.056C53.982 60.473 73.955 87 89.475 87c2.449-5.397 3.359-22.843 3.525-31.476l-16.631 2.604Z" fill="#262626"/><path opacity=".3" d="M57.077 66.878c-1.42-1.572-3.31-5.706-4.077-7.577 6.949-.982 20.451-2.357 18.873 0-1.579 2.357-5.305 6.781-6.97 8.699l-7.826-1.122Z" fill="url(#p)"/><path d="M48.373 58.68c-2.487-3.23-1.036-6.483 0-7.706 13.81-2.129 42.405-6.048 46.298-4.697 4.867 1.688 3.988 8.513 0 10.861-3.987 2.349-11.76 4.844-22.439 6.385-10.679 1.541-20.75-.807-23.859-4.843Z" fill="url(#q)"/><path d="M75.472 63.006a188.417 188.417 0 0 1-1.485-10.338c-2.447-1.543-7.817-3.57-9.72.66-1.335 2.967-.854 7.311-.057 10.672-4.048-.11-7.735-.765-10.641-1.818-1.046-4.851-.443-8.823.16-10.543l3.036-1.939c14.728-2.09 34.674-4.532 37.887-3.423 4.763 1.644 4.055 8.155.319 10.672-.82-4.743-2.45-8.187-3.377-9.57-3.785-.27-11.162-.323-10.401 1.616.596 1.518 2.37 7.396 3.71 11.934-2.751.763-5.907 1.47-9.431 2.077Z" fill="url(#r)"/><path d="M85.423 54.543c-6.092 5.246-7.528 8.412-5.658 11.326.668 1.617 4.738 5.94 7.048 7.018 3.908 1.825 13.306 2.627 15.845-7.62 2.538-10.246-9.62-17.281-17.235-10.724Z" fill="url(#s)"/><path opacity=".3" d="M82 95.968c-3.224 1.422-6.945 2.139-10.854 2.02C63.272 97.746 54.25 95.543 49 87.542c1.608-1.634 4.337-3.756 7.389-4.27 4.849-.817 15.108.34 17.217 1.635.672.413 1.073 1.228 1.638 2.376.984 2.002 2.467 5.018 6.756 8.684Z" fill="url(#t)"/><path d="M51 112.218c-.763.506-1.41.792-1.892.782-2.378-.052-4.53-1.001-5.108-5 2.154.152 5.019 1.156 7 4.218Z" fill="url(#u)"/><path d="M42.156 27.477c-.967 9.77 2.803 16.84 4.848 19.208.029.033.06.058.098.078 4.054 2.222 9.099 5.54 21.427 7.542 12.313 2 20.455-.83 24.206-2.044a.343.343 0 0 0 .12-.069c10.269-8.851 10.178-28.754 3.35-38.426C89.365 4.076 77.996-2.012 65.286.611c-12.71 2.622-21.913 14.57-23.13 26.866Z" fill="url(#v)"/><path d="M52.466 54.161c-2.395-.795-4.4-2.534-5.704-4.797-3.586-6.229-5.389-13.705-4.565-21.976.567-5.7 2.868-11.324 6.449-15.972 2.315 1.604 4.986 2.695 7.744 2.408 2.66-.278 5.098-.831 7.495-1.376 4.751-1.078 9.338-2.12 15.15-.897 8.744 1.84 11.668 13.933 9.03 25.808-1.63 7.334-5.982 13.655-9.297 17.406-7.822 1.41-18.21 2.084-26.302-.604Z" fill="url(#w)"/><path fill-rule="evenodd" clip-rule="evenodd" d="M49.339 17.22c-.654-.433-1.51-.207-1.913.505-1.744 3.09-2.88 6.611-3.411 10.555-.11.826.415 1.588 1.174 1.705.76.117 1.465-.458 1.577-1.284.477-3.547 1.487-6.678 3.028-9.407.402-.712.198-1.641-.455-2.074Z" fill="url(#x)"/><path fill-rule="evenodd" clip-rule="evenodd" d="M46.277 35.99c-1.093.096-2.104-.492-2.257-1.315-.154-.823.609-1.568 1.703-1.665 1.093-.096 2.104.492 2.257 1.315.154.823-.61 1.568-1.703 1.665Z" fill="url(#y)"/><path d="M55 4.552c1.694 1.196 4.452 2.399 8.3 2.447 2.98.037 5.456-1.104 8.07-2.31C74.396 3.295 77.608 1.815 82 1.98 76.84.049 71.056-.578 64.976.587A28.784 28.784 0 0 0 55 4.552Z" fill="url(#z)"/><path d="M71 0c-4.917 1.604-8.685 4.748-10.718 7-2.312-.457-4.07-1.354-5.282-2.248 2.982-1.969 6.34-3.412 9.975-4.14A31.066 31.066 0 0 1 71 0Z" fill="url(#A)"/><path d="M91.23 38.289c.71-2.086 1.323-4.48 1.78-6.53.411-1.849 2.138-3.071 3.912-2.689l6.181 1.33c.44.096.781.466.824.934.459 4.953-1.376 11.217-2.005 13.235L98.194 46l-5.344-2.924c-1.609-.88-2.23-2.996-1.62-4.787Z" fill="url(#B)"/><path d="M103.892 31.054c.027.088.046.18.053.275.35 4.316-1.065 9.592-1.782 11.965a1.32 1.32 0 0 1-.51.706l-5.926-3.62c-.593-.362-.859-1.107-.664-1.79a101.362 101.362 0 0 0 1.762-7.425c.139-.717.743-1.239 1.445-1.156 1.544.18 3.734.61 5.622 1.045Z" fill="url(#C)"/><path fill-rule="evenodd" clip-rule="evenodd" d="M36.342 12.157a.81.81 0 0 1 1.146.193l28.358 40.323a.85.85 0 0 1-.188 1.17.81.81 0 0 1-1.146-.193L36.154 13.328a.85.85 0 0 1 .188-1.17Z" fill="url(#D)"/><path d="M32.184 27.748c-1.01-8.314 2.39-12.63 4.215-13.748L44 25.305c-2 2.346-3.047 6.711-3.693 13.748-.517 5.63-4.851 9.644-6.954 10.947 1.169-4.92.092-11.859-1.17-22.252Z" fill="url(#E)"/><path d="M83.91 71.386c-8.384-1.993-18.333-9.3-21.386-12.254-3.052-2.955-5.813-9.905-3.883-13.07 1.623-2.661 5.535-4.165 9.113-2.09 3.578 2.076 14.075 8.965 20.293 12.145 6.218 3.18 8.743 4.891 8.943 8.495.2 3.604-2.602 9.265-13.08 6.774Z" fill="url(#F)"/><path opacity=".2" d="M58.2 47c2.72 4.71 8.57 12.158 17.395 16.488 7.189 3.526 13.846 5.365 18.405 6.216-1.823 1.921-5.178 3.076-10.856 1.68-8.135-2-17.79-9.333-20.753-12.299C59.717 56.41 57.274 50.47 58.2 47Z" fill="#262626"/><path d="M58.232 50c-.367-1.682-.33-3.265.342-4.344C59.463 44.23 61.117 43.184 63 43c-.296 2.294-1.508 5.387-4.768 7Z" fill="url(#G)"/><path d="M73.852 62.535c-.31.697.289 1.664 1.336 2.16 1.047.494 2.147.33 2.456-.367.31-.698-.289-1.665-1.336-2.16-1.047-.495-2.147-.33-2.456.367Z" fill="url(#H)"/><path fill-rule="evenodd" clip-rule="evenodd" d="M5.382 8.124a.804.804 0 0 1 1.117.264l25.378 41.355a.83.83 0 0 1-.26 1.133.803.803 0 0 1-1.116-.264L5.123 9.258a.83.83 0 0 1 .26-1.134Z" fill="url(#I)"/><path d="M.205 23.159c-.478-8.2 3.07-12.19 4.903-13.159L14 25.431c-2.076 2.159-5.567 2.498-6.614 9.336C6.547 40.237 2.113 43.87 0 45c1.427-4.732.801-11.592.205-21.841Z" fill="url(#J)"/></g><defs><linearGradient id="b" x1="156.406" y1="172.594" x2="142.012" y2="68.415" gradientUnits="userSpaceOnUse"><stop stop-color="#00A5FF" stop-opacity="0"/><stop offset=".417" stop-color="#2DB4FF" stop-opacity=".13"/><stop offset="1" stop-color="#6CCAFF"/></linearGradient><linearGradient id="c" x1="95.647" y1="125.946" x2="157.914" y2="119.269" gradientUnits="userSpaceOnUse"><stop stop-color="#121E2F" stop-opacity="0"/><stop offset="1" stop-color="#162D3E"/></linearGradient><linearGradient id="d" x1="13.1" y1="40.932" x2="39.667" y2="76.308" gradientUnits="userSpaceOnUse"><stop stop-color="#5DF1D7"/><stop offset="1" stop-color="#128698"/></linearGradient><linearGradient id="e" x1="22.637" y1="37.987" x2="22.584" y2="42.2" gradientUnits="userSpaceOnUse"><stop stop-color="#042635"/><stop offset="1" stop-color="#06565B"/></linearGradient><linearGradient id="f" x1="64.953" y1="68.981" x2="93.181" y2="89.184" gradientUnits="userSpaceOnUse"><stop stop-color="#77CEFF"/><stop offset=".854" stop-color="#20B0FF"/><stop offset="1" stop-color="#1070A5"/></linearGradient><linearGradient id="g" x1="45.072" y1="54.041" x2="33.41" y2="62.842" gradientUnits="userSpaceOnUse"><stop stop-color="#042635"/><stop offset="1" stop-color="#06565B"/></linearGradient><linearGradient id="h" x1="35.25" y1="84.662" x2="48.281" y2="120.087" gradientUnits="userSpaceOnUse"><stop stop-color="#5DF1D7"/><stop offset="1" stop-color="#128698"/></linearGradient><linearGradient id="i" x1="53.693" y1="70.937" x2="34.955" y2="82.322" gradientUnits="userSpaceOnUse"><stop stop-color="#165B7A"/><stop offset="1" stop-color="#001431"/></linearGradient><linearGradient id="j" x1="47.131" y1="68.065" x2="33.979" y2="71.615" gradientUnits="userSpaceOnUse"><stop stop-color="#165B7A"/><stop offset="1" stop-color="#001431"/></linearGradient><linearGradient id="k" x1="49.795" y1="89.463" x2="56.844" y2="121.307" gradientUnits="userSpaceOnUse"><stop stop-color="#5DF1D7"/><stop offset="1" stop-color="#128698"/></linearGradient><linearGradient id="l" x1="69.686" y1="81.106" x2="58.369" y2="97.351" gradientUnits="userSpaceOnUse"><stop stop-color="#165B7A"/><stop offset="1" stop-color="#001431"/></linearGradient><linearGradient id="m" x1="68.547" y1="78.362" x2="48.127" y2="91.982" gradientUnits="userSpaceOnUse"><stop stop-color="#165B7A"/><stop offset="1" stop-color="#001431"/></linearGradient><linearGradient id="n" x1="91.858" y1="109.01" x2="89.714" y2="114.186" gradientUnits="userSpaceOnUse"><stop stop-color="#042635"/><stop offset="1" stop-color="#06565B"/></linearGradient><linearGradient id="o" x1="28.862" y1="57.544" x2="43.223" y2="111.109" gradientUnits="userSpaceOnUse"><stop stop-color="#5DF1D7"/><stop offset="1" stop-color="#128698"/></linearGradient><linearGradient id="p" x1="58.408" y1="52.255" x2="48.539" y2="64.22" gradientUnits="userSpaceOnUse"><stop stop-color="#165B7A"/><stop offset="1" stop-color="#001431"/></linearGradient><linearGradient id="q" x1="57.935" y1="52.031" x2="56.179" y2="70.051" gradientUnits="userSpaceOnUse"><stop stop-color="#042635"/><stop offset="1" stop-color="#06565B"/></linearGradient><linearGradient id="r" x1="68.753" y1="55.081" x2="46.035" y2="40.96" gradientUnits="userSpaceOnUse"><stop stop-color="#2D8B67"/><stop offset="1" stop-color="#123635"/></linearGradient><linearGradient id="s" x1="86.207" y1="59.666" x2="79.922" y2="80.934" gradientUnits="userSpaceOnUse"><stop stop-color="#042635"/><stop offset="1" stop-color="#06565B"/></linearGradient><linearGradient id="t" x1="58.394" y1="74.383" x2="44.141" y2="94.388" gradientUnits="userSpaceOnUse"><stop stop-color="#165B7A"/><stop offset="1" stop-color="#001431"/></linearGradient><linearGradient id="u" x1="45.501" y1="109.675" x2="44.542" y2="114.539" gradientUnits="userSpaceOnUse"><stop stop-color="#042635"/><stop offset="1" stop-color="#06565B"/></linearGradient><linearGradient id="v" x1="28.128" y1="-8.845" x2="28.756" y2="61.877" gradientUnits="userSpaceOnUse"><stop stop-color="#5DF1D7"/><stop offset="1" stop-color="#128698"/></linearGradient><linearGradient id="w" x1="53.983" y1="20.325" x2="33.164" y2="57.926" gradientUnits="userSpaceOnUse"><stop stop-color="#042635"/><stop offset="1" stop-color="#06565B"/></linearGradient><linearGradient id="x" x1="42.681" y1="34.978" x2="45.242" y2="17.141" gradientUnits="userSpaceOnUse"><stop stop-color="#CEFFDD" stop-opacity=".37"/><stop offset="1" stop-color="#B2FFF9" stop-opacity=".79"/></linearGradient><linearGradient id="y" x1="42.57" y1="35.26" x2="44.353" y2="17.324" gradientUnits="userSpaceOnUse"><stop stop-color="#CEFFDD" stop-opacity=".37"/><stop offset="1" stop-color="#B2FFF9" stop-opacity=".79"/></linearGradient><linearGradient id="z" x1="64.27" y1="-1.394" x2="64.903" y2="7.019" gradientUnits="userSpaceOnUse"><stop stop-color="#042635"/><stop offset="1" stop-color="#06565B"/></linearGradient><linearGradient id="A" x1="59.964" y1="-5.599" x2="60.02" y2="6.271" gradientUnits="userSpaceOnUse"><stop stop-color="#042635"/><stop offset="1" stop-color="#06565B"/></linearGradient><linearGradient id="B" x1="94.88" y1="33.928" x2="86.101" y2="46.512" gradientUnits="userSpaceOnUse"><stop stop-color="#042635"/><stop offset="1" stop-color="#06565B"/></linearGradient><linearGradient id="C" x1="101.194" y1="30.416" x2="92.112" y2="45.723" gradientUnits="userSpaceOnUse"><stop stop-color="#2D8B67"/><stop offset="1" stop-color="#123635"/></linearGradient><linearGradient id="D" x1="22.181" y1="33.544" x2="58.717" y2="51.521" gradientUnits="userSpaceOnUse"><stop stop-color="#356FA8"/><stop offset="1" stop-color="#183C6F"/></linearGradient><linearGradient id="E" x1="26.773" y1="15.99" x2="50.523" y2="43.485" gradientUnits="userSpaceOnUse"><stop stop-color="#EBFFFB"/><stop offset="1" stop-color="#D5F9FF"/></linearGradient><linearGradient id="F" x1="76.666" y1="20.852" x2="44.1" y2="45.019" gradientUnits="userSpaceOnUse"><stop stop-color="#5DF1D7"/><stop offset="1" stop-color="#128698"/></linearGradient><linearGradient id="G" x1="61.083" y1="44.616" x2="54.46" y2="44.722" gradientUnits="userSpaceOnUse"><stop stop-color="#042635"/><stop offset="1" stop-color="#06565B"/></linearGradient><linearGradient id="H" x1="76.693" y1="63.006" x2="73.997" y2="60.129" gradientUnits="userSpaceOnUse"><stop stop-color="#042635"/><stop offset="1" stop-color="#06565B"/></linearGradient><linearGradient id="I" x1="-9.924" y1="28.14" x2="24.857" y2="48.268" gradientUnits="userSpaceOnUse"><stop stop-color="#356FA8"/><stop offset="1" stop-color="#183C6F"/></linearGradient><linearGradient id="J" x1="-4.324" y1="11.291" x2="17.253" y2="39.606" gradientUnits="userSpaceOnUse"><stop stop-color="#EBFFFB"/><stop offset="1" stop-color="#D5F9FF"/></linearGradient><clipPath id="a"><path fill="#fff" d="M0 0h157v115H0z"/></clipPath></defs></svg>
