<svg width="115" height="32" viewBox="0 0 115 32" fill="none" xmlns="http://www.w3.org/2000/svg">
<path d="M46.0378 0.0597318L41.8735 4.22402C41.7938 4.30374 41.7938 4.433 41.8735 4.51272L50.4911 13.1304C50.5709 13.2101 50.7001 13.2101 50.7798 13.1304L54.9441 8.96607C55.0239 8.88635 55.0239 8.75709 54.9441 8.67737L46.3265 0.059732C46.2468 -0.019992 46.1175 -0.019992 46.0378 0.0597318Z" fill="#12D6D6"/>
<path d="M41.8735 26.4897L68.2995 0.0636976C68.3792 -0.0160146 68.5084 -0.0160151 68.5881 0.0636969L72.7518 4.22735C72.8315 4.30706 72.8315 4.4363 72.7518 4.51602L46.3258 30.942C46.2461 31.0217 46.1168 31.0217 46.0371 30.942L41.8735 26.7783C41.7938 26.6986 41.7938 26.5694 41.8735 26.4897Z" fill="#12D6D6"/>
<path d="M59.6853 22.0362L63.8496 17.8719C63.9294 17.7922 64.0586 17.7922 64.1383 17.8719L72.756 26.4895C72.8357 26.5693 72.8357 26.6985 72.756 26.7782L68.5917 30.9425C68.512 31.0223 68.3827 31.0223 68.303 30.9425L59.6853 22.3249C59.6056 22.2452 59.6056 22.1159 59.6853 22.0362Z" fill="#12D6D6"/>
<path d="M99.8689 12.5118V6.53097H112.884C112.943 6.53104 113.002 6.51947 113.056 6.49693C113.111 6.47439 113.16 6.44132 113.202 6.39961C113.244 6.3579 113.277 6.30837 113.299 6.25387C113.322 6.19936 113.333 6.14094 113.333 6.08196V0.999167C113.333 0.940182 113.322 0.881766 113.299 0.827258C113.277 0.77275 113.244 0.72322 113.202 0.681512C113.16 0.639803 113.111 0.606734 113.056 0.584192C113.002 0.561651 112.943 0.550078 112.884 0.550145H93.5857C93.5267 0.550145 93.4684 0.561759 93.4139 0.584324C93.3594 0.60689 93.3099 0.639972 93.2682 0.681667C93.2265 0.723362 93.1934 0.772858 93.1709 0.827335C93.1483 0.881813 93.1367 0.940201 93.1367 0.999167V30.0053C93.1367 30.0642 93.1483 30.1226 93.1709 30.1771C93.1934 30.2316 93.2265 30.2811 93.2682 30.3228C93.3099 30.3645 93.3594 30.3975 93.4139 30.4201C93.4684 30.4427 93.5267 30.4543 93.5857 30.4543H112.884C112.943 30.4543 113.002 30.4428 113.056 30.4202C113.111 30.3977 113.16 30.3646 113.202 30.3229C113.244 30.2812 113.277 30.2317 113.299 30.1772C113.322 30.1227 113.333 30.0642 113.333 30.0053V24.9225C113.333 24.8635 113.322 24.8051 113.299 24.7506C113.277 24.6961 113.244 24.6465 113.202 24.6048C113.16 24.5631 113.111 24.53 113.056 24.5075C113.002 24.485 112.943 24.4734 112.884 24.4735H99.8689V18.4926H112.884C112.943 18.4927 113.002 18.4811 113.056 18.4586C113.111 18.436 113.16 18.403 113.202 18.3613C113.244 18.3195 113.277 18.27 113.299 18.2155C113.322 18.161 113.333 18.1026 113.333 18.0436V12.9608C113.333 12.9018 113.322 12.8434 113.299 12.7889C113.277 12.7344 113.244 12.6849 113.202 12.6432C113.16 12.6015 113.111 12.5684 113.056 12.5458C113.002 12.5233 112.943 12.5117 112.884 12.5118H99.8689Z" fill="#12D6D6"/>
<path d="M1.33331 0.997173V6.08098C1.33331 6.20007 1.38062 6.31427 1.46483 6.39848C1.54904 6.48269 1.66325 6.53 1.78234 6.53H14.7988V18.7941C14.7987 18.853 14.8102 18.9113 14.8326 18.9658C14.8551 19.0203 14.8881 19.0698 14.9297 19.1115C14.9713 19.1532 15.0207 19.1863 15.0752 19.2089C15.1296 19.2315 15.1879 19.2431 15.2468 19.2431H21.0821C21.2011 19.2431 21.3153 19.1958 21.3996 19.1116C21.4838 19.0273 21.5311 18.9131 21.5311 18.7941V0.997173C21.5308 0.878262 21.4834 0.764314 21.3992 0.680326C21.315 0.596339 21.201 0.549169 21.0821 0.549169H1.78234C1.72342 0.549035 1.66505 0.560529 1.61058 0.582984C1.55611 0.605438 1.5066 0.638417 1.46489 0.680031C1.42318 0.721645 1.39009 0.771077 1.36752 0.825497C1.34494 0.879918 1.33331 0.938255 1.33331 0.997173Z" fill="#12D6D6"/>
<path d="M1.53746 12.5108H7.86192C7.97467 12.5108 8.06607 12.6022 8.06607 12.7149V30.2496C8.06607 30.3623 7.97467 30.4537 7.86192 30.4537H1.53746C1.42471 30.4537 1.33331 30.3623 1.33331 30.2496V12.7149C1.33331 12.6022 1.42471 12.5108 1.53746 12.5108Z" fill="#12D6D6"/>
<path d="M34.7923 0.548517H28.4678C28.3551 0.548517 28.2636 0.639916 28.2636 0.752663V30.2495C28.2636 30.3623 28.3551 30.4537 28.4678 30.4537H34.7923C34.905 30.4537 34.9964 30.3623 34.9964 30.2495V0.752663C34.9964 0.639916 34.905 0.548517 34.7923 0.548517Z" fill="#12D6D6"/>
<path d="M79.8753 0.548517H86.1998C86.3126 0.548517 86.404 0.639916 86.404 0.752663V30.2495C86.404 30.3623 86.3126 30.4537 86.1998 30.4537H79.8753C79.7626 30.4537 79.6712 30.3623 79.6712 30.2495V0.752663C79.6712 0.639916 79.7626 0.548517 79.8753 0.548517Z" fill="#12D6D6"/>
</svg>
