<svg width="197" height="256" viewBox="0 0 197 256" fill="none" xmlns="http://www.w3.org/2000/svg">
<path fill-rule="evenodd" clip-rule="evenodd" d="M73.1383 186.111C72.5234 186.128 72.0266 186.587 72.0015 187.158C71.0505 208.76 71.8825 224.701 74.4984 234.98C78.4828 250.638 87.1948 252.495 94.8396 250.17C102.485 247.846 108.961 231.251 113.883 229.509C118.805 227.766 123.696 229.121 127.261 240.087C130.825 251.054 134.89 256.672 144.854 255.486C154.817 254.3 159.867 240.136 163.123 227.766C165.253 219.674 166.917 205.293 168.115 184.62C168.151 183.984 167.594 183.45 166.907 183.469L73.1383 186.111Z" fill="url(#paint0_linear_31_1929)"/>
<path opacity="0.1" fill-rule="evenodd" clip-rule="evenodd" d="M128.804 184.543L168.18 183.433L167.972 186.973C166.804 206.097 165.217 219.578 163.212 227.414L162.853 228.77C160.049 239.179 155.934 250.564 148.687 254.301C156.449 239.792 157.368 220.491 146.419 227.767C139.317 232.485 132.718 235.986 126.621 238.27C123.124 228.974 118.515 227.868 113.88 229.509C108.958 231.251 102.482 247.846 94.8374 250.17C93.9609 250.437 93.0706 250.649 92.1748 250.791C93.7829 236.41 97.1149 225.103 102.17 216.868L102.482 216.368L112.638 188.97L128.804 184.543Z" fill="#262626"/>
<path fill-rule="evenodd" clip-rule="evenodd" d="M96.5431 120.493C96.1078 120.37 95.635 120.491 95.333 120.807C86.1972 130.371 79.041 142.832 73.8646 158.191C65.9599 181.645 67.1697 218.727 107.599 226.443C148.028 234.159 163.094 206.255 167.224 192.649C169.946 183.683 171.874 167.105 173.007 142.915C173.03 142.419 172.688 141.965 172.175 141.821L96.5431 120.493Z" fill="url(#paint1_linear_31_1929)"/>
<path fill-rule="evenodd" clip-rule="evenodd" d="M109.143 209.21L171.241 168.519L171.084 170.072C170.052 180.041 168.764 187.566 167.222 192.647C166.551 194.857 165.592 197.443 164.283 200.193C158.549 198.627 153.03 202.831 140.544 207.316C129.967 211.115 119.716 211.801 109.789 209.373L109.143 209.21Z" fill="url(#paint2_linear_31_1929)"/>
<path opacity="0.23" fill-rule="evenodd" clip-rule="evenodd" d="M135.16 207.591L135.655 208.528C139.225 215.257 141.556 218.848 146.419 220.866C137.3 226.588 124.725 229.712 107.597 226.443C99.3324 224.865 92.7062 222.061 87.4622 218.396C94.6125 217.172 100.413 213.714 104.867 208.022L105.198 207.591C112.863 197.448 130.313 198.378 135.16 207.591Z" fill="url(#paint3_linear_31_1929)"/>
<path fill-rule="evenodd" clip-rule="evenodd" d="M172.14 137.87C190.195 130.044 198.207 104.136 190.195 80.8285C182.183 57.5211 146.153 50.7428 127.34 56.6401C108.528 62.5378 99.9694 71.7789 95.2688 88.5964C90.5683 105.414 98.4927 127.79 116.018 136.755C133.544 145.719 154.085 145.697 172.14 137.87Z" fill="url(#paint4_linear_31_1929)"/>
<path opacity="0.2" d="M127.343 56.6402C138.878 53.0239 156.887 54.1738 170.94 60.9775C155.696 61.2748 148.521 70.9214 137.547 70.0881C130.853 69.5793 125.889 65.6375 122.656 58.2616C124.143 57.6933 125.704 57.154 127.343 56.6402Z" fill="url(#paint5_linear_31_1929)"/>
<path d="M151.238 55.2386L151.15 55.2766C144.618 58.0593 140.566 61.9459 138.92 66.9354C138.738 67.4882 138.107 67.7991 137.512 67.6299C136.917 67.4606 136.581 66.8751 136.764 66.3226C138.337 61.5529 141.83 57.719 147.198 54.8206C148.535 54.9195 149.885 55.059 151.238 55.2386Z" fill="url(#paint6_linear_31_1929)"/>
<path d="M109.15 65.6963C111.352 68.077 113.989 71.5535 117.82 75.0242C124.529 81.1036 134.429 81.5708 143.188 78.582L143.618 78.4321C152.482 75.2798 163.325 72.8987 171.177 80.1614C179.029 87.4244 177.15 106.891 171.177 118.956C167.513 126.356 160.864 134.472 151.231 143.304C139.212 144.469 127.021 142.383 116.018 136.755C98.4927 127.79 90.5683 105.414 95.2688 88.5968C98.0396 78.6834 102.151 71.4025 108.913 65.887L109.15 65.6963Z" fill="url(#paint7_linear_31_1929)"/>
<path d="M180.643 111.397C181.454 112.923 186.728 113.404 189.14 112.782C191.551 112.16 190.728 111.515 191.798 107.983C192.868 104.451 194.701 96.7067 192.31 94.657C191.401 93.8778 190.999 92.6918 190.03 92.2199C188.449 91.4494 186.342 91.6423 185.368 91.6423C183.797 91.6423 182.319 96.6135 181.193 100.992C180.067 105.371 179.833 109.87 180.643 111.397Z" fill="url(#paint8_linear_31_1929)"/>
<path fill-rule="evenodd" clip-rule="evenodd" d="M183.54 111.878C184.351 113.404 187.431 113.404 189.842 112.782C192.254 112.16 194.11 111.721 195.18 108.188C196.25 104.656 198.083 96.9121 195.691 94.8623C193.3 92.8125 190.321 91.848 188.75 91.848C187.179 91.848 185.701 96.8192 184.575 101.198C183.449 105.576 182.73 110.351 183.54 111.878Z" fill="url(#paint9_linear_31_1929)"/>
<path d="M171.355 128.277C172.289 128.277 173.046 127.574 173.046 126.707C173.046 125.84 172.289 125.137 171.355 125.137C170.42 125.137 169.663 125.84 169.663 126.707C169.663 127.574 170.42 128.277 171.355 128.277Z" fill="white"/>
<path d="M176.41 129.407C177.344 129.407 178.102 128.704 178.102 127.837C178.102 126.97 177.344 126.266 176.41 126.266C175.476 126.266 174.719 126.97 174.719 127.837C174.719 128.704 175.476 129.407 176.41 129.407Z" fill="white"/>
<path d="M181.504 128.277C182.438 128.277 183.195 127.574 183.195 126.707C183.195 125.84 182.438 125.137 181.504 125.137C180.57 125.137 179.812 125.84 179.812 126.707C179.812 127.574 180.57 128.277 181.504 128.277Z" fill="white"/>
<path d="M120.132 147.316C133.377 150.938 145.106 150.995 161.931 148.46C178.757 145.925 179.813 140.464 179.813 137.145C179.813 133.826 173.853 130.897 164.902 133.23C155.951 135.563 139.252 136.694 124.95 132.87C110.648 129.047 101.904 119.917 97.8356 116.39C93.767 112.863 89.5597 120.693 93.9381 128.697C98.3165 136.7 106.888 143.694 120.132 147.316Z" fill="url(#paint10_linear_31_1929)"/>
<path d="M139.512 135.171C140.536 135.238 141.556 135.287 142.568 135.319L142.228 150.218C140.978 150.225 139.746 150.207 138.528 150.163L139.512 135.171ZM143.605 135.347C144.647 135.368 145.679 135.373 146.698 135.362L147.129 150.066C145.887 150.133 144.669 150.179 143.468 150.202L143.605 135.347ZM135.612 134.829C136.617 134.94 137.622 135.033 138.623 135.108L137.44 150.117C136.187 150.055 134.947 149.965 133.714 149.846L135.612 134.829ZM150.869 135.225L151.976 149.702C150.746 149.818 149.541 149.915 148.357 149.992L147.747 135.344C148.806 135.321 149.848 135.281 150.869 135.225ZM131.636 134.289C132.617 134.448 133.603 134.588 134.589 134.709L132.434 149.712C131.185 149.57 129.942 149.398 128.698 149.195L131.636 134.289ZM155.056 134.901L156.759 149.176C155.541 149.328 154.35 149.464 153.181 149.584L151.918 135.162C152.991 135.091 154.039 135.003 155.056 134.901ZM159.258 134.37L161.497 148.525C160.292 148.704 159.113 148.87 157.959 149.022L156.116 134.788C156.932 134.696 157.726 134.593 158.496 134.483L159.258 134.37ZM127.746 133.55C128.702 133.76 129.666 133.949 130.634 134.12L127.42 148.976C126.182 148.753 124.941 148.498 123.692 148.212L127.746 133.55ZM163.431 133.587L166.17 147.693C165.094 147.925 163.933 148.143 162.682 148.343L160.31 134.199C161.415 134.011 162.459 133.806 163.431 133.587ZM123.964 132.596C124.29 132.69 124.618 132.782 124.95 132.87C125.554 133.032 126.164 133.185 126.776 133.329L122.427 147.912C121.666 147.725 120.902 147.527 120.132 147.317C119.656 147.186 119.186 147.052 118.722 146.913L123.964 132.596ZM167.594 132.668L170.729 146.474C169.713 146.811 168.584 147.131 167.329 147.431L164.47 133.34L164.902 133.23C165.833 132.987 166.731 132.802 167.594 132.668ZM120.306 131.384C121.186 131.713 122.091 132.024 123.02 132.313L117.467 146.522C116.211 146.117 115.002 145.679 113.839 145.212L120.306 131.384ZM168.67 132.524C169.84 132.395 170.936 132.363 171.95 132.413L175.085 144.583C174.188 145.101 173.122 145.603 171.856 146.077L168.67 132.524ZM116.796 129.92C117.64 130.309 118.509 130.683 119.406 131.038L112.63 144.709C111.417 144.187 110.256 143.631 109.146 143.046L116.796 129.92ZM173.093 132.508C174.506 132.673 175.728 133.007 176.727 133.46L178.892 141.034C178.345 141.997 177.48 142.982 176.118 143.929L173.093 132.508ZM113.42 128.217C114.228 128.661 115.063 129.093 115.928 129.511L107.998 142.419C106.854 141.772 105.768 141.093 104.739 140.383L113.42 128.217ZM110.222 126.321C110.997 126.815 111.803 127.304 112.642 127.782L103.753 139.681C102.706 138.912 101.722 138.111 100.803 137.282L110.222 126.321ZM178.115 134.265C179.216 135.083 179.814 136.095 179.814 137.145C179.814 137.792 179.773 138.519 179.585 139.29L178.115 134.265ZM107.065 124.166C107.807 124.706 108.586 125.249 109.401 125.788L99.8505 136.392C98.935 135.505 98.0883 134.589 97.3095 133.649L107.065 124.166ZM104.012 121.807C104.724 122.387 105.48 122.984 106.282 123.586L96.525 132.664C95.7675 131.674 95.0831 130.661 94.4697 129.629L104.012 121.807ZM101.033 119.259C101.713 119.864 102.454 120.51 103.257 121.182L93.8659 128.564C93.2533 127.419 92.8152 126.279 92.5263 125.177L101.033 119.259ZM92.2235 120.026L98.0427 116.571L98.6194 117.084C99.1223 117.536 99.6809 118.045 100.296 118.6L92.2652 123.969C92.0226 122.54 92.0288 121.2 92.2235 120.026ZM92.5985 118.541C93.4619 116.077 95.2889 114.823 97.1871 115.923L92.5985 118.541Z" fill="url(#paint11_linear_31_1929)"/>
<path opacity="0.506906" fill-rule="evenodd" clip-rule="evenodd" d="M104.739 131.384L105.759 132.017C113.507 136.75 145.34 154.4 179.785 136.76C179.804 136.887 179.813 137.016 179.813 137.145L179.807 137.562C179.701 140.904 178.069 146.028 161.931 148.46L160.115 148.726C144.251 150.985 132.895 150.806 120.132 147.316C109.696 144.462 102.162 139.515 97.2937 133.63C99.5376 130.422 102.019 129.674 104.739 131.384Z" fill="#262626"/>
<path d="M165.152 183.755C176.363 183.755 185.451 175.319 185.451 164.913C185.451 154.508 176.363 146.072 165.152 146.072C153.942 146.072 144.854 154.508 144.854 164.913C144.854 175.319 153.942 183.755 165.152 183.755Z" fill="url(#paint12_linear_31_1929)"/>
<path fill-rule="evenodd" clip-rule="evenodd" d="M14.4873 34.2122L16.3812 97.2761L125.5 94.7784L133.726 48.9243L86.2355 0L14.4873 34.2122Z" fill="url(#paint13_linear_31_1929)"/>
<path opacity="0.365513" fill-rule="evenodd" clip-rule="evenodd" d="M86.2373 0L133.727 48.9243L125.502 94.7784L82.2026 95.7691L86.2373 0Z" fill="#262626"/>
<path d="M120.299 136.01L131.384 84.8554L81.8883 58.1658L0 80.2958L3.36909 138.044L31.8804 148.18L120.299 136.01Z" fill="url(#paint14_linear_31_1929)"/>
<path opacity="0.365513" fill-rule="evenodd" clip-rule="evenodd" d="M81.8876 58.1658L131.383 84.8554L120.299 136.01L81.8872 141.297L81.8876 58.1658Z" fill="#262626"/>
<path fill-rule="evenodd" clip-rule="evenodd" d="M95.3179 121.132L86.617 146.298C72.2221 148.259 54.4195 148.901 33.2096 148.224L31.8796 148.18L3.36792 138.044L95.3179 121.132Z" fill="url(#paint15_linear_31_1929)"/>
<path d="M14.4873 136.044C18.8924 167.607 22.9707 191.342 26.7225 207.25C48.7626 207.25 79.1941 207.25 118.018 207.25L137.839 141.53L95.3203 121.131L14.4873 136.044Z" fill="url(#paint16_linear_31_1929)"/>
<path d="M21.5307 198.408C29.0043 198.408 35.063 192.784 35.063 185.847C35.063 178.91 29.0043 173.286 21.5307 173.286C14.0566 173.286 7.99829 178.91 7.99829 185.847C7.99829 192.784 14.0566 198.408 21.5307 198.408Z" fill="url(#paint17_linear_31_1929)"/>
<path d="M26.6051 174.199C31.5641 176.062 35.0618 180.575 35.0618 185.846C35.0618 191.117 31.5641 195.63 26.6051 197.494C21.645 195.631 18.1465 191.118 18.1465 185.846C18.1465 180.728 21.4445 176.325 26.1756 174.367L26.6051 174.199Z" fill="url(#paint18_linear_31_1929)"/>
<path opacity="0.365513" fill-rule="evenodd" clip-rule="evenodd" d="M95.3193 121.131L137.838 141.53L118.017 207.25L101.152 207.249L95.3193 121.131Z" fill="#262626"/>
<path fill-rule="evenodd" clip-rule="evenodd" d="M171.35 175.858C166.294 183.878 159.291 191.383 135.157 204.308C119.198 212.854 106.913 214.531 98.3037 209.34C98.1635 209.256 98.0059 209.198 97.8418 209.17C93.7484 208.461 91.1758 206.102 90.1236 202.092C89.0753 198.097 89.6705 194.586 91.9086 191.558C92.016 191.413 92.0866 191.247 92.1191 191.074C92.8658 187.08 96.6095 184.041 103.35 181.955C113.684 178.757 134.171 170.922 142.352 164.913C150.532 158.904 159.359 152.675 167.29 155.134C175.22 157.594 176.406 167.839 171.35 175.858Z" fill="url(#paint19_linear_31_1929)"/>
<path opacity="0.2" fill-rule="evenodd" clip-rule="evenodd" d="M171.353 175.86L170.893 176.58C165.862 184.334 158.571 191.772 135.16 204.309C119.07 212.925 106.715 214.559 98.0951 209.212C93.8565 208.557 91.2005 206.184 90.1271 202.093C90.0788 201.91 90.0344 201.728 89.9934 201.547C111.055 196.506 127.702 190.108 139.938 182.353C154.953 172.836 165.801 162.737 170.558 156.852C175.442 160.788 175.607 169.112 171.353 175.86Z" fill="#262626"/>
<path opacity="0.2" fill-rule="evenodd" clip-rule="evenodd" d="M101.656 198.063C103.084 203.39 102.656 207.51 100.372 210.423C99.584 210.068 98.8246 209.664 98.0918 209.209C93.8532 208.555 91.1972 206.182 90.1237 202.09C89.0503 197.999 89.7004 194.414 92.0744 191.337C92.2007 190.507 92.4541 189.718 92.8342 188.969C97.2022 189.389 100.143 192.42 101.656 198.063Z" fill="#262626"/>
<path d="M92.0743 191.339C95.623 191.557 98.0383 194.061 99.3196 198.849C100.562 203.492 100.215 206.881 98.2782 209.015L98.0916 209.211C93.853 208.556 91.197 206.184 90.1236 202.092C89.0857 198.137 89.6589 194.656 91.8425 191.649L92.0743 191.339Z" fill="url(#paint20_linear_31_1929)"/>
<defs>
<linearGradient id="paint0_linear_31_1929" x1="36.4152" y1="187.731" x2="56.5649" y2="279.697" gradientUnits="userSpaceOnUse">
<stop stop-color="#5DF1D7"/>
<stop offset="1" stop-color="#128698"/>
</linearGradient>
<linearGradient id="paint1_linear_31_1929" x1="32.4587" y1="126.688" x2="72.559" y2="257.887" gradientUnits="userSpaceOnUse">
<stop stop-color="#5DF1D7"/>
<stop offset="1" stop-color="#128698"/>
</linearGradient>
<linearGradient id="paint2_linear_31_1929" x1="122.457" y1="182.682" x2="114.701" y2="223.949" gradientUnits="userSpaceOnUse">
<stop stop-color="#042635"/>
<stop offset="1" stop-color="#06565B"/>
</linearGradient>
<linearGradient id="paint3_linear_31_1929" x1="100.103" y1="209.522" x2="96.5974" y2="236.804" gradientUnits="userSpaceOnUse">
<stop stop-color="#042635"/>
<stop offset="1" stop-color="#06565B"/>
</linearGradient>
<linearGradient id="paint4_linear_31_1929" x1="57.7083" y1="59.9244" x2="86.8667" y2="171.051" gradientUnits="userSpaceOnUse">
<stop stop-color="#5DF1D7"/>
<stop offset="1" stop-color="#128698"/>
</linearGradient>
<linearGradient id="paint5_linear_31_1929" x1="140.721" y1="61.1331" x2="152.62" y2="74.3607" gradientUnits="userSpaceOnUse">
<stop stop-color="#042635"/>
<stop offset="1" stop-color="#001431"/>
</linearGradient>
<linearGradient id="paint6_linear_31_1929" x1="142.04" y1="56.6954" x2="146.594" y2="67.391" gradientUnits="userSpaceOnUse">
<stop stop-color="#042635"/>
<stop offset="1" stop-color="#001431"/>
</linearGradient>
<linearGradient id="paint7_linear_31_1929" x1="111.613" y1="91.8022" x2="92.3763" y2="165.533" gradientUnits="userSpaceOnUse">
<stop stop-color="#042635"/>
<stop offset="1" stop-color="#06565B"/>
</linearGradient>
<linearGradient id="paint8_linear_31_1929" x1="183.018" y1="98.7992" x2="174.987" y2="116.886" gradientUnits="userSpaceOnUse">
<stop stop-color="#042635"/>
<stop offset="1" stop-color="#06565B"/>
</linearGradient>
<linearGradient id="paint9_linear_31_1929" x1="178.21" y1="93.1169" x2="188.97" y2="116.662" gradientUnits="userSpaceOnUse">
<stop stop-color="#5DF1D7"/>
<stop offset="1" stop-color="#128698"/>
</linearGradient>
<linearGradient id="paint10_linear_31_1929" x1="124.251" y1="130.417" x2="143.038" y2="150.136" gradientUnits="userSpaceOnUse">
<stop stop-color="#042635"/>
<stop offset="1" stop-color="#001431"/>
</linearGradient>
<linearGradient id="paint11_linear_31_1929" x1="122.792" y1="133.026" x2="78.7823" y2="105.358" gradientUnits="userSpaceOnUse">
<stop stop-color="#2D8B67"/>
<stop offset="1" stop-color="#123635"/>
</linearGradient>
<linearGradient id="paint12_linear_31_1929" x1="153.558" y1="158.697" x2="144.4" y2="194.435" gradientUnits="userSpaceOnUse">
<stop stop-color="#042635"/>
<stop offset="1" stop-color="#06565B"/>
</linearGradient>
<linearGradient id="paint13_linear_31_1929" x1="-40.4375" y1="49.8974" x2="64.8605" y2="138.808" gradientUnits="userSpaceOnUse">
<stop stop-color="#356FA8"/>
<stop offset="1" stop-color="#183C6F"/>
</linearGradient>
<linearGradient id="paint14_linear_31_1929" x1="-24.2121" y1="161.938" x2="147.587" y2="0.329333" gradientUnits="userSpaceOnUse">
<stop stop-color="#52EFFF"/>
<stop offset="1" stop-color="#F2FDFF"/>
</linearGradient>
<linearGradient id="paint15_linear_31_1929" x1="23.0826" y1="130.296" x2="20.8274" y2="157.755" gradientUnits="userSpaceOnUse">
<stop stop-color="#042635"/>
<stop offset="1" stop-color="#06565B"/>
</linearGradient>
<linearGradient id="paint16_linear_31_1929" x1="-42.3321" y1="165.305" x2="52.2169" y2="258.594" gradientUnits="userSpaceOnUse">
<stop stop-color="#356FA8"/>
<stop offset="1" stop-color="#183C6F"/>
</linearGradient>
<linearGradient id="paint17_linear_31_1929" x1="-22.631" y1="185.909" x2="35.3887" y2="213.048" gradientUnits="userSpaceOnUse">
<stop stop-color="#5DF1D7"/>
<stop offset="1" stop-color="#128698"/>
</linearGradient>
<linearGradient id="paint18_linear_31_1929" x1="21.7732" y1="182.004" x2="13.9526" y2="202.573" gradientUnits="userSpaceOnUse">
<stop stop-color="#042635" stop-opacity="0"/>
<stop offset="0.786458" stop-color="#065258" stop-opacity="0.921875"/>
<stop offset="1" stop-color="#06565B"/>
</linearGradient>
<linearGradient id="paint19_linear_31_1929" x1="58.7168" y1="158.018" x2="73.4883" y2="232.086" gradientUnits="userSpaceOnUse">
<stop stop-color="#5DF1D7"/>
<stop offset="1" stop-color="#128698"/>
</linearGradient>
<linearGradient id="paint20_linear_31_1929" x1="91.8576" y1="197.327" x2="84.8736" y2="212.084" gradientUnits="userSpaceOnUse">
<stop stop-color="#042635"/>
<stop offset="1" stop-color="#06565B"/>
</linearGradient>
</defs>
</svg>
