<svg width="157" height="114" viewBox="0 0 157 114" fill="none" xmlns="http://www.w3.org/2000/svg">
<g clip-path="url(#clip0_34_211)">
<path d="M90 79C90.3594 84.9272 93.4067 96.8563 102.721 97.1562C114.363 97.5313 119.661 90.6562 133.706 93.9063C144.942 96.5063 147.238 107.719 146.981 113" stroke="url(#paint0_linear_34_211)" stroke-width="18.6517"/>
<path d="M90 79C90.3594 84.9272 93.4067 96.8563 102.721 97.1562C114.363 97.5313 119.661 90.6562 133.706 93.9063C144.942 96.5063 147.238 107.719 146.981 113" stroke="url(#paint1_linear_34_211)" stroke-width="18.6517" stroke-dasharray="8.61 8.42"/>
<path d="M30.4647 53.8008C35.2876 59.8943 42.7081 65.5629 46.2537 67.9403C46.4759 68.0893 46.7666 67.9443 46.8027 67.6717L48.9965 51.1052C49.0164 50.9544 48.9513 50.808 48.8261 50.7299C44.7607 48.1908 36.2621 42.6781 33.1925 39.9317C29.2905 36.4405 23.245 34.0934 22.2033 38.1073C21.1617 42.1215 24.1536 45.8268 30.4647 53.8008Z" fill="url(#paint2_linear_34_211)"/>
<path opacity="0.2" d="M33.0081 39C32.8547 43.2877 34.8188 52.2027 43.8405 63.7195C44.986 65.1815 45.9975 66.2576 46.8888 67L49 50.517C45.1516 48.039 36.7002 42.3845 33.6802 39.5914C33.4626 39.39 33.2382 39.1927 33.0081 39Z" fill="#262626"/>
<path d="M27 36.0414C26.5284 38.6538 24.1621 40.2204 22.1477 41C21.9171 40.0365 21.9549 39.1123 22.2725 38.1716C22.87 36.401 24.6965 35.8316 27 36.0414Z" fill="url(#paint3_linear_34_211)"/>
<path d="M98.2364 82.7587C97.1526 84.3243 94.234 85.3379 91.4988 85.9305C89.416 86.3821 87.6884 84.5634 88.0475 82.5137L89.5721 73.8114C89.7823 72.6124 90.6758 71.635 91.8743 71.2942L95.9685 70.1293C98.0137 69.5473 100.066 71.0007 99.9984 73.0758C99.8787 76.728 99.4307 81.0327 98.2364 82.7587Z" fill="url(#paint4_linear_34_211)"/>
<path d="M47.74 70C45.3482 68.466 41.6585 62.2873 46.0343 49.8466C50.4101 37.406 48.9947 58.0988 47.74 70Z" fill="url(#paint5_linear_34_211)"/>
<path d="M44.2863 102.189C45.2507 95.2247 48.3795 86.8724 49.9677 83.2206C50.0519 83.0266 50.2656 82.9442 50.4452 83.0401C57.4095 86.7604 70.1238 94.4408 67.6964 96.7483C64.6143 99.6779 53.0077 113.069 49.5323 113C46.0569 112.93 43.0405 111.186 44.2863 102.189Z" fill="url(#paint6_linear_34_211)"/>
<path opacity="0.3" d="M48 88.2401C48.8109 86.0421 49.5808 84.1965 50.1254 83C57.0095 86.5665 70.1616 94.272 67.6964 96.5618C66.9905 97.2177 65.8371 98.4101 64.4365 99.8578C63.227 101.108 61.8329 102.549 60.3837 104C53.0016 99.5655 49.369 92.7245 48 88.2401Z" fill="url(#paint7_linear_34_211)"/>
<path opacity="0.3" d="M44.4264 109C43.9495 107.403 43.8378 105.115 44.2702 101.862C45.1804 95.0169 48.1334 86.8065 49.6323 83.2167C49.7118 83.0261 49.9135 82.9451 50.083 83.0395C51.5293 83.8442 53.2383 84.8373 55 85.9211C49.9725 92.9796 46.1754 103.188 44.4264 109Z" fill="url(#paint8_linear_34_211)"/>
<path d="M73.8118 107.806C67.2851 103.055 63.339 94.7386 62.0208 90.7381C61.9422 90.4997 62.0957 90.2512 62.3285 90.2286L85.4535 88.0016C85.626 87.9849 85.7851 88.1026 85.8362 88.2819C86.7237 91.3825 88.9907 96.7287 90.7249 99.3988C93.2454 103.279 96.8269 108.237 93.9086 111.112C90.9198 114.056 82.3016 113.986 73.8118 107.806Z" fill="url(#paint9_linear_34_211)"/>
<path opacity="0.3" d="M89 96.162C82.3272 101.284 72.5099 100.347 66.3561 98.666C64.0734 95.3266 62.6185 92.0344 62 90.1249L85.5315 88C86.1311 90.091 87.5732 93.5017 89 96.162Z" fill="url(#paint10_linear_34_211)"/>
<path opacity="0.3" d="M85 113C74.8863 106.359 69.7233 96.5102 67.9596 91L62 91.5564C63.1288 95.1595 67.0537 103.543 73.7226 108.249C77.651 111.022 81.6073 112.502 85 113Z" fill="url(#paint11_linear_34_211)"/>
<path d="M94.6681 107C95.2097 108.711 95.1672 110.292 93.946 111.495C93.2523 112.179 92.2446 112.694 91 113C91.2198 110.841 92.0542 108.018 94.6681 107Z" fill="url(#paint12_linear_34_211)"/>
<path d="M47.7185 83.9045C44.2102 75.2375 46.8654 62.5662 48.7014 57.0737C48.7501 56.9288 48.8782 56.8348 49.0264 56.8287L92.6223 55.0003C92.8309 54.9915 93.0038 55.1589 92.9999 55.3749C92.8462 63.9618 91.946 81.7356 89.4869 87.2019C86.366 94.1401 78.8624 98.2617 70.4289 97.9871C61.9957 97.7123 52.1678 94.8957 47.7185 83.9045Z" fill="url(#paint13_linear_34_211)"/>
<path opacity="0.2" d="M62.4024 96.6763C57.3172 85.2139 59.0181 69.3393 60.5928 62.5536L61.1366 56.3604L93 55C92.8696 63.4235 91.9959 81.6574 89.5441 87.2059C86.4796 94.1415 79.1112 98.2616 70.8302 97.9871C68.0906 97.896 65.2011 97.5271 62.4024 96.6763Z" fill="#262626"/>
<path opacity="0.2" d="M76.3686 58.1283C74.3671 61.3894 67.9135 41.7526 61.7219 50.0721C53.9811 60.4734 73.9553 87 89.4746 87C91.9239 81.6027 92.834 64.1572 93 55.5242L76.3686 58.1283Z" fill="#262626"/>
<path opacity="0.3" d="M57.0771 66.8776C55.6567 65.3063 53.7671 61.1721 53 59.3014C59.9485 58.3193 73.451 56.9444 71.8729 59.3014C70.2945 61.6584 66.5682 66.0825 64.9024 68L57.0771 66.8776Z" fill="url(#paint14_linear_34_211)"/>
<path d="M48.3734 58.6796C45.8861 55.4505 47.3369 52.1969 48.3734 50.9737C62.1839 48.8453 90.7785 44.9264 94.6715 46.2767C99.538 47.9646 98.6593 54.79 94.6715 57.1385C90.6839 59.4867 82.9113 61.982 72.2322 63.5232C61.5532 65.0645 51.4825 62.7161 48.3734 58.6796Z" fill="url(#paint15_linear_34_211)"/>
<path d="M75.4719 63.0056C74.7586 58.9093 74.2159 54.7168 73.9872 52.6678C71.5399 51.125 66.1697 49.0977 64.2664 53.3289C62.9319 56.2954 63.413 60.6391 64.2103 64C60.162 63.8896 56.4749 63.2351 53.5689 62.1817C52.5233 57.3306 53.1264 53.3591 53.7297 51.6394L56.765 49.7001C71.4928 47.6108 91.439 45.1677 94.6524 46.277C99.4147 47.921 98.7066 54.4325 94.9706 56.9485C94.1503 52.2057 92.5201 48.7623 91.5935 47.379C87.8093 47.1096 80.4315 47.0556 81.1928 48.9949C81.7889 50.5129 83.5624 56.3914 84.9024 60.9288C82.1517 61.6916 78.9957 62.3996 75.4719 63.0056Z" fill="url(#paint16_linear_34_211)"/>
<path d="M85.4234 54.5433C79.3312 59.7895 77.8949 62.9548 79.7653 65.8691C80.4335 67.4859 84.5026 71.8082 86.8127 72.8869C90.721 74.7122 100.119 75.5144 102.658 65.2677C105.196 55.0213 93.0388 47.9855 85.4234 54.5433Z" fill="url(#paint17_linear_34_211)"/>
<path opacity="0.3" d="M82 95.9676C78.7756 97.3896 75.0552 98.1066 71.1462 97.9872C63.272 97.7468 54.2489 95.5443 49 87.5433C50.6075 85.9095 53.3373 83.7874 56.3888 83.2729C61.2376 82.4555 71.4975 83.6135 73.6057 84.9077C74.2781 85.3207 74.6791 86.1357 75.2439 87.2843C76.2283 89.2863 77.711 92.3018 82 95.9676Z" fill="url(#paint18_linear_34_211)"/>
<path d="M51 112.218C50.2374 112.724 49.5906 113.01 49.1083 113C46.7303 112.948 44.5782 111.999 44 108C46.1538 108.152 49.0188 109.156 51 112.218Z" fill="url(#paint19_linear_34_211)"/>
<path d="M42.1558 27.4768C41.1886 37.2468 44.9585 44.3168 47.0044 46.6851C47.0325 46.7179 47.0643 46.743 47.1016 46.7633C51.1556 48.9854 56.2009 52.3031 68.5292 54.3051C80.8421 56.3045 88.9844 53.4752 92.7345 52.2607C92.7791 52.2462 92.8187 52.2236 92.8547 52.1924C103.124 43.3407 103.033 23.4384 96.2052 13.7661C89.3651 4.07685 77.9963 -2.01169 65.2863 0.610855C52.5766 3.23318 43.373 15.1813 42.1558 27.4768Z" fill="url(#paint20_linear_34_211)"/>
<path d="M52.4657 54.1611C50.0706 53.3657 48.0655 51.6267 46.7624 49.3635C43.1765 43.1351 41.3735 35.6586 42.197 27.388C42.7644 21.6886 45.0649 16.0638 48.6458 11.4161C50.9611 13.0203 53.6324 14.111 56.3903 13.8236C59.0492 13.5463 61.488 12.9927 63.885 12.4485C68.6363 11.37 73.2233 10.3286 79.0352 11.5511C87.7794 13.3906 90.7034 25.4842 88.0646 37.3594C86.4349 44.6926 82.083 51.0143 78.7675 54.7647C70.946 56.1756 60.5589 56.8488 52.4657 54.1611Z" fill="url(#paint21_linear_34_211)"/>
<path fill-rule="evenodd" clip-rule="evenodd" d="M49.3385 17.2204C48.6848 16.7867 47.8285 17.013 47.4261 17.7247C45.6822 20.8145 44.5454 24.3365 44.0146 28.2797C43.9043 29.1057 44.4296 29.8685 45.1887 29.985C45.949 30.1015 46.654 29.5267 46.7655 28.7007C47.2428 25.1544 48.2534 22.0231 49.7936 19.2943C50.1958 18.5824 49.9923 17.653 49.3385 17.2204Z" fill="url(#paint22_linear_34_211)"/>
<path fill-rule="evenodd" clip-rule="evenodd" d="M46.2774 35.9896C45.1839 36.0862 44.173 35.4979 44.0196 34.6752C43.8664 33.8522 44.6288 33.107 45.7226 33.0104C46.8161 32.9136 47.827 33.502 47.9804 34.3249C48.1336 35.1478 47.3708 35.8928 46.2774 35.9896Z" fill="url(#paint23_linear_34_211)"/>
<path d="M55 4.55151C56.6944 5.74754 59.452 6.95095 63.3001 6.99911C66.2797 7.03643 68.7558 5.89485 71.3696 4.6897C74.3963 3.2943 77.6079 1.81363 82 1.97981C76.8401 0.0476733 71.0564 -0.57909 64.9756 0.586354C61.34 1.28319 57.9823 2.6658 55 4.55151Z" fill="url(#paint24_linear_34_211)"/>
<path d="M71 0C66.0833 1.60413 62.3146 4.74806 60.2817 7C57.9696 6.54336 56.2124 5.64571 55 4.75191C57.9817 2.7831 61.3394 1.33957 64.9746 0.612023C67.0208 0.202497 69.0335 0.00498317 71 0Z" fill="url(#paint25_linear_34_211)"/>
<path d="M91.2305 38.2887C91.9404 36.2034 92.5527 33.8094 93.0096 31.7586C93.4212 29.9104 95.1481 28.6879 96.9225 29.07L103.103 30.4008C103.543 30.4956 103.884 30.8655 103.927 31.3337C104.386 36.2868 102.551 42.5508 101.922 44.5694L98.1935 46L92.8503 43.0758C91.2411 42.1953 90.6208 40.0801 91.2305 38.2887Z" fill="url(#paint26_linear_34_211)"/>
<path d="M103.892 31.054C103.919 31.1415 103.938 31.2337 103.945 31.3289C104.295 35.6445 102.88 40.9206 102.163 43.2945C102.075 43.5867 101.893 43.833 101.653 44L95.7273 40.3805C95.1339 40.018 94.8684 39.2734 95.0631 38.5896C95.6163 36.6458 96.3662 33.5412 96.8254 31.1653C96.964 30.4478 97.5676 29.9264 98.2698 30.0085C99.8138 30.1891 102.004 30.6181 103.892 31.054Z" fill="url(#paint27_linear_34_211)"/>
<path fill-rule="evenodd" clip-rule="evenodd" d="M36.3424 12.1574C36.7106 11.8874 37.2237 11.9734 37.4882 12.3495L65.846 52.6732C66.1103 53.0491 66.026 53.5727 65.6578 53.8428C65.2893 54.1126 64.7763 54.0265 64.5119 53.6505L36.1542 13.327C35.8896 12.9509 35.9739 12.4272 36.3424 12.1574Z" fill="url(#paint28_linear_34_211)"/>
<path d="M32.1835 27.7485C31.1742 19.4343 34.5735 15.1186 36.3993 14L44 25.305C41.9998 27.6507 40.9535 32.0163 40.3073 39.0535C39.7902 44.6831 35.4556 48.6968 33.3529 50C34.522 45.0805 33.4451 38.1412 32.1835 27.7485Z" fill="url(#paint29_linear_34_211)"/>
<path d="M83.9093 71.3862C75.5263 69.3934 65.5768 62.0862 62.5241 59.1316C59.4716 56.1767 56.7105 49.227 58.641 46.0619C60.2642 43.4007 64.1761 41.8972 67.7543 43.9725C71.3324 46.0476 81.8291 52.9372 88.0468 56.1175C94.2647 59.2979 96.7902 61.0081 96.9902 64.612C97.1902 68.2156 94.388 73.8772 83.9093 71.3862Z" fill="url(#paint30_linear_34_211)"/>
<path opacity="0.2" d="M58.1998 47C60.9207 51.7093 66.7697 59.1578 75.5953 63.4878C82.7837 67.0142 89.4407 68.8533 94 69.7039C92.1772 71.6253 88.8217 72.7798 83.1445 71.384C75.0092 69.3842 65.3531 62.0508 62.3906 59.0854C59.7171 56.4094 57.2742 50.4686 58.1998 47Z" fill="#262626"/>
<path d="M58.2323 50C57.8647 48.3175 57.9013 46.7353 58.5743 45.6557C59.4627 44.23 61.1166 43.1835 63 43C62.7038 45.2943 61.4921 48.3873 58.2323 50Z" fill="url(#paint31_linear_34_211)"/>
<path d="M73.8519 62.5348C73.5425 63.2323 74.1406 64.1991 75.1878 64.6941C76.2349 65.1892 77.3346 65.0251 77.644 64.3276C77.9533 63.6301 77.3552 62.6634 76.3081 62.1683C75.2609 61.6733 74.1612 61.8374 73.8519 62.5348Z" fill="url(#paint32_linear_34_211)"/>
<path fill-rule="evenodd" clip-rule="evenodd" d="M5.3821 8.12441C5.76213 7.88428 6.26211 8.00225 6.49874 8.38791L31.8774 49.7426C32.114 50.1282 31.9978 50.6354 31.6177 50.8755C31.2377 51.1157 30.7379 50.9979 30.5013 50.6122L5.12266 9.25758C4.88603 8.87192 5.00206 8.36454 5.3821 8.12441Z" fill="url(#paint33_linear_34_211)"/>
<path d="M0.204624 23.1589C-0.272828 14.9591 3.275 10.9697 5.10849 10L14 25.4314C11.924 27.5895 8.43298 27.9293 7.38554 34.7674C6.54729 40.2379 2.11256 43.8686 0 45C1.42653 40.2684 0.801232 33.4085 0.204624 23.1589Z" fill="url(#paint34_linear_34_211)"/>
</g>
<defs>
<linearGradient id="paint0_linear_34_211" x1="156.406" y1="172.594" x2="142.012" y2="68.4152" gradientUnits="userSpaceOnUse">
<stop stop-color="#00A5FF" stop-opacity="0"/>
<stop offset="0.416977" stop-color="#2DB4FF" stop-opacity="0.13"/>
<stop offset="1" stop-color="#6CCAFF"/>
</linearGradient>
<linearGradient id="paint1_linear_34_211" x1="95.6471" y1="125.946" x2="157.914" y2="119.269" gradientUnits="userSpaceOnUse">
<stop stop-color="#121E2F" stop-opacity="0"/>
<stop offset="1" stop-color="#162D3E"/>
</linearGradient>
<linearGradient id="paint2_linear_34_211" x1="13.1002" y1="40.9324" x2="39.6669" y2="76.3085" gradientUnits="userSpaceOnUse">
<stop stop-color="#5DF1D7"/>
<stop offset="1" stop-color="#128698"/>
</linearGradient>
<linearGradient id="paint3_linear_34_211" x1="22.6371" y1="37.9866" x2="22.5838" y2="42.2002" gradientUnits="userSpaceOnUse">
<stop stop-color="#042635"/>
<stop offset="1" stop-color="#06565B"/>
</linearGradient>
<linearGradient id="paint4_linear_34_211" x1="64.9531" y1="68.9812" x2="93.1811" y2="89.1836" gradientUnits="userSpaceOnUse">
<stop stop-color="#77CEFF"/>
<stop offset="0.854221" stop-color="#20B0FF"/>
<stop offset="1" stop-color="#1070A5"/>
</linearGradient>
<linearGradient id="paint5_linear_34_211" x1="45.072" y1="54.041" x2="33.4096" y2="62.8417" gradientUnits="userSpaceOnUse">
<stop stop-color="#042635"/>
<stop offset="1" stop-color="#06565B"/>
</linearGradient>
<linearGradient id="paint6_linear_34_211" x1="35.2498" y1="84.6617" x2="48.2806" y2="120.087" gradientUnits="userSpaceOnUse">
<stop stop-color="#5DF1D7"/>
<stop offset="1" stop-color="#128698"/>
</linearGradient>
<linearGradient id="paint7_linear_34_211" x1="53.6931" y1="70.9367" x2="34.9554" y2="82.3221" gradientUnits="userSpaceOnUse">
<stop stop-color="#165B7A"/>
<stop offset="1" stop-color="#001431"/>
</linearGradient>
<linearGradient id="paint8_linear_34_211" x1="47.1312" y1="68.0646" x2="33.9788" y2="71.6148" gradientUnits="userSpaceOnUse">
<stop stop-color="#165B7A"/>
<stop offset="1" stop-color="#001431"/>
</linearGradient>
<linearGradient id="paint9_linear_34_211" x1="49.7953" y1="89.4626" x2="56.844" y2="121.307" gradientUnits="userSpaceOnUse">
<stop stop-color="#5DF1D7"/>
<stop offset="1" stop-color="#128698"/>
</linearGradient>
<linearGradient id="paint10_linear_34_211" x1="69.6857" y1="81.1065" x2="58.3692" y2="97.3511" gradientUnits="userSpaceOnUse">
<stop stop-color="#165B7A"/>
<stop offset="1" stop-color="#001431"/>
</linearGradient>
<linearGradient id="paint11_linear_34_211" x1="68.5472" y1="78.3624" x2="48.1274" y2="91.9822" gradientUnits="userSpaceOnUse">
<stop stop-color="#165B7A"/>
<stop offset="1" stop-color="#001431"/>
</linearGradient>
<linearGradient id="paint12_linear_34_211" x1="91.8576" y1="109.01" x2="89.7139" y2="114.186" gradientUnits="userSpaceOnUse">
<stop stop-color="#042635"/>
<stop offset="1" stop-color="#06565B"/>
</linearGradient>
<linearGradient id="paint13_linear_34_211" x1="28.8618" y1="57.5442" x2="43.2233" y2="111.109" gradientUnits="userSpaceOnUse">
<stop stop-color="#5DF1D7"/>
<stop offset="1" stop-color="#128698"/>
</linearGradient>
<linearGradient id="paint14_linear_34_211" x1="58.4084" y1="52.2555" x2="48.5386" y2="64.2199" gradientUnits="userSpaceOnUse">
<stop stop-color="#165B7A"/>
<stop offset="1" stop-color="#001431"/>
</linearGradient>
<linearGradient id="paint15_linear_34_211" x1="57.9346" y1="52.0308" x2="56.1787" y2="70.0513" gradientUnits="userSpaceOnUse">
<stop stop-color="#042635"/>
<stop offset="1" stop-color="#06565B"/>
</linearGradient>
<linearGradient id="paint16_linear_34_211" x1="68.7526" y1="55.0807" x2="46.0351" y2="40.9596" gradientUnits="userSpaceOnUse">
<stop stop-color="#2D8B67"/>
<stop offset="1" stop-color="#123635"/>
</linearGradient>
<linearGradient id="paint17_linear_34_211" x1="86.2068" y1="59.6662" x2="79.9217" y2="80.9341" gradientUnits="userSpaceOnUse">
<stop stop-color="#042635"/>
<stop offset="1" stop-color="#06565B"/>
</linearGradient>
<linearGradient id="paint18_linear_34_211" x1="58.3939" y1="74.3833" x2="44.1408" y2="94.3885" gradientUnits="userSpaceOnUse">
<stop stop-color="#165B7A"/>
<stop offset="1" stop-color="#001431"/>
</linearGradient>
<linearGradient id="paint19_linear_34_211" x1="45.5007" y1="109.675" x2="44.5416" y2="114.539" gradientUnits="userSpaceOnUse">
<stop stop-color="#042635"/>
<stop offset="1" stop-color="#06565B"/>
</linearGradient>
<linearGradient id="paint20_linear_34_211" x1="28.1278" y1="-8.84515" x2="28.7562" y2="61.8765" gradientUnits="userSpaceOnUse">
<stop stop-color="#5DF1D7"/>
<stop offset="1" stop-color="#128698"/>
</linearGradient>
<linearGradient id="paint21_linear_34_211" x1="53.9835" y1="20.3245" x2="33.1643" y2="57.9257" gradientUnits="userSpaceOnUse">
<stop stop-color="#042635"/>
<stop offset="1" stop-color="#06565B"/>
</linearGradient>
<linearGradient id="paint22_linear_34_211" x1="42.6808" y1="34.9777" x2="45.2419" y2="17.1408" gradientUnits="userSpaceOnUse">
<stop stop-color="#CEFFDD" stop-opacity="0.37"/>
<stop offset="1" stop-color="#B2FFF9" stop-opacity="0.79"/>
</linearGradient>
<linearGradient id="paint23_linear_34_211" x1="42.5702" y1="35.2595" x2="44.3532" y2="17.3238" gradientUnits="userSpaceOnUse">
<stop stop-color="#CEFFDD" stop-opacity="0.37"/>
<stop offset="1" stop-color="#B2FFF9" stop-opacity="0.79"/>
</linearGradient>
<linearGradient id="paint24_linear_34_211" x1="64.2703" y1="-1.39438" x2="64.9034" y2="7.01857" gradientUnits="userSpaceOnUse">
<stop stop-color="#042635"/>
<stop offset="1" stop-color="#06565B"/>
</linearGradient>
<linearGradient id="paint25_linear_34_211" x1="59.9639" y1="-5.59882" x2="60.0202" y2="6.27108" gradientUnits="userSpaceOnUse">
<stop stop-color="#042635"/>
<stop offset="1" stop-color="#06565B"/>
</linearGradient>
<linearGradient id="paint26_linear_34_211" x1="94.8805" y1="33.9283" x2="86.1008" y2="46.5118" gradientUnits="userSpaceOnUse">
<stop stop-color="#042635"/>
<stop offset="1" stop-color="#06565B"/>
</linearGradient>
<linearGradient id="paint27_linear_34_211" x1="101.194" y1="30.4162" x2="92.1124" y2="45.7228" gradientUnits="userSpaceOnUse">
<stop stop-color="#2D8B67"/>
<stop offset="1" stop-color="#123635"/>
</linearGradient>
<linearGradient id="paint28_linear_34_211" x1="22.1811" y1="33.5438" x2="58.7168" y2="51.5206" gradientUnits="userSpaceOnUse">
<stop stop-color="#356FA8"/>
<stop offset="1" stop-color="#183C6F"/>
</linearGradient>
<linearGradient id="paint29_linear_34_211" x1="26.7731" y1="15.9898" x2="50.5235" y2="43.4851" gradientUnits="userSpaceOnUse">
<stop stop-color="#EBFFFB"/>
<stop offset="1" stop-color="#D5F9FF"/>
</linearGradient>
<linearGradient id="paint30_linear_34_211" x1="76.6662" y1="20.852" x2="44.0997" y2="45.0194" gradientUnits="userSpaceOnUse">
<stop stop-color="#5DF1D7"/>
<stop offset="1" stop-color="#128698"/>
</linearGradient>
<linearGradient id="paint31_linear_34_211" x1="61.0833" y1="44.6163" x2="54.4604" y2="44.7219" gradientUnits="userSpaceOnUse">
<stop stop-color="#042635"/>
<stop offset="1" stop-color="#06565B"/>
</linearGradient>
<linearGradient id="paint32_linear_34_211" x1="76.6933" y1="63.0057" x2="73.9974" y2="60.1289" gradientUnits="userSpaceOnUse">
<stop stop-color="#042635"/>
<stop offset="1" stop-color="#06565B"/>
</linearGradient>
<linearGradient id="paint33_linear_34_211" x1="-9.92385" y1="28.14" x2="24.8565" y2="48.2683" gradientUnits="userSpaceOnUse">
<stop stop-color="#356FA8"/>
<stop offset="1" stop-color="#183C6F"/>
</linearGradient>
<linearGradient id="paint34_linear_34_211" x1="-4.3239" y1="11.2912" x2="17.2529" y2="39.6064" gradientUnits="userSpaceOnUse">
<stop stop-color="#EBFFFB"/>
<stop offset="1" stop-color="#D5F9FF"/>
</linearGradient>
<clipPath id="clip0_34_211">
<rect width="157" height="115" fill="white"/>
</clipPath>
</defs>
</svg>
