<svg width="248" height="50" viewBox="0 0 248 50" fill="none" xmlns="http://www.w3.org/2000/svg">
<g clip-path="url(#clip0)">
<path d="M9.25836 21.3438H12.3287C15.7298 21.3438 17.4303 19.8638 17.4303 16.9036C17.4303 13.9435 15.7298 12.4634 12.3287 12.4634H9.25836V21.3438ZM9.25836 40.6164H0V5H16.7296C25.0944 5 26.4288 10.385 28.5387 12.4634C28.5387 14.8409 27.1138 13.1247 27.1138 16.9036C27.1138 20.6825 26.0431 23.6112 23.9017 25.6896C21.7918 27.768 18.7372 28.8072 14.7378 28.8072H9.25836V40.6164Z" fill="#71EFCE"/>
<path d="M21.158 21.7297L16.7296 19.2695C18.2058 20.0895 16.7296 10.4125 21.158 12.3808C23.4613 13.4044 21.6501 21.0736 21.158 21.7297Z" fill="#53CDAD"/>
<path d="M13.1947 25.2802H16.2651C19.6662 25.2802 21.3667 23.8001 21.3667 20.84C21.3667 17.8798 19.6662 16.3997 16.2651 16.3997H13.1947V25.2802ZM13.1947 44.5527H3.93638V8.93637H18.6742C22.6735 8.93637 25.7282 9.97557 27.8381 12.054C29.9795 14.1324 31.0502 17.0611 31.0502 20.84C31.0502 24.6189 29.9795 27.5476 27.8381 29.626C25.7282 31.7044 22.6735 32.7436 18.6742 32.7436H13.1947V44.5527Z" fill="#132E38"/>
<path d="M3.93638 8.93638L0 5V40.4274L3.93638 44.3638V8.93638Z" fill="#53CDAD"/>
<path d="M12.99 25.0913H16.0604C19.4615 25.0913 21.162 23.6112 21.162 20.6511C21.162 17.6909 19.4615 16.2108 16.0604 16.2108H12.99V25.0913ZM12.99 44.3638H3.73168V8.74744H18.4695C22.4688 8.74744 25.5235 9.78665 27.6334 11.8651C29.7748 13.9435 30.8455 16.8721 30.8455 20.6511C30.8455 24.43 29.7748 27.3586 27.6334 29.4371C25.5235 31.5155 22.4688 32.5547 18.4695 32.5547H12.99V44.3638Z" fill="white"/>
<path d="M42.5476 20.1315V44.3638H33.9978V20.1315H42.5476ZM33.4309 10.8258C33.4309 10.1645 33.5569 9.55046 33.8088 8.98362C34.0607 8.3853 34.4071 7.86569 34.848 7.42482C35.2889 6.98394 35.7928 6.63754 36.3596 6.38561C36.9579 6.13369 37.5877 6.00772 38.2491 6.00772C38.9104 6.00772 39.5244 6.13369 40.0913 6.38561C40.6896 6.63754 41.2092 6.98394 41.6501 7.42482C42.091 7.86569 42.4374 8.3853 42.6893 8.98362C42.9412 9.55046 43.0672 10.1645 43.0672 10.8258C43.0672 11.4872 42.9412 12.117 42.6893 12.7153C42.4374 13.2822 42.091 13.786 41.6501 14.2269C41.2092 14.6678 40.6896 15.0142 40.0913 15.2661C39.5244 15.518 38.9104 15.644 38.2491 15.644C37.5877 15.644 36.9579 15.518 36.3596 15.2661C35.7928 15.0142 35.2889 14.6678 34.848 14.2269C34.4071 13.786 34.0607 13.2822 33.8088 12.7153C33.5569 12.117 33.4309 11.4872 33.4309 10.8258Z" fill="white"/>
<path d="M56.6093 31.232L46.7841 20.1315H57.9319L62.0888 25.1385L66.34 20.1315H77.4879L67.4265 31.232L79.5663 44.3638H68.2295L62.0415 37.1838L55.8063 44.3638H44.5168L56.6093 31.232Z" fill="white"/>
<path d="M90.1089 20.1315V44.3638H81.5591V20.1315H90.1089ZM80.9922 10.8258C80.9922 10.1645 81.1182 9.55046 81.3701 8.98362C81.6221 8.3853 81.9685 7.86569 82.4093 7.42482C82.8502 6.98394 83.3541 6.63754 83.9209 6.38561C84.5192 6.13369 85.1491 6.00772 85.8104 6.00772C86.4717 6.00772 87.0857 6.13369 87.6526 6.38561C88.2509 6.63754 88.7705 6.98394 89.2114 7.42482C89.6523 7.86569 89.9987 8.3853 90.2506 8.98362C90.5025 9.55046 90.6285 10.1645 90.6285 10.8258C90.6285 11.4872 90.5025 12.117 90.2506 12.7153C89.9987 13.2822 89.6523 13.786 89.2114 14.2269C88.7705 14.6678 88.2509 15.0142 87.6526 15.2661C87.0857 15.518 86.4717 15.644 85.8104 15.644C85.1491 15.644 84.5192 15.518 83.9209 15.2661C83.3541 15.0142 82.8502 14.6678 82.4093 14.2269C81.9685 13.786 81.6221 13.2822 81.3701 12.7153C81.1182 12.117 80.9922 11.4872 80.9922 10.8258Z" fill="white"/>
<path d="M112.72 28.7285C112.437 27.5318 111.854 26.5714 110.973 25.8471C110.091 25.1228 109.02 24.7606 107.761 24.7606C106.438 24.7606 105.352 25.107 104.501 25.7998C103.683 26.4926 103.163 27.4689 102.942 28.7285H112.72ZM102.706 33.6883C102.706 37.3728 104.438 39.215 107.902 39.215C109.76 39.215 111.162 38.4592 112.106 36.9477H120.373C118.704 42.4901 114.531 45.2613 107.855 45.2613C105.808 45.2613 103.934 44.9621 102.234 44.3638C100.533 43.734 99.0691 42.8522 97.8409 41.7186C96.6443 40.5849 95.7153 39.2308 95.054 37.6562C94.3927 36.0817 94.062 34.3182 94.062 32.3657C94.062 30.3503 94.3769 28.5396 95.0067 26.9335C95.6365 25.296 96.534 23.9104 97.6992 22.7767C98.8644 21.643 100.266 20.777 101.903 20.1787C103.572 19.5489 105.446 19.234 107.524 19.234C109.571 19.234 111.414 19.5489 113.051 20.1787C114.689 20.777 116.074 21.6588 117.208 22.8239C118.342 23.9891 119.208 25.4219 119.806 27.1225C120.404 28.7915 120.703 30.6809 120.703 32.7908V33.6883H102.706Z" fill="white"/>
<path d="M147.004 36.364H149.074C150.638 36.364 152.033 36.1187 153.26 35.628C154.486 35.1373 155.514 34.4627 156.342 33.604C157.2 32.7453 157.844 31.7333 158.274 30.568C158.734 29.372 158.964 28.0687 158.964 26.658C158.964 25.278 158.734 23.99 158.274 22.794C157.814 21.598 157.154 20.5707 156.296 19.712C155.468 18.8533 154.44 18.1787 153.214 17.688C151.987 17.1973 150.607 16.952 149.074 16.952H147.004V36.364ZM137.988 9.316H151.328C153.689 9.316 155.897 9.79133 157.952 10.742C160.037 11.6927 161.846 12.9653 163.38 14.56C164.944 16.124 166.17 17.964 167.06 20.08C167.949 22.1653 168.394 24.358 168.394 26.658C168.394 28.9273 167.949 31.12 167.06 33.236C166.201 35.3213 164.99 37.1613 163.426 38.756C161.892 40.3507 160.083 41.6233 157.998 42.574C155.943 43.5247 153.72 44 151.328 44H137.988V9.316ZM180.314 32.086C180.314 32.8833 180.452 33.6193 180.728 34.294C181.035 34.938 181.418 35.5053 181.878 35.996C182.369 36.4867 182.936 36.87 183.58 37.146C184.255 37.422 184.96 37.56 185.696 37.56C186.432 37.56 187.122 37.422 187.766 37.146C188.441 36.87 189.008 36.4867 189.468 35.996C189.959 35.5053 190.342 34.938 190.618 34.294C190.925 33.6193 191.078 32.8987 191.078 32.132C191.078 31.396 190.925 30.706 190.618 30.062C190.342 29.3873 189.959 28.8047 189.468 28.314C189.008 27.8233 188.441 27.44 187.766 27.164C187.122 26.888 186.432 26.75 185.696 26.75C184.96 26.75 184.255 26.888 183.58 27.164C182.936 27.44 182.369 27.8233 181.878 28.314C181.418 28.8047 181.035 29.372 180.728 30.016C180.452 30.66 180.314 31.35 180.314 32.086ZM171.528 31.994C171.528 30.246 171.881 28.6207 172.586 27.118C173.291 25.5847 174.273 24.266 175.53 23.162C176.787 22.0273 178.275 21.138 179.992 20.494C181.74 19.85 183.641 19.528 185.696 19.528C187.72 19.528 189.591 19.85 191.308 20.494C193.056 21.1073 194.559 21.9813 195.816 23.116C197.104 24.22 198.101 25.554 198.806 27.118C199.511 28.6513 199.864 30.3533 199.864 32.224C199.864 34.0947 199.496 35.812 198.76 37.376C198.055 38.9093 197.073 40.2433 195.816 41.378C194.559 42.482 193.041 43.3407 191.262 43.954C189.514 44.5673 187.613 44.874 185.558 44.874C183.534 44.874 181.663 44.5673 179.946 43.954C178.229 43.3407 176.741 42.4667 175.484 41.332C174.257 40.1973 173.291 38.848 172.586 37.284C171.881 35.6893 171.528 33.926 171.528 31.994ZM221.539 28.038C220.098 27.0567 218.641 26.566 217.169 26.566C216.372 26.566 215.62 26.704 214.915 26.98C214.24 27.256 213.642 27.6547 213.121 28.176C212.6 28.6667 212.186 29.2647 211.879 29.97C211.603 30.6447 211.465 31.4113 211.465 32.27C211.465 33.098 211.603 33.8647 211.879 34.57C212.186 35.2447 212.584 35.8427 213.075 36.364C213.596 36.8547 214.21 37.238 214.915 37.514C215.62 37.79 216.372 37.928 217.169 37.928C218.733 37.928 220.19 37.3913 221.539 36.318V43.402C219.484 44.2913 217.537 44.736 215.697 44.736C213.98 44.736 212.339 44.4447 210.775 43.862C209.242 43.2793 207.877 42.4513 206.681 41.378C205.516 40.274 204.58 38.9707 203.875 37.468C203.17 35.9347 202.817 34.2327 202.817 32.362C202.817 30.4913 203.154 28.7893 203.829 27.256C204.504 25.692 205.424 24.358 206.589 23.254C207.754 22.1193 209.134 21.2453 210.729 20.632C212.354 19.988 214.087 19.666 215.927 19.666C217.951 19.666 219.822 20.0953 221.539 20.954V28.038ZM241.008 26.474C239.474 25.6767 237.972 25.278 236.5 25.278C235.733 25.278 235.104 25.4313 234.614 25.738C234.154 26.0447 233.924 26.4587 233.924 26.98C233.924 27.256 233.954 27.486 234.016 27.67C234.108 27.8233 234.276 27.9767 234.522 28.13C234.798 28.2833 235.181 28.4213 235.672 28.544C236.193 28.6667 236.868 28.82 237.696 29.004C239.996 29.464 241.713 30.292 242.848 31.488C243.982 32.6533 244.55 34.156 244.55 35.996C244.55 37.376 244.274 38.618 243.722 39.722C243.17 40.826 242.403 41.7613 241.422 42.528C240.44 43.264 239.26 43.8313 237.88 44.23C236.5 44.6593 234.982 44.874 233.326 44.874C230.136 44.874 226.993 43.9693 223.896 42.16L226.932 36.272C229.262 37.8667 231.47 38.664 233.556 38.664C234.322 38.664 234.951 38.4953 235.442 38.158C235.932 37.8207 236.178 37.3913 236.178 36.87C236.178 36.5633 236.132 36.318 236.04 36.134C235.978 35.9193 235.825 35.7353 235.58 35.582C235.334 35.398 234.966 35.2447 234.476 35.122C234.016 34.9687 233.402 34.8153 232.636 34.662C230.06 34.1407 228.25 33.374 227.208 32.362C226.196 31.3193 225.69 29.8933 225.69 28.084C225.69 26.7653 225.935 25.5847 226.426 24.542C226.916 23.4687 227.622 22.564 228.542 21.828C229.462 21.092 230.566 20.5247 231.854 20.126C233.172 19.7273 234.629 19.528 236.224 19.528C238.83 19.528 241.36 20.034 243.814 21.046L241.008 26.474Z" fill="#71EFCE"/>
</g>
<defs>
<clipPath id="clip0">
<rect width="248" height="50" fill="white"/>
</clipPath>
</defs>
</svg>
