<svg xmlns="http://www.w3.org/2000/svg" xmlns:xlink="http://www.w3.org/1999/xlink" width="840" height="1471.15"><rect width="840" height="1471.15" rx="5" ry="5" class="a"/><svg y="0%" x="0%"><circle cx="20" cy="20" r="6" fill="#ff5f58"/><circle cx="40" cy="20" r="6" fill="#ffbd2e"/><circle cx="60" cy="20" r="6" fill="#18c132"/></svg><svg height="1411.15" viewBox="0 0 80 141.115" width="800" x="15" xmlns="http://www.w3.org/2000/svg" xmlns:xlink="http://www.w3.org/1999/xlink" y="50"><style>@keyframes o{0%{transform:translateX(0)}7.7%{transform:translateX(-160px)}7.8%{transform:translateX(-400px)}17.3%{transform:translateX(-480px)}18.6%{transform:translateX(-560px)}20.7%{transform:translateX(-640px)}22.7%{transform:translateX(-720px)}24.2%{transform:translateX(-800px)}25.4%{transform:translateX(-880px)}26.9%{transform:translateX(-960px)}29.1%{transform:translateX(-1040px)}30.6%{transform:translateX(-1120px)}32.4%{transform:translateX(-1200px)}34.1%{transform:translateX(-1280px)}34.8%{transform:translateX(-1360px)}35.4%{transform:translateX(-1440px)}37.4%{transform:translateX(-1520px)}40.7%{transform:translateX(-1760px)}40.9%{transform:translateX(-1840px)}43.8%{transform:translateX(-2000px)}45.8%{transform:translateX(-2080px)}48.1%{transform:translateX(-2320px)}48.2%{transform:translateX(-2560px)}52.9%{transform:translateX(-2640px)}55.8%{transform:translateX(-2720px)}56.3%{transform:translateX(-2800px)}62.7%{transform:translateX(-2880px)}64.3%{transform:translateX(-2960px)}65%{transform:translateX(-3040px)}65.7%{transform:translateX(-3120px)}67%{transform:translateX(-3200px)}68.8%{transform:translateX(-3280px)}70%{transform:translateX(-3360px)}71.1%{transform:translateX(-3440px)}71.9%{transform:translateX(-3520px)}74.7%{transform:translateX(-3600px)}76.1%{transform:translateX(-3680px)}77.7%{transform:translateX(-3760px)}78.9%{transform:translateX(-3840px)}81%{transform:translateX(-4000px)}81.1%{transform:translateX(-4080px)}81.2%{transform:translateX(-4160px)}87%{transform:translateX(-4480px)}89.8%{transform:translateX(-4640px)}90%{transform:translateX(-4800px)}to{transform:translateX(-4880px)}}.a{fill:#282d35}.f{fill:#b9c0cb}.g,.h,.j{white-space:pre}.g{fill:#282d35;font-weight:700}.h,.j{fill:#b9c0cb}.j{fill:#a8cc8c;font-weight:700}</style><g font-family="Monaco,Consolas,Menlo,'Bitstream Vera Sans Mono','Powerline Symbols',monospace" font-size="1.67"><defs><symbol id="18"><text y="1.67" class="h">Table</text><text x="6.012" y="1.67" class="h">ID:</text><text x="10.02" y="1.67" class="h">output</text></symbol><symbol id="1"><path class="f" d="M0 0h1v2.171H0z"/><text y="1.67" class="g">%</text></symbol><symbol id="3"><text y="1.67" style="white-space:pre" fill="#d290e4" font-weight="700">zasgar@zasgar-lt</text><text x="17.034" y="1.67" class="h">:</text><text x="19.038" y="1.67" class="h">~</text></symbol><symbol id="4"><text y="1.67" class="h">[</text><text x="1.002" y="1.67" class="j">0</text><text x="2.004" y="1.67" class="h">]</text><text x="4.008" y="1.67" class="h">%</text></symbol><symbol id="5"><text y="1.67" class="h">[</text><text x="1.002" y="1.67" class="j">0</text><text x="2.004" y="1.67" class="h">]</text><text x="4.008" y="1.67" class="h">%</text><text x="6.012" y="1.67" class="h">p</text></symbol><symbol id="6"><text y="1.67" class="h">[</text><text x="1.002" y="1.67" class="j">0</text><text x="2.004" y="1.67" class="h">]</text><text x="4.008" y="1.67" class="h">%</text><text x="6.012" y="1.67" class="h">px</text></symbol><symbol id="7"><text y="1.67" class="h">[</text><text x="1.002" y="1.67" class="j">0</text><text x="2.004" y="1.67" class="h">]</text><text x="4.008" y="1.67" class="h">%</text><text x="6.012" y="1.67" class="h">px</text><text x="9.018" y="1.67" class="h">g</text></symbol><symbol id="8"><text y="1.67" class="h">[</text><text x="1.002" y="1.67" class="j">0</text><text x="2.004" y="1.67" class="h">]</text><text x="4.008" y="1.67" class="h">%</text><text x="6.012" y="1.67" class="h">px</text><text x="9.018" y="1.67" class="h">ge</text></symbol><symbol id="9"><text y="1.67" class="h">[</text><text x="1.002" y="1.67" class="j">0</text><text x="2.004" y="1.67" class="h">]</text><text x="4.008" y="1.67" class="h">%</text><text x="6.012" y="1.67" class="h">px</text><text x="9.018" y="1.67" class="h">get</text></symbol><symbol id="10"><text y="1.67" class="h">[</text><text x="1.002" y="1.67" class="j">0</text><text x="2.004" y="1.67" class="h">]</text><text x="4.008" y="1.67" class="h">%</text><text x="6.012" y="1.67" class="h">px</text><text x="9.018" y="1.67" class="h">get</text><text x="13.026" y="1.67" class="h">viziers</text></symbol><symbol id="11"><text y="1.67" style="white-space:pre" fill="#6f7783">[0000]</text><text x="8.016" y="1.67" style="white-space:pre" fill="#a8cc8c">INFO</text><text x="13.026" y="1.67" class="h">Pixie</text><text x="19.038" y="1.67" class="h">CLI</text></symbol><symbol id="12"><text y="1.67" class="h">Table</text><text x="6.012" y="1.67" class="h">ID:</text><text x="10.02" y="1.67" class="h">viziers</text></symbol><symbol id="13"><text x="2.004" y="1.67" class="h">ID</text><text x="40.08" y="1.67" class="h">STATUS</text><text x="52.104" y="1.67" class="h">LASTHEARTBEAT</text><text x="67.134" y="1.67" class="h">PASSTHROUGH</text></symbol><symbol id="14"><text x="2.004" y="1.67" class="h">e347e94d-264c-402e-bbc7-1b64e6254e68</text><text x="40.08" y="1.67" class="h">CS_HEALTHY</text><text x="52.104" y="1.67" class="h">1</text><text x="54.108" y="1.67" class="h">second</text><text x="61.122" y="1.67" class="h">ago</text><text x="67.134" y="1.67" class="h">true</text></symbol><symbol id="15"><text y="1.67" class="h">p</text><path class="f" d="M1.002 0h1v2.171h-1z"/><text x="1.002" y="1.67" class="g">%</text></symbol><symbol id="16"><text y="1.67" class="h">[</text><text x="1.002" y="1.67" class="j">0</text><text x="2.004" y="1.67" class="h">]</text><text x="4.008" y="1.67" class="h">%</text><text x="6.012" y="1.67" class="h">x</text></symbol><symbol id="17"><text y="1.67" class="h">[</text><text x="1.002" y="1.67" class="j">0</text><text x="2.004" y="1.67" class="h">]</text><text x="4.008" y="1.67" class="h">%</text><text x="6.012" y="1.67" class="h">px</text><text x="9.018" y="1.67" class="h">get</text><text x="13.026" y="1.67" class="h">pems</text></symbol><symbol id="2"><text y="1.67" class="h">(base)</text></symbol><symbol id="19"><text x="2.004" y="1.67" class="h">CLUSTERID</text><text x="40.08" y="1.67" class="h">AGENT</text><text x="46.092" y="1.67" class="h">ID</text><text x="78.156" y="1.67" class="h">AS</text></symbol><symbol id="20"><text y="1.67" class="h">ID</text><text x="4.008" y="1.67" class="h">HOSTNAME</text><text x="56.112" y="1.67" class="h">IP</text><text x="59.118" y="1.67" class="h">ADDRESS</text><text x="75.15" y="1.67" class="h">AGENT</text></symbol><symbol id="21"><text x="1.002" y="1.67" class="h">STATE</text><text x="16.032" y="1.67" class="h">CREATE</text><text x="23.046" y="1.67" class="h">TIME</text><text x="43.086" y="1.67" class="h">LAST</text><text x="48.096" y="1.67" class="h">HEARTBEAT</text><text x="58.116" y="1.67" class="h">NS</text></symbol><symbol id="22"><text x="2.004" y="1.67" class="h">e347e94d-264c-402e-bbc7-1b64e6254e68</text><text x="40.08" y="1.67" class="h">090d4775-7793-4bce-ac95-35e663604b34</text><text x="78.156" y="1.67" class="h">4</text></symbol><symbol id="23"><text x="4.008" y="1.67" class="h">kelvin-56c7c668c9-bb4jg</text><text x="56.112" y="1.67" class="h">10.28.0.191:59300</text><text x="75.15" y="1.67" class="h">AGENT</text></symbol><symbol id="24"><text y="1.67" class="h">_STATE_HEALTHY</text><text x="16.032" y="1.67" class="h">2020-03-27T13:37:37-07:00</text><text x="43.086" y="1.67" class="h">1857695376</text></symbol><symbol id="25"><text x="2.004" y="1.67" class="h">e347e94d-264c-402e-bbc7-1b64e6254e68</text><text x="40.08" y="1.67" class="h">3fec20ea-6611-4118-abb3-413e97f4ea02</text><text x="78.156" y="1.67" class="h">2</text></symbol><symbol id="26"><text x="4.008" y="1.67" class="h">gke-dev-cluster-zasgar2-default-pool-43e0e5d6-d1f6</text><text x="75.15" y="1.67" class="h">AGENT</text></symbol><symbol id="27"><text y="1.67" class="h">_STATE_HEALTHY</text><text x="16.032" y="1.67" class="h">2020-03-27T13:37:30-07:00</text><text x="43.086" y="1.67" class="h">4422843294</text></symbol><symbol id="28"><text x="2.004" y="1.67" class="h">e347e94d-264c-402e-bbc7-1b64e6254e68</text><text x="40.08" y="1.67" class="h">56d941f8-740f-4e84-a4c1-ed31576fe19e</text><text x="78.156" y="1.67" class="h">3</text></symbol><symbol id="29"><text x="4.008" y="1.67" class="h">gke-dev-cluster-zasgar2-default-pool-43e0e5d6-nfzz</text><text x="75.15" y="1.67" class="h">AGENT</text></symbol><symbol id="30"><text y="1.67" class="h">_STATE_HEALTHY</text><text x="16.032" y="1.67" class="h">2020-03-27T13:37:31-07:00</text><text x="43.086" y="1.67" class="h">3417685075</text></symbol><symbol id="31"><text x="2.004" y="1.67" class="h">e347e94d-264c-402e-bbc7-1b64e6254e68</text><text x="40.08" y="1.67" class="h">7d864d6b-bf2a-4d30-9edb-5f370822d6ee</text><text x="78.156" y="1.67" class="h">1</text></symbol><symbol id="32"><text x="4.008" y="1.67" class="h">gke-dev-cluster-zasgar2-default-pool-43e0e5d6-s0qh</text><text x="75.15" y="1.67" class="h">AGENT</text></symbol><symbol id="33"><text y="1.67" class="h">_STATE_HEALTHY</text><text x="16.032" y="1.67" class="h">2020-03-27T13:37:30-07:00</text><text x="43.086" y="1.67" class="h">4677715016</text></symbol><symbol id="a"><path fill="transparent" d="M0 0h80v65H0z"/></symbol><symbol id="b"><path fill="#6f7683" d="M0 0h1.102v2.171H0z"/></symbol></defs><path class="a" d="M0 0h80v141.115H0z"/><g style="animation-duration:7.63606s;animation-iteration-count:infinite;animation-name:o;animation-timing-function:steps(1,end)"><svg width="4960"><svg><use xlink:href="#a"/><use xlink:href="#b" x="-.004"/></svg><svg x="80"><use xlink:href="#a"/><use xlink:href="#b" x="-.004" y="4.317"/><use xlink:href="#1"/></svg><svg x="160"><use xlink:href="#a"/><use xlink:href="#b" x="-.004" y="4.317"/><use xlink:href="#1"/></svg><svg x="240"><use xlink:href="#a"/><use xlink:href="#b" x="5.996" y="8.659"/><use xlink:href="#1"/><use xlink:href="#2" y="4.342"/><use xlink:href="#3" y="6.513"/><use xlink:href="#4" y="8.684"/></svg><svg x="320"><use xlink:href="#a"/><use xlink:href="#b" x="5.996" y="8.659"/><use xlink:href="#1"/><use xlink:href="#2" y="4.342"/><use xlink:href="#3" y="6.513"/><use xlink:href="#4" y="8.684"/></svg><svg x="400"><use xlink:href="#a"/><use xlink:href="#b" x="5.996" y="8.659"/><use xlink:href="#1"/><use xlink:href="#2" y="4.342"/><use xlink:href="#3" y="6.513"/><use xlink:href="#4" y="8.684"/></svg><svg x="480"><use xlink:href="#a"/><use xlink:href="#b" x="6.996" y="8.659"/><use xlink:href="#1"/><use xlink:href="#2" y="4.342"/><use xlink:href="#3" y="6.513"/><use xlink:href="#5" y="8.684"/></svg><svg x="560"><use xlink:href="#a"/><use xlink:href="#b" x="7.996" y="8.659"/><use xlink:href="#1"/><use xlink:href="#2" y="4.342"/><use xlink:href="#3" y="6.513"/><use xlink:href="#6" y="8.684"/></svg><svg x="640"><use xlink:href="#a"/><use xlink:href="#b" x="8.996" y="8.659"/><use xlink:href="#1"/><use xlink:href="#2" y="4.342"/><use xlink:href="#3" y="6.513"/><use xlink:href="#6" y="8.684"/></svg><svg x="720"><use xlink:href="#a"/><use xlink:href="#b" x="9.996" y="8.659"/><use xlink:href="#1"/><use xlink:href="#2" y="4.342"/><use xlink:href="#3" y="6.513"/><use xlink:href="#7" y="8.684"/></svg><svg x="800"><use xlink:href="#a"/><use xlink:href="#b" x="10.996" y="8.659"/><use xlink:href="#1"/><use xlink:href="#2" y="4.342"/><use xlink:href="#3" y="6.513"/><use xlink:href="#8" y="8.684"/></svg><svg x="880"><use xlink:href="#a"/><use xlink:href="#b" x="11.996" y="8.659"/><use xlink:href="#1"/><use xlink:href="#2" y="4.342"/><use xlink:href="#3" y="6.513"/><use xlink:href="#9" y="8.684"/></svg><svg x="960"><use xlink:href="#a"/><use xlink:href="#b" x="12.996" y="8.659"/><use xlink:href="#1"/><use xlink:href="#2" y="4.342"/><use xlink:href="#3" y="6.513"/><use xlink:href="#9" y="8.684"/></svg><svg x="1040"><use xlink:href="#a"/><use xlink:href="#b" x="13.996" y="8.659"/><use xlink:href="#1"/><use xlink:href="#2" y="4.342"/><use xlink:href="#3" y="6.513"/><text y="10.354" class="h">[</text><text x="1.002" y="10.354" class="j">0</text><text x="2.004" y="10.354" class="h">]</text><text x="4.008" y="10.354" class="h">%</text><text x="6.012" y="10.354" class="h">px</text><text x="9.018" y="10.354" class="h">get</text><text x="13.026" y="10.354" class="h">v</text></svg><svg x="1120"><use xlink:href="#a"/><use xlink:href="#b" x="14.996" y="8.659"/><use xlink:href="#1"/><use xlink:href="#2" y="4.342"/><use xlink:href="#3" y="6.513"/><text y="10.354" class="h">[</text><text x="1.002" y="10.354" class="j">0</text><text x="2.004" y="10.354" class="h">]</text><text x="4.008" y="10.354" class="h">%</text><text x="6.012" y="10.354" class="h">px</text><text x="9.018" y="10.354" class="h">get</text><text x="13.026" y="10.354" class="h">vi</text></svg><svg x="1200"><use xlink:href="#a"/><use xlink:href="#b" x="15.996" y="8.659"/><use xlink:href="#1"/><use xlink:href="#2" y="4.342"/><use xlink:href="#3" y="6.513"/><text y="10.354" class="h">[</text><text x="1.002" y="10.354" class="j">0</text><text x="2.004" y="10.354" class="h">]</text><text x="4.008" y="10.354" class="h">%</text><text x="6.012" y="10.354" class="h">px</text><text x="9.018" y="10.354" class="h">get</text><text x="13.026" y="10.354" class="h">viz</text></svg><svg x="1280"><use xlink:href="#a"/><use xlink:href="#b" x="16.996" y="8.659"/><use xlink:href="#1"/><use xlink:href="#2" y="4.342"/><use xlink:href="#3" y="6.513"/><text y="10.354" class="h">[</text><text x="1.002" y="10.354" class="j">0</text><text x="2.004" y="10.354" class="h">]</text><text x="4.008" y="10.354" class="h">%</text><text x="6.012" y="10.354" class="h">px</text><text x="9.018" y="10.354" class="h">get</text><text x="13.026" y="10.354" class="h">vizi</text></svg><svg x="1360"><use xlink:href="#a"/><use xlink:href="#b" x="17.996" y="8.659"/><use xlink:href="#1"/><use xlink:href="#2" y="4.342"/><use xlink:href="#3" y="6.513"/><text y="10.354" class="h">[</text><text x="1.002" y="10.354" class="j">0</text><text x="2.004" y="10.354" class="h">]</text><text x="4.008" y="10.354" class="h">%</text><text x="6.012" y="10.354" class="h">px</text><text x="9.018" y="10.354" class="h">get</text><text x="13.026" y="10.354" class="h">vizie</text></svg><svg x="1440"><use xlink:href="#a"/><use xlink:href="#b" x="18.996" y="8.659"/><use xlink:href="#1"/><use xlink:href="#2" y="4.342"/><use xlink:href="#3" y="6.513"/><text y="10.354" class="h">[</text><text x="1.002" y="10.354" class="j">0</text><text x="2.004" y="10.354" class="h">]</text><text x="4.008" y="10.354" class="h">%</text><text x="6.012" y="10.354" class="h">px</text><text x="9.018" y="10.354" class="h">get</text><text x="13.026" y="10.354" class="h">vizier</text></svg><svg x="1520"><use xlink:href="#a"/><use xlink:href="#b" x="19.996" y="8.659"/><use xlink:href="#1"/><use xlink:href="#2" y="4.342"/><use xlink:href="#3" y="6.513"/><use xlink:href="#10" y="8.684"/></svg><svg x="1600"><use xlink:href="#a"/><use xlink:href="#b" x="19.996" y="8.659"/><use xlink:href="#1"/><use xlink:href="#2" y="4.342"/><use xlink:href="#3" y="6.513"/><use xlink:href="#10" y="8.684"/></svg><svg x="1680"><use xlink:href="#a"/><use xlink:href="#b" x="-.004" y="10.83"/><use xlink:href="#1"/><use xlink:href="#2" y="4.342"/><use xlink:href="#3" y="6.513"/><use xlink:href="#10" y="8.684"/></svg><svg x="1760"><use xlink:href="#a"/><use xlink:href="#b" x="-.004" y="10.83"/><use xlink:href="#1"/><use xlink:href="#2" y="4.342"/><use xlink:href="#3" y="6.513"/><use xlink:href="#10" y="8.684"/></svg><svg x="1840"><use xlink:href="#a"/><use xlink:href="#b" x="-.004" y="13.001"/><use xlink:href="#1"/><use xlink:href="#2" y="4.342"/><use xlink:href="#3" y="6.513"/><use xlink:href="#10" y="8.684"/><use xlink:href="#11" y="10.855"/></svg><svg x="1920"><use xlink:href="#a"/><use xlink:href="#b" x="-.004" y="15.172"/><use xlink:href="#1"/><use xlink:href="#2" y="4.342"/><use xlink:href="#3" y="6.513"/><use xlink:href="#10" y="8.684"/><use xlink:href="#11" y="10.855"/><use xlink:href="#12" y="13.026"/></svg><svg x="2000"><use xlink:href="#a"/><use xlink:href="#b" x="-.004" y="19.514"/><use xlink:href="#1"/><use xlink:href="#2" y="4.342"/><use xlink:href="#3" y="6.513"/><use xlink:href="#10" y="8.684"/><use xlink:href="#11" y="10.855"/><use xlink:href="#12" y="13.026"/><use xlink:href="#13" y="15.197"/><use xlink:href="#14" y="17.368"/></svg><svg x="2080"><use xlink:href="#a"/><use xlink:href="#b" x=".996" y="19.514"/><use xlink:href="#1"/><use xlink:href="#2" y="4.342"/><use xlink:href="#3" y="6.513"/><use xlink:href="#10" y="8.684"/><use xlink:href="#11" y="10.855"/><use xlink:href="#12" y="13.026"/><use xlink:href="#13" y="15.197"/><use xlink:href="#14" y="17.368"/><text y="21.209" class="h">p</text></svg><svg x="2160"><use xlink:href="#a"/><use xlink:href="#b" x="-.004" y="23.856"/><use xlink:href="#1"/><use xlink:href="#2" y="4.342"/><use xlink:href="#3" y="6.513"/><use xlink:href="#10" y="8.684"/><use xlink:href="#11" y="10.855"/><use xlink:href="#12" y="13.026"/><use xlink:href="#13" y="15.197"/><use xlink:href="#14" y="17.368"/><use xlink:href="#15" y="19.539"/></svg><svg x="2240"><use xlink:href="#a"/><use xlink:href="#b" x="-.004" y="23.856"/><use xlink:href="#1"/><use xlink:href="#2" y="4.342"/><use xlink:href="#3" y="6.513"/><use xlink:href="#10" y="8.684"/><use xlink:href="#11" y="10.855"/><use xlink:href="#12" y="13.026"/><use xlink:href="#13" y="15.197"/><use xlink:href="#14" y="17.368"/><use xlink:href="#15" y="19.539"/></svg><svg x="2320"><use xlink:href="#a"/><use xlink:href="#b" x="-.004" y="23.856"/><use xlink:href="#1"/><use xlink:href="#2" y="4.342"/><use xlink:href="#3" y="6.513"/><use xlink:href="#10" y="8.684"/><use xlink:href="#11" y="10.855"/><use xlink:href="#12" y="13.026"/><use xlink:href="#13" y="15.197"/><use xlink:href="#14" y="17.368"/><use xlink:href="#15" y="19.539"/></svg><svg x="2400"><use xlink:href="#a"/><use xlink:href="#b" x="5.996" y="28.198"/><use xlink:href="#1"/><use xlink:href="#2" y="4.342"/><use xlink:href="#3" y="6.513"/><use xlink:href="#10" y="8.684"/><use xlink:href="#11" y="10.855"/><use xlink:href="#12" y="13.026"/><use xlink:href="#13" y="15.197"/><use xlink:href="#14" y="17.368"/><use xlink:href="#15" y="19.539"/><use xlink:href="#2" y="23.881"/><use xlink:href="#3" y="26.052"/><use xlink:href="#4" y="28.223"/></svg><svg x="2480"><use xlink:href="#a"/><use xlink:href="#b" x="5.996" y="28.198"/><use xlink:href="#1"/><use xlink:href="#2" y="4.342"/><use xlink:href="#3" y="6.513"/><use xlink:href="#10" y="8.684"/><use xlink:href="#11" y="10.855"/><use xlink:href="#12" y="13.026"/><use xlink:href="#13" y="15.197"/><use xlink:href="#14" y="17.368"/><use xlink:href="#15" y="19.539"/><use xlink:href="#2" y="23.881"/><use xlink:href="#3" y="26.052"/><use xlink:href="#4" y="28.223"/></svg><svg x="2560"><use xlink:href="#a"/><use xlink:href="#b" x="6.996" y="28.198"/><use xlink:href="#1"/><use xlink:href="#2" y="4.342"/><use xlink:href="#3" y="6.513"/><use xlink:href="#10" y="8.684"/><use xlink:href="#11" y="10.855"/><use xlink:href="#12" y="13.026"/><use xlink:href="#13" y="15.197"/><use xlink:href="#14" y="17.368"/><use xlink:href="#15" y="19.539"/><use xlink:href="#2" y="23.881"/><use xlink:href="#3" y="26.052"/><use xlink:href="#5" y="28.223"/></svg><svg x="2640"><use xlink:href="#a"/><use xlink:href="#b" x="5.996" y="28.198"/><use xlink:href="#1"/><use xlink:href="#2" y="4.342"/><use xlink:href="#3" y="6.513"/><use xlink:href="#10" y="8.684"/><use xlink:href="#11" y="10.855"/><use xlink:href="#12" y="13.026"/><use xlink:href="#13" y="15.197"/><use xlink:href="#14" y="17.368"/><use xlink:href="#15" y="19.539"/><use xlink:href="#2" y="23.881"/><use xlink:href="#3" y="26.052"/><use xlink:href="#4" y="28.223"/></svg><svg x="2720"><use xlink:href="#a"/><use xlink:href="#b" x="6.996" y="28.198"/><use xlink:href="#1"/><use xlink:href="#2" y="4.342"/><use xlink:href="#3" y="6.513"/><use xlink:href="#10" y="8.684"/><use xlink:href="#11" y="10.855"/><use xlink:href="#12" y="13.026"/><use xlink:href="#13" y="15.197"/><use xlink:href="#14" y="17.368"/><use xlink:href="#15" y="19.539"/><use xlink:href="#2" y="23.881"/><use xlink:href="#3" y="26.052"/><use xlink:href="#16" y="28.223"/></svg><svg x="2800"><use xlink:href="#a"/><use xlink:href="#b" x="7.996" y="28.198"/><use xlink:href="#1"/><use xlink:href="#2" y="4.342"/><use xlink:href="#3" y="6.513"/><use xlink:href="#10" y="8.684"/><use xlink:href="#11" y="10.855"/><use xlink:href="#12" y="13.026"/><use xlink:href="#13" y="15.197"/><use xlink:href="#14" y="17.368"/><use xlink:href="#15" y="19.539"/><use xlink:href="#2" y="23.881"/><use xlink:href="#3" y="26.052"/><text y="29.893" class="h">[</text><text x="1.002" y="29.893" class="j">0</text><text x="2.004" y="29.893" class="h">]</text><text x="4.008" y="29.893" class="h">%</text><text x="6.012" y="29.893" class="h">xp</text></svg><svg x="2880"><use xlink:href="#a"/><use xlink:href="#b" x="6.996" y="28.198"/><use xlink:href="#1"/><use xlink:href="#2" y="4.342"/><use xlink:href="#3" y="6.513"/><use xlink:href="#10" y="8.684"/><use xlink:href="#11" y="10.855"/><use xlink:href="#12" y="13.026"/><use xlink:href="#13" y="15.197"/><use xlink:href="#14" y="17.368"/><use xlink:href="#15" y="19.539"/><use xlink:href="#2" y="23.881"/><use xlink:href="#3" y="26.052"/><use xlink:href="#16" y="28.223"/></svg><svg x="2960"><use xlink:href="#a"/><use xlink:href="#b" x="5.996" y="28.198"/><use xlink:href="#1"/><use xlink:href="#2" y="4.342"/><use xlink:href="#3" y="6.513"/><use xlink:href="#10" y="8.684"/><use xlink:href="#11" y="10.855"/><use xlink:href="#12" y="13.026"/><use xlink:href="#13" y="15.197"/><use xlink:href="#14" y="17.368"/><use xlink:href="#15" y="19.539"/><use xlink:href="#2" y="23.881"/><use xlink:href="#3" y="26.052"/><use xlink:href="#4" y="28.223"/></svg><svg x="3040"><use xlink:href="#a"/><use xlink:href="#b" x="6.996" y="28.198"/><use xlink:href="#1"/><use xlink:href="#2" y="4.342"/><use xlink:href="#3" y="6.513"/><use xlink:href="#10" y="8.684"/><use xlink:href="#11" y="10.855"/><use xlink:href="#12" y="13.026"/><use xlink:href="#13" y="15.197"/><use xlink:href="#14" y="17.368"/><use xlink:href="#15" y="19.539"/><use xlink:href="#2" y="23.881"/><use xlink:href="#3" y="26.052"/><use xlink:href="#5" y="28.223"/></svg><svg x="3120"><use xlink:href="#a"/><use xlink:href="#b" x="7.996" y="28.198"/><use xlink:href="#1"/><use xlink:href="#2" y="4.342"/><use xlink:href="#3" y="6.513"/><use xlink:href="#10" y="8.684"/><use xlink:href="#11" y="10.855"/><use xlink:href="#12" y="13.026"/><use xlink:href="#13" y="15.197"/><use xlink:href="#14" y="17.368"/><use xlink:href="#15" y="19.539"/><use xlink:href="#2" y="23.881"/><use xlink:href="#3" y="26.052"/><use xlink:href="#6" y="28.223"/></svg><svg x="3200"><use xlink:href="#a"/><use xlink:href="#b" x="8.996" y="28.198"/><use xlink:href="#1"/><use xlink:href="#2" y="4.342"/><use xlink:href="#3" y="6.513"/><use xlink:href="#10" y="8.684"/><use xlink:href="#11" y="10.855"/><use xlink:href="#12" y="13.026"/><use xlink:href="#13" y="15.197"/><use xlink:href="#14" y="17.368"/><use xlink:href="#15" y="19.539"/><use xlink:href="#2" y="23.881"/><use xlink:href="#3" y="26.052"/><use xlink:href="#6" y="28.223"/></svg><svg x="3280"><use xlink:href="#a"/><use xlink:href="#b" x="9.996" y="28.198"/><use xlink:href="#1"/><use xlink:href="#2" y="4.342"/><use xlink:href="#3" y="6.513"/><use xlink:href="#10" y="8.684"/><use xlink:href="#11" y="10.855"/><use xlink:href="#12" y="13.026"/><use xlink:href="#13" y="15.197"/><use xlink:href="#14" y="17.368"/><use xlink:href="#15" y="19.539"/><use xlink:href="#2" y="23.881"/><use xlink:href="#3" y="26.052"/><use xlink:href="#7" y="28.223"/></svg><svg x="3360"><use xlink:href="#a"/><use xlink:href="#b" x="10.996" y="28.198"/><use xlink:href="#1"/><use xlink:href="#2" y="4.342"/><use xlink:href="#3" y="6.513"/><use xlink:href="#10" y="8.684"/><use xlink:href="#11" y="10.855"/><use xlink:href="#12" y="13.026"/><use xlink:href="#13" y="15.197"/><use xlink:href="#14" y="17.368"/><use xlink:href="#15" y="19.539"/><use xlink:href="#2" y="23.881"/><use xlink:href="#3" y="26.052"/><use xlink:href="#8" y="28.223"/></svg><svg x="3440"><use xlink:href="#a"/><use xlink:href="#b" x="11.996" y="28.198"/><use xlink:href="#1"/><use xlink:href="#2" y="4.342"/><use xlink:href="#3" y="6.513"/><use xlink:href="#10" y="8.684"/><use xlink:href="#11" y="10.855"/><use xlink:href="#12" y="13.026"/><use xlink:href="#13" y="15.197"/><use xlink:href="#14" y="17.368"/><use xlink:href="#15" y="19.539"/><use xlink:href="#2" y="23.881"/><use xlink:href="#3" y="26.052"/><use xlink:href="#9" y="28.223"/></svg><svg x="3520"><use xlink:href="#a"/><use xlink:href="#b" x="12.996" y="28.198"/><use xlink:href="#1"/><use xlink:href="#2" y="4.342"/><use xlink:href="#3" y="6.513"/><use xlink:href="#10" y="8.684"/><use xlink:href="#11" y="10.855"/><use xlink:href="#12" y="13.026"/><use xlink:href="#13" y="15.197"/><use xlink:href="#14" y="17.368"/><use xlink:href="#15" y="19.539"/><use xlink:href="#2" y="23.881"/><use xlink:href="#3" y="26.052"/><use xlink:href="#9" y="28.223"/></svg><svg x="3600"><use xlink:href="#a"/><use xlink:href="#b" x="13.996" y="28.198"/><use xlink:href="#1"/><use xlink:href="#2" y="4.342"/><use xlink:href="#3" y="6.513"/><use xlink:href="#10" y="8.684"/><use xlink:href="#11" y="10.855"/><use xlink:href="#12" y="13.026"/><use xlink:href="#13" y="15.197"/><use xlink:href="#14" y="17.368"/><use xlink:href="#15" y="19.539"/><use xlink:href="#2" y="23.881"/><use xlink:href="#3" y="26.052"/><text y="29.893" class="h">[</text><text x="1.002" y="29.893" class="j">0</text><text x="2.004" y="29.893" class="h">]</text><text x="4.008" y="29.893" class="h">%</text><text x="6.012" y="29.893" class="h">px</text><text x="9.018" y="29.893" class="h">get</text><text x="13.026" y="29.893" class="h">p</text></svg><svg x="3680"><use xlink:href="#a"/><use xlink:href="#b" x="14.996" y="28.198"/><use xlink:href="#1"/><use xlink:href="#2" y="4.342"/><use xlink:href="#3" y="6.513"/><use xlink:href="#10" y="8.684"/><use xlink:href="#11" y="10.855"/><use xlink:href="#12" y="13.026"/><use xlink:href="#13" y="15.197"/><use xlink:href="#14" y="17.368"/><use xlink:href="#15" y="19.539"/><use xlink:href="#2" y="23.881"/><use xlink:href="#3" y="26.052"/><text y="29.893" class="h">[</text><text x="1.002" y="29.893" class="j">0</text><text x="2.004" y="29.893" class="h">]</text><text x="4.008" y="29.893" class="h">%</text><text x="6.012" y="29.893" class="h">px</text><text x="9.018" y="29.893" class="h">get</text><text x="13.026" y="29.893" class="h">pe</text></svg><svg x="3760"><use xlink:href="#a"/><use xlink:href="#b" x="15.996" y="28.198"/><use xlink:href="#1"/><use xlink:href="#2" y="4.342"/><use xlink:href="#3" y="6.513"/><use xlink:href="#10" y="8.684"/><use xlink:href="#11" y="10.855"/><use xlink:href="#12" y="13.026"/><use xlink:href="#13" y="15.197"/><use xlink:href="#14" y="17.368"/><use xlink:href="#15" y="19.539"/><use xlink:href="#2" y="23.881"/><use xlink:href="#3" y="26.052"/><text y="29.893" class="h">[</text><text x="1.002" y="29.893" class="j">0</text><text x="2.004" y="29.893" class="h">]</text><text x="4.008" y="29.893" class="h">%</text><text x="6.012" y="29.893" class="h">px</text><text x="9.018" y="29.893" class="h">get</text><text x="13.026" y="29.893" class="h">pem</text></svg><svg x="3840"><use xlink:href="#a"/><use xlink:href="#b" x="16.996" y="28.198"/><use xlink:href="#1"/><use xlink:href="#2" y="4.342"/><use xlink:href="#3" y="6.513"/><use xlink:href="#10" y="8.684"/><use xlink:href="#11" y="10.855"/><use xlink:href="#12" y="13.026"/><use xlink:href="#13" y="15.197"/><use xlink:href="#14" y="17.368"/><use xlink:href="#15" y="19.539"/><use xlink:href="#2" y="23.881"/><use xlink:href="#3" y="26.052"/><use xlink:href="#17" y="28.223"/></svg><svg x="3920"><use xlink:href="#a"/><use xlink:href="#b" x="16.996" y="28.198"/><use xlink:href="#1"/><use xlink:href="#2" y="4.342"/><use xlink:href="#3" y="6.513"/><use xlink:href="#10" y="8.684"/><use xlink:href="#11" y="10.855"/><use xlink:href="#12" y="13.026"/><use xlink:href="#13" y="15.197"/><use xlink:href="#14" y="17.368"/><use xlink:href="#15" y="19.539"/><use xlink:href="#2" y="23.881"/><use xlink:href="#3" y="26.052"/><use xlink:href="#17" y="28.223"/></svg><svg x="4000"><use xlink:href="#a"/><use xlink:href="#b" x="-.004" y="30.369"/><use xlink:href="#1"/><use xlink:href="#2" y="4.342"/><use xlink:href="#3" y="6.513"/><use xlink:href="#10" y="8.684"/><use xlink:href="#11" y="10.855"/><use xlink:href="#12" y="13.026"/><use xlink:href="#13" y="15.197"/><use xlink:href="#14" y="17.368"/><use xlink:href="#15" y="19.539"/><use xlink:href="#2" y="23.881"/><use xlink:href="#3" y="26.052"/><use xlink:href="#17" y="28.223"/></svg><svg x="4080"><use xlink:href="#a"/><use xlink:href="#b" x="-.004" y="30.369"/><use xlink:href="#1"/><use xlink:href="#2" y="4.342"/><use xlink:href="#3" y="6.513"/><use xlink:href="#10" y="8.684"/><use xlink:href="#11" y="10.855"/><use xlink:href="#12" y="13.026"/><use xlink:href="#13" y="15.197"/><use xlink:href="#14" y="17.368"/><use xlink:href="#15" y="19.539"/><use xlink:href="#2" y="23.881"/><use xlink:href="#3" y="26.052"/><use xlink:href="#17" y="28.223"/></svg><svg x="4160"><use xlink:href="#a"/><use xlink:href="#b" x="-.004" y="32.54"/><use xlink:href="#1"/><use xlink:href="#2" y="4.342"/><use xlink:href="#3" y="6.513"/><use xlink:href="#10" y="8.684"/><use xlink:href="#11" y="10.855"/><use xlink:href="#12" y="13.026"/><use xlink:href="#13" y="15.197"/><use xlink:href="#14" y="17.368"/><use xlink:href="#15" y="19.539"/><use xlink:href="#2" y="23.881"/><use xlink:href="#3" y="26.052"/><use xlink:href="#17" y="28.223"/><use xlink:href="#11" y="30.394"/></svg><svg x="4240"><use xlink:href="#a"/><use xlink:href="#b" x="-.004" y="34.711"/><use xlink:href="#1"/><use xlink:href="#2" y="4.342"/><use xlink:href="#3" y="6.513"/><use xlink:href="#10" y="8.684"/><use xlink:href="#11" y="10.855"/><use xlink:href="#12" y="13.026"/><use xlink:href="#13" y="15.197"/><use xlink:href="#14" y="17.368"/><use xlink:href="#15" y="19.539"/><use xlink:href="#2" y="23.881"/><use xlink:href="#3" y="26.052"/><use xlink:href="#17" y="28.223"/><use xlink:href="#11" y="30.394"/><use xlink:href="#18" y="32.565"/></svg><svg x="4320"><use xlink:href="#a"/><use xlink:href="#b" x="14.996" y="39.053"/><use xlink:href="#1"/><use xlink:href="#2" y="4.342"/><use xlink:href="#3" y="6.513"/><use xlink:href="#10" y="8.684"/><use xlink:href="#11" y="10.855"/><use xlink:href="#12" y="13.026"/><use xlink:href="#13" y="15.197"/><use xlink:href="#14" y="17.368"/><use xlink:href="#15" y="19.539"/><use xlink:href="#2" y="23.881"/><use xlink:href="#3" y="26.052"/><use xlink:href="#17" y="28.223"/><use xlink:href="#11" y="30.394"/><use xlink:href="#18" y="32.565"/><use xlink:href="#19" y="34.736"/><use xlink:href="#20" y="36.907"/><text x="1.002" y="40.748" class="h">STATE</text></svg><svg x="4400"><use xlink:href="#a"/><use xlink:href="#b" x="76.996" y="60.763"/><use xlink:href="#1"/><use xlink:href="#2" y="4.342"/><use xlink:href="#3" y="6.513"/><use xlink:href="#10" y="8.684"/><use xlink:href="#11" y="10.855"/><use xlink:href="#12" y="13.026"/><use xlink:href="#13" y="15.197"/><use xlink:href="#14" y="17.368"/><use xlink:href="#15" y="19.539"/><use xlink:href="#2" y="23.881"/><use xlink:href="#3" y="26.052"/><use xlink:href="#17" y="28.223"/><use xlink:href="#11" y="30.394"/><use xlink:href="#18" y="32.565"/><use xlink:href="#19" y="34.736"/><use xlink:href="#20" y="36.907"/><use xlink:href="#21" y="39.078"/><use xlink:href="#22" y="41.249"/><use xlink:href="#23" y="43.42"/><use xlink:href="#24" y="45.591"/><use xlink:href="#25" y="47.762"/><use xlink:href="#26" y="49.933"/><use xlink:href="#27" y="52.104"/><use xlink:href="#28" y="54.275"/><use xlink:href="#29" y="56.446"/><use xlink:href="#30" y="58.617"/><text x="2.004" y="62.458" class="h">e347e94d-264c-402e-bbc7-1b64e6254e68</text><text x="40.08" y="62.458" class="h">7d864d6b-bf2a-4d30-9edb-5f370822d6ee</text></svg><svg x="4480"><use xlink:href="#a"/><use xlink:href="#b" x="-.004" y="67.276"/><use xlink:href="#1"/><use xlink:href="#2" y="4.342"/><use xlink:href="#3" y="6.513"/><use xlink:href="#10" y="8.684"/><use xlink:href="#11" y="10.855"/><use xlink:href="#12" y="13.026"/><use xlink:href="#13" y="15.197"/><use xlink:href="#14" y="17.368"/><use xlink:href="#15" y="19.539"/><use xlink:href="#2" y="23.881"/><use xlink:href="#3" y="26.052"/><use xlink:href="#17" y="28.223"/><use xlink:href="#11" y="30.394"/><use xlink:href="#18" y="32.565"/><use xlink:href="#19" y="34.736"/><use xlink:href="#20" y="36.907"/><use xlink:href="#21" y="39.078"/><use xlink:href="#22" y="41.249"/><use xlink:href="#23" y="43.42"/><use xlink:href="#24" y="45.591"/><use xlink:href="#25" y="47.762"/><use xlink:href="#26" y="49.933"/><use xlink:href="#27" y="52.104"/><use xlink:href="#28" y="54.275"/><use xlink:href="#29" y="56.446"/><use xlink:href="#30" y="58.617"/><use xlink:href="#31" y="60.788"/><use xlink:href="#32" y="62.959"/><use xlink:href="#33" y="65.13"/></svg><svg x="4560"><use xlink:href="#a"/><use xlink:href="#b" x="-.004" y="71.618"/><use xlink:href="#1"/><use xlink:href="#2" y="4.342"/><use xlink:href="#3" y="6.513"/><use xlink:href="#10" y="8.684"/><use xlink:href="#11" y="10.855"/><use xlink:href="#12" y="13.026"/><use xlink:href="#13" y="15.197"/><use xlink:href="#14" y="17.368"/><use xlink:href="#15" y="19.539"/><use xlink:href="#2" y="23.881"/><use xlink:href="#3" y="26.052"/><use xlink:href="#17" y="28.223"/><use xlink:href="#11" y="30.394"/><use xlink:href="#18" y="32.565"/><use xlink:href="#19" y="34.736"/><use xlink:href="#20" y="36.907"/><use xlink:href="#21" y="39.078"/><use xlink:href="#22" y="41.249"/><use xlink:href="#23" y="43.42"/><use xlink:href="#24" y="45.591"/><use xlink:href="#25" y="47.762"/><use xlink:href="#26" y="49.933"/><use xlink:href="#27" y="52.104"/><use xlink:href="#28" y="54.275"/><use xlink:href="#29" y="56.446"/><use xlink:href="#30" y="58.617"/><use xlink:href="#31" y="60.788"/><use xlink:href="#32" y="62.959"/><use xlink:href="#33" y="65.13"/><use xlink:href="#1" y="67.301"/></svg><svg x="4640"><use xlink:href="#a"/><use xlink:href="#b" x="-.004" y="71.618"/><use xlink:href="#1"/><use xlink:href="#2" y="4.342"/><use xlink:href="#3" y="6.513"/><use xlink:href="#10" y="8.684"/><use xlink:href="#11" y="10.855"/><use xlink:href="#12" y="13.026"/><use xlink:href="#13" y="15.197"/><use xlink:href="#14" y="17.368"/><use xlink:href="#15" y="19.539"/><use xlink:href="#2" y="23.881"/><use xlink:href="#3" y="26.052"/><use xlink:href="#17" y="28.223"/><use xlink:href="#11" y="30.394"/><use xlink:href="#18" y="32.565"/><use xlink:href="#19" y="34.736"/><use xlink:href="#20" y="36.907"/><use xlink:href="#21" y="39.078"/><use xlink:href="#22" y="41.249"/><use xlink:href="#23" y="43.42"/><use xlink:href="#24" y="45.591"/><use xlink:href="#25" y="47.762"/><use xlink:href="#26" y="49.933"/><use xlink:href="#27" y="52.104"/><use xlink:href="#28" y="54.275"/><use xlink:href="#29" y="56.446"/><use xlink:href="#30" y="58.617"/><use xlink:href="#31" y="60.788"/><use xlink:href="#32" y="62.959"/><use xlink:href="#33" y="65.13"/><use xlink:href="#1" y="67.301"/></svg><svg x="4720"><use xlink:href="#a"/><use xlink:href="#b" x="5.996" y="75.96"/><use xlink:href="#1"/><use xlink:href="#2" y="4.342"/><use xlink:href="#3" y="6.513"/><use xlink:href="#10" y="8.684"/><use xlink:href="#11" y="10.855"/><use xlink:href="#12" y="13.026"/><use xlink:href="#13" y="15.197"/><use xlink:href="#14" y="17.368"/><use xlink:href="#15" y="19.539"/><use xlink:href="#2" y="23.881"/><use xlink:href="#3" y="26.052"/><use xlink:href="#17" y="28.223"/><use xlink:href="#11" y="30.394"/><use xlink:href="#18" y="32.565"/><use xlink:href="#19" y="34.736"/><use xlink:href="#20" y="36.907"/><use xlink:href="#21" y="39.078"/><use xlink:href="#22" y="41.249"/><use xlink:href="#23" y="43.42"/><use xlink:href="#24" y="45.591"/><use xlink:href="#25" y="47.762"/><use xlink:href="#26" y="49.933"/><use xlink:href="#27" y="52.104"/><use xlink:href="#28" y="54.275"/><use xlink:href="#29" y="56.446"/><use xlink:href="#30" y="58.617"/><use xlink:href="#31" y="60.788"/><use xlink:href="#32" y="62.959"/><use xlink:href="#33" y="65.13"/><use xlink:href="#1" y="67.301"/><use xlink:href="#2" y="71.643"/><use xlink:href="#3" y="73.814"/><use xlink:href="#4" y="75.985"/></svg><svg x="4800"><use xlink:href="#a"/><use xlink:href="#b" x="5.996" y="75.96"/><use xlink:href="#1"/><use xlink:href="#2" y="4.342"/><use xlink:href="#3" y="6.513"/><use xlink:href="#10" y="8.684"/><use xlink:href="#11" y="10.855"/><use xlink:href="#12" y="13.026"/><use xlink:href="#13" y="15.197"/><use xlink:href="#14" y="17.368"/><use xlink:href="#15" y="19.539"/><use xlink:href="#2" y="23.881"/><use xlink:href="#3" y="26.052"/><use xlink:href="#17" y="28.223"/><use xlink:href="#11" y="30.394"/><use xlink:href="#18" y="32.565"/><use xlink:href="#19" y="34.736"/><use xlink:href="#20" y="36.907"/><use xlink:href="#21" y="39.078"/><use xlink:href="#22" y="41.249"/><use xlink:href="#23" y="43.42"/><use xlink:href="#24" y="45.591"/><use xlink:href="#25" y="47.762"/><use xlink:href="#26" y="49.933"/><use xlink:href="#27" y="52.104"/><use xlink:href="#28" y="54.275"/><use xlink:href="#29" y="56.446"/><use xlink:href="#30" y="58.617"/><use xlink:href="#31" y="60.788"/><use xlink:href="#32" y="62.959"/><use xlink:href="#33" y="65.13"/><use xlink:href="#1" y="67.301"/><use xlink:href="#2" y="71.643"/><use xlink:href="#3" y="73.814"/><use xlink:href="#4" y="75.985"/></svg><svg x="4880"><use xlink:href="#a"/><use xlink:href="#b" x="-.004" y="78.131"/><use xlink:href="#1"/><use xlink:href="#2" y="4.342"/><use xlink:href="#3" y="6.513"/><use xlink:href="#10" y="8.684"/><use xlink:href="#11" y="10.855"/><use xlink:href="#12" y="13.026"/><use xlink:href="#13" y="15.197"/><use xlink:href="#14" y="17.368"/><use xlink:href="#15" y="19.539"/><use xlink:href="#2" y="23.881"/><use xlink:href="#3" y="26.052"/><use xlink:href="#17" y="28.223"/><use xlink:href="#11" y="30.394"/><use xlink:href="#18" y="32.565"/><use xlink:href="#19" y="34.736"/><use xlink:href="#20" y="36.907"/><use xlink:href="#21" y="39.078"/><use xlink:href="#22" y="41.249"/><use xlink:href="#23" y="43.42"/><use xlink:href="#24" y="45.591"/><use xlink:href="#25" y="47.762"/><use xlink:href="#26" y="49.933"/><use xlink:href="#27" y="52.104"/><use xlink:href="#28" y="54.275"/><use xlink:href="#29" y="56.446"/><use xlink:href="#30" y="58.617"/><use xlink:href="#31" y="60.788"/><use xlink:href="#32" y="62.959"/><use xlink:href="#33" y="65.13"/><use xlink:href="#1" y="67.301"/><use xlink:href="#2" y="71.643"/><use xlink:href="#3" y="73.814"/><use xlink:href="#4" y="75.985"/></svg></svg></g></g></svg></svg>