<svg xmlns="http://www.w3.org/2000/svg" xmlns:xlink="http://www.w3.org/1999/xlink" width="840" height="1102.08"><rect width="840" height="1102.08" rx="5" ry="5" class="a"/><svg y="0%" x="0%"><circle cx="20" cy="20" r="6" fill="#ff5f58"/><circle cx="40" cy="20" r="6" fill="#ffbd2e"/><circle cx="60" cy="20" r="6" fill="#18c132"/></svg><svg height="1042.08" viewBox="0 0 80 104.208" width="800" x="15" xmlns="http://www.w3.org/2000/svg" xmlns:xlink="http://www.w3.org/1999/xlink" y="50"><style>@keyframes r{0%{transform:translateX(0)}7%{transform:translateX(-160px)}7.9%{transform:translateX(-240px)}8%{transform:translateX(-400px)}12.5%{transform:translateX(-480px)}13.5%{transform:translateX(-560px)}15.9%{transform:translateX(-640px)}17.3%{transform:translateX(-720px)}18.8%{transform:translateX(-800px)}20.8%{transform:translateX(-880px)}21.4%{transform:translateX(-960px)}23.4%{transform:translateX(-1040px)}24.3%{transform:translateX(-1120px)}24.7%{transform:translateX(-1200px)}26.6%{transform:translateX(-1280px)}27.6%{transform:translateX(-1360px)}29.3%{transform:translateX(-1520px)}30.6%{transform:translateX(-1600px)}31.5%{transform:translateX(-1680px)}34.7%{transform:translateX(-1760px)}36.1%{transform:translateX(-1840px)}37.7%{transform:translateX(-1920px)}38.6%{transform:translateX(-2000px)}44.3%{transform:translateX(-2080px)}45.9%{transform:translateX(-2160px)}47.4%{transform:translateX(-2240px)}48.9%{transform:translateX(-2320px)}50.4%{transform:translateX(-2400px)}51.1%{transform:translateX(-2480px)}51.9%{transform:translateX(-2560px)}53.6%{transform:translateX(-2640px)}56%{transform:translateX(-2720px)}58.3%{transform:translateX(-2800px)}60%{transform:translateX(-2880px)}61.7%{transform:translateX(-2960px)}62.1%{transform:translateX(-3040px)}67.4%{transform:translateX(-3120px)}69%{transform:translateX(-3200px)}69.7%{transform:translateX(-3280px)}71.1%{transform:translateX(-3360px)}71.9%{transform:translateX(-3440px)}73.3%{transform:translateX(-3600px)}73.4%{transform:translateX(-3680px)}73.5%{transform:translateX(-3760px)}80.3%{transform:translateX(-3840px)}82%{transform:translateX(-4000px)}82.8%{transform:translateX(-4160px)}to{transform:translateX(-4240px)}}.a{fill:#282d35}.h,.l,.m{fill:#b9c0cb;white-space:pre}.l,.m{fill:#b9bfca;font-weight:700}.m{fill:#a8cc8c}</style><g font-family="Monaco,Consolas,Menlo,'Bitstream Vera Sans Mono','Powerline Symbols',monospace" font-size="1.67"><defs><symbol id="13"><text y="1.67" style="white-space:pre" fill="#6f7783">[0000]</text><text x="8.016" y="1.67" style="white-space:pre" fill="#a8cc8c">INFO</text><text x="13.026" y="1.67" class="h">Pixie</text><text x="19.038" y="1.67" class="h">CLI</text></symbol><symbol id="1"><path fill="#b9c0cb" d="M0 0h1v2.171H0z"/><text y="1.67" style="white-space:pre" fill="#282d35" font-weight="700">%</text></symbol><symbol id="3"><text y="1.67" style="white-space:pre" fill="#d290e4" font-weight="700">zasgar@zasgar-lt</text><text x="17.034" y="1.67" style="white-space:pre" fill="#b9bfca">‹</text><text x="19.038" y="1.67" style="white-space:pre" fill="#dbab79" font-weight="700">pxl</text><text x="23.046" y="1.67" class="l">●</text><text x="25.05" y="1.67" class="l">›</text><text x="27.054" y="1.67" class="h">:</text><text x="29.058" y="1.67" class="h">~/pixie/pxl_scripts</text></symbol><symbol id="4"><text y="1.67" class="h">[</text><text x="1.002" y="1.67" class="m">0</text><text x="2.004" y="1.67" class="h">]</text><text x="4.008" y="1.67" class="h">%</text></symbol><symbol id="5"><text y="1.67" class="h">[</text><text x="1.002" y="1.67" class="m">0</text><text x="2.004" y="1.67" class="h">]</text><text x="4.008" y="1.67" class="h">%</text><text x="6.012" y="1.67" class="h">px</text></symbol><symbol id="6"><text y="1.67" class="h">[</text><text x="1.002" y="1.67" class="m">0</text><text x="2.004" y="1.67" class="h">]</text><text x="4.008" y="1.67" class="h">%</text><text x="6.012" y="1.67" class="h">px</text><text x="9.018" y="1.67" class="h">script</text></symbol><symbol id="7"><text y="1.67" class="h">[</text><text x="1.002" y="1.67" class="m">0</text><text x="2.004" y="1.67" class="h">]</text><text x="4.008" y="1.67" class="h">%</text><text x="6.012" y="1.67" class="h">px</text><text x="9.018" y="1.67" class="h">script</text><text x="16.032" y="1.67" class="h">show</text></symbol><symbol id="8"><text y="1.67" class="h">[</text><text x="1.002" y="1.67" class="m">0</text><text x="2.004" y="1.67" class="h">]</text><text x="4.008" y="1.67" class="h">%</text><text x="6.012" y="1.67" class="h">px</text><text x="9.018" y="1.67" class="h">script</text><text x="16.032" y="1.67" class="h">show</text><text x="21.042" y="1.67" class="h">m</text></symbol><symbol id="9"><text y="1.67" class="h">[</text><text x="1.002" y="1.67" class="m">0</text><text x="2.004" y="1.67" class="h">]</text><text x="4.008" y="1.67" class="h">%</text><text x="6.012" y="1.67" class="h">px</text><text x="9.018" y="1.67" class="h">script</text><text x="16.032" y="1.67" class="h">show</text><text x="21.042" y="1.67" class="h">my</text></symbol><symbol id="10"><text y="1.67" class="h">[</text><text x="1.002" y="1.67" class="m">0</text><text x="2.004" y="1.67" class="h">]</text><text x="4.008" y="1.67" class="h">%</text><text x="6.012" y="1.67" class="h">px</text><text x="9.018" y="1.67" class="h">script</text><text x="16.032" y="1.67" class="h">show</text><text x="21.042" y="1.67" class="h">mys</text></symbol><symbol id="11"><text y="1.67" class="h">[</text><text x="1.002" y="1.67" class="m">0</text><text x="2.004" y="1.67" class="h">]</text><text x="4.008" y="1.67" class="h">%</text><text x="6.012" y="1.67" class="h">px</text><text x="9.018" y="1.67" class="h">script</text><text x="16.032" y="1.67" class="h">show</text><text x="21.042" y="1.67" class="h">mysq</text></symbol><symbol id="12"><text y="1.67" class="h">[</text><text x="1.002" y="1.67" class="m">0</text><text x="2.004" y="1.67" class="h">]</text><text x="4.008" y="1.67" class="h">%</text><text x="6.012" y="1.67" class="h">px</text><text x="9.018" y="1.67" class="h">script</text><text x="16.032" y="1.67" class="h">show</text><text x="21.042" y="1.67" class="h">px/mysql_data</text></symbol><symbol id="2"><text y="1.67" class="h">(base)</text></symbol><symbol id="14"><text y="1.67" class="h">t1</text><text x="3.006" y="1.67" class="h">=</text><text x="5.01" y="1.67" class="h">px.DataFrame(table=&apos;mysql_events&apos;,</text><text x="40.08" y="1.67" class="h">select=[&apos;time_&apos;,</text><text x="57.114" y="1.67" class="h">&apos;remote_addr&apos;,</text><text x="72.144" y="1.67" class="h">&apos;remote_</text></symbol><symbol id="15"><text y="1.67" class="h">port&apos;,</text></symbol><symbol id="16"><text x="48.096" y="1.67" class="h">&apos;req_cmd&apos;,</text><text x="59.118" y="1.67" class="h">&apos;req_body&apos;,</text><text x="71.142" y="1.67" class="h">&apos;resp_sta</text></symbol><symbol id="17"><text y="1.67" class="h">tus&apos;,</text></symbol><symbol id="18"><text x="48.096" y="1.67" class="h">&apos;resp_body&apos;,</text><text x="61.122" y="1.67" class="h">&apos;latency_ns&apos;],</text><text x="76.152" y="1.67" class="h">star</text></symbol><symbol id="19"><text y="1.67" class="h">t_time=&apos;-30s&apos;)</text></symbol><symbol id="20"><text y="1.67" class="h">t1.latency_ms</text><text x="14.028" y="1.67" class="h">=</text><text x="16.032" y="1.67" class="h">t1.latency_ns</text><text x="30.06" y="1.67" class="h">/</text><text x="32.064" y="1.67" class="h">1.0E6</text></symbol><symbol id="21"><text y="1.67" class="h">t2</text><text x="3.006" y="1.67" class="h">=</text><text x="5.01" y="1.67" class="h">t1.drop(columns=[&apos;latency_ns&apos;]).head(n=100)</text></symbol><symbol id="22"><text y="1.67" class="h">px.display(t2)</text></symbol><symbol id="a"><path fill="transparent" d="M0 0h80v48H0z"/></symbol><symbol id="b"><path fill="#6f7683" d="M0 0h1.102v2.171H0z"/></symbol></defs><path class="a" d="M0 0h80v104.208H0z"/><g style="animation-duration:9.188639s;animation-iteration-count:infinite;animation-name:r;animation-timing-function:steps(1,end)"><svg width="4320"><svg><use xlink:href="#a"/><use xlink:href="#b" x="-.004"/></svg><svg x="80"><use xlink:href="#a"/><use xlink:href="#b" x="-.004" y="4.317"/><use xlink:href="#1"/></svg><svg x="160"><use xlink:href="#a"/><use xlink:href="#b" x="-.004" y="4.317"/><use xlink:href="#1"/></svg><svg x="240"><use xlink:href="#a"/><use xlink:href="#b" x="5.996" y="8.659"/><use xlink:href="#1"/><use xlink:href="#2" y="4.342"/><use xlink:href="#3" y="6.513"/><use xlink:href="#4" y="8.684"/></svg><svg x="320"><use xlink:href="#a"/><use xlink:href="#b" x="5.996" y="8.659"/><use xlink:href="#1"/><use xlink:href="#2" y="4.342"/><use xlink:href="#3" y="6.513"/><use xlink:href="#4" y="8.684"/></svg><svg x="400"><use xlink:href="#a"/><use xlink:href="#b" x="5.996" y="8.659"/><use xlink:href="#1"/><use xlink:href="#2" y="4.342"/><use xlink:href="#3" y="6.513"/><use xlink:href="#4" y="8.684"/></svg><svg x="480"><use xlink:href="#a"/><use xlink:href="#b" x="6.996" y="8.659"/><use xlink:href="#1"/><use xlink:href="#2" y="4.342"/><use xlink:href="#3" y="6.513"/><text y="10.354" class="h">[</text><text x="1.002" y="10.354" class="m">0</text><text x="2.004" y="10.354" class="h">]</text><text x="4.008" y="10.354" class="h">%</text><text x="6.012" y="10.354" class="h">p</text></svg><svg x="560"><use xlink:href="#a"/><use xlink:href="#b" x="7.996" y="8.659"/><use xlink:href="#1"/><use xlink:href="#2" y="4.342"/><use xlink:href="#3" y="6.513"/><use xlink:href="#5" y="8.684"/></svg><svg x="640"><use xlink:href="#a"/><use xlink:href="#b" x="8.996" y="8.659"/><use xlink:href="#1"/><use xlink:href="#2" y="4.342"/><use xlink:href="#3" y="6.513"/><use xlink:href="#5" y="8.684"/></svg><svg x="720"><use xlink:href="#a"/><use xlink:href="#b" x="9.996" y="8.659"/><use xlink:href="#1"/><use xlink:href="#2" y="4.342"/><use xlink:href="#3" y="6.513"/><text y="10.354" class="h">[</text><text x="1.002" y="10.354" class="m">0</text><text x="2.004" y="10.354" class="h">]</text><text x="4.008" y="10.354" class="h">%</text><text x="6.012" y="10.354" class="h">px</text><text x="9.018" y="10.354" class="h">s</text></svg><svg x="800"><use xlink:href="#a"/><use xlink:href="#b" x="10.996" y="8.659"/><use xlink:href="#1"/><use xlink:href="#2" y="4.342"/><use xlink:href="#3" y="6.513"/><text y="10.354" class="h">[</text><text x="1.002" y="10.354" class="m">0</text><text x="2.004" y="10.354" class="h">]</text><text x="4.008" y="10.354" class="h">%</text><text x="6.012" y="10.354" class="h">px</text><text x="9.018" y="10.354" class="h">sc</text></svg><svg x="880"><use xlink:href="#a"/><use xlink:href="#b" x="11.996" y="8.659"/><use xlink:href="#1"/><use xlink:href="#2" y="4.342"/><use xlink:href="#3" y="6.513"/><text y="10.354" class="h">[</text><text x="1.002" y="10.354" class="m">0</text><text x="2.004" y="10.354" class="h">]</text><text x="4.008" y="10.354" class="h">%</text><text x="6.012" y="10.354" class="h">px</text><text x="9.018" y="10.354" class="h">scr</text></svg><svg x="960"><use xlink:href="#a"/><use xlink:href="#b" x="12.996" y="8.659"/><use xlink:href="#1"/><use xlink:href="#2" y="4.342"/><use xlink:href="#3" y="6.513"/><text y="10.354" class="h">[</text><text x="1.002" y="10.354" class="m">0</text><text x="2.004" y="10.354" class="h">]</text><text x="4.008" y="10.354" class="h">%</text><text x="6.012" y="10.354" class="h">px</text><text x="9.018" y="10.354" class="h">scri</text></svg><svg x="1040"><use xlink:href="#a"/><use xlink:href="#b" x="13.996" y="8.659"/><use xlink:href="#1"/><use xlink:href="#2" y="4.342"/><use xlink:href="#3" y="6.513"/><text y="10.354" class="h">[</text><text x="1.002" y="10.354" class="m">0</text><text x="2.004" y="10.354" class="h">]</text><text x="4.008" y="10.354" class="h">%</text><text x="6.012" y="10.354" class="h">px</text><text x="9.018" y="10.354" class="h">scrip</text></svg><svg x="1120"><use xlink:href="#a"/><use xlink:href="#b" x="14.996" y="8.659"/><use xlink:href="#1"/><use xlink:href="#2" y="4.342"/><use xlink:href="#3" y="6.513"/><use xlink:href="#6" y="8.684"/></svg><svg x="1200"><use xlink:href="#a"/><use xlink:href="#b" x="15.996" y="8.659"/><use xlink:href="#1"/><use xlink:href="#2" y="4.342"/><use xlink:href="#3" y="6.513"/><use xlink:href="#6" y="8.684"/></svg><svg x="1280"><use xlink:href="#a"/><use xlink:href="#b" x="16.996" y="8.659"/><use xlink:href="#1"/><use xlink:href="#2" y="4.342"/><use xlink:href="#3" y="6.513"/><text y="10.354" class="h">[</text><text x="1.002" y="10.354" class="m">0</text><text x="2.004" y="10.354" class="h">]</text><text x="4.008" y="10.354" class="h">%</text><text x="6.012" y="10.354" class="h">px</text><text x="9.018" y="10.354" class="h">script</text><text x="16.032" y="10.354" class="h">s</text></svg><svg x="1360"><use xlink:href="#a"/><use xlink:href="#b" x="17.996" y="8.659"/><use xlink:href="#1"/><use xlink:href="#2" y="4.342"/><use xlink:href="#3" y="6.513"/><text y="10.354" class="h">[</text><text x="1.002" y="10.354" class="m">0</text><text x="2.004" y="10.354" class="h">]</text><text x="4.008" y="10.354" class="h">%</text><text x="6.012" y="10.354" class="h">px</text><text x="9.018" y="10.354" class="h">script</text><text x="16.032" y="10.354" class="h">sh</text></svg><svg x="1440"><use xlink:href="#a"/><use xlink:href="#b" x="18.996" y="8.659"/><use xlink:href="#1"/><use xlink:href="#2" y="4.342"/><use xlink:href="#3" y="6.513"/><text y="10.354" class="h">[</text><text x="1.002" y="10.354" class="m">0</text><text x="2.004" y="10.354" class="h">]</text><text x="4.008" y="10.354" class="h">%</text><text x="6.012" y="10.354" class="h">px</text><text x="9.018" y="10.354" class="h">script</text><text x="16.032" y="10.354" class="h">sho</text></svg><svg x="1520"><use xlink:href="#a"/><use xlink:href="#b" x="19.996" y="8.659"/><use xlink:href="#1"/><use xlink:href="#2" y="4.342"/><use xlink:href="#3" y="6.513"/><use xlink:href="#7" y="8.684"/></svg><svg x="1600"><use xlink:href="#a"/><use xlink:href="#b" x="20.996" y="8.659"/><use xlink:href="#1"/><use xlink:href="#2" y="4.342"/><use xlink:href="#3" y="6.513"/><use xlink:href="#7" y="8.684"/></svg><svg x="1680"><use xlink:href="#a"/><use xlink:href="#b" x="21.996" y="8.659"/><use xlink:href="#1"/><use xlink:href="#2" y="4.342"/><use xlink:href="#3" y="6.513"/><use xlink:href="#8" y="8.684"/></svg><svg x="1760"><use xlink:href="#a"/><use xlink:href="#b" x="22.996" y="8.659"/><use xlink:href="#1"/><use xlink:href="#2" y="4.342"/><use xlink:href="#3" y="6.513"/><use xlink:href="#9" y="8.684"/></svg><svg x="1840"><use xlink:href="#a"/><use xlink:href="#b" x="23.996" y="8.659"/><use xlink:href="#1"/><use xlink:href="#2" y="4.342"/><use xlink:href="#3" y="6.513"/><use xlink:href="#10" y="8.684"/></svg><svg x="1920"><use xlink:href="#a"/><use xlink:href="#b" x="24.996" y="8.659"/><use xlink:href="#1"/><use xlink:href="#2" y="4.342"/><use xlink:href="#3" y="6.513"/><use xlink:href="#11" y="8.684"/></svg><svg x="2000"><use xlink:href="#a"/><use xlink:href="#b" x="25.996" y="8.659"/><use xlink:href="#1"/><use xlink:href="#2" y="4.342"/><use xlink:href="#3" y="6.513"/><text y="10.354" class="h">[</text><text x="1.002" y="10.354" class="m">0</text><text x="2.004" y="10.354" class="h">]</text><text x="4.008" y="10.354" class="h">%</text><text x="6.012" y="10.354" class="h">px</text><text x="9.018" y="10.354" class="h">script</text><text x="16.032" y="10.354" class="h">show</text><text x="21.042" y="10.354" class="h">mysql</text></svg><svg x="2080"><use xlink:href="#a"/><use xlink:href="#b" x="24.996" y="8.659"/><use xlink:href="#1"/><use xlink:href="#2" y="4.342"/><use xlink:href="#3" y="6.513"/><use xlink:href="#11" y="8.684"/></svg><svg x="2160"><use xlink:href="#a"/><use xlink:href="#b" x="23.996" y="8.659"/><use xlink:href="#1"/><use xlink:href="#2" y="4.342"/><use xlink:href="#3" y="6.513"/><use xlink:href="#10" y="8.684"/></svg><svg x="2240"><use xlink:href="#a"/><use xlink:href="#b" x="22.996" y="8.659"/><use xlink:href="#1"/><use xlink:href="#2" y="4.342"/><use xlink:href="#3" y="6.513"/><use xlink:href="#9" y="8.684"/></svg><svg x="2320"><use xlink:href="#a"/><use xlink:href="#b" x="21.996" y="8.659"/><use xlink:href="#1"/><use xlink:href="#2" y="4.342"/><use xlink:href="#3" y="6.513"/><use xlink:href="#8" y="8.684"/></svg><svg x="2400"><use xlink:href="#a"/><use xlink:href="#b" x="20.996" y="8.659"/><use xlink:href="#1"/><use xlink:href="#2" y="4.342"/><use xlink:href="#3" y="6.513"/><use xlink:href="#7" y="8.684"/></svg><svg x="2480"><use xlink:href="#a"/><use xlink:href="#b" x="21.996" y="8.659"/><use xlink:href="#1"/><use xlink:href="#2" y="4.342"/><use xlink:href="#3" y="6.513"/><text y="10.354" class="h">[</text><text x="1.002" y="10.354" class="m">0</text><text x="2.004" y="10.354" class="h">]</text><text x="4.008" y="10.354" class="h">%</text><text x="6.012" y="10.354" class="h">px</text><text x="9.018" y="10.354" class="h">script</text><text x="16.032" y="10.354" class="h">show</text><text x="21.042" y="10.354" class="h">p</text></svg><svg x="2560"><use xlink:href="#a"/><use xlink:href="#b" x="22.996" y="8.659"/><use xlink:href="#1"/><use xlink:href="#2" y="4.342"/><use xlink:href="#3" y="6.513"/><text y="10.354" class="h">[</text><text x="1.002" y="10.354" class="m">0</text><text x="2.004" y="10.354" class="h">]</text><text x="4.008" y="10.354" class="h">%</text><text x="6.012" y="10.354" class="h">px</text><text x="9.018" y="10.354" class="h">script</text><text x="16.032" y="10.354" class="h">show</text><text x="21.042" y="10.354" class="h">px</text></svg><svg x="2640"><use xlink:href="#a"/><use xlink:href="#b" x="23.996" y="8.659"/><use xlink:href="#1"/><use xlink:href="#2" y="4.342"/><use xlink:href="#3" y="6.513"/><text y="10.354" class="h">[</text><text x="1.002" y="10.354" class="m">0</text><text x="2.004" y="10.354" class="h">]</text><text x="4.008" y="10.354" class="h">%</text><text x="6.012" y="10.354" class="h">px</text><text x="9.018" y="10.354" class="h">script</text><text x="16.032" y="10.354" class="h">show</text><text x="21.042" y="10.354" class="h">px/</text></svg><svg x="2720"><use xlink:href="#a"/><use xlink:href="#b" x="24.996" y="8.659"/><use xlink:href="#1"/><use xlink:href="#2" y="4.342"/><use xlink:href="#3" y="6.513"/><text y="10.354" class="h">[</text><text x="1.002" y="10.354" class="m">0</text><text x="2.004" y="10.354" class="h">]</text><text x="4.008" y="10.354" class="h">%</text><text x="6.012" y="10.354" class="h">px</text><text x="9.018" y="10.354" class="h">script</text><text x="16.032" y="10.354" class="h">show</text><text x="21.042" y="10.354" class="h">px/m</text></svg><svg x="2800"><use xlink:href="#a"/><use xlink:href="#b" x="25.996" y="8.659"/><use xlink:href="#1"/><use xlink:href="#2" y="4.342"/><use xlink:href="#3" y="6.513"/><text y="10.354" class="h">[</text><text x="1.002" y="10.354" class="m">0</text><text x="2.004" y="10.354" class="h">]</text><text x="4.008" y="10.354" class="h">%</text><text x="6.012" y="10.354" class="h">px</text><text x="9.018" y="10.354" class="h">script</text><text x="16.032" y="10.354" class="h">show</text><text x="21.042" y="10.354" class="h">px/my</text></svg><svg x="2880"><use xlink:href="#a"/><use xlink:href="#b" x="26.996" y="8.659"/><use xlink:href="#1"/><use xlink:href="#2" y="4.342"/><use xlink:href="#3" y="6.513"/><text y="10.354" class="h">[</text><text x="1.002" y="10.354" class="m">0</text><text x="2.004" y="10.354" class="h">]</text><text x="4.008" y="10.354" class="h">%</text><text x="6.012" y="10.354" class="h">px</text><text x="9.018" y="10.354" class="h">script</text><text x="16.032" y="10.354" class="h">show</text><text x="21.042" y="10.354" class="h">px/mys</text></svg><svg x="2960"><use xlink:href="#a"/><use xlink:href="#b" x="27.996" y="8.659"/><use xlink:href="#1"/><use xlink:href="#2" y="4.342"/><use xlink:href="#3" y="6.513"/><text y="10.354" class="h">[</text><text x="1.002" y="10.354" class="m">0</text><text x="2.004" y="10.354" class="h">]</text><text x="4.008" y="10.354" class="h">%</text><text x="6.012" y="10.354" class="h">px</text><text x="9.018" y="10.354" class="h">script</text><text x="16.032" y="10.354" class="h">show</text><text x="21.042" y="10.354" class="h">px/mysq</text></svg><svg x="3040"><use xlink:href="#a"/><use xlink:href="#b" x="28.996" y="8.659"/><use xlink:href="#1"/><use xlink:href="#2" y="4.342"/><use xlink:href="#3" y="6.513"/><text y="10.354" class="h">[</text><text x="1.002" y="10.354" class="m">0</text><text x="2.004" y="10.354" class="h">]</text><text x="4.008" y="10.354" class="h">%</text><text x="6.012" y="10.354" class="h">px</text><text x="9.018" y="10.354" class="h">script</text><text x="16.032" y="10.354" class="h">show</text><text x="21.042" y="10.354" class="h">px/mysql</text></svg><svg x="3120"><use xlink:href="#a"/><use xlink:href="#b" x="29.996" y="8.659"/><use xlink:href="#1"/><use xlink:href="#2" y="4.342"/><use xlink:href="#3" y="6.513"/><text y="10.354" class="h">[</text><text x="1.002" y="10.354" class="m">0</text><text x="2.004" y="10.354" class="h">]</text><text x="4.008" y="10.354" class="h">%</text><text x="6.012" y="10.354" class="h">px</text><text x="9.018" y="10.354" class="h">script</text><text x="16.032" y="10.354" class="h">show</text><text x="21.042" y="10.354" class="h">px/mysql_</text></svg><svg x="3200"><use xlink:href="#a"/><use xlink:href="#b" x="30.996" y="8.659"/><use xlink:href="#1"/><use xlink:href="#2" y="4.342"/><use xlink:href="#3" y="6.513"/><text y="10.354" class="h">[</text><text x="1.002" y="10.354" class="m">0</text><text x="2.004" y="10.354" class="h">]</text><text x="4.008" y="10.354" class="h">%</text><text x="6.012" y="10.354" class="h">px</text><text x="9.018" y="10.354" class="h">script</text><text x="16.032" y="10.354" class="h">show</text><text x="21.042" y="10.354" class="h">px/mysql_d</text></svg><svg x="3280"><use xlink:href="#a"/><use xlink:href="#b" x="31.996" y="8.659"/><use xlink:href="#1"/><use xlink:href="#2" y="4.342"/><use xlink:href="#3" y="6.513"/><text y="10.354" class="h">[</text><text x="1.002" y="10.354" class="m">0</text><text x="2.004" y="10.354" class="h">]</text><text x="4.008" y="10.354" class="h">%</text><text x="6.012" y="10.354" class="h">px</text><text x="9.018" y="10.354" class="h">script</text><text x="16.032" y="10.354" class="h">show</text><text x="21.042" y="10.354" class="h">px/mysql_da</text></svg><svg x="3360"><use xlink:href="#a"/><use xlink:href="#b" x="32.996" y="8.659"/><use xlink:href="#1"/><use xlink:href="#2" y="4.342"/><use xlink:href="#3" y="6.513"/><text y="10.354" class="h">[</text><text x="1.002" y="10.354" class="m">0</text><text x="2.004" y="10.354" class="h">]</text><text x="4.008" y="10.354" class="h">%</text><text x="6.012" y="10.354" class="h">px</text><text x="9.018" y="10.354" class="h">script</text><text x="16.032" y="10.354" class="h">show</text><text x="21.042" y="10.354" class="h">px/mysql_dat</text></svg><svg x="3440"><use xlink:href="#a"/><use xlink:href="#b" x="33.996" y="8.659"/><use xlink:href="#1"/><use xlink:href="#2" y="4.342"/><use xlink:href="#3" y="6.513"/><use xlink:href="#12" y="8.684"/></svg><svg x="3520"><use xlink:href="#a"/><use xlink:href="#b" x="33.996" y="8.659"/><use xlink:href="#1"/><use xlink:href="#2" y="4.342"/><use xlink:href="#3" y="6.513"/><use xlink:href="#12" y="8.684"/></svg><svg x="3600"><use xlink:href="#a"/><use xlink:href="#b" x="-.004" y="10.83"/><use xlink:href="#1"/><use xlink:href="#2" y="4.342"/><use xlink:href="#3" y="6.513"/><use xlink:href="#12" y="8.684"/></svg><svg x="3680"><use xlink:href="#a"/><use xlink:href="#b" x="-.004" y="10.83"/><use xlink:href="#1"/><use xlink:href="#2" y="4.342"/><use xlink:href="#3" y="6.513"/><use xlink:href="#12" y="8.684"/></svg><svg x="3760"><use xlink:href="#a"/><use xlink:href="#b" x="-.004" y="13.001"/><use xlink:href="#1"/><use xlink:href="#2" y="4.342"/><use xlink:href="#3" y="6.513"/><use xlink:href="#12" y="8.684"/><use xlink:href="#13" y="10.855"/></svg><svg x="3840"><use xlink:href="#a"/><use xlink:href="#b" x="-.004" y="36.882"/><use xlink:href="#1"/><use xlink:href="#2" y="4.342"/><use xlink:href="#3" y="6.513"/><use xlink:href="#12" y="8.684"/><use xlink:href="#13" y="10.855"/><use xlink:href="#14" y="13.026"/><use xlink:href="#15" y="15.197"/><use xlink:href="#16" y="17.368"/><use xlink:href="#17" y="19.539"/><use xlink:href="#18" y="21.71"/><use xlink:href="#19" y="23.881"/><use xlink:href="#20" y="28.223"/><use xlink:href="#21" y="30.394"/><use xlink:href="#22" y="34.736"/></svg><svg x="3920"><use xlink:href="#a"/><use xlink:href="#b" x="-.004" y="41.224"/><use xlink:href="#1"/><use xlink:href="#2" y="4.342"/><use xlink:href="#3" y="6.513"/><use xlink:href="#12" y="8.684"/><use xlink:href="#13" y="10.855"/><use xlink:href="#14" y="13.026"/><use xlink:href="#15" y="15.197"/><use xlink:href="#16" y="17.368"/><use xlink:href="#17" y="19.539"/><use xlink:href="#18" y="21.71"/><use xlink:href="#19" y="23.881"/><use xlink:href="#20" y="28.223"/><use xlink:href="#21" y="30.394"/><use xlink:href="#22" y="34.736"/><use xlink:href="#1" y="36.907"/></svg><svg x="4000"><use xlink:href="#a"/><use xlink:href="#b" x="-.004" y="41.224"/><use xlink:href="#1"/><use xlink:href="#2" y="4.342"/><use xlink:href="#3" y="6.513"/><use xlink:href="#12" y="8.684"/><use xlink:href="#13" y="10.855"/><use xlink:href="#14" y="13.026"/><use xlink:href="#15" y="15.197"/><use xlink:href="#16" y="17.368"/><use xlink:href="#17" y="19.539"/><use xlink:href="#18" y="21.71"/><use xlink:href="#19" y="23.881"/><use xlink:href="#20" y="28.223"/><use xlink:href="#21" y="30.394"/><use xlink:href="#22" y="34.736"/><use xlink:href="#1" y="36.907"/></svg><svg x="4080"><use xlink:href="#a"/><use xlink:href="#b" x="5.996" y="45.566"/><use xlink:href="#1"/><use xlink:href="#2" y="4.342"/><use xlink:href="#3" y="6.513"/><use xlink:href="#12" y="8.684"/><use xlink:href="#13" y="10.855"/><use xlink:href="#14" y="13.026"/><use xlink:href="#15" y="15.197"/><use xlink:href="#16" y="17.368"/><use xlink:href="#17" y="19.539"/><use xlink:href="#18" y="21.71"/><use xlink:href="#19" y="23.881"/><use xlink:href="#20" y="28.223"/><use xlink:href="#21" y="30.394"/><use xlink:href="#22" y="34.736"/><use xlink:href="#1" y="36.907"/><use xlink:href="#2" y="41.249"/><use xlink:href="#3" y="43.42"/><use xlink:href="#4" y="45.591"/></svg><svg x="4160"><use xlink:href="#a"/><use xlink:href="#b" x="5.996" y="45.566"/><use xlink:href="#1"/><use xlink:href="#2" y="4.342"/><use xlink:href="#3" y="6.513"/><use xlink:href="#12" y="8.684"/><use xlink:href="#13" y="10.855"/><use xlink:href="#14" y="13.026"/><use xlink:href="#15" y="15.197"/><use xlink:href="#16" y="17.368"/><use xlink:href="#17" y="19.539"/><use xlink:href="#18" y="21.71"/><use xlink:href="#19" y="23.881"/><use xlink:href="#20" y="28.223"/><use xlink:href="#21" y="30.394"/><use xlink:href="#22" y="34.736"/><use xlink:href="#1" y="36.907"/><use xlink:href="#2" y="41.249"/><use xlink:href="#3" y="43.42"/><use xlink:href="#4" y="45.591"/></svg><svg x="4240"><use xlink:href="#a"/><use xlink:href="#b" x="-.004" y="47.737"/><use xlink:href="#1"/><use xlink:href="#2" y="4.342"/><use xlink:href="#3" y="6.513"/><use xlink:href="#12" y="8.684"/><use xlink:href="#13" y="10.855"/><use xlink:href="#14" y="13.026"/><use xlink:href="#15" y="15.197"/><use xlink:href="#16" y="17.368"/><use xlink:href="#17" y="19.539"/><use xlink:href="#18" y="21.71"/><use xlink:href="#19" y="23.881"/><use xlink:href="#20" y="28.223"/><use xlink:href="#21" y="30.394"/><use xlink:href="#22" y="34.736"/><use xlink:href="#1" y="36.907"/><use xlink:href="#2" y="41.249"/><use xlink:href="#3" y="43.42"/><use xlink:href="#4" y="45.591"/></svg></svg></g></g></svg></svg>