<svg width="1857" height="345" viewBox="0 0 1857 345" fill="none" xmlns="http://www.w3.org/2000/svg">
<path d="M0.5 0.5H1856.5V344.5H0.5V0.5Z" fill="white" stroke="white"/>
<path d="M1709.02 236H1702V243.018H1709.02V236Z" fill="#404040"/>
<path d="M1662.02 283H1655V290.018H1662.02V283Z" fill="#3FE7E7"/>
<path d="M1709.02 330H1702V337.018H1709.02V330Z" fill="#404040"/>
<path d="M1845.02 106H1838V113.018H1845.02V106Z" fill="#404040"/>
<path d="M1845.02 153H1838V160.018H1845.02V153Z" fill="#9696A5"/>
<path d="M1615.02 330H1608V337.018H1615.02V330Z" fill="#404040"/>
<path d="M1662.02 330H1655V337.018H1662.02V330Z" fill="#9696A5"/>
<path d="M813.718 283.216C812.434 283.216 811.27 282.94 810.226 282.388C809.194 281.824 808.378 281.05 807.778 280.066C807.19 279.07 806.896 277.948 806.896 276.7C806.896 275.452 807.19 274.336 807.778 273.352C808.378 272.356 809.194 271.582 810.226 271.03C811.27 270.466 812.44 270.184 813.736 270.184C814.828 270.184 815.812 270.376 816.688 270.76C817.576 271.144 818.32 271.696 818.92 272.416L817.048 274.144C816.196 273.16 815.14 272.668 813.88 272.668C813.1 272.668 812.404 272.842 811.792 273.19C811.18 273.526 810.7 274 810.352 274.612C810.016 275.224 809.848 275.92 809.848 276.7C809.848 277.48 810.016 278.176 810.352 278.788C810.7 279.4 811.18 279.88 811.792 280.228C812.404 280.564 813.1 280.732 813.88 280.732C815.14 280.732 816.196 280.234 817.048 279.238L818.92 280.966C818.32 281.698 817.576 282.256 816.688 282.64C815.8 283.024 814.81 283.216 813.718 283.216ZM832.127 283.216C830.819 283.216 829.637 282.934 828.581 282.37C827.537 281.806 826.715 281.032 826.115 280.048C825.527 279.052 825.233 277.936 825.233 276.7C825.233 275.464 825.527 274.354 826.115 273.37C826.715 272.374 827.537 271.594 828.581 271.03C829.637 270.466 830.819 270.184 832.127 270.184C833.435 270.184 834.611 270.466 835.655 271.03C836.699 271.594 837.521 272.374 838.121 273.37C838.721 274.354 839.021 275.464 839.021 276.7C839.021 277.936 838.721 279.052 838.121 280.048C837.521 281.032 836.699 281.806 835.655 282.37C834.611 282.934 833.435 283.216 832.127 283.216ZM832.127 280.732C832.871 280.732 833.543 280.564 834.143 280.228C834.743 279.88 835.211 279.4 835.547 278.788C835.895 278.176 836.069 277.48 836.069 276.7C836.069 275.92 835.895 275.224 835.547 274.612C835.211 274 834.743 273.526 834.143 273.19C833.543 272.842 832.871 272.668 832.127 272.668C831.383 272.668 830.711 272.842 830.111 273.19C829.511 273.526 829.037 274 828.689 274.612C828.353 275.224 828.185 275.92 828.185 276.7C828.185 277.48 828.353 278.176 828.689 278.788C829.037 279.4 829.511 279.88 830.111 280.228C830.711 280.564 831.383 280.732 832.127 280.732ZM858.079 283L858.061 275.44L854.353 281.668H853.039L849.349 275.602V283H846.613V270.4H849.025L853.741 278.23L858.385 270.4H860.779L860.815 283H858.079ZM880.67 283L880.652 275.44L876.944 281.668H875.63L871.94 275.602V283H869.204V270.4H871.616L876.332 278.23L880.976 270.4H883.37L883.406 283H880.67ZM897.394 283.216C895.594 283.216 894.19 282.718 893.182 281.722C892.186 280.726 891.688 279.304 891.688 277.456V270.4H894.604V277.348C894.604 279.604 895.54 280.732 897.412 280.732C898.324 280.732 899.02 280.462 899.5 279.922C899.98 279.37 900.22 278.512 900.22 277.348V270.4H903.1V277.456C903.1 279.304 902.596 280.726 901.588 281.722C900.592 282.718 899.194 283.216 897.394 283.216ZM922.937 270.4V283H920.543L914.261 275.35V283H911.381V270.4H913.793L920.057 278.05V270.4H922.937ZM931.318 270.4H934.234V283H931.318V270.4ZM945.235 272.776H941.203V270.4H952.183V272.776H948.151V283H945.235V272.776ZM964.971 278.536V283H962.055V278.5L957.177 270.4H960.273L963.639 275.998L967.005 270.4H969.867L964.971 278.536ZM996.237 276.448C996.957 276.676 997.521 277.06 997.929 277.6C998.337 278.128 998.541 278.782 998.541 279.562C998.541 280.666 998.109 281.518 997.245 282.118C996.393 282.706 995.145 283 993.501 283H986.985V270.4H993.141C994.677 270.4 995.853 270.694 996.669 271.282C997.497 271.87 997.911 272.668 997.911 273.676C997.911 274.288 997.761 274.834 997.461 275.314C997.173 275.794 996.765 276.172 996.237 276.448ZM989.883 272.596V275.566H992.781C993.501 275.566 994.047 275.44 994.419 275.188C994.791 274.936 994.977 274.564 994.977 274.072C994.977 273.58 994.791 273.214 994.419 272.974C994.047 272.722 993.501 272.596 992.781 272.596H989.883ZM993.285 280.804C994.053 280.804 994.629 280.678 995.013 280.426C995.409 280.174 995.607 279.784 995.607 279.256C995.607 278.212 994.833 277.69 993.285 277.69H989.883V280.804H993.285ZM1015.9 280.66V283H1006.15V270.4H1015.67V272.74H1009.05V275.476H1014.9V277.744H1009.05V280.66H1015.9ZM1026.23 272.776H1022.2V270.4H1033.18V272.776H1029.15V283H1026.23V272.776ZM1047.82 280.3H1041.97L1040.85 283H1037.86L1043.48 270.4H1046.36L1051.99 283H1048.93L1047.82 280.3ZM1046.9 278.086L1044.9 273.262L1042.9 278.086H1046.9Z" fill="#FF5E6D"/>
<path d="M1790.45 191H1797.53V197.923H1790.45V191Z" fill="#3A444E"/>
<path d="M1837.9 237.365H1844.98V244.288H1837.9V237.365Z" fill="#3A444E"/>
<path d="M1790.45 237.365H1797.53V244.288H1790.45V237.365Z" fill="#596274"/>
<path d="M1743 237.365H1750.08V244.288H1743V237.365Z" fill="#3DE8E7"/>
<path d="M1837.9 283.73H1844.98V290.653H1837.9V283.73Z" fill="#3A444E"/>
<path d="M1790.45 283.73H1797.53V290.653H1790.45V283.73Z" fill="#3DE8E7"/>
<path d="M1788 331H1795.08V337.923H1788V331Z" fill="#9696A5"/>
<path d="M1743 283.73H1750.08V290.653H1743V283.73Z" fill="#596274"/>
<path d="M1837.9 330.095H1844.98V337.018H1837.9V330.095Z" fill="#596274"/>
<g clip-path="url(#clip0)">
<path d="M962.381 127.557L880.223 205.192C879.672 205.713 879.672 206.557 880.223 207.078L892.251 218.444C892.802 218.964 893.695 218.964 894.246 218.444L976.404 140.808C976.955 140.287 976.955 139.443 976.404 138.922L964.377 127.557C963.826 127.036 962.932 127.036 962.381 127.557Z" fill="#061612"/>
<path d="M948.357 180.575L936.33 191.941C935.779 192.461 935.779 193.306 936.33 193.826L962.385 218.448C962.936 218.969 963.83 218.969 964.381 218.448L976.409 207.082C976.96 206.562 976.96 205.717 976.409 205.197L950.353 180.575C949.802 180.055 948.908 180.055 948.357 180.575Z" fill="#061612"/>
<path d="M892.257 127.562L880.229 138.927C879.678 139.448 879.678 140.292 880.229 140.813L906.285 165.435C906.836 165.955 907.729 165.955 908.281 165.435L920.308 154.069C920.859 153.548 920.859 152.704 920.308 152.183L894.252 127.562C893.701 127.041 892.808 127.041 892.257 127.562Z" fill="#061612"/>
<path d="M1062.34 146.333V164.133H1103.34C1103.71 164.133 1104.07 164.274 1104.34 164.524C1104.6 164.774 1104.75 165.113 1104.75 165.467V180.6C1104.75 180.954 1104.6 181.293 1104.34 181.543C1104.07 181.793 1103.71 181.933 1103.34 181.933H1062.34V199.733H1103.34C1103.71 199.733 1104.07 199.874 1104.34 200.124C1104.6 200.374 1104.75 200.713 1104.75 201.067V216.2C1104.75 216.554 1104.6 216.893 1104.34 217.143C1104.07 217.393 1103.71 217.533 1103.34 217.533H1042.55C1042.18 217.533 1041.82 217.393 1041.56 217.143C1041.29 216.893 1041.14 216.554 1041.14 216.2V129.833C1041.14 129.48 1041.29 129.141 1041.56 128.891C1041.82 128.64 1042.18 128.5 1042.55 128.5H1103.34C1103.71 128.5 1104.07 128.64 1104.34 128.891C1104.6 129.141 1104.75 129.48 1104.75 129.833V145C1104.75 145.354 1104.6 145.693 1104.34 145.943C1104.07 146.193 1103.71 146.333 1103.34 146.333H1062.34Z" fill="#061612"/>
<path d="M752 129.833V144.96C752 145.314 752.149 145.653 752.413 145.903C752.678 146.153 753.037 146.293 753.411 146.293H794.408V182.8C794.408 183.154 794.556 183.493 794.821 183.743C795.085 183.993 795.444 184.133 795.819 184.133H814.204C814.578 184.133 814.937 183.993 815.202 183.743C815.466 183.493 815.615 183.154 815.615 182.8V129.833C815.615 129.48 815.466 129.141 815.202 128.891C814.937 128.64 814.578 128.5 814.204 128.5H753.411C753.037 128.5 752.678 128.64 752.413 128.891C752.149 129.141 752 129.48 752 129.833V129.833Z" fill="#061612"/>
<path d="M771.796 164.1H753.411C752.632 164.1 752 164.697 752 165.433V216.167C752 216.903 752.632 217.5 753.411 217.5H771.796C772.576 217.5 773.207 216.903 773.207 216.167V165.433C773.207 164.697 772.576 164.1 771.796 164.1Z" fill="#061612"/>
<path d="M856.619 128.5H838.233C837.454 128.5 836.822 129.097 836.822 129.833V216.167C836.822 216.903 837.454 217.5 838.233 217.5H856.619C857.398 217.5 858.03 216.903 858.03 216.167V129.833C858.03 129.097 857.398 128.5 856.619 128.5Z" fill="#061612"/>
<path d="M1018.52 128.5H1000.14C999.359 128.5 998.728 129.097 998.728 129.833V216.167C998.728 216.903 999.359 217.5 1000.14 217.5H1018.52C1019.3 217.5 1019.93 216.903 1019.93 216.167V129.833C1019.93 129.097 1019.3 128.5 1018.52 128.5Z" fill="#061612"/>
</g>
<defs>
<clipPath id="clip0">
<rect x="752" y="127" width="352.75" height="92" fill="white"/>
</clipPath>
</defs>
</svg>
