<svg width="19" height="18" viewBox="0 0 19 18" fill="none" xmlns="http://www.w3.org/2000/svg">
<g clip-path="url(#clip0)">
<path d="M8.95833 0.463177C8.8073 0.470785 8.65932 0.508233 8.52307 0.573323L2.58353 3.4113C2.4298 3.48471 2.29472 3.59154 2.18833 3.72384C2.08194 3.85613 2.00697 4.0105 1.96899 4.17548L0.503664 10.5503C0.469827 10.6972 0.46604 10.8493 0.492527 10.9976C0.519015 11.146 0.575238 11.2876 0.657869 11.414C0.677905 11.4449 0.699453 11.4748 0.722436 11.5036L4.83355 16.6152C4.93996 16.7474 5.07505 16.8542 5.22878 16.9276C5.38252 17.001 5.55094 17.0391 5.72155 17.039L12.3144 17.0375C12.4849 17.0376 12.6533 16.9997 12.807 16.9264C12.9608 16.8532 13.0959 16.7465 13.2024 16.6144L17.312 11.5021C17.4184 11.3698 17.4935 11.2153 17.5315 11.0503C17.5695 10.8853 17.5695 10.7138 17.5315 10.5488L16.0639 4.17396C16.0259 4.00899 15.9509 3.85461 15.8446 3.72232C15.7382 3.59002 15.6031 3.48319 15.4494 3.40978L9.50906 0.573323C9.33768 0.491445 9.14831 0.453571 8.95833 0.463177Z" fill="#767676"/>
<path d="M8.95515 0.00157008C8.79589 0.00991231 8.63991 0.0496827 8.49634 0.118553L2.2256 3.11377C2.06332 3.19128 1.92073 3.30405 1.80842 3.44371C1.69611 3.58337 1.61697 3.74634 1.57688 3.9205L0.0302748 10.65C-0.00555339 10.8052 -0.00962675 10.9658 0.0182964 11.1226C0.0462195 11.2793 0.10557 11.4288 0.192834 11.5624C0.214062 11.5948 0.236877 11.6263 0.261197 11.6566L4.60096 17.053C4.71329 17.1926 4.8559 17.3053 5.01818 17.3827C5.18046 17.4602 5.35824 17.5004 5.53834 17.5004L12.4981 17.4989C12.6781 17.499 12.8558 17.4589 13.0181 17.3816C13.1804 17.3042 13.323 17.1917 13.4354 17.0522L17.7737 11.655C17.886 11.5154 17.9651 11.3525 18.0052 11.1784C18.0453 11.0043 18.0454 10.8234 18.0054 10.6493L16.4565 3.91898C16.4163 3.74495 16.3371 3.58214 16.2248 3.44262C16.1125 3.30309 15.97 3.19044 15.8078 3.11301L9.53703 0.117794C9.35596 0.0312968 9.15587 -0.008669 8.95515 0.00157008V0.00157008ZM8.95819 0.463424C9.14817 0.453818 9.33754 0.491693 9.50892 0.573571L15.4492 3.41002C15.6029 3.48344 15.738 3.59026 15.8444 3.72256C15.9508 3.85486 16.0258 4.00923 16.0638 4.17421L17.5314 10.549C17.5694 10.7141 17.5693 10.8855 17.5313 11.0505C17.4933 11.2156 17.4183 11.37 17.3118 11.5023L13.2022 16.6147C13.0957 16.7468 12.9606 16.8534 12.8069 16.9267C12.6532 16.9999 12.4848 17.0379 12.3142 17.0378L5.72141 17.0393C5.5508 17.0393 5.38238 17.0012 5.22864 16.9279C5.07491 16.8545 4.93982 16.7477 4.83341 16.6154L0.722296 11.5039C0.699312 11.4751 0.677764 11.4451 0.657729 11.4142C0.575098 11.2878 0.518875 11.1462 0.492388 10.9979C0.465901 10.8495 0.469688 10.6974 0.503524 10.5505L1.96885 4.17574C2.00683 4.01076 2.0818 3.85639 2.18819 3.72409C2.29458 3.59179 2.42966 3.48497 2.58339 3.41155L8.52293 0.573578C8.65917 0.508488 8.80716 0.47104 8.95819 0.463432L8.95819 0.463424Z" fill="white"/>
<path fill-rule="evenodd" clip-rule="evenodd" d="M5.39682 6.21339L9.01766 5.16339L12.6385 6.21339L9.01766 7.26339L5.39682 6.21339Z" fill="white"/>
<path fill-rule="evenodd" clip-rule="evenodd" d="M5.39682 6.61548V10.4683L8.77043 12.337L8.78713 7.62381L5.39682 6.61548Z" fill="white"/>
<path fill-rule="evenodd" clip-rule="evenodd" d="M12.6385 6.61548V10.4683L9.26487 12.337L9.24817 7.62381L12.6385 6.61548Z" fill="white"/>
</g>
<defs>
<clipPath id="clip0">
<rect width="18.0353" height="17.5004" fill="white"/>
</clipPath>
</defs>
</svg>
