<svg width="12" height="14" viewBox="0 0 12 14" fill="none" xmlns="http://www.w3.org/2000/svg">
<path opacity="0.65" d="M7.87879 0.333313H1.21212C0.545455 0.333313 0 0.878768 0 1.54543V9.42422C0 9.75756 0.272727 10.0303 0.606061 10.0303C0.939394 10.0303 1.21212 9.75756 1.21212 9.42422V2.15149C1.21212 1.81816 1.48485 1.54543 1.81818 1.54543H7.87879C8.21212 1.54543 8.48485 1.27271 8.48485 0.939374C8.48485 0.60604 8.21212 0.333313 7.87879 0.333313ZM8.23636 3.11513L11.1636 6.0424C11.3879 6.26665 11.5152 6.57574 11.5152 6.89695V12.4545C11.5152 13.1212 10.9697 13.6666 10.303 13.6666H3.6303C2.96364 13.6666 2.42424 13.1212 2.42424 12.4545L2.4303 3.96968C2.4303 3.30301 2.9697 2.75756 3.63636 2.75756H7.37576C7.69697 2.75756 8.00606 2.88483 8.23636 3.11513ZM7.87879 6.99998H10.6061L7.27273 3.66665V6.39392C7.27273 6.72725 7.54545 6.99998 7.87879 6.99998Z" fill="#0B1420"/>
</svg>
