<svg width="24" height="24" viewBox="0 0 24 24" fill="none" xmlns="http://www.w3.org/2000/svg">
<mask id="mask0" mask-type="alpha" maskUnits="userSpaceOnUse" x="0" y="0" width="24" height="24">
<path d="M0 0H24V24H0V0Z" fill="white"/>
</mask>
<g mask="url(#mask0)">
<path fill-rule="evenodd" clip-rule="evenodd" d="M8.68 3H15.32C15.58 3 15.84 3.11 16.02 3.29L20.7 7.97C20.88 8.16 20.99 8.41 20.99 8.68V15.32C20.99 15.59 20.89 15.84 20.7 16.03L16.02 20.71C15.83 20.89 15.58 21 15.31 21H8.68C8.42 21 8.16 20.89 7.97 20.7L3.29 16.02C3.11 15.83 3 15.58 3 15.31V8.68C3 8.42 3.11 8.16 3.29 7.98L7.98 3.29C8.16 3.11 8.42 3 8.68 3ZM8.57264 9.99265C8.18212 9.60213 8.18212 8.96896 8.57264 8.57844C8.96316 8.18791 9.59633 8.18791 9.98685 8.57844L12.0653 10.6569L14.2295 8.49265C14.6201 8.10212 15.2532 8.10212 15.6437 8.49265C16.0343 8.88317 16.0343 9.51634 15.6437 9.90686L13.4795 12.0711L15.6437 14.2353C16.0342 14.6258 16.0342 15.259 15.6437 15.6495C15.2532 16.04 14.62 16.04 14.2295 15.6495L12.0653 13.4853L9.98689 15.5637C9.59636 15.9542 8.9632 15.9542 8.57267 15.5637C8.18215 15.1732 8.18215 14.54 8.57267 14.1495L10.6511 12.0711L8.57264 9.99265Z" fill="#FF4A39"/>
<path fill-rule="evenodd" clip-rule="evenodd" d="M8.68 3H15.32C15.58 3 15.84 3.11 16.02 3.29L20.7 7.97C20.88 8.16 20.99 8.41 20.99 8.68V15.32C20.99 15.59 20.89 15.84 20.7 16.03L16.02 20.71C15.83 20.89 15.58 21 15.31 21H8.68C8.42 21 8.16 20.89 7.97 20.7L3.29 16.02C3.11 15.83 3 15.58 3 15.31V8.68C3 8.42 3.11 8.16 3.29 7.98L7.98 3.29C8.16 3.11 8.42 3 8.68 3ZM8.57264 9.99265C8.18212 9.60213 8.18212 8.96896 8.57264 8.57844C8.96316 8.18791 9.59633 8.18791 9.98685 8.57844L12.0653 10.6569L14.2295 8.49265C14.6201 8.10212 15.2532 8.10212 15.6437 8.49265C16.0343 8.88317 16.0343 9.51634 15.6437 9.90686L13.4795 12.0711L15.6437 14.2353C16.0342 14.6258 16.0342 15.259 15.6437 15.6495C15.2532 16.04 14.62 16.04 14.2295 15.6495L12.0653 13.4853L9.98689 15.5637C9.59636 15.9542 8.9632 15.9542 8.57267 15.5637C8.18215 15.1732 8.18215 14.54 8.57267 14.1495L10.6511 12.0711L8.57264 9.99265Z" fill="black" fill-opacity="0.2"/>
</g>
</svg>
