<svg width="16" height="16" viewBox="0 0 16 16" fill="none" xmlns="http://www.w3.org/2000/svg">
<g opacity="0.25">
<mask id="mask0" mask-type="alpha" maskUnits="userSpaceOnUse" x="0" y="0" width="16" height="16">
<path d="M16 0H0V16H16V0Z" fill="white"/>
<path d="M16 0H0V16H16V0Z" fill="white"/>
</mask>
<g mask="url(#mask0)">
<path d="M11.6667 3C10.3667 3 8.96675 3.26667 8.00008 4C7.03341 3.26667 5.63341 3 4.33341 3C3.36675 3 2.34008 3.14667 1.48008 3.52667C0.993415 3.74667 0.666748 4.22 0.666748 4.76V12.28C0.666748 13.1467 1.48008 13.7867 2.32008 13.5733C2.97341 13.4067 3.66675 13.3333 4.33341 13.3333C5.37341 13.3333 6.48008 13.5067 7.37341 13.9467C7.77341 14.1467 8.22675 14.1467 8.62008 13.9467C9.51341 13.5 10.6201 13.3333 11.6601 13.3333C12.3267 13.3333 13.0201 13.4067 13.6734 13.5733C14.5134 13.7933 15.3267 13.1533 15.3267 12.28V4.76C15.3267 4.22 15.0001 3.74667 14.5134 3.52667C13.6601 3.14667 12.6334 3 11.6667 3ZM14.0001 11.4867C14.0001 11.9067 13.6134 12.2133 13.2001 12.14C12.7001 12.0467 12.1801 12.0067 11.6667 12.0067C10.5334 12.0067 8.90008 12.44 8.00008 13.0067V5.33333C8.90008 4.76667 10.5334 4.33333 11.6667 4.33333C12.2801 4.33333 12.8867 4.39333 13.4667 4.52C13.7734 4.58667 14.0001 4.86 14.0001 5.17333V11.4867Z" fill="white"/>
<path d="M9.32008 7.33998C9.10675 7.33998 8.91342 7.20665 8.84675 6.99332C8.76008 6.73332 8.90675 6.44665 9.16675 6.36665C10.1934 6.03332 11.5201 5.92665 12.7401 6.06665C13.0134 6.09998 13.2134 6.34665 13.1801 6.61998C13.1468 6.89332 12.9001 7.09332 12.6268 7.05998C11.5468 6.93332 10.3668 7.03332 9.47342 7.31998C9.42008 7.32665 9.36675 7.33998 9.32008 7.33998Z" fill="white"/>
<path d="M9.32008 9.11336C9.10675 9.11336 8.91342 8.98003 8.84675 8.76669C8.76008 8.50669 8.90675 8.22003 9.16675 8.14003C10.1868 7.80669 11.5201 7.70003 12.7401 7.84003C13.0134 7.87336 13.2134 8.12003 13.1801 8.39336C13.1468 8.6667 12.9001 8.8667 12.6268 8.83336C11.5468 8.7067 10.3668 8.8067 9.47342 9.09336C9.42008 9.1067 9.36675 9.11336 9.32008 9.11336Z" fill="white"/>
<path d="M9.32008 10.8867C9.10675 10.8867 8.91342 10.7533 8.84675 10.54C8.76008 10.28 8.90675 9.99334 9.16675 9.91334C10.1868 9.58001 11.5201 9.47334 12.7401 9.61334C13.0134 9.64668 13.2134 9.89334 13.1801 10.1667C13.1468 10.44 12.9001 10.6333 12.6268 10.6067C11.5468 10.48 10.3668 10.58 9.47342 10.8667C9.42008 10.88 9.36675 10.8867 9.32008 10.8867Z" fill="white"/>
</g>
</g>
</svg>
