<svg width="16" height="16" viewBox="0 0 16 16" fill="none" xmlns="http://www.w3.org/2000/svg">
<mask id="mask0" mask-type="alpha" maskUnits="userSpaceOnUse" x="0" y="0" width="16" height="16">
<path d="M0 0H16V16H0V0Z" fill="#132E38"/>
</mask>
<g mask="url(#mask0)">
<path opacity="0.65" d="M13.3334 2.66669H2.66671C1.93337 2.66669 1.34004 3.26669 1.34004 4.00002L1.33337 12C1.33337 12.7334 1.93337 13.3334 2.66671 13.3334H13.3334C14.0667 13.3334 14.6667 12.7334 14.6667 12V4.00002C14.6667 3.26669 14.0667 2.66669 13.3334 2.66669ZM13.0667 5.50002L8.35337 8.44669C8.14004 8.58002 7.86004 8.58002 7.64671 8.44669L2.93337 5.50002C2.76671 5.39335 2.66671 5.21335 2.66671 5.02002C2.66671 4.57335 3.15337 4.30669 3.53337 4.54002L8.00004 7.33335L12.4667 4.54002C12.8467 4.30669 13.3334 4.57335 13.3334 5.02002C13.3334 5.21335 13.2334 5.39335 13.0667 5.50002Z" fill="#132E38"/>
</g>
</svg>
