<svg width="24" height="24" viewBox="0 0 24 24" fill="none" xmlns="http://www.w3.org/2000/svg">
<mask id="mask0" mask-type="alpha" maskUnits="userSpaceOnUse" x="0" y="0" width="24" height="24">
<rect width="24" height="24" fill="white"/>
</mask>
<g mask="url(#mask0)">
<path opacity="0.7" d="M7.71428 12C7.71428 11.498 7.28787 11.0909 6.7619 11.0909H2.95238C2.42641 11.0909 2 11.498 2 12C2 12.5021 2.42641 12.9091 2.95238 12.9091H6.7619C7.28787 12.9091 7.71428 12.5021 7.71428 12Z" fill="#0B1420"/>
<path opacity="0.1" d="M21.0476 11.0909H19.1428C18.6168 11.0909 18.1904 11.498 18.1904 12C18.1904 12.5021 18.6168 12.9091 19.1428 12.9091H21.0476C21.5735 12.9091 22 12.5021 22 12C22 11.498 21.5735 11.0909 21.0476 11.0909Z" fill="#0B1420"/>
<path d="M12.4762 7.45455C13.0022 7.45455 13.4286 7.04752 13.4286 6.54545V2.90909C13.4286 2.40703 13.0022 2 12.4762 2C11.9502 2 11.5238 2.40703 11.5238 2.90909V6.54545C11.5238 7.04752 11.9502 7.45455 12.4762 7.45455Z" fill="#0B1420"/>
<path opacity="0.4" d="M12.4762 16.5454C11.9502 16.5454 11.5238 16.9524 11.5238 17.4545V21.0909C11.5238 21.5929 11.9502 22 12.4762 22C13.0022 22 13.4286 21.5929 13.4286 21.0909V17.4545C13.4286 16.9524 13.0022 16.5454 12.4762 16.5454Z" fill="#0B1420"/>
<path opacity="0.85" d="M6.41536 4.92885C6.04355 4.57382 5.4405 4.57388 5.0685 4.92885C4.69657 5.28388 4.69657 5.85945 5.0685 6.21448L7.76228 8.78588C7.94825 8.96339 8.192 9.05218 8.43568 9.05218C8.67936 9.05218 8.92317 8.96339 9.10907 8.78594C9.48101 8.43091 9.48101 7.85533 9.10907 7.5003L6.41536 4.92885Z" fill="#0B1420"/>
<path opacity="0.25" d="M17.1902 15.2142C16.8184 14.8593 16.2153 14.8593 15.8434 15.2142C15.4714 15.5693 15.4715 16.1448 15.8434 16.4999L18.5372 19.0711C18.7232 19.2487 18.9669 19.3374 19.2107 19.3374C19.4544 19.3374 19.6982 19.2486 19.8841 19.0711C20.256 18.7161 20.256 18.1405 19.8841 17.7855L17.1902 15.2142Z" fill="#0B1420"/>
<path opacity="0.55" d="M7.76222 15.2141L5.0685 17.7854C4.69657 18.1405 4.69657 18.716 5.0685 19.0711C5.25447 19.2486 5.49822 19.3373 5.74196 19.3373C5.98571 19.3373 6.22946 19.2486 6.41536 19.0711L9.10907 16.4998C9.48101 16.1448 9.48101 15.5692 9.10907 15.2141C8.73714 14.8591 8.13409 14.8591 7.76222 15.2141Z" fill="#0B1420"/>
</g>
</svg>
