<svg width="16" height="16" viewBox="0 0 16 16" fill="none" xmlns="http://www.w3.org/2000/svg">
<mask id="mask0" mask-type="alpha" maskUnits="userSpaceOnUse" x="0" y="0" width="16" height="16">
<path d="M0 0H16V16H0V0Z" fill="#132E38"/>
</mask>
<g mask="url(#mask0)">
<path opacity="0.65" d="M12.82 10.1734L11.1267 9.98002C10.72 9.93335 10.32 10.0733 10.0334 10.36L8.80669 11.5867C6.92003 10.6267 5.37336 9.08668 4.41336 7.19335L5.64669 5.96002C5.93336 5.67335 6.07336 5.27335 6.02669 4.86668L5.83336 3.18668C5.75336 2.51335 5.18669 2.00668 4.50669 2.00668H3.35336C2.60003 2.00668 1.97336 2.63335 2.02003 3.38668C2.37336 9.08002 6.92669 13.6267 12.6134 13.98C13.3667 14.0267 13.9934 13.4 13.9934 12.6467V11.4934C14 10.82 13.4934 10.2534 12.82 10.1734Z" fill="#132E38"/>
</g>
</svg>
